<svg width="263" height="264" viewBox="0 0 263 264" fill="none" xmlns="http://www.w3.org/2000/svg">
<path d="M97.522 157.293C99.7396 157.293 101.429 156.554 103.172 155.762C104.386 155.181 105.6 154.759 106.868 154.442C107.765 154.231 108.61 153.861 109.455 153.439L109.56 153.386C109.93 153.228 110.3 153.016 110.669 152.858C110.986 152.7 111.303 152.594 111.672 152.488C113.732 151.96 114.576 152.172 116.319 152.647C116.794 152.752 117.322 152.911 117.956 153.069C118.589 153.228 119.434 153.386 120.226 153.544C123.764 154.231 127.354 154.706 130.997 154.917H131.42C132.687 154.97 133.69 154.97 134.588 154.917C137.967 154.759 141.716 153.28 142.824 150.693C143.986 152.488 145.412 154.336 147.682 155.604C149.477 156.607 151.748 157.135 154.599 157.24C156.288 157.293 157.925 157.24 159.562 157.082C164.367 156.66 172.92 155.181 176.933 150.324C178.781 153.016 182.424 155.023 186.437 155.445C191.453 156.026 195.888 154.442 198.37 151.274C199.109 152.858 200.271 154.178 201.644 155.181C201.802 155.287 202.066 155.287 202.172 155.128C202.277 154.97 202.224 154.706 202.066 154.6C200.588 153.597 199.426 152.119 198.792 150.429C198.74 150.271 198.634 150.218 198.476 150.165C198.317 150.165 198.212 150.218 198.106 150.324C195.836 153.65 191.506 155.287 186.437 154.759C182.424 154.284 178.834 152.224 177.197 149.532C177.144 149.426 177.039 149.373 176.88 149.32C176.775 149.32 176.616 149.373 176.564 149.479C172.92 154.442 164.261 155.92 159.404 156.343C157.767 156.501 156.13 156.554 154.493 156.501C151.748 156.396 149.636 155.868 147.893 154.917C145.517 153.597 144.092 151.485 142.877 149.637C142.772 149.479 142.508 149.426 142.349 149.532C142.244 149.584 142.191 149.69 142.191 149.743C141.61 152.383 137.756 153.967 134.376 154.125C133.532 154.178 132.528 154.178 131.314 154.125H130.892C127.301 153.914 123.764 153.439 120.226 152.752C119.434 152.594 118.695 152.436 118.008 152.277C117.322 152.119 116.9 152.013 116.424 151.855C114.629 151.38 113.626 151.116 111.408 151.696C111.039 151.802 110.669 151.908 110.3 152.066C109.93 152.224 109.56 152.383 109.138 152.594L109.032 152.647C108.293 153.069 107.448 153.386 106.604 153.597C105.284 153.914 103.964 154.389 102.749 154.97C100.584 155.92 98.5252 156.818 95.4628 156.237C92.1364 155.604 89.6548 153.122 90.0244 150.852C90.0772 150.64 89.9188 150.482 89.7604 150.429C89.5492 150.376 89.3908 150.482 89.2852 150.693C88.1764 153.914 82.8436 155.498 78.6196 154.917C78.5668 154.917 78.514 154.917 78.514 154.917C74.818 154.389 71.1748 152.647 67.426 149.479C67.3204 149.426 67.2676 149.373 67.162 149.373C67.0564 149.373 66.9508 149.426 66.898 149.532C64.5748 152.436 61.8292 154.178 58.7668 154.759C55.3876 155.34 50.9524 154.125 50.1604 151.485C50.1076 151.327 50.002 151.221 49.8436 151.221C49.6852 151.221 49.5796 151.274 49.474 151.38C47.3092 154.336 42.8212 156.343 38.2804 156.343C33.7396 156.343 29.1988 154.442 26.9812 151.485C26.9284 151.38 26.8228 151.327 26.7172 151.327C26.6116 151.327 26.506 151.38 26.4532 151.432C23.7604 153.808 19.1668 155.023 15.0484 154.442C14.8372 154.442 14.626 154.548 14.626 154.759C14.5732 154.97 14.7316 155.128 14.9428 155.181C19.2196 155.762 23.7604 154.6 26.6644 152.224C29.0932 155.128 33.634 157.029 38.2276 157.029H38.3332C42.874 157.029 47.3092 155.181 49.6852 152.277C51.058 154.917 55.4404 156.026 58.8724 155.445C62.0404 154.864 64.8388 153.122 67.2148 150.271C70.9636 153.333 74.6068 155.076 78.3556 155.604H78.4612C82.474 156.132 87.3316 154.864 89.2852 152.172C89.8132 154.389 92.1892 156.396 95.2516 156.976C96.1492 157.24 96.8356 157.346 97.522 157.293Z" fill="#D1D3D4"/>
<path d="M210.986 158.139C216.002 158.139 220.912 155.869 223.13 152.49C229.043 157.136 238.653 158.773 246.098 156.344C246.309 156.239 246.362 156.027 246.309 155.816C246.256 155.658 246.045 155.552 245.887 155.605C238.547 158.034 229.043 156.344 223.341 151.645C223.235 151.592 223.13 151.539 223.024 151.592C222.919 151.592 222.813 151.698 222.76 151.803C220.701 155.341 215.368 157.717 210.141 157.4C209.613 157.347 209.085 157.295 208.557 157.242C208.346 157.189 208.135 157.347 208.135 157.559C208.082 157.77 208.24 157.981 208.451 158.034C208.979 158.139 209.56 158.192 210.141 158.245C210.352 158.139 210.669 158.139 210.986 158.139Z" fill="#D1D3D4"/>
<path d="M241.033 174.348C243.198 174.348 245.257 173.397 246.63 171.761C246.735 171.602 246.735 171.391 246.577 171.233C246.418 171.127 246.207 171.127 246.049 171.285C243.726 174.031 239.607 174.401 236.809 172.077C236.122 171.497 235.594 170.81 235.172 170.018C235.119 169.913 235.066 169.86 234.961 169.807C234.855 169.754 234.75 169.807 234.644 169.86C232.796 170.969 230.895 172.077 228.783 172.447C225.51 172.975 222.078 171.497 219.332 170.335C219.121 170.282 218.91 170.388 218.857 170.599C218.804 170.757 218.857 170.969 219.015 171.021C221.866 172.236 225.351 173.767 228.889 173.186C231.001 172.817 232.954 171.708 234.697 170.705C236.017 172.975 238.446 174.401 241.033 174.348Z" fill="#D1D3D4"/>
<path d="M46.2003 174.612C48.3123 174.664 50.3716 173.872 51.8499 172.341C52.0083 172.183 52.0083 171.919 51.8499 171.813C51.6915 171.708 51.4276 171.655 51.322 171.813C49.1572 174.189 45.4611 174.189 42.9267 173.239C39.9171 172.13 37.5411 169.754 35.5875 167.642C35.4819 167.536 35.3763 167.484 35.2707 167.536C35.1651 167.536 35.0595 167.642 35.0067 167.748C31.6803 173.186 24.5524 174.876 19.114 171.549C19.114 171.549 19.1139 171.549 19.0611 171.549C18.9027 171.391 18.6387 171.444 18.5331 171.602C18.4275 171.76 18.4276 172.024 18.586 172.13L18.6387 172.183C24.2883 175.668 31.6275 174.084 35.3235 168.54C37.2771 170.652 39.6531 172.869 42.61 173.978C43.7716 174.4 44.9859 174.612 46.2003 174.612Z" fill="#D1D3D4"/>
<path d="M173.504 167.111C175.405 167.111 177.2 166.478 178.678 165.316C178.837 165.158 178.837 164.947 178.731 164.788C178.573 164.63 178.361 164.63 178.203 164.735C175.405 167.059 170.705 166.847 168.171 164.207C168.065 164.049 167.801 163.996 167.643 164.102C167.485 164.207 167.432 164.471 167.537 164.63C167.59 164.683 167.59 164.683 167.643 164.735C169.227 166.267 171.339 167.111 173.504 167.111Z" fill="#D1D3D4"/>
<path d="M20.528 196.928C20.3696 196.928 20.264 196.876 20.2112 196.77C20.1056 196.612 20.1584 196.348 20.3168 196.242C20.528 196.136 40.5392 183.57 58.28 177.656C60.8672 176.812 63.56 175.967 66.2528 175.175C83.4656 170.264 99.6752 168.416 114.512 169.631C119.739 170.053 125.706 170.687 132.728 171.584C135.526 171.954 138.589 172.376 142.39 172.904C145.558 173.327 148.779 173.802 152 174.277L161.029 175.597C168.368 176.706 175.918 177.815 183.258 178.818C187.534 179.399 191.072 179.874 194.293 180.243C198.781 180.771 203.163 181.247 207.282 181.669C226.976 183.464 240.176 182.884 248.782 179.927C248.994 179.874 249.205 179.98 249.258 180.138C249.31 180.349 249.205 180.56 248.994 180.613C240.282 183.623 226.976 184.151 207.123 182.408C203.005 182.039 198.622 181.564 194.134 180.983C190.861 180.613 187.376 180.138 183.046 179.557C175.707 178.554 168.104 177.445 160.765 176.336C157.755 175.861 154.746 175.439 151.736 175.016C148.515 174.541 145.294 174.066 142.179 173.643C138.378 173.115 135.315 172.693 132.517 172.323C125.547 171.426 119.581 170.792 114.354 170.37C99.6224 169.156 83.4656 171.056 66.3584 175.914C63.6656 176.653 60.9728 177.498 58.3856 178.343C40.7504 184.256 20.792 196.717 20.5808 196.875C20.6336 196.875 20.5808 196.928 20.528 196.928Z" fill="#D1D3D4"/>
<path d="M204.334 102.489C204.545 102.489 204.703 102.331 204.703 102.12C204.703 101.908 204.545 101.75 204.334 101.75C204.122 101.75 203.964 101.908 203.964 102.12C203.964 102.278 204.122 102.489 204.334 102.489Z" fill="#D1D3D4"/>
<path d="M204.175 103.807C204.333 103.807 204.492 103.702 204.544 103.491C204.544 103.438 204.544 103.438 204.544 103.385C204.597 103.174 204.439 102.963 204.228 102.963C204.016 102.91 203.858 103.015 203.805 103.227C203.805 103.279 203.805 103.279 203.805 103.332C203.752 103.543 203.858 103.755 204.069 103.807H204.175Z" fill="#D1D3D4"/>
<path d="M206.443 102.274C206.654 102.274 206.812 102.116 206.812 101.905C206.812 101.746 206.707 101.588 206.549 101.535L206.496 101.482C206.285 101.429 206.073 101.535 206.021 101.746C205.968 101.905 206.073 102.116 206.232 102.169L206.285 102.221L206.443 102.274Z" fill="#D1D3D4"/>
<path d="M211.039 183.058C211.145 183.058 211.198 183.005 211.303 182.952C211.409 182.847 211.462 182.741 211.409 182.583C210.089 174.24 209.244 165.898 208.822 157.45C207.924 141.557 207.977 124.978 208.241 113.943C208.241 113.731 208.083 113.573 207.871 113.573C207.66 113.573 207.502 113.731 207.502 113.943C207.291 125.031 207.185 141.61 208.083 157.555C208.505 165.792 209.35 173.976 210.617 182.107C208.294 181.315 205.865 180.576 203.489 179.943C203.067 174.135 202.591 165.159 202.327 154.863C201.905 136.33 202.486 120.279 204.07 107.079C204.07 106.867 203.964 106.656 203.753 106.656C203.542 106.656 203.331 106.762 203.331 106.973C201.694 120.173 201.113 136.277 201.535 154.863C201.747 165.317 202.275 174.399 202.697 180.259C202.697 180.418 202.803 180.576 202.961 180.576C205.654 181.315 208.347 182.16 210.934 183.005L211.039 183.058Z" fill="#D1D3D4"/>
<path d="M207.025 103.808C207.236 103.808 207.394 103.65 207.394 103.438C207.394 103.386 207.394 103.386 207.394 103.333C207.342 102.91 207.289 102.488 207.289 102.066C207.289 100.006 207.711 97.9472 208.503 96.0464C209.454 93.8288 210.721 91.8225 212.358 90.0801C217.796 84.0609 228.567 81.4209 231.366 80.8401C230.521 83.0049 229.465 85.0641 228.145 86.9649L222.548 87.7041C222.39 87.7041 222.231 87.8625 222.231 88.0209C222.231 88.1793 222.284 88.3377 222.442 88.4433L226.772 90.2385C225.98 91.4528 223.446 95.2017 221.281 96.5217L215.737 95.2544C215.578 95.2016 215.367 95.3073 215.314 95.4657C215.209 95.6241 215.262 95.8353 215.42 95.9409L218.694 98.9504C218.482 99.056 218.166 99.2145 217.796 99.4257C217.638 99.5313 217.585 99.7953 217.69 99.9537C217.796 100.112 218.007 100.165 218.166 100.112C219.01 99.6369 219.538 99.3729 219.538 99.3729C219.644 99.3201 219.697 99.2145 219.697 99.0561C219.697 98.9505 219.644 98.7921 219.591 98.7393L217.004 96.3633L221.281 97.3664C221.386 97.3664 221.492 97.3665 221.545 97.3137C224.29 95.7297 227.564 90.5553 227.722 90.3441C227.775 90.2385 227.775 90.1329 227.775 90.0273C227.722 89.9217 227.67 89.8161 227.564 89.8161L224.132 88.3377L228.462 87.7569C228.567 87.7569 228.673 87.7041 228.726 87.5985C230.257 85.3809 231.471 83.0049 232.369 80.5233C232.422 80.4177 232.369 80.2593 232.316 80.1537C232.21 80.0481 232.105 79.9953 231.946 80.0481C231.418 80.1537 218.271 82.5825 211.83 89.6577C210.14 91.4529 208.82 93.5649 207.87 95.8353C207.025 97.8417 206.602 100.006 206.602 102.171C206.602 102.646 206.655 103.122 206.708 103.544V103.597V103.65C206.708 103.702 206.866 103.808 207.025 103.808Z" fill="#D1D3D4"/>
<path d="M220.489 139.026H220.542C220.7 138.973 220.806 138.867 220.806 138.762C220.858 138.656 224.396 125.667 219.908 115.635C218.588 112.626 216.687 109.88 214.311 107.61C210.668 104.125 207.289 103.122 207.13 103.069C207.025 103.016 206.919 103.069 206.814 103.122C206.708 103.174 206.655 103.28 206.655 103.386C206.127 107.082 206.18 110.83 206.866 114.526C206.866 114.632 206.972 114.79 207.13 114.79C207.236 114.843 207.394 114.79 207.5 114.738L209.612 113.154L208.028 116.269C207.975 116.322 207.975 116.427 207.975 116.48C208.292 119.754 209.665 126.09 210.404 126.565C210.51 126.618 210.668 126.67 210.774 126.618C211.143 126.512 211.83 125.72 212.516 124.77L211.618 128.254C211.566 128.36 211.618 128.518 211.671 128.571L220.172 138.867C220.225 138.973 220.33 139.026 220.489 139.026ZM207.342 103.966C209.77 104.917 211.935 106.395 213.783 108.19C216.106 110.408 217.954 113.048 219.222 116.005C222.97 124.4 220.911 135.013 220.278 137.864L212.358 128.254L213.73 122.71C213.783 122.499 213.678 122.341 213.519 122.235C213.361 122.182 213.15 122.235 213.044 122.394C212.358 123.608 211.566 124.717 210.668 125.773C210.246 124.822 209.084 120.123 208.662 116.533L210.985 111.992C211.09 111.834 211.038 111.622 210.879 111.517C210.721 111.411 210.562 111.411 210.404 111.517L207.447 113.734C206.972 110.566 206.919 107.24 207.342 103.966Z" fill="#D1D3D4"/>
<path d="M232.002 111.835C232.107 111.835 232.213 111.782 232.266 111.729C232.371 111.623 232.371 111.518 232.371 111.412L232.002 108.983L234.166 111.623C234.272 111.729 234.378 111.782 234.483 111.782L248.95 110.251C249.109 110.251 249.214 110.145 249.267 109.987C249.32 109.828 249.267 109.723 249.214 109.617C248.95 109.3 242.562 102.383 227.038 99.9018C224.029 99.3738 220.966 99.1626 217.904 99.321C212.624 99.585 209.562 101.011 207.925 102.172C207.502 102.489 207.08 102.806 206.71 103.228C206.552 103.387 206.552 103.598 206.71 103.756C206.869 103.915 207.08 103.915 207.238 103.756C207.555 103.387 207.925 103.07 208.294 102.806C209.562 101.908 212.466 100.377 217.851 100.113C220.861 100.007 223.818 100.219 226.774 100.694C239.446 102.753 246.046 107.927 247.947 109.617L234.483 110.99L231.526 107.399C231.421 107.241 231.157 107.188 230.998 107.347C230.893 107.452 230.84 107.558 230.84 107.716L231.368 110.99L222.392 109.564L220.016 105.129C219.91 104.971 219.752 104.865 219.594 104.918C219.435 104.971 219.33 105.129 219.33 105.287L219.646 109.828C218.696 109.459 216.531 108.667 214.208 107.558C213.997 107.452 213.786 107.558 213.68 107.769C213.574 107.98 213.627 108.191 213.838 108.297C213.838 108.297 213.838 108.297 213.891 108.297C217.059 109.775 219.91 110.779 219.963 110.779C220.069 110.831 220.227 110.779 220.333 110.726C220.438 110.673 220.491 110.515 220.491 110.409L220.28 106.977L221.97 110.092C222.022 110.198 222.128 110.251 222.234 110.303L231.949 111.835H232.002Z" fill="#D1D3D4"/>
<path d="M207.023 103.807C207.129 103.807 207.235 103.754 207.287 103.701C207.393 103.595 207.446 103.437 207.393 103.279C207.393 103.173 207.287 102.962 207.182 102.645C207.129 102.592 207.129 102.487 207.076 102.434C207.023 102.381 206.971 102.117 206.865 101.906L206.812 101.747C205.228 97.7346 199.156 87.9138 193.982 84.0594C187.54 79.2546 180.254 77.5122 178.511 77.1426C178.828 76.1394 180.359 73.2354 188.015 73.2882C190.814 77.5122 190.919 77.5122 191.236 77.4066C191.395 77.3538 191.5 77.1954 191.5 76.9842C191.5 76.773 191.5 74.8194 191.5 73.2882C192.926 73.605 197.414 74.8194 200.74 78.357L200.423 81.9474C200.423 82.1058 200.476 82.2114 200.582 82.317C200.687 82.4226 200.846 82.4226 201.004 82.317L203.275 80.8914C204.119 82.5282 207.393 89.2866 207.763 95.8866C207.763 96.0978 207.921 96.2562 208.132 96.2562C208.132 96.2562 208.132 96.2562 208.185 96.2562C208.396 96.2562 208.555 96.045 208.555 95.8338C208.079 88.0722 203.803 80.205 203.75 80.0994C203.697 79.9938 203.591 79.941 203.539 79.8882C203.433 79.8354 203.327 79.8882 203.222 79.941L201.268 81.2082L201.532 78.2514C201.532 78.1458 201.532 78.0402 201.427 77.9346C197.308 73.3938 191.447 72.4434 191.183 72.3906C191.078 72.3906 190.972 72.3906 190.867 72.4962C190.761 72.549 190.708 72.6546 190.761 72.7602C190.761 73.0242 190.761 74.7138 190.761 75.8754C190.18 75.0834 189.335 73.8162 188.543 72.6546C188.491 72.549 188.332 72.4962 188.227 72.4962C178.036 72.3378 177.667 77.1954 177.667 77.4066C177.667 77.6178 177.772 77.7762 177.983 77.829C183.58 78.9906 188.913 81.3138 193.507 84.693C198.523 88.4418 204.595 98.2098 206.073 102.064L206.126 102.223C206.179 102.434 206.284 102.592 206.337 102.751C206.39 102.803 206.39 102.909 206.443 102.962C206.548 103.226 206.601 103.437 206.654 103.49C206.654 103.648 206.812 103.807 207.023 103.807Z" fill="#D1D3D4"/>
<path d="M206.976 103.807C207.24 103.807 207.398 103.648 207.398 103.437C207.398 103.384 207.398 103.384 207.398 103.331C207.398 103.331 207.398 103.331 207.398 103.279C207.398 103.226 207.293 102.962 207.187 102.645C207.134 102.592 207.134 102.487 207.082 102.434L207.029 102.381C206.923 102.17 206.87 101.959 206.712 101.747C205.234 98.6322 200.693 91.0818 190.027 87.9666C176.458 84.0066 167.376 87.7554 167.323 87.8082C167.218 87.861 167.165 87.9666 167.112 88.0722C167.059 88.1778 167.112 88.2834 167.165 88.389C168.907 90.7122 171.23 92.613 173.818 93.8802C174.029 93.9858 174.24 93.933 174.346 93.7218L175.402 91.557L175.613 93.933C175.613 94.0386 175.666 94.0914 175.718 94.197C175.824 94.3026 178.042 96.2034 183.322 96.7314C183.48 96.7314 183.638 96.6786 183.691 96.5202L185.275 93.0354L186.014 96.837C186.014 96.9426 186.12 97.0482 186.226 97.101C186.437 97.2066 191.981 99.5826 195.466 100.005C195.624 100.005 195.782 99.8994 195.888 99.7938L196.363 98.6322L196.733 100.058C196.786 100.269 197.05 100.375 197.208 100.269C197.366 100.216 197.472 100.005 197.472 99.8466L196.786 97.365C196.733 97.2066 196.627 97.101 196.416 97.101C196.258 97.101 196.099 97.2066 196.046 97.3122L195.254 99.213C192.192 98.7906 187.651 96.8898 186.701 96.5202L185.803 91.7154C185.75 91.557 185.645 91.4514 185.486 91.3986C185.328 91.3986 185.17 91.4514 185.064 91.6098L183.11 95.9394C178.939 95.4642 176.827 94.0914 176.299 93.7218L175.982 90.1314C175.982 89.973 175.824 89.8146 175.666 89.8146C175.507 89.7618 175.349 89.8674 175.243 90.0258L173.765 93.0354C171.547 91.8738 169.594 90.2898 168.01 88.3362C170.016 87.6498 178.147 85.3266 189.763 88.7058C200.165 91.7682 204.547 99.0546 205.973 102.064L206.29 102.698L206.342 102.803C206.342 102.856 206.395 102.909 206.395 102.962V103.015C206.237 103.015 206.078 103.12 205.973 103.279C205.92 103.49 206.026 103.701 206.237 103.754C206.29 103.754 206.342 103.754 206.395 103.754H206.501H206.606L206.976 103.807Z" fill="#D1D3D4"/>
<path d="M168.96 111.724C169.066 111.724 169.171 111.672 169.224 111.619L170.966 109.612V110.932C170.966 111.144 171.125 111.302 171.283 111.302C173.289 111.513 175.349 111.408 177.355 110.932C177.408 110.932 177.461 110.88 177.513 110.827L179.995 108.081L179.52 110.088C179.467 110.193 179.52 110.352 179.573 110.404C179.678 110.51 179.784 110.563 179.889 110.51C179.995 110.51 182.635 110.193 190.608 106.497C198.422 102.907 206.818 103.752 206.87 103.752C207.029 103.752 207.24 103.646 207.293 103.488C207.345 103.329 207.293 103.118 207.134 103.012C195.782 96.5708 184.008 98.8412 177.461 102.801C170.122 107.184 163.416 107.025 163.363 107.025C163.205 107.025 163.099 107.078 163.046 107.184C162.994 107.289 162.994 107.448 163.046 107.553C164.842 110.88 168.696 111.566 168.854 111.566L168.96 111.724ZM171.389 108.24C171.283 108.24 171.178 108.292 171.125 108.345L168.854 110.932C168.115 110.774 165.633 110.088 164.155 107.923C169.065 107.606 173.818 106.128 177.989 103.593C184.114 99.8972 194.832 97.6796 205.392 103.012C202.488 102.96 196.31 103.224 190.449 105.916C184.589 108.609 181.632 109.454 180.523 109.718L181.262 106.814C181.315 106.656 181.209 106.444 181.051 106.392C180.893 106.286 180.681 106.339 180.576 106.497L177.144 110.299C175.402 110.721 173.659 110.827 171.864 110.668V108.715C171.864 108.556 171.758 108.398 171.6 108.345C171.494 108.24 171.442 108.24 171.389 108.24Z" fill="#D1D3D4"/>
<path d="M185.593 132.373C185.646 132.373 185.698 132.373 185.698 132.373C189.553 131.106 194.199 126.248 194.358 126.037C194.41 125.984 194.463 125.878 194.463 125.773V122.499L195.361 123.819C195.414 123.925 195.572 123.978 195.678 123.978C195.783 123.978 195.942 123.925 195.994 123.819L199.849 117.694C199.902 117.589 199.902 117.483 199.902 117.378L198.898 114.632L199.849 115.213C199.954 115.266 200.113 115.266 200.218 115.266C200.324 115.213 200.43 115.107 200.43 115.002C201.01 112.203 202.225 109.616 203.967 107.346C204.918 106.026 206.026 104.864 207.241 103.808C207.346 103.702 207.399 103.544 207.346 103.386C207.294 103.227 207.135 103.122 206.977 103.122C206.924 103.122 206.924 103.122 206.871 103.122H206.66H206.607C205.762 103.069 204.918 103.069 204.073 103.122C193.566 103.808 190.398 112.045 190.398 112.15C190.345 112.362 190.398 112.573 190.609 112.626L192.774 113.576L189.236 114.685C189.13 114.738 189.025 114.79 189.025 114.896C185.065 122.816 185.17 132.056 185.17 132.109C185.17 132.214 185.223 132.32 185.329 132.426C185.434 132.373 185.487 132.373 185.593 132.373ZM193.724 125.614C193.038 126.301 189.236 130.102 185.962 131.422C186.015 129.363 186.385 121.866 189.658 115.213L194.041 113.893C194.199 113.84 194.305 113.734 194.305 113.576C194.305 113.418 194.199 113.259 194.094 113.206L191.295 111.992C191.982 110.514 195.414 104.389 204.178 103.808C204.759 103.755 205.393 103.755 206.079 103.755C205.076 104.706 204.178 105.709 203.386 106.818C201.697 109.035 200.482 111.57 199.849 114.262L198.423 113.365C198.265 113.259 198.106 113.312 198.001 113.418C197.895 113.523 197.842 113.682 197.895 113.84L199.215 117.43L195.783 122.922L194.516 121.021C194.41 120.862 194.252 120.81 194.094 120.862C193.935 120.915 193.83 121.074 193.83 121.232L193.724 125.614Z" fill="#D1D3D4"/>
<path d="M79.9922 49.7384V68.2712C79.9922 70.0664 78.5138 71.5448 76.7186 71.5448H69.749L63.3602 76.3496L64.4162 71.5448H57.5522C55.757 71.5448 54.2786 70.0664 54.2786 68.2712V49.7384C54.2786 47.9432 55.757 46.4648 57.5522 46.4648H76.7714C78.5138 46.4648 79.9922 47.9432 79.9922 49.7384Z" fill="white"/>
<path d="M63.3616 76.7705C63.4672 76.7705 63.52 76.7178 63.5728 76.7178L69.9088 72.0185H76.7727C78.7792 72.0185 80.4688 70.3289 80.4688 68.3225V49.7369C80.4688 47.7305 78.832 46.0938 76.7727 46.0938H57.5536C55.5472 46.0938 53.9104 47.7305 53.8576 49.7369V68.2698C53.8576 70.2761 55.4944 71.9657 57.5007 71.9657H63.8896L62.9392 76.2953C62.8864 76.4537 62.992 76.6122 63.0976 76.7178C63.2032 76.7705 63.256 76.7705 63.3616 76.7705ZM76.7199 46.8329C78.3039 46.8329 79.6239 48.1529 79.6239 49.7369V68.2698C79.6239 69.8538 78.3039 71.1737 76.7199 71.1737H69.7504C69.6448 71.1737 69.592 71.1737 69.5392 71.2265L63.9424 75.3977L64.7872 71.5962C64.84 71.385 64.6816 71.1737 64.5232 71.1209C64.4704 71.1209 64.4704 71.1209 64.4176 71.1209H57.5536C55.9696 71.1209 54.6496 69.8009 54.6496 68.2169V49.7369C54.6496 48.1529 55.9696 46.8329 57.5536 46.8329H76.7199Z" fill="#D1D3D4"/>
<path d="M66.4265 67.1605C66.4265 67.1605 75.2969 61.4581 75.1385 55.9669C74.9801 50.4757 70.2281 50.9509 68.5913 51.7957C66.9545 52.6405 65.9513 54.7525 65.9513 54.7525C65.2649 52.9045 63.5753 51.5845 61.5689 51.4789C58.1369 51.3205 56.7113 54.4357 59.1929 59.8213C60.6713 63.0421 63.2057 65.6293 66.4265 67.1605Z" fill="#D2B0FF"/>
<path d="M43.9844 43.9285V56.4949C43.9844 57.7093 42.9812 58.7125 41.7668 58.7125H37.0148L36.9092 65.5237L33.4244 58.7125H28.778C27.5636 58.7125 26.5604 57.7093 26.5604 56.4949V43.9285C26.5604 42.7141 27.5636 41.7109 28.8308 41.7109H41.8724C42.9812 41.7109 43.9844 42.7141 43.9844 43.9285Z" fill="white"/>
<path d="M36.9086 65.9467H36.9614C37.1198 65.8939 37.2255 65.7355 37.2783 65.5771L37.4366 59.1355H41.7663C43.1919 59.1355 44.4062 57.9211 44.4062 56.4955V43.9291C44.4062 42.5035 43.2447 41.2891 41.7663 41.2891H28.7246C27.2462 41.2891 26.0846 42.4507 26.0846 43.9291V56.4955C26.0846 57.9739 27.2462 59.1355 28.7246 59.1355H33.1598L36.5918 65.7355C36.6446 65.8939 36.7502 65.9467 36.9086 65.9467ZM41.7663 42.0811C42.7694 42.0811 43.6143 42.9259 43.6143 43.9291V56.4955C43.6143 57.4987 42.7694 58.3435 41.7663 58.3435H37.0142C36.8031 58.3435 36.6446 58.5019 36.6446 58.7131L36.5391 64.0459L33.7406 58.5547C33.6878 58.4491 33.5294 58.3435 33.4238 58.3435H28.7774C27.7742 58.3435 26.9294 57.4987 26.9294 56.4955V43.9291C26.9294 42.9259 27.7742 42.0811 28.7774 42.0811H41.7663Z" fill="#D1D3D4"/>
<path d="M34.8002 55.7556C34.8002 55.7556 40.8194 51.9012 40.661 48.1524C40.5026 44.4036 37.3346 44.7732 36.2258 45.354C35.4866 45.8292 34.853 46.5156 34.4306 47.3604C33.9554 46.0932 32.7938 45.1956 31.4738 45.1428C29.1506 45.0372 28.2002 47.1492 29.837 50.7924C30.8402 52.9572 32.5826 54.6996 34.8002 55.7556Z" fill="#D2B0FF"/>
<path d="M129.831 52.9054C134.319 55.0702 137.487 59.1886 138.49 64.099C138.807 65.4718 138.807 66.8446 138.543 68.2174C137.645 71.9662 133.685 74.395 129.831 74.4478C125.976 74.5006 122.333 72.7054 119.271 70.3822C115.363 67.4782 110.559 60.8254 113.093 55.5982C115.68 50.2126 125.448 50.7934 129.831 52.9054Z" fill="#231F20"/>
<path d="M129.621 74.8737H129.885C134.215 74.8209 138.122 71.9697 138.967 68.3265C139.284 66.9009 139.231 65.4225 138.914 64.0497C137.858 59.0865 134.584 54.8625 130.044 52.5921C125.503 50.4273 115.471 49.8465 112.778 55.4961C110.191 60.8817 114.89 67.6401 119.114 70.7553C122.757 73.4481 126.295 74.8737 129.621 74.8737ZM122.229 51.7473C124.816 51.7473 127.351 52.2225 129.674 53.2785C134.004 55.4433 137.119 59.4561 138.122 64.2081C138.439 65.5281 138.439 66.8481 138.175 68.1681C137.277 71.9697 133.212 74.0817 129.832 74.1345C126.612 74.1873 123.127 72.8673 119.484 70.1745C115.629 67.3233 111.036 60.7761 113.412 55.8657C114.837 52.8561 118.533 51.7473 122.229 51.7473Z" fill="#231F20"/>
<path d="M138.863 89.5481C141.767 89.6009 144.829 89.6009 147.469 88.3865C152.01 86.3273 152.907 81.7337 150.215 77.7737C142.189 65.8937 128.303 59.6105 115.103 54.0665C109.823 51.8489 103.381 49.7897 98.7874 53.1689C95.1442 55.8617 94.2994 61.3001 95.8306 65.5769C97.3618 69.8537 100.741 73.2329 104.279 76.1369C116.264 85.9577 132.632 92.1881 147.469 87.7001C147.575 88.7561 150.32 86.7497 149.423 87.3305C148.525 87.8585 147.522 88.2281 146.466 88.3865C141.186 89.4953 135.747 89.5481 130.467 88.6505" fill="#231F20"/>
<path d="M140.185 89.9726C142.614 89.9726 145.254 89.8142 147.63 88.7582C148.105 88.547 148.527 88.3358 148.95 88.019C149.267 87.8606 149.531 87.7022 149.795 87.5438L149.847 87.491C149.9 87.4382 149.953 87.3854 150.006 87.3326C150.006 87.2798 150.059 87.227 150.059 87.1742C150.956 86.3294 151.59 85.2734 151.907 84.1118C152.487 81.9998 152.012 79.6766 150.587 77.5646C142.667 65.8958 129.361 59.6126 115.316 53.699C109.719 51.323 103.331 49.3694 98.6314 52.8542C94.6714 55.811 94.0906 61.5662 95.5162 65.6846C97.153 70.331 100.955 73.8158 104.07 76.403C112.359 83.2142 121.494 87.491 130.417 88.9694H130.47C133.11 89.4446 135.803 89.6558 138.495 89.603C138.495 89.8142 138.654 89.9198 138.865 89.9198L140.185 89.9726ZM147.471 87.2798H147.366C134.166 91.2926 118.167 86.963 104.545 75.8222C101.483 73.3406 97.8394 69.9086 96.2554 65.4734C94.8826 61.5662 95.4106 56.2334 99.0538 53.4878C103.436 50.267 109.561 52.115 114.947 54.4382C128.886 60.299 142.086 66.5294 149.9 78.0398C151.22 79.9934 151.643 82.0526 151.115 83.9534C150.692 85.379 149.795 86.5406 148.58 87.3326C148.369 87.4382 148.105 87.5438 147.841 87.5966C147.841 87.491 147.788 87.4382 147.683 87.3854C147.63 87.2798 147.577 87.2798 147.471 87.2798Z" fill="#231F20"/>
<path d="M71.0156 120.754C71.0156 120.754 63.9932 119.803 61.406 116.318C58.8188 112.834 54.9644 110.88 54.014 111.461C53.0636 112.042 51.7436 117.744 52.2716 118.43C52.7996 119.117 69.2732 129.835 69.6428 129.994" fill="white"/>
<path d="M69.6439 130.363C69.8023 130.363 69.9079 130.258 70.0135 130.152C70.1191 129.941 70.0135 129.73 69.8551 129.624C69.8551 129.624 69.8551 129.624 69.8023 129.624C68.8519 129.149 53.1703 118.853 52.5367 118.219C52.2199 117.586 53.3815 112.306 54.1735 111.831C54.8599 111.408 58.5031 113.098 61.0903 116.583C63.7303 120.173 70.6471 121.123 70.9111 121.176C71.1223 121.229 71.2807 121.071 71.3335 120.859C71.3863 120.648 71.2279 120.437 71.0167 120.437C70.9639 120.437 64.1527 119.434 61.6711 116.16C59.1367 112.675 55.0711 110.405 53.7511 111.197C52.6951 111.831 51.9559 115.632 51.9031 115.791C51.5863 117.375 51.5863 118.325 51.8503 118.695C52.4311 119.487 69.2743 130.311 69.3799 130.363C69.5383 130.311 69.5911 130.363 69.6439 130.363Z" fill="#231F20"/>
<path d="M53.329 107.87C52.801 108.081 52.537 108.715 52.7482 109.243L59.5594 125.98C59.7706 126.508 60.4042 126.772 60.9322 126.561C61.4602 126.35 61.7242 125.716 61.513 125.188L54.7018 108.451C54.4906 107.923 53.857 107.659 53.329 107.87Z" fill="#231F20"/>
<path d="M60.5099 126.988C60.6683 126.988 60.8795 126.935 61.0379 126.882C61.7771 126.565 62.0939 125.773 61.8299 125.034L55.0187 108.297C54.7547 107.557 53.9099 107.188 53.1707 107.505C52.8011 107.663 52.5371 107.927 52.3787 108.297C52.2203 108.666 52.2203 109.036 52.3787 109.405L59.1899 126.143C59.4011 126.671 59.9291 126.988 60.5099 126.988ZM60.7739 126.196C60.6155 126.249 60.4043 126.249 60.2459 126.196C60.0875 126.143 59.9819 125.985 59.8763 125.826L53.0651 109.089C53.0123 108.93 53.0123 108.719 53.0651 108.561C53.2235 108.244 53.5931 108.033 53.9099 108.191C54.0683 108.244 54.2267 108.402 54.2795 108.561L61.0907 125.298C61.2491 125.615 61.0907 126.037 60.7739 126.196C60.7739 126.143 60.7739 126.143 60.7739 126.196Z" fill="#231F20"/>
<path d="M44.9523 85.857L53.8984 107.754L52.7743 108.213L43.8282 86.3163L44.9523 85.857Z" fill="#231F20"/>
<path d="M52.7945 108.559C52.8473 108.559 52.9001 108.559 52.9529 108.506L54.0617 108.031C54.1673 107.978 54.2201 107.925 54.2729 107.819C54.3257 107.714 54.3257 107.608 54.2729 107.503L45.3497 85.5906C45.2969 85.485 45.2441 85.4322 45.1385 85.3794C45.0329 85.3266 44.9273 85.3266 44.8745 85.3794L43.7657 85.8546C43.5545 85.9074 43.5017 86.1714 43.5545 86.3298L52.4777 108.242C52.4777 108.453 52.6361 108.559 52.7945 108.559ZM53.3753 107.503L52.9529 107.661L44.2937 86.4882L44.7161 86.3298L53.3753 107.503Z" fill="#231F20"/>
<path d="M55.1721 112.096C55.3305 112.096 55.4889 112.149 55.5945 112.202C55.9113 112.466 55.9641 112.888 55.7001 113.205C55.4889 113.522 55.1721 113.733 54.8025 113.839C55.1193 113.733 55.3833 113.733 55.7001 113.786C56.0169 113.839 56.2281 114.103 56.2281 114.42C56.1753 114.948 55.3833 115 55.0665 115.423C55.3305 115.317 55.6473 115.264 55.9641 115.264C56.2809 115.264 56.5449 115.423 56.7033 115.687C56.8617 116.056 56.7561 116.479 56.4921 116.743C56.2281 117.007 55.8585 117.218 55.4889 117.324C56.0169 117.218 56.7561 117.324 56.9673 117.852C57.1785 118.38 56.7561 118.855 56.3337 119.172C55.7001 119.647 54.9609 119.911 54.2217 119.964C53.6409 120.069 53.0073 119.911 52.5321 119.488C52.2681 119.224 52.1097 118.96 52.0041 118.644C51.5289 117.535 51.2121 116.373 51.1065 115.159C51.0009 114.261 51.0537 112.941 51.9513 112.466C53.0073 112.096 54.1161 111.938 55.1721 112.096Z" fill="white"/>
<path d="M54.0134 120.439H54.3302C55.175 120.386 55.967 120.069 56.6534 119.594C57.1814 119.172 57.7094 118.538 57.4454 117.852C57.3398 117.535 57.1286 117.324 56.8118 117.165L56.8646 117.113C57.2342 116.69 57.3398 116.109 57.1286 115.581C56.9702 115.317 56.7062 115.106 56.3894 115.001C56.5478 114.842 56.6006 114.684 56.6534 114.473C56.7062 114.05 56.4422 113.628 56.0198 113.469L56.0726 113.417C56.231 113.153 56.2838 112.836 56.231 112.466C56.1782 112.202 56.0198 111.991 55.8086 111.885C55.6502 111.78 55.439 111.727 55.2278 111.727C54.0662 111.621 52.9046 111.78 51.8486 112.202C51.0038 112.677 50.6342 113.733 50.7926 115.265C50.8982 116.532 51.215 117.746 51.743 118.908C51.9014 119.277 52.1126 119.594 52.3766 119.911C52.799 120.228 53.4326 120.439 54.0134 120.439ZM56.0198 117.746C56.3366 117.746 56.6534 117.852 56.7062 118.063C56.759 118.274 56.495 118.697 56.1782 118.961C55.5974 119.383 54.911 119.647 54.2246 119.7C53.7494 119.753 53.2214 119.647 52.8518 119.33C52.6406 119.119 52.4822 118.855 52.3766 118.591C51.9014 117.535 51.5846 116.373 51.479 115.212C51.4262 114.525 51.4262 113.258 52.1654 112.889C53.1158 112.519 54.119 112.413 55.1222 112.519C55.2278 112.519 55.2806 112.519 55.3862 112.572C55.439 112.625 55.439 112.625 55.439 112.677C55.439 112.783 55.439 112.941 55.3862 112.994C55.175 113.205 54.911 113.417 54.647 113.522C54.4358 113.628 54.383 113.839 54.4886 114.05C54.5942 114.209 54.7526 114.261 54.911 114.261C55.1222 114.209 55.3862 114.156 55.6502 114.209C55.8086 114.261 55.9142 114.367 55.9142 114.42C55.9142 114.473 55.7558 114.631 55.4918 114.737C55.2278 114.842 55.0166 115.053 54.8054 115.265C54.6998 115.423 54.7526 115.687 54.911 115.793C55.0166 115.845 55.1222 115.898 55.2278 115.845C55.4918 115.74 55.7558 115.74 56.0198 115.74C56.1782 115.74 56.3894 115.845 56.495 115.951C56.5478 116.162 56.495 116.426 56.3366 116.585C56.0726 116.796 55.8086 116.954 55.4918 117.06C55.2806 117.113 55.175 117.324 55.2806 117.535C55.3334 117.746 55.5446 117.799 55.7558 117.746C55.8086 117.746 55.9142 117.746 56.0198 117.746Z" fill="#231F20"/>
<path d="M125.816 187.018C125.816 187.018 148.151 201.908 171.911 203.333L177.719 193.249L134.687 172.445L125.816 187.018Z" fill="white"/>
<path d="M171.916 203.756C172.075 203.756 172.18 203.703 172.233 203.544L178.041 193.46C178.094 193.354 178.094 193.248 178.094 193.143C178.041 193.037 177.988 192.932 177.883 192.932L134.851 172.128C134.692 172.023 134.481 172.128 134.375 172.287L125.505 186.807C125.399 186.965 125.452 187.229 125.611 187.335C125.875 187.493 148.315 202.33 171.916 203.756ZM177.196 193.46L171.705 203.016C149.899 201.644 129.095 188.76 126.35 186.965L134.851 173.026L177.196 193.46Z" fill="#231F20"/>
<path d="M98.0457 183.531C98.0457 183.531 81.4137 207.238 69.5865 214.577L63.3033 208.664C63.3033 208.664 83.7369 167.691 91.0233 166.635C99.7881 165.315 103.537 187.438 98.0457 183.531Z" fill="white"/>
<path d="M69.5894 214.95C69.6422 214.95 69.7478 214.95 69.8006 214.898C80.8358 208.034 96.1478 186.808 98.1542 184.01C99.1046 184.538 99.7382 184.326 100.055 184.062C101.745 182.69 100.953 176.934 99.1046 172.71C97.0982 168.117 94.0886 165.741 90.9734 166.216C87.8582 166.691 82.1558 173.978 74.0774 187.864C68.111 198.107 62.9894 208.403 62.9366 208.509C62.8838 208.667 62.8838 208.826 62.9894 208.984L69.2726 214.898C69.3782 214.95 69.4838 215.003 69.5894 214.95ZM98.0486 183.165H97.9958C97.8902 183.165 97.7846 183.218 97.7318 183.323C97.5734 183.587 81.2582 206.714 69.6422 214.106L63.7814 208.562C64.6262 206.925 69.3254 197.579 74.7638 188.234C84.6374 171.232 89.0726 167.272 91.079 167.008C94.9862 166.427 97.5206 171.021 98.3654 173.08C100.372 177.568 100.689 182.584 99.527 183.534C99.2102 183.798 98.7878 183.693 98.207 183.27C98.207 183.165 98.1014 183.165 98.0486 183.165Z" fill="#231F20"/>
<path d="M74.125 212.416L65.4658 222.289L59.2354 216.534L60.2914 215.584C59.4994 215.056 58.7074 214.581 57.8626 214.105C56.3314 213.261 50.365 206.185 50.365 206.185C50.365 206.185 51.3682 203.07 55.2754 204.496C59.1826 205.921 59.7634 209.301 60.925 209.459C62.0866 209.617 65.5186 203.281 65.5186 203.704C65.5186 204.126 74.125 212.416 74.125 212.416Z" fill="#231F20"/>
<path d="M65.4709 222.711C65.5765 222.711 65.6821 222.658 65.7349 222.605L74.4469 212.679C74.6053 212.52 74.5525 212.309 74.4469 212.151C71.3317 209.194 66.3157 204.283 65.9461 203.65C65.8933 203.544 65.7877 203.439 65.6821 203.386C65.3653 203.28 65.3125 203.386 64.4149 204.759C63.7285 205.815 61.6693 209.088 61.0357 209.141C60.7717 209.088 60.4549 208.613 60.0325 208.032C58.9765 206.29 57.3925 204.917 55.4917 204.178C54.0661 203.65 52.7989 203.65 51.7957 204.125C51.0037 204.547 50.3701 205.234 50.0533 206.079C50.0005 206.184 50.0533 206.343 50.1061 206.448C50.3701 206.712 56.1253 213.629 57.7093 214.474C58.6069 214.949 59.2933 215.371 59.7157 215.635L59.0293 216.216C58.8709 216.375 58.8709 216.586 59.0293 216.744L65.2597 222.499C65.2597 222.658 65.3653 222.711 65.4709 222.711ZM73.6549 212.467L65.4181 221.76L59.8213 216.586L60.5605 215.952C60.7189 215.794 60.7189 215.583 60.6133 215.424L60.5605 215.371C59.7685 214.843 58.9237 214.315 58.0789 213.893C56.9173 213.259 52.5877 208.296 50.8453 206.237C51.1093 205.656 51.5845 205.181 52.1125 204.917C52.9045 204.495 53.9605 204.547 55.1749 204.97C56.9701 205.656 58.4485 206.871 59.3989 208.507C59.9269 209.247 60.3493 209.827 60.9301 209.933C61.8277 210.039 62.9893 208.402 65.0485 205.181L65.5765 204.389C66.2101 205.181 68.1637 207.187 73.6549 212.467Z" fill="#231F20"/>
<path d="M171.917 203.39C172.234 203.179 178.358 193.094 178.358 193.094L190.133 200.222C190.133 200.222 187.598 205.449 186.912 205.502C186.49 205.555 186.067 205.449 185.698 205.291C185.698 205.291 186.067 206.927 185.275 208.036C184.483 209.145 179.678 216.431 178.517 215.956C177.355 215.481 179.362 208.564 177.619 206.505C175.877 204.446 171.917 203.39 171.917 203.39Z" fill="#231F20"/>
<path d="M178.567 216.32C179.359 216.32 180.89 215.053 185.273 208.612L185.537 208.242C185.959 207.503 186.17 206.658 186.118 205.813C186.382 205.866 186.646 205.866 186.91 205.866C187.49 205.813 188.705 203.965 190.447 200.375C190.553 200.216 190.5 200.005 190.289 199.9L178.514 192.772C178.409 192.719 178.303 192.719 178.198 192.719C178.092 192.719 177.986 192.824 177.986 192.877C175.716 196.626 172.02 202.698 171.65 203.12C171.545 203.173 171.439 203.332 171.492 203.49C171.545 203.648 171.65 203.754 171.809 203.807C171.862 203.807 175.61 204.863 177.247 206.816C178.092 207.82 177.934 210.407 177.775 212.519C177.617 214.631 177.511 216.056 178.303 216.373C178.409 216.32 178.514 216.32 178.567 216.32ZM185.642 204.863C185.537 204.863 185.484 204.916 185.431 204.916C185.326 205.021 185.273 205.127 185.273 205.285C185.273 205.285 185.59 206.816 184.903 207.767L184.639 208.189C179.993 215 178.831 215.581 178.567 215.581C178.303 215.37 178.462 213.628 178.514 212.519C178.673 210.196 178.884 207.556 177.828 206.288C176.402 204.599 173.657 203.596 172.495 203.173C173.076 202.276 174.607 199.952 178.409 193.564L189.55 200.322C188.441 202.487 187.121 204.863 186.698 205.074C186.382 205.074 186.065 205.021 185.748 204.916C185.801 204.916 185.748 204.863 185.642 204.863Z" fill="#231F20"/>
<path d="M104.857 92.6133C104.857 92.6133 90.9174 122.34 85.0038 121.653C79.0902 120.967 68.7414 117.957 68.7414 117.957L65.3622 129.89C65.3622 129.89 74.391 139.077 89.0694 135.064C103.748 131.052 110.242 113.047 110.242 113.047L104.857 92.6133Z" fill="#D2B0FF"/>
<path d="M108.395 65.4182C110.982 62.0918 115.101 59.927 119.325 60.3494C125.08 60.983 127.773 62.039 132.314 65.999C138.861 71.7014 147.045 75.1334 155.651 75.9254C158.872 76.1894 162.198 76.0838 165.208 77.2982C171.28 79.727 174.342 87.0662 173.392 93.5606C172.442 100.055 168.27 105.652 163.466 110.087C161.248 112.199 158.766 113.994 156.074 115.42C145.778 120.7 132.525 117.637 123.813 109.981C117.741 104.649 113.675 97.4678 111.141 89.8646C110.032 86.4326 109.24 83.2118 107.656 79.9382C105.914 76.4006 105.016 73.0214 106.389 69.0614C106.917 67.7414 107.55 66.527 108.395 65.4182Z" fill="white"/>
<path d="M144.775 118.432C148.787 118.485 152.747 117.587 156.285 115.792C159.031 114.314 161.512 112.519 163.73 110.354C169.538 104.968 172.97 99.3714 173.815 93.6162C174.712 87.4914 172.072 79.5714 165.367 76.9314C162.991 75.981 160.403 75.8226 157.869 75.6642C157.13 75.6114 156.443 75.5586 155.704 75.5058C147.151 74.7666 139.019 71.3346 132.578 65.685C128.09 61.7778 125.397 60.6162 119.378 59.9826C115.207 59.5602 110.93 61.5138 108.131 65.157C107.287 66.2658 106.6 67.533 106.125 68.9058C104.594 73.341 105.914 77.037 107.392 80.0466C108.448 82.317 109.346 84.693 109.979 87.1218C110.243 88.0194 110.56 88.9698 110.877 89.9202C113.623 98.2626 118.058 105.285 123.655 110.195C129.463 115.423 136.96 118.327 144.775 118.432ZM118.216 60.7218C118.586 60.7218 118.903 60.7218 119.272 60.7746C125.08 61.4082 127.72 62.517 132.05 66.3186C138.65 72.0738 146.887 75.5586 155.651 76.3506C156.391 76.4034 157.077 76.4562 157.816 76.509C160.245 76.6674 162.779 76.8258 165.103 77.7234C171.439 80.2578 173.92 87.7554 173.075 93.5634C172.231 99.1074 168.957 104.599 163.255 109.879C161.09 111.991 158.608 113.733 155.968 115.159C146.411 120.069 133.317 117.851 124.183 109.773C118.691 104.968 114.362 98.0514 111.616 89.8146C111.299 88.8642 111.035 87.9666 110.771 87.0162C110.085 84.5346 109.24 82.1586 108.131 79.8354C106.706 76.9842 105.439 73.4466 106.917 69.2754C107.339 68.0082 108.026 66.7938 108.818 65.7378C110.93 62.6754 114.467 60.8274 118.216 60.7218Z" fill="#231F20"/>
<path d="M103.698 88.9697C104.12 88.2833 129.728 81.0497 137.701 88.5473C145.674 96.0449 140.552 137.282 140.552 137.282C140.552 137.282 128.725 140.978 119.327 138.021C109.928 135.064 108.714 131.579 108.714 131.579C108.714 131.579 91.6596 107.978 103.698 88.9697Z" fill="#D2B0FF"/>
<path d="M108.658 131.527L79.9876 170.969C79.882 170.969 90.0724 191.35 111.351 193.092C148.364 196.102 152.852 181.318 152.852 181.318L140.76 135.065C140.813 135.012 116.367 138.127 108.658 131.527Z" fill="#231F20"/>
<path d="M120.907 193.828C149.102 193.828 153.115 181.948 153.273 181.367C153.273 181.314 153.273 181.209 153.273 181.156L141.182 134.903C141.129 134.692 140.971 134.586 140.76 134.639C140.496 134.692 116.419 137.649 108.921 131.207C108.816 131.154 108.71 131.102 108.605 131.102C108.499 131.102 108.393 131.154 108.341 131.26L79.6702 170.702C79.6174 170.807 79.5646 170.966 79.6174 171.071C79.723 171.282 90.019 191.663 111.297 193.353C114.782 193.722 118.003 193.828 120.907 193.828ZM152.534 181.262C152.059 182.529 146.093 195.465 111.456 192.666C91.4446 191.03 81.4654 172.919 80.515 171.018L108.763 132.052C116.366 138.018 137.486 135.801 140.549 135.431L152.534 181.262Z" fill="#231F20"/>
<path d="M103.698 88.9675C103.698 88.9675 123.551 137.649 128.831 139.708C134.111 141.767 152.01 138.916 149.951 136.171C147.891 133.425 141.291 127.881 141.291 127.881L141.925 120.7C141.925 120.7 171.387 148.051 169.17 154.228C166.952 160.406 137.912 169.118 133.635 165.844C129.359 162.571 105.81 109.031 103.645 101.059C101.48 93.0858 100.055 91.4491 100.794 89.9179C101.533 88.3867 103.698 88.9675 103.698 88.9675Z" fill="#231F20"/>
<path d="M137.118 166.954C140.92 166.954 146.464 165.739 151.11 164.314C158.819 161.99 168.27 158.03 169.59 154.334C170.541 151.642 166.211 145.094 156.707 134.851C149.685 127.301 142.293 120.437 142.24 120.384C142.134 120.278 141.976 120.278 141.818 120.331C141.659 120.384 141.606 120.49 141.554 120.648L140.92 127.829C140.92 127.934 140.973 128.093 141.078 128.146C141.131 128.198 147.678 133.69 149.632 136.382C149.738 136.541 149.738 136.752 149.632 136.858C147.942 139.075 133.686 141.187 128.987 139.339C124.816 137.702 109.61 102.326 104.066 88.8097C104.013 88.7041 103.907 88.5985 103.802 88.5985C103.01 88.3345 101.214 88.2817 100.528 89.7601C100 90.8161 100.37 91.9249 101.162 94.2481C101.69 95.8321 102.482 97.9969 103.326 101.165C104.382 105.072 110.613 120.067 117.53 135.379C121.384 143.933 130.677 164.05 133.422 166.162C134.162 166.69 135.482 166.954 137.118 166.954ZM142.24 121.493C150.741 129.466 170.488 149.318 168.851 154.123C167.901 156.869 160.509 160.776 150.899 163.627C142.662 166.109 135.64 166.901 133.898 165.581C129.832 162.466 106.389 109.507 104.066 101.006C103.221 97.7857 102.429 95.6209 101.901 94.0369C101.109 91.8193 100.845 90.9217 101.214 90.1297C101.742 89.1265 102.957 89.2321 103.432 89.3377C104.963 93.0865 123.443 138.072 128.67 140.131C133.317 141.926 148.206 140.026 150.213 137.386C150.582 137.016 150.582 136.382 150.266 136.013C148.365 133.426 142.768 128.621 141.712 127.776L142.24 121.493Z" fill="#231F20"/>
<path d="M136.593 166.374C140.289 166.321 144.038 165.952 147.681 165.318C147.892 165.318 148.05 165.107 147.998 164.896C147.998 164.684 147.786 164.526 147.575 164.579H147.522C147.47 164.579 139.444 166.11 133.689 165.529C129.095 165.054 121.175 143.934 118.535 135.856C118.482 135.644 118.271 135.539 118.06 135.592C117.849 135.644 117.743 135.856 117.796 136.067C118.166 137.281 127.564 165.635 133.583 166.268C134.534 166.321 135.537 166.374 136.593 166.374Z" fill="white"/>
<path d="M115.682 87.2797L115.893 94.0381C115.893 94.0381 116.896 97.1005 121.384 95.8861C125.872 94.6717 126.453 91.5565 126.453 91.5565L125.556 78.9901C125.556 78.9901 118.375 75.3997 119.167 68.1133C119.167 68.1133 116.58 73.8685 109.874 73.2349C109.874 73.2349 109.927 79.7293 110.613 83.2141C111.3 86.6989 115.682 87.2797 115.682 87.2797Z" fill="white"/>
<path d="M119.483 96.5202C120.169 96.5202 120.856 96.4146 121.542 96.2034C126.189 94.9362 126.875 91.7154 126.875 91.557C126.875 91.5042 126.875 91.5042 126.875 91.4514L125.977 78.885C125.977 78.7266 125.872 78.621 125.766 78.5682C125.713 78.5154 118.849 75.0306 119.589 68.1138C119.641 67.9026 119.483 67.6914 119.272 67.6914C119.113 67.6914 118.955 67.7442 118.849 67.9026C117.213 71.2818 113.622 73.2354 109.926 72.7602C109.821 72.7602 109.715 72.7602 109.609 72.8658C109.504 72.9186 109.504 73.0242 109.504 73.1826C109.504 73.4466 109.609 79.7298 110.243 83.2146C110.824 86.3826 114.256 87.333 115.365 87.5442L115.576 93.9858C115.576 94.0386 115.576 94.0386 115.576 94.0914C115.576 94.197 116.368 96.5202 119.483 96.5202ZM126.083 91.5042C125.977 91.8738 125.238 94.4082 121.331 95.517C117.529 96.5202 116.473 94.3554 116.368 93.9858L116.157 87.2802C116.157 87.069 115.998 86.9634 115.84 86.9106C115.787 86.9106 111.616 86.277 111.088 83.109C110.56 80.205 110.401 75.1362 110.401 73.6578C113.728 73.9218 117.001 72.3378 118.902 69.5922C119.113 75.4002 124.288 78.621 125.344 79.2546L126.083 91.5042Z" fill="#231F20"/>
<path d="M123.44 78.6752C123.599 78.0416 123.916 77.5136 124.391 77.0912C124.866 76.7216 125.394 76.4576 125.975 76.2464C126.292 76.088 126.608 76.0352 126.925 76.0352C127.136 76.088 127.348 76.1408 127.559 76.2464C128.034 76.4576 128.456 76.88 128.668 77.3552C128.826 77.7776 128.826 78.2 128.773 78.6224C128.72 79.0976 128.615 79.5728 128.456 79.9952C127.717 81.8432 125.658 82.7408 123.81 82.0016H123.757" fill="white"/>
<path d="M125.135 82.6865C126.772 82.6865 128.251 81.6833 128.831 80.2049C128.99 79.7297 129.095 79.2545 129.148 78.7265C129.254 78.2513 129.201 77.7233 129.043 77.2481C128.779 76.6673 128.303 76.1921 127.723 75.9281C127.459 75.7697 127.195 75.7169 126.931 75.6641C126.561 75.6641 126.139 75.7169 125.822 75.8753C125.241 76.0865 124.66 76.4033 124.132 76.7729C123.604 77.2481 123.182 77.8817 123.076 78.5681C123.076 78.7793 123.182 78.9905 123.393 78.9905C123.551 78.9905 123.763 78.8849 123.815 78.7265C123.921 78.1985 124.238 77.6705 124.66 77.3537C125.083 77.0369 125.558 76.7729 126.086 76.5617C126.35 76.4561 126.614 76.4033 126.878 76.4033C127.089 76.4033 127.247 76.5089 127.406 76.5617C127.775 76.7729 128.092 77.0897 128.303 77.4593C128.409 77.8289 128.462 78.1985 128.356 78.5681C128.303 78.9905 128.198 79.4129 128.092 79.8353C127.459 81.4721 125.611 82.2641 123.974 81.6305C123.974 81.6305 123.921 81.6305 123.921 81.5777C123.71 81.4721 123.499 81.5777 123.446 81.7889C123.34 82.0001 123.446 82.2113 123.604 82.3169C123.604 82.3169 123.604 82.3169 123.657 82.3169C124.079 82.5809 124.607 82.6865 125.135 82.6865Z" fill="#231F20"/>
<path d="M115.681 76.3516C115.681 76.3516 113.305 79.8364 113.833 80.47C114.361 81.1036 115.945 80.6812 115.945 80.6812" fill="white"/>
<path d="M114.942 81.2078C115.311 81.2078 115.681 81.155 116.051 81.1022C116.262 81.0494 116.367 80.8382 116.315 80.627C116.262 80.4158 116.051 80.3102 115.839 80.363C115.417 80.4686 114.361 80.5742 114.097 80.2574C113.991 79.9406 114.889 78.1982 115.945 76.6142C116.051 76.403 115.998 76.1918 115.787 76.0862C115.628 75.9806 115.417 76.0334 115.311 76.1918C114.15 77.8814 112.883 80.099 113.516 80.7854C113.939 81.1022 114.467 81.2606 114.942 81.2078Z" fill="#231F20"/>
<path d="M113.732 82.3158C113.732 82.3158 118.115 81.735 120.332 79.6758C120.332 79.6758 120.86 83.3718 117.798 84.2694C116.161 84.7446 114.366 83.8998 113.732 82.3158Z" fill="white"/>
<path d="M116.742 84.7982C117.164 84.7982 117.587 84.7454 117.956 84.6398C120.596 83.9006 120.966 81.0494 120.755 79.6238C120.755 79.4654 120.649 79.3598 120.491 79.307C120.332 79.2542 120.227 79.307 120.121 79.3598C118.009 81.2606 113.732 81.8942 113.732 81.8942C113.627 81.8942 113.521 81.9998 113.468 82.1054C113.415 82.211 113.415 82.3166 113.415 82.4222C113.415 82.4222 114.313 84.7982 116.742 84.7982ZM120.015 80.4158C120.015 81.4718 119.699 83.3198 117.745 83.8478C116.425 84.323 114.999 83.795 114.313 82.5806C115.422 82.3694 118.115 81.7886 120.015 80.4158Z" fill="#231F20"/>
<path d="M119.43 74.8727C119.43 74.8727 118.954 73.6583 117.054 75.4007L119.43 74.8727Z" fill="white"/>
<path d="M117.056 75.7725C117.161 75.7725 117.267 75.7197 117.32 75.6669C118.27 74.8221 118.692 74.8221 118.851 74.8221C118.956 74.8221 119.009 74.8749 119.062 74.9805C119.168 75.1917 119.379 75.2973 119.59 75.1917C119.801 75.1389 119.854 74.8749 119.801 74.7165C119.696 74.3997 119.379 74.1885 119.062 74.0829C118.481 73.9245 117.689 74.2941 116.844 75.0861C116.686 75.2445 116.686 75.4557 116.792 75.6141C116.897 75.7725 117.003 75.7725 117.056 75.7725Z" fill="#231F20"/>
<path d="M113.727 75.7159C113.727 75.7159 112.671 73.8679 111.351 75.7159H113.727Z" fill="white"/>
<path d="M111.353 76.087C111.458 76.087 111.617 76.0342 111.669 75.9286C111.881 75.6118 112.197 75.3478 112.62 75.295C112.989 75.295 113.359 75.7702 113.412 75.9286C113.517 76.087 113.729 76.1926 113.94 76.087C114.098 75.9814 114.204 75.7702 114.098 75.559C113.781 75.031 113.253 74.6614 112.673 74.5558C112.092 74.503 111.564 74.8726 111.089 75.5062C110.983 75.6646 110.983 75.9286 111.194 76.0342C111.194 76.087 111.3 76.087 111.353 76.087Z" fill="#231F20"/>
<path d="M115.681 87.2789C115.681 87.2789 119.166 87.0677 120.75 86.0117C120.75 86.0117 119.641 90.0773 115.892 91.2917L115.681 87.2789Z" fill="#231F20"/>
<path d="M115.892 91.7129C115.945 91.7129 115.998 91.7129 115.998 91.7129C119.905 90.4457 121.067 86.3273 121.119 86.1689C121.172 85.9577 121.067 85.7465 120.855 85.6937C120.75 85.6409 120.644 85.6937 120.539 85.7465C119.06 86.7497 115.681 86.9081 115.681 86.9081C115.47 86.9081 115.311 87.1193 115.311 87.3305L115.523 91.3961C115.523 91.5017 115.575 91.6073 115.681 91.7129C115.734 91.7129 115.839 91.7129 115.892 91.7129ZM120.063 86.8025C119.324 88.5449 117.951 89.9705 116.262 90.8153L116.103 87.6473C117.476 87.5417 118.796 87.2777 120.063 86.8025Z" fill="#231F20"/>
<path d="M152.698 129.625C149.53 133.902 146.468 137.703 142.561 141.294C141.082 142.614 138.653 142.614 136.753 143.089C135.908 143.3 135.01 143.564 134.641 144.303C134.482 144.567 134.482 144.884 134.641 145.095C134.746 145.201 134.852 145.254 135.01 145.307C136.013 145.676 136.911 145.571 137.861 145.782C138.442 145.887 138.495 145.729 138.284 146.31C138.073 146.838 137.281 147.313 136.964 147.735C136.33 148.475 135.802 149.319 135.274 150.111C134.852 150.587 134.588 151.167 134.429 151.801C134.218 153.068 135.221 154.335 136.436 154.758C137.703 155.127 139.023 155.075 140.237 154.705C143.669 153.913 146.785 152.171 149.266 149.583C151.853 146.943 154.335 144.145 156.711 141.294" fill="white"/>
<path d="M137.963 155.338C138.755 155.338 139.494 155.232 140.233 155.021C143.718 154.229 146.939 152.434 149.42 149.794C152.008 147.154 154.489 144.356 156.865 141.504C157.024 141.346 156.971 141.082 156.812 140.976C156.654 140.818 156.39 140.871 156.284 141.029C153.961 143.88 151.427 146.626 148.892 149.266C146.516 151.748 143.454 153.49 140.075 154.282C139.019 154.546 137.646 154.757 136.484 154.335C135.481 153.965 134.531 152.909 134.742 151.8C134.9 151.22 135.164 150.692 135.534 150.269C135.692 150.058 135.851 149.794 136.009 149.583C136.379 149.055 136.748 148.474 137.171 147.946C137.329 147.788 137.488 147.629 137.646 147.524C138.016 147.26 138.332 146.89 138.596 146.415C138.755 146.045 138.808 145.834 138.702 145.623C138.596 145.464 138.385 145.359 138.227 145.412C138.121 145.412 138.016 145.412 137.91 145.359C137.54 145.306 137.171 145.253 136.801 145.253C136.22 145.253 135.64 145.148 135.112 144.936C135.006 144.936 134.953 144.884 134.9 144.831C134.848 144.725 134.848 144.567 134.953 144.461C135.27 143.88 136.062 143.616 136.801 143.458C137.276 143.352 137.804 143.247 138.332 143.194C139.916 142.93 141.606 142.666 142.768 141.61C146.622 138.125 149.632 134.376 153.011 129.888C153.169 129.73 153.116 129.466 153.011 129.36C152.905 129.255 152.588 129.255 152.483 129.36L152.43 129.413C149.104 133.901 146.147 137.597 142.345 141.029C141.342 141.927 139.811 142.191 138.332 142.455C137.804 142.56 137.224 142.613 136.696 142.772C135.798 142.983 134.795 143.3 134.32 144.144C134.108 144.514 134.108 144.989 134.372 145.359C134.531 145.517 134.689 145.623 134.9 145.676C135.534 145.887 136.168 145.992 136.801 146.045C137.171 146.045 137.488 146.098 137.804 146.151H137.91C137.699 146.468 137.488 146.732 137.224 146.943C137.012 147.101 136.854 147.26 136.696 147.471C136.22 147.999 135.851 148.58 135.481 149.16C135.323 149.372 135.164 149.636 135.006 149.847C134.584 150.375 134.267 151.008 134.108 151.695C133.844 153.226 135.059 154.599 136.379 155.074C136.854 155.232 137.382 155.338 137.963 155.338Z" fill="#231F20"/>
<path d="M134.957 86.75C134.957 86.75 167.64 107.184 166.584 123.235C165.898 132.95 161.78 142.137 155.021 149.16L142.244 138.652C142.244 138.652 151.959 128.673 150.428 121.387C148.896 114.1 134.64 107.395 134.64 107.395C134.64 107.395 127.724 87.4892 134.957 86.75Z" fill="#D2B0FF"/>
<path d="M134.483 81.4708C138.073 81.4708 150.745 80.626 151.326 80.5732C151.537 80.5732 151.695 80.362 151.695 80.1508C151.695 79.9396 151.484 79.7812 151.273 79.7812C151.115 79.7812 137.228 80.7316 134.166 80.6788C133.955 80.6788 133.743 80.8372 133.743 81.1012C133.743 81.3652 133.902 81.5236 134.166 81.5236H134.483V81.4708Z" fill="white"/>
<path d="M66.3674 208.454C66.473 208.454 66.5786 208.401 66.6842 208.295C66.7898 208.137 66.7898 207.873 66.6314 207.767L64.4666 206.078C64.3082 205.972 64.097 205.972 63.9386 206.13C63.833 206.289 63.833 206.553 63.9914 206.658L66.1562 208.348C66.1562 208.401 66.2618 208.454 66.3674 208.454Z" fill="#231F20"/>
<path d="M64.4114 210.515L64.9922 209.987L62.9858 207.611C62.8274 207.452 62.6162 207.452 62.4578 207.558C62.2994 207.716 62.2994 207.928 62.405 208.086L64.4114 210.515Z" fill="#231F20"/>
<path d="M52.0612 76.5625H36.274C35.6932 76.5625 35.218 77.0377 35.218 77.6185V84.6937C35.218 85.2745 35.6932 85.7497 36.274 85.7497H52.0612C52.642 85.7497 53.1172 85.2745 53.1172 84.6937V77.6185C53.1172 77.0377 52.642 76.5625 52.0612 76.5625Z" fill="white"/>
<path d="M36.2716 86.1178H52.0588C52.8508 86.1178 53.4844 85.4842 53.4844 84.6922V77.617C53.4844 76.825 52.8508 76.1914 52.0588 76.1914H36.2716C35.4796 76.1914 34.846 76.825 34.846 77.617V84.6922C34.846 85.4842 35.4796 86.1178 36.2716 86.1178ZM52.0588 76.9306C52.4284 76.9306 52.6924 77.2474 52.6924 77.5642V84.6394C52.6924 85.009 52.4284 85.3258 52.0588 85.3258H36.2716C35.902 85.3258 35.5852 85.0618 35.5852 84.6922V77.617C35.5852 77.2474 35.902 76.9306 36.2188 76.9306H52.0588Z" fill="#231F20"/>
<path d="M61.8828 117.06L60.3516 113.681C60.1932 113.258 59.9292 112.836 59.6652 112.466C59.2428 112.044 58.7676 111.674 58.1868 111.41C57.078 110.829 55.9692 110.301 54.8076 109.879C54.6492 109.826 54.4908 109.773 54.3324 109.773C54.0156 109.826 53.8044 110.037 53.7516 110.354C53.6988 110.618 53.7516 110.935 53.91 111.199C54.438 112.202 55.5996 112.625 56.3388 113.469C56.4972 115.423 57.7644 117.113 59.5596 117.852" fill="white"/>
<path d="M59.6613 118.171C59.8197 118.171 59.9781 118.065 60.0309 117.907C60.0837 117.696 60.0309 117.485 59.8197 117.432C58.1301 116.745 56.9685 115.161 56.8101 113.366C56.8101 113.261 56.7573 113.208 56.7045 113.155C56.3877 112.785 55.9653 112.469 55.5957 112.205C55.0677 111.888 54.6453 111.465 54.3285 110.99C54.2229 110.832 54.1701 110.621 54.2229 110.409C54.2229 110.304 54.3285 110.198 54.4341 110.145C54.5397 110.145 54.6453 110.198 54.6981 110.198C55.8069 110.621 56.9157 111.149 58.0245 111.729C58.5525 111.993 58.9749 112.31 59.3973 112.733C59.6613 113.102 59.8725 113.472 60.0309 113.841L61.5621 117.221C61.6677 117.432 61.8789 117.485 62.0901 117.432C62.3013 117.326 62.3541 117.115 62.3013 116.904L60.7701 113.525C60.5589 113.049 60.3477 112.627 60.0309 112.257C59.6085 111.782 59.0277 111.36 58.4469 111.096C57.3381 110.515 56.2293 109.987 55.0677 109.512C54.8565 109.406 54.6453 109.406 54.4341 109.406C53.9589 109.459 53.5893 109.829 53.4837 110.251C53.4309 110.621 53.4837 110.99 53.6949 111.36C54.0645 111.941 54.5925 112.469 55.1733 112.838C55.4901 113.049 55.8069 113.313 56.1237 113.577C56.3349 115.637 57.7077 117.379 59.6085 118.171C59.5557 118.171 59.6085 118.171 59.6613 118.171Z" fill="#231F20"/>
<path d="M42.2415 80.2031H45.9375V85.6943H42.2415V80.2031Z" fill="#231F20"/>
<path d="M42.2391 86.1171H45.9351C46.1463 86.1171 46.3047 85.9587 46.3047 85.7475V80.2563C46.3047 80.0451 46.1463 79.8867 45.9351 79.8867H42.2391C42.0279 79.8867 41.8695 80.0451 41.8695 80.2563V85.7475C41.8695 85.9587 42.0279 86.1171 42.2391 86.1171ZM45.5655 85.3251H42.6087V80.5731H45.5655V85.3251Z" fill="#231F20"/>
<path d="M38.2802 81.9474C37.8136 81.9474 37.4354 81.5692 37.4354 81.1026C37.4354 80.636 37.8136 80.2578 38.2802 80.2578C38.7468 80.2578 39.125 80.636 39.125 81.1026C39.125 81.5692 38.7468 81.9474 38.2802 81.9474Z" fill="#231F20"/>
<path d="M138.648 65.9468C138.754 65.9468 138.86 65.894 138.912 65.8412C139.071 65.6828 139.071 65.4716 138.912 65.3132C138.86 65.2076 130.623 57.0764 117.159 53.8028C116.948 53.75 116.736 53.8556 116.684 54.014C116.631 54.2252 116.736 54.4364 116.895 54.4892C116.948 54.4892 116.948 54.4892 117 54.4892C130.253 57.6572 138.332 65.6828 138.384 65.7884C138.437 65.894 138.543 65.9468 138.648 65.9468Z" fill="white"/>
</svg>
