<svg width="313" height="196" viewBox="0 0 313 196" fill="none" xmlns="http://www.w3.org/2000/svg">
<g clip-path="url(#clip0_56_108958)">
<path d="M98.2113 114.928C98.0041 114.928 97.7969 114.773 97.7969 114.514C97.7969 114.255 97.9523 114.1 98.2113 114.1L121.78 112.805C121.987 112.805 122.195 112.96 122.195 113.167C122.195 113.374 122.039 113.582 121.832 113.582L98.2113 114.928Z" fill="#D1D3D4"/>
<path d="M154.724 187.343C154.672 187.343 154.569 187.343 154.517 187.291C154.361 187.187 154.31 186.928 154.413 186.773L165.965 168.798C166.068 168.643 166.327 168.591 166.483 168.695C166.638 168.798 166.69 169.057 166.586 169.213L155.035 187.187C154.983 187.291 154.879 187.343 154.724 187.343Z" fill="#D1D3D4"/>
<path d="M111.058 158.232C110.851 158.232 110.695 158.077 110.695 157.818C110.695 157.662 110.747 157.559 110.903 157.507L128.463 147.665C128.67 147.561 128.877 147.613 128.981 147.82C129.084 148.028 129.033 148.235 128.825 148.338L111.265 158.18C111.162 158.18 111.11 158.232 111.058 158.232Z" fill="#D1D3D4"/>
<path d="M241.279 21.5838C241.227 21.5838 241.176 21.5838 241.124 21.5838C240.917 21.532 240.813 21.273 240.865 21.0658L245.164 9.51439C245.216 9.30719 245.475 9.20359 245.682 9.25539C245.889 9.30719 245.993 9.56619 245.941 9.77339L241.642 21.3248C241.59 21.4802 241.435 21.5838 241.279 21.5838Z" fill="#D1D3D4"/>
<path d="M305.98 91.4085C305.773 91.4085 305.617 91.2531 305.617 90.9941C305.617 90.7869 305.773 90.6315 305.928 90.6315L324.317 87.6271C324.524 87.5753 324.731 87.7307 324.783 87.9897C324.835 88.1969 324.68 88.4041 324.472 88.4559L306.083 91.4603L305.98 91.4085Z" fill="#D1D3D4"/>
<path d="M305.519 167.661C305.415 167.661 305.311 167.609 305.208 167.505L293.656 152.95C293.501 152.794 293.553 152.535 293.708 152.432C293.864 152.328 294.071 152.328 294.226 152.483L305.778 167.039C305.933 167.195 305.881 167.454 305.726 167.609C305.674 167.609 305.57 167.661 305.519 167.661Z" fill="#D1D3D4"/>
<path d="M125.458 43.9643C125.355 43.9643 125.251 43.9125 125.199 43.8607L116.911 36.7641C116.756 36.6087 116.704 36.4015 116.859 36.1943C117.015 36.0389 117.222 36.0389 117.377 36.1425L125.665 43.2391C125.821 43.3945 125.873 43.6017 125.717 43.8089C125.665 43.9125 125.562 43.9643 125.458 43.9643Z" fill="#D1D3D4"/>
<path d="M192.144 69.5572C192.144 69.5572 188.397 57.049 183.172 52.6364C176.181 46.6688 165.06 49.9782 160.858 54.9512C156.656 59.9241 161.245 69.7758 165.65 71.3682C178.322 75.8849 190.673 67.5861 190.673 67.5861C190.673 67.5861 180.489 71.1182 172.718 65.7644C164.947 60.4106 171.865 55.2523 177.53 57.5213C179.949 58.4961 192.144 69.5572 192.144 69.5572Z" fill="#68E1FD"/>
<path d="M198.528 58.3923C198.075 57.703 197.419 57.2702 196.58 57.1568C195.979 57.1821 195.396 57.2704 194.783 57.5017C191.875 58.4814 187.695 60.0036 188.186 63.8578C188.57 66.0519 190.414 67.653 192.597 67.7452C193.197 67.7199 193.718 67.6484 194.284 67.497C196.819 66.8872 200.609 65.6719 200.144 62.4187C199.954 61.4562 199.639 60.5273 199.134 59.6489C199.016 59.2076 198.772 58.8 198.528 58.3923Z" fill="#68E1FD"/>
<path d="M195.892 64.1651C195.892 64.1651 195.195 54.4894 199.106 48.1756C203.017 41.8619 209.703 40.8859 215.585 41.9485C221.467 43.0111 225.123 47.1003 219.911 54.0993C214.699 61.0984 197.631 66.1319 197.631 66.1319C197.631 66.1319 209.438 59.3295 212.926 54.2096C216.414 49.0896 213.256 47.3667 209.793 48.2919C206.331 49.2171 195.892 64.1651 195.892 64.1651Z" fill="#68E1FD"/>
<path d="M235.132 70.4307L162.422 89.8594L176.859 143.89L249.569 124.461L235.132 70.4307Z" fill="white"/>
<path d="M249.655 124.773L176.945 144.202C176.756 144.253 176.597 144.16 176.546 143.971L162.092 89.8777C162.058 89.7516 162.134 89.5289 162.26 89.4952L234.969 70.0666C235.158 70.0161 235.318 70.1085 235.352 70.2346L249.789 124.265C249.936 124.563 249.844 124.723 249.655 124.773ZM177.108 143.551L249.189 124.29L234.886 70.7643L162.806 90.0247L177.108 143.551Z" fill="#231F20"/>
<path d="M171.683 111.636C171.621 111.653 171.478 111.624 171.398 111.577C171.238 111.485 171.251 111.279 171.343 111.119L188.431 86.2214C188.524 86.0617 188.712 86.0112 188.889 86.1667C189.049 86.2592 189.099 86.4483 188.944 86.6249L171.855 111.523C171.809 111.603 171.746 111.619 171.683 111.636Z" fill="#D1D3D4"/>
<path d="M176.834 134.444C176.708 134.478 176.628 134.431 176.549 134.385C176.389 134.293 176.401 134.087 176.494 133.927L218.518 76.9007C218.61 76.7409 218.816 76.7535 218.976 76.846C219.135 76.9384 219.123 77.1444 219.031 77.3041L177.006 134.33C176.943 134.347 176.897 134.427 176.834 134.444Z" fill="#D1D3D4"/>
<path d="M196.364 135.844C196.301 135.86 196.158 135.831 196.079 135.785C195.919 135.692 195.932 135.486 196.024 135.327L233.33 82.6009C233.422 82.4412 233.611 82.3907 233.77 82.4832C233.93 82.5756 233.917 82.7816 233.825 82.9413L196.519 135.667C196.553 135.793 196.427 135.827 196.364 135.844Z" fill="#D1D3D4"/>
<path d="M221.998 129.058C221.872 129.092 221.792 129.045 221.713 128.999C221.553 128.907 221.566 128.701 221.658 128.541L240.408 102.794C240.5 102.634 240.706 102.647 240.865 102.739C241.025 102.832 241.012 103.038 240.92 103.197L222.17 128.944C222.187 129.007 222.124 129.024 221.998 129.058Z" fill="#D1D3D4"/>
<path d="M234.562 54.9133L155.18 76.125L159.054 90.6255L238.437 69.4138L234.562 54.9133Z" fill="white"/>
<path d="M238.521 69.7309L159.139 90.9426C159.013 90.9762 158.853 90.8838 158.819 90.7577L154.928 76.1941C154.877 76.005 154.97 75.8453 155.096 75.8116L234.415 54.6167C234.604 54.5662 234.764 54.6587 234.814 54.8478L238.689 69.3484C238.739 69.5375 238.647 69.6972 238.521 69.7309ZM159.302 90.2911L238.055 69.2476L234.332 55.3145L155.579 76.358L159.302 90.2911Z" fill="#231F20"/>
<path d="M201.111 62.2011L186.719 66.0469L205.563 136.57L219.955 132.724L201.111 62.2011Z" fill="#68E1FD"/>
<path d="M201.955 62.8821L187.35 66.7846C187.162 66.8351 187.002 66.7426 186.951 66.5535C186.901 66.3644 186.993 66.2046 187.182 66.1542L201.787 62.2516C201.976 62.2012 202.135 62.2936 202.186 62.4827C202.236 62.6719 202.144 62.8316 201.955 62.8821Z" fill="#231F20"/>
<path d="M274.38 206.25L275.26 181.076L256.405 178.227L255.266 206.509" fill="white"/>
<path d="M255.269 206.927C255.062 206.927 254.906 206.72 254.906 206.513L256.046 178.23C256.046 178.023 256.253 177.867 256.46 177.867C256.46 177.867 256.46 177.867 256.512 177.867L275.367 180.716C275.574 180.768 275.678 180.923 275.678 181.131L274.849 206.254C274.849 206.461 274.694 206.616 274.487 206.616C274.487 206.616 274.487 206.616 274.435 206.616C274.228 206.616 274.072 206.409 274.072 206.202L274.901 181.441L256.823 178.696L255.683 206.513C255.683 206.72 255.476 206.875 255.269 206.927Z" fill="#231F20"/>
<path d="M182.438 195.373L203.986 169.836L223.308 174.55L198.703 199.673" fill="white"/>
<path d="M198.703 200.036C198.599 200.036 198.496 199.985 198.444 199.933C198.288 199.777 198.288 199.518 198.444 199.363L222.531 174.706L204.142 170.2L182.748 195.582C182.593 195.737 182.334 195.737 182.179 195.633C182.023 195.478 182.023 195.219 182.127 195.064L203.727 169.526C203.831 169.423 203.986 169.371 204.142 169.423L223.411 174.136C223.619 174.188 223.722 174.395 223.67 174.603C223.67 174.654 223.619 174.706 223.567 174.758L199.014 199.881C198.91 199.985 198.806 200.036 198.703 200.036Z" fill="#231F20"/>
<path d="M265.995 66.7031C265.995 66.7031 236.676 74.7321 236.987 75.8717C237.298 77.0113 242.996 98.1457 242.996 98.1457L261.229 93.5873L265.995 66.7031Z" fill="#68E1FD"/>
<path d="M266.612 66.548C266.612 66.548 257.288 69.0344 251.59 72.2978C245.788 75.613 247.446 110.63 247.446 110.63L289.715 119.125C289.715 119.125 297.744 96.3848 297.226 86.0248C296.708 75.6648 290.233 60.9018 266.612 66.548Z" fill="#68E1FD"/>
<path d="M245.528 93.5368C245.476 93.5368 245.425 93.5368 245.373 93.5368C245.166 93.4332 245.062 93.226 245.166 93.0188C247.963 86.233 252.107 75.873 252.21 75.1478C252.21 74.9406 252.366 74.7852 252.573 74.7852C252.78 74.7852 252.987 74.9924 252.987 75.1996C252.987 75.8212 248.015 88.0978 245.891 93.3296C245.839 93.4332 245.684 93.5368 245.528 93.5368Z" fill="#231F20"/>
<path d="M269.149 62.2482L266.145 71.2096C266.145 71.2096 266.093 76.545 271.998 76.0788C275.521 75.768 278.732 73.9032 280.753 70.9506L283.239 54.8926C282.358 54.1156 281.737 53.0278 281.633 51.8363C281.53 50.9557 281.53 50.0234 281.685 49.1428C281.944 47.9514 282.41 46.8118 282.98 45.724C280.131 45.1542 277.645 44.0146 275.676 41.7872C275.21 41.2174 274.796 40.6476 274.381 40.026C274.174 39.767 270.444 41.5282 270.03 41.6836C268.217 42.616 266.404 43.911 265.316 45.6722C264.436 47.1744 264.125 48.8837 263.814 50.5413C263.4 52.8723 263.141 55.2552 263.141 57.5862C263.296 62.1964 269.149 62.2482 269.149 62.2482Z" fill="white"/>
<path d="M271.272 76.4928C269.873 76.5446 268.474 76.0784 267.387 75.146C266.351 74.11 265.781 72.6596 265.729 71.2092C265.729 71.1574 265.729 71.1056 265.729 71.1056L268.578 62.6104C267.076 62.455 262.88 61.678 262.828 57.6894C262.828 55.3066 263.035 52.9238 263.502 50.541C263.761 48.9352 264.071 47.1222 265.056 45.5164C266.04 43.9106 267.697 42.4602 269.925 41.3724C274.328 39.1968 274.587 39.6112 274.742 39.8184C275.105 40.3882 275.519 40.958 275.985 41.5278C277.747 43.4962 279.974 44.6876 283.082 45.3092C283.289 45.361 283.445 45.5682 283.393 45.7754C283.393 45.8272 283.393 45.8272 283.341 45.879C282.771 46.915 282.357 48.0028 282.046 49.1942C281.891 50.023 281.839 50.9036 281.994 51.7324C282.098 52.8202 282.616 53.8562 283.445 54.5814C283.548 54.685 283.6 54.7886 283.6 54.944L281.114 71.002C281.114 71.0538 281.114 71.1056 281.062 71.1574C279.042 74.2136 275.726 76.182 272.049 76.5446C271.79 76.4928 271.531 76.4928 271.272 76.4928ZM266.558 71.261C266.61 72.5042 267.076 73.6956 267.956 74.5762C268.889 75.4568 270.236 75.8194 271.997 75.664C275.364 75.3532 278.472 73.592 280.388 70.7948L282.823 55.0476C281.942 54.2188 281.373 53.0792 281.269 51.8878C281.114 50.9554 281.165 50.023 281.321 49.0906C281.58 48.0546 281.942 47.0186 282.46 46.0344C279.456 45.361 277.177 44.066 275.416 42.0976C275.001 41.5796 274.587 41.0098 274.224 40.4918C272.877 40.958 271.582 41.5278 270.287 42.1494C268.837 42.8746 266.869 44.1178 265.729 45.9826C264.848 47.433 264.589 49.1424 264.279 50.7482C263.864 53.0792 263.605 55.4102 263.605 57.7412C263.657 61.8334 268.889 61.937 269.148 61.937C269.355 61.937 269.51 62.0924 269.51 62.3514C269.51 62.4032 269.51 62.455 269.51 62.455L266.558 71.261Z" fill="#231F20"/>
<path d="M280.131 53.4398C280.39 52.7664 280.908 52.2484 281.478 51.8858C282.048 51.575 282.721 51.3678 283.343 51.316C283.705 51.2124 284.068 51.2124 284.431 51.316C284.69 51.4196 284.897 51.5232 285.104 51.6786C285.57 52.0412 285.933 52.5074 286.088 53.0772C286.14 53.5434 286.088 54.0614 285.933 54.5276C285.777 55.0456 285.57 55.5118 285.311 55.978C284.172 57.8428 281.685 58.4126 279.872 57.2212C279.872 57.2212 279.82 57.2212 279.82 57.1694" fill="white"/>
<path d="M281.947 58.2047C281.118 58.2047 280.289 57.9457 279.564 57.4795C279.408 57.3759 279.357 57.1169 279.46 56.9615C279.564 56.8061 279.823 56.7543 279.978 56.8579C281.636 57.9457 283.863 57.4795 284.951 55.8219C284.951 55.8219 284.951 55.7701 285.003 55.7701C285.262 55.3557 285.469 54.8895 285.573 54.4233C285.728 54.0089 285.78 53.5945 285.728 53.1801C285.573 52.7139 285.314 52.2477 284.899 51.9887C284.744 51.8333 284.588 51.7815 284.381 51.6779C284.07 51.6261 283.76 51.6261 283.501 51.7297C282.879 51.8333 282.309 51.9887 281.739 52.2995C281.221 52.6103 280.755 53.0765 280.548 53.6463C280.444 53.8535 280.237 53.9571 280.03 53.8535C279.823 53.7499 279.719 53.5427 279.823 53.3355C280.134 52.6103 280.703 51.9887 281.377 51.5743C281.998 51.2635 282.672 51.0045 283.397 50.9527C283.811 50.8491 284.226 50.8491 284.64 50.9527C284.951 51.0563 285.21 51.2117 285.417 51.3671C285.987 51.7815 286.401 52.3513 286.557 53.0247C286.609 53.5427 286.557 54.1125 286.401 54.6305C286.246 55.2003 286.039 55.7183 285.728 56.1845C284.847 57.4277 283.449 58.2047 281.947 58.2047Z" fill="#231F20"/>
<path d="M267.648 67.0158C269.824 67.223 272 66.6532 273.813 65.4618C276.713 63.4416 276.869 60.8516 276.869 60.8516C274.434 61.9394 271.844 62.4056 269.202 62.302L267.648 67.0158Z" fill="#231F20"/>
<path d="M268.532 67.4283C268.221 67.4283 267.911 67.4282 267.6 67.3764C267.496 67.3764 267.393 67.2729 267.341 67.2211C267.289 67.1175 267.289 67.0139 267.289 66.9103L268.791 62.1964C268.843 62.041 268.998 61.9374 269.206 61.9374C271.796 62.041 274.334 61.5748 276.665 60.5389C276.768 60.4871 276.924 60.4871 277.079 60.5389C277.183 60.5907 277.286 60.746 277.235 60.9014C277.235 61.005 277.027 63.6987 274.023 65.7707C272.417 66.8585 270.501 67.4283 268.532 67.4283ZM268.17 66.6513C270.086 66.7549 272.003 66.1851 273.609 65.1491C274.904 64.3203 275.888 63.0253 276.354 61.5231C274.178 62.3519 271.847 62.7662 269.465 62.7144L268.17 66.6513Z" fill="#231F20"/>
<path d="M273.141 46.9141C273.141 46.9141 269.308 50.7473 269.878 51.6797C270.448 52.6121 272.52 52.4567 272.52 52.4567" fill="white"/>
<path d="M272.207 52.8208C271.534 52.8208 270.083 52.7172 269.514 51.8366C268.892 50.8006 271.327 48.107 272.829 46.6048C272.984 46.4494 273.243 46.4494 273.399 46.6048C273.554 46.7602 273.554 47.0192 273.399 47.1228C271.586 48.9876 270.032 50.956 270.187 51.4222C270.498 51.9402 271.741 52.0438 272.466 51.992C272.673 51.992 272.881 52.1474 272.881 52.3546C272.881 52.5618 272.725 52.769 272.518 52.769L272.207 52.8208Z" fill="#231F20"/>
<path d="M267.29 54.6348L274.697 54.5312C274.697 54.5312 274.386 59.5558 270.035 59.8148C265.684 60.0738 267.29 54.6348 267.29 54.6348Z" fill="#231F20"/>
<path d="M274.898 46.9147C275.106 46.5003 275.52 46.1895 275.986 46.1377C276.815 45.9823 277.281 46.9665 277.281 46.9665" fill="white"/>
<path d="M277.232 47.3787C277.077 47.3787 276.921 47.2751 276.87 47.1715C276.87 47.1715 276.559 46.4463 275.989 46.5499C275.678 46.6017 275.367 46.7571 275.212 47.0679C275.16 47.2751 274.901 47.3787 274.694 47.3269C274.487 47.2751 274.383 47.0679 274.435 46.8607C274.694 46.2909 275.212 45.8765 275.834 45.8247C276.559 45.7729 277.284 46.1873 277.543 46.9125C277.647 47.1197 277.543 47.3269 277.336 47.4305C277.336 47.3269 277.284 47.3787 277.232 47.3787Z" fill="#231F20"/>
<path d="M268.008 46.239C268.215 45.8246 268.629 45.5138 269.096 45.462C269.924 45.3066 270.391 46.2907 270.391 46.2907" fill="white"/>
<path d="M270.396 46.7068C270.241 46.7068 270.086 46.6032 270.034 46.4996C270.034 46.4996 269.723 45.7744 269.153 45.878C268.842 45.9298 268.532 46.0852 268.376 46.396C268.324 46.6032 268.065 46.7068 267.858 46.655C267.651 46.6032 267.547 46.396 267.599 46.1888C267.858 45.619 268.376 45.2046 268.946 45.1528C269.671 45.101 270.396 45.5154 270.655 46.2406C270.759 46.4478 270.655 46.655 270.448 46.7586C270.5 46.7068 270.448 46.7068 270.396 46.7068Z" fill="#231F20"/>
<path d="M288.888 118.607L282.827 199.364L182.18 178.799L249.053 110.164L288.888 118.607Z" fill="#231F20"/>
<path d="M284.744 79.6523C284.744 79.6523 225.64 109.645 216.627 111.354C207.613 113.063 196.943 110.059 197.357 112.649C197.771 115.239 202.951 116.482 202.951 116.482C202.951 116.482 186.686 119.072 187.515 120.782C188.344 122.491 199.066 120.367 199.066 120.367C199.066 120.367 185.806 124.2 188.758 125.962C191.711 127.723 201.19 123.838 201.19 123.838C201.19 123.838 187.049 131.09 190.934 131.556C194.819 132.022 201.656 128.137 201.656 128.137C201.656 128.137 190.934 133.732 195.233 134.146C199.533 134.56 263.35 111.872 284.744 99.0255" fill="white"/>
<path d="M195.335 134.458H195.18C194.351 134.354 193.937 134.095 193.833 133.629C193.729 132.955 194.662 132.023 195.957 131.039C194.196 131.609 192.383 132.023 190.88 131.868C190.311 131.816 189.948 131.557 189.896 131.194C189.689 130.055 193.419 127.672 196.837 125.703C193.885 126.532 190.311 127.257 188.601 126.273C188.187 126.118 187.928 125.703 187.98 125.237C188.135 124.046 191.191 122.647 194.144 121.559C191.036 121.922 187.721 122.077 187.203 120.938C187.099 120.731 187.099 120.472 187.203 120.316C187.98 118.762 197.148 117.105 201.292 116.379C199.686 115.758 197.304 114.566 196.993 112.702C196.941 112.391 197.045 112.028 197.252 111.821C197.977 110.992 200.36 111.096 203.882 111.303C207.612 111.51 212.274 111.769 216.573 110.992C225.431 109.335 283.965 79.6015 284.587 79.3425C284.794 79.2389 285.001 79.3425 285.105 79.4979C285.208 79.7051 285.105 79.9123 284.949 80.0159C282.515 81.2591 225.69 110.06 216.729 111.769C212.326 112.598 207.612 112.339 203.83 112.132C200.981 111.976 198.34 111.821 197.822 112.391C197.77 112.443 197.77 112.546 197.77 112.65C198.081 114.566 201.707 115.861 203.053 116.172C203.261 116.224 203.416 116.431 203.364 116.638C203.312 116.794 203.209 116.897 203.053 116.949C196.112 118.037 188.446 119.798 187.928 120.731C188.446 121.508 193.367 121.197 199.065 120.057C199.272 120.005 199.479 120.109 199.531 120.316C199.583 120.523 199.479 120.731 199.272 120.782C194.351 122.233 188.964 124.357 188.808 125.393C188.808 125.496 188.964 125.6 189.067 125.652C191.398 126.998 198.599 124.564 201.137 123.476C201.344 123.372 201.551 123.476 201.655 123.683C201.758 123.89 201.655 124.098 201.448 124.201C196.371 126.791 190.88 130.158 190.725 131.091C190.829 131.142 190.932 131.142 191.036 131.142C193.937 131.453 198.65 129.226 200.619 128.242L201.499 127.775C201.707 127.672 201.914 127.775 202.017 127.931C202.121 128.138 202.069 128.345 201.862 128.449C201.81 128.501 201.448 128.708 200.878 128.967C197.045 131.039 194.455 133.059 194.61 133.525C194.61 133.525 194.714 133.681 195.283 133.732C197.148 133.888 212.895 128.915 233.46 121.197C244.493 117.053 271.481 106.537 284.587 98.6639C284.794 98.5603 285.001 98.6121 285.105 98.8193C285.208 99.0265 285.156 99.2337 284.949 99.3373C264.281 111.666 201.344 134.458 195.335 134.458Z" fill="#231F20"/>
<path d="M273.81 105.035C273.81 105.035 264.693 83.6421 265.522 83.3313C266.351 83.0205 283.807 71.6245 285.206 72.4533C286.605 73.2821 292.044 89.8581 290.334 94.7273C288.625 99.5965 273.81 105.035 273.81 105.035Z" fill="#68E1FD"/>
<path d="M276.095 105.085C275.939 105.085 275.784 104.981 275.732 104.826C275.68 104.618 275.784 104.411 275.991 104.359C276.095 104.308 288.786 100.008 293.81 93.6368C293.966 93.4814 294.225 93.5332 294.38 93.6886C294.484 93.7922 294.484 93.9476 294.432 94.103C289.252 100.682 276.768 104.929 276.25 105.085C276.146 105.085 276.146 105.085 276.095 105.085Z" fill="#231F20"/>
<path d="M286.243 58.5704C286.036 58.5704 285.881 58.3632 285.881 58.156C285.881 58.0006 285.984 57.8452 286.14 57.7934C289.04 56.9128 291.371 54.789 292.459 52.0436C293.599 49.2464 293.858 46.1902 293.236 43.2376C292.822 40.3886 291.579 37.695 289.662 35.5194C287.59 33.3438 284.689 32.1524 282.099 32.4632L281.529 32.515C281.115 32.5668 280.701 32.6186 280.286 32.6186C279.768 32.6186 279.25 32.515 278.732 32.4114L278.421 32.3596C269.615 30.5984 261.068 36.2964 259.307 45.1024C258.841 47.4334 258.893 49.868 259.463 52.199C259.67 52.9242 260.084 54.1674 261.017 54.271C261.224 54.271 261.379 54.4264 261.379 54.6854C261.379 54.9444 261.224 55.048 260.965 55.048C260.913 55.048 260.913 55.048 260.861 55.048C259.825 54.9444 259.048 53.9602 258.634 52.4062C256.355 43.2894 261.949 34.069 271.066 31.7898C273.5 31.1682 276.039 31.1164 278.525 31.6344L278.836 31.6862C279.665 31.9452 280.545 31.9452 281.374 31.7898C281.581 31.738 281.788 31.738 281.944 31.6862C284.845 31.3754 287.953 32.6186 290.18 35.0014C292.2 37.2806 293.495 40.0778 293.961 43.0822C294.583 46.1902 294.324 49.4018 293.133 52.3544C291.786 55.4624 289.248 57.7934 286.295 58.5704H286.243Z" fill="#231F20"/>
<path d="M280.289 32.2548C280.289 32.2548 284.226 29.3022 290.649 30.908C297.072 32.5138 299.507 44.1688 293.498 50.4884C293.498 50.4884 294.43 33.3426 280.289 32.2548Z" fill="#231F20"/>
<path d="M303.13 68.9817C299.763 68.6709 296.862 67.5831 294.738 65.8219C292.252 63.7499 290.801 60.6937 290.957 57.7929C290.957 57.5857 291.164 57.4303 291.371 57.4303C291.578 57.4303 291.734 57.6375 291.734 57.8447C291.578 60.4865 292.925 63.3355 295.256 65.2003C297.121 66.6507 299.348 67.6349 301.679 67.9975C301.058 67.2723 300.643 66.3917 300.488 65.4075C300.384 63.9571 300.591 62.5067 301.161 61.1599C302.094 58.8807 303.181 56.7051 304.476 54.6331C306.393 51.4215 308.154 48.3653 308.569 44.7911C309.346 37.8499 304.373 31.5821 297.432 30.8051C295.826 30.6497 294.272 30.7533 292.718 31.1677C292.511 31.2195 292.303 31.1159 292.252 30.9087C292.2 30.7015 292.303 30.4943 292.511 30.4425C299.659 28.4741 307.015 32.7217 308.983 39.8701C309.449 41.5277 309.553 43.1853 309.346 44.8947C308.931 48.6243 307.015 51.8877 305.15 55.0475C303.855 57.0677 302.767 59.2433 301.886 61.4707C301.368 62.6621 301.161 64.0089 301.265 65.3039C301.368 66.5471 302.145 67.6867 303.285 68.2047C303.492 68.3083 303.596 68.5155 303.492 68.7227C303.44 68.8781 303.285 68.9817 303.13 68.9817Z" fill="#231F20"/>
<path d="M268.274 86.491C268.067 86.491 267.859 86.3356 267.859 86.1284C267.859 85.973 267.911 85.8694 268.067 85.8176L283.71 76.1828C283.866 76.0792 284.125 76.131 284.228 76.2864C284.332 76.4418 284.28 76.7008 284.125 76.8044L268.481 86.4392C268.429 86.4392 268.326 86.491 268.274 86.491Z" fill="#231F20"/>
<path d="M271.068 132.072C271.017 132.072 270.965 132.072 270.861 132.021C270.706 131.917 270.602 131.71 270.706 131.503L278.994 116.377C279.097 116.222 279.253 116.118 279.46 116.17C279.615 116.222 279.771 116.377 279.771 116.532V129.949C279.771 130.156 279.615 130.363 279.356 130.363C279.097 130.363 278.942 130.208 278.942 129.949V118.035L271.379 131.813C271.327 132.021 271.224 132.072 271.068 132.072Z" fill="white"/>
<path d="M248.695 29.8203C248.695 29.8203 247.089 35.9327 241.961 36.0363C241.961 36.0363 247.348 37.5385 248.488 42.6149C248.488 42.6149 249.938 38.0047 254.756 36.7615C254.756 36.8133 250.404 35.3111 248.695 29.8203Z" fill="#D1D3D4"/>
<path d="M101.688 76.0773C101.688 76.0773 105.78 81.9307 102.154 86.4373C102.154 86.4373 107.385 82.8631 112.617 85.6085C112.617 85.6085 109.665 80.9983 112.099 75.9219C112.099 75.9219 107.696 78.6155 101.688 76.0773Z" fill="#D1D3D4"/>
<path d="M138.311 28.4219C138.311 28.4219 139.192 38.6265 131.422 41.5791C131.422 41.5791 140.487 40.9575 144.942 48.0541C144.942 48.0541 144.631 40.2323 151.261 35.7257C151.313 35.7257 143.906 35.8811 138.311 28.4219Z" fill="#D1D3D4"/>
<path d="M28.04 46.4575C28.04 46.4575 24.9894 38.5412 25.0791 36.6521C25.1688 34.763 26.9633 27.2964 25.2586 26.4868C24.1819 25.9471 23.0155 25.8571 21.8491 25.9471C21.8491 25.9471 17.1834 12.5433 15.8376 12.6333C14.4917 12.7232 16.6451 20.6395 17.9909 24.7776C17.9909 24.7776 9.01856 27.9261 10.0055 30.355C10.7233 32.2441 18.2601 47.4471 21.221 52.3048" fill="white"/>
<path d="M21.0429 52.9311C20.8635 52.9311 20.5943 52.8411 20.5046 52.6612C17.5437 47.7135 10.0966 32.4206 9.28913 30.6215C9.10968 30.1717 9.10968 29.6319 9.37885 29.1821C10.2761 27.1131 15.3006 25.0441 17.0951 24.4144C15.839 20.2763 14.0445 13.7993 14.9417 12.4499C15.1212 12.18 15.3903 12.0001 15.6595 12.0001C16.1081 12.0001 17.454 11.8202 22.1196 25.224C23.286 25.134 24.3627 25.4039 25.4394 25.8537C27.0544 26.6633 26.6058 30.0817 25.9777 34.3997C25.7983 35.2993 25.7086 36.1089 25.7086 36.5587C25.6189 37.9081 27.4133 43.0357 28.6695 46.0943C28.7592 46.4541 28.5797 46.8139 28.2208 46.9039C27.9517 46.9938 27.5928 46.8139 27.5031 46.5441C27.1442 45.7344 24.3627 38.4478 24.4524 36.4687C24.4524 35.929 24.6319 35.2093 24.7216 34.1298C24.9908 32.4206 25.7983 27.293 24.9011 26.8432C23.9141 26.3934 22.9271 26.2135 21.8505 26.3934C21.5813 26.4834 21.2224 26.3035 21.1327 26.0336C19.2485 20.7261 17.0054 15.0587 15.9287 13.4395C15.9287 14.8788 16.7362 18.9269 18.441 24.4144C18.5307 24.7742 18.3512 25.0441 18.0821 25.224C15.4801 26.1236 11.1733 28.1026 10.5453 29.542C10.4555 29.6319 10.4555 29.8118 10.5453 29.9918C11.263 31.8809 18.7101 46.9938 21.671 51.8516C21.8505 52.1215 21.7607 52.4813 21.4916 52.7512C21.4916 52.7512 21.4916 52.7512 21.4018 52.7512C21.3121 52.9311 21.2224 52.9311 21.0429 52.9311Z" fill="#231F20"/>
<path d="M17.4547 37.4568C17.1855 37.4568 16.9164 37.2769 16.8266 37.007C16.2883 34.7581 17.6341 32.5091 18.8903 30.8899C17.1855 31.3397 15.4808 31.4296 13.6863 31.0698C12.8788 30.7999 12.7891 30.3501 12.7891 30.0802C12.7891 28.9108 15.6602 27.3815 21.4923 25.3125C21.8512 25.2225 22.2101 25.4024 22.2998 25.6723C22.3895 26.0321 22.2101 26.392 21.9409 26.4819C18.8006 27.5614 15.2116 29.0907 14.2246 29.9003C16.8266 30.53 20.6848 29.0007 20.6848 29.0007C20.9539 28.9108 21.3128 29.0007 21.4923 29.2706C21.6717 29.5405 21.582 29.9003 21.4025 30.0802C21.4025 30.0802 17.2752 33.7685 17.993 36.7371C18.0828 37.097 17.9033 37.3669 17.5444 37.4568C17.5444 37.4568 17.5444 37.4568 17.4547 37.4568Z" fill="#231F20"/>
<path d="M120.456 185.62C121.174 185.71 127.275 187.779 134.004 188.139C134.004 188.139 122.071 209.819 119.648 232.308L128.172 238.516C128.172 238.516 158.409 192.097 157.243 185.26C156.076 178.424 132.569 167.898 132.569 167.898L120.456 185.62Z" fill="white"/>
<path d="M128.175 239.146C128.086 239.146 127.906 239.146 127.816 239.056L119.293 232.939C119.113 232.849 119.023 232.579 119.023 232.399C121.177 212.608 130.777 193.177 133.02 188.859C129.162 188.499 125.394 187.78 121.715 186.7C121.267 186.61 120.908 186.43 120.459 186.34C120.28 186.34 120.01 186.16 119.921 185.981C119.831 185.801 119.831 185.531 120.01 185.351L132.123 167.539C132.303 167.269 132.661 167.179 132.931 167.359C133.918 167.809 156.707 178.064 157.964 185.171C159.22 192.278 130.059 236.987 128.803 238.876C128.714 239.056 128.534 239.146 128.355 239.146H128.175ZM120.28 232.039L127.996 237.617C136.609 224.393 157.515 190.748 156.618 185.351C155.72 179.953 139.57 171.767 132.841 168.709L121.536 185.261L122.074 185.351C126.022 186.52 130.059 187.24 134.097 187.51C134.276 187.51 134.546 187.6 134.635 187.87C134.725 188.05 134.725 188.319 134.635 188.499C134.366 188.679 122.792 210.089 120.28 232.039Z" fill="#231F20"/>
<path d="M153.384 137.945C153.384 137.945 166.304 143.703 170.521 149.01C174.648 154.318 176.981 159.895 174.469 159.715C171.957 159.535 165.227 152.608 165.227 152.608C165.227 152.608 169.624 161.514 166.483 159.985C163.343 158.456 162.536 152.698 161.638 151.709C160.741 150.719 151.141 145.772 151.141 145.772" fill="white"/>
<path d="M167.116 160.793C166.758 160.793 166.488 160.703 166.219 160.523C163.886 159.353 162.81 156.295 162.002 154.046C161.823 153.416 161.554 152.697 161.195 152.157C160.567 151.527 154.555 148.199 150.787 146.31C150.518 146.13 150.338 145.77 150.518 145.5C150.697 145.23 151.056 145.05 151.325 145.23C152.94 146.04 161.105 150.268 162.002 151.347C162.451 152.067 162.899 152.876 163.079 153.686C163.797 155.755 164.784 158.544 166.668 159.443L166.847 159.533C166.937 158.724 165.95 155.845 164.514 152.876C164.335 152.607 164.425 152.157 164.784 151.977C165.053 151.797 165.412 151.887 165.591 152.157C168.103 154.766 172.769 158.994 174.384 159.084C174.653 159.084 174.653 158.994 174.653 158.994C175.102 158.184 173.666 154.226 169.898 149.368C165.86 144.24 153.12 138.573 153.03 138.483C152.671 138.303 152.581 137.943 152.671 137.674C152.85 137.314 153.209 137.224 153.478 137.314C154.017 137.584 166.668 143.161 170.885 148.558C173.935 152.517 176.807 157.644 175.82 159.533C175.55 160.073 174.922 160.343 174.384 160.343C172.679 160.253 169.36 157.464 167.116 155.395C168.014 157.644 168.552 159.803 167.834 160.523C167.655 160.703 167.386 160.883 167.116 160.793Z" fill="#231F20"/>
<path d="M67.6094 155.484L70.3011 209.639C70.3011 209.639 92.732 209.189 100.179 204.601L100.897 175.904C100.897 175.904 121.533 190.208 127.993 192.277C127.993 192.277 142.26 176.534 144.413 169.427L108.434 143.609L67.6094 155.484Z" fill="#231F20"/>
<path d="M70.2144 210.181C69.9453 210.181 69.6761 209.911 69.6761 209.641L66.9844 155.487C66.9844 155.217 67.1638 155.037 67.3433 154.947L108.257 143.072C108.437 142.982 108.616 143.072 108.706 143.162L144.685 168.98C144.865 169.16 144.954 169.34 144.865 169.61C142.621 176.717 128.894 192.01 128.355 192.639C128.176 192.819 127.997 192.819 127.817 192.819C121.985 190.93 105.386 179.685 101.349 176.987L100.721 204.694C100.721 204.874 100.631 205.054 100.451 205.144C92.9145 209.641 71.2014 210.181 70.2144 210.181ZM68.1508 155.936L70.7528 209.102C74.1623 209.012 92.7351 208.202 99.5541 204.244L100.272 175.817C100.272 175.547 100.541 175.277 100.81 175.277C100.9 175.277 101.079 175.277 101.169 175.367C101.349 175.457 121.088 189.131 127.817 191.56C129.701 189.491 141.455 176.177 143.788 169.61L108.437 144.152L68.1508 155.936Z" fill="#231F20"/>
<path d="M90.4859 92.1505C90.4859 92.1505 76.1301 92.6003 68.8624 88.3722C61.5948 84.1442 29.6532 41.4141 29.6532 41.4141L15.6562 49.1505L58.4545 120.397C58.4545 120.397 66.5296 142.707 65.9913 158.719C65.9913 158.719 100.086 157.64 116.416 148.014L109.777 122.736C109.777 122.736 122.069 136.5 130.592 139.828C139.116 143.157 158.048 149.904 158.048 149.904L159.394 136.95C159.394 136.95 123.145 116.799 114.173 98.8074C107.892 86.0333 90.4859 92.1505 90.4859 92.1505Z" fill="#68E1FD"/>
<path d="M95.6016 76.9523C96.4989 74.0737 96.2297 70.5653 94.2558 68.3164C93.0894 67.057 91.3846 65.9775 91.2052 64.2683C91.2052 63.5486 91.2949 62.8289 91.3846 62.1092C91.6538 58.5109 87.7059 55.3624 84.2964 56.4419C83.2197 56.8017 82.2328 57.4314 81.1561 57.6113C79.1822 57.7913 77.4774 56.3519 75.5035 56.4419C73.8885 56.5319 72.5426 57.7913 71.5557 59.1406C70.5687 60.49 69.8509 62.0193 68.5948 63.0988C65.6339 65.7076 61.5963 67.1469 64.1086 72.0946C65.0058 73.6239 66.1722 74.9733 67.5181 76.1427C67.6975 76.3226 67.877 76.5026 67.9667 76.7724C67.9667 77.1323 67.7873 77.4921 67.5181 77.762C66.5311 79.0214 66.1722 80.6406 66.4414 82.2599C66.9797 84.3289 68.4153 84.149 69.8509 85.1385C71.2865 86.1281 71.8248 87.6574 72.8118 88.9168C75.0549 91.7055 79.2719 92.1553 82.6814 90.8959C88.4237 88.8268 93.7174 82.8896 95.6016 76.9523Z" fill="white"/>
<path d="M78.9178 92.2451C76.4055 92.335 73.8933 91.2555 72.2782 89.3664C71.9193 88.9166 71.5604 88.4668 71.2913 87.9271C70.8427 87.1175 70.2146 86.3078 69.4071 85.7681C69.0482 85.4982 68.6893 85.3183 68.2407 85.1384C66.9845 84.7786 66.0873 83.6991 65.7284 82.5296C65.3695 80.7304 65.7284 78.9313 66.8948 77.4919C66.9845 77.312 67.164 77.1321 67.164 76.9522C67.164 76.8622 66.9845 76.7723 66.8948 76.6823L66.6256 76.4124C65.2798 75.243 64.2031 73.8936 63.3059 72.4543C61.0628 67.9564 63.6648 65.9773 66.2667 63.9982C66.8051 63.5484 67.4332 63.0986 67.9715 62.6488C68.779 61.8392 69.4968 61.0296 70.0351 60.0401C70.3043 59.5903 70.5735 59.2304 70.8427 58.7806C72.1885 56.8915 73.7138 55.902 75.2391 55.812C76.3158 55.812 77.3028 55.992 78.2 56.4417C79.5459 57.2514 81.2506 57.1614 82.5965 56.3518C83.0451 56.1719 83.404 55.9919 83.8526 55.812C87.2621 54.9124 90.6716 56.9815 91.5689 60.3999C91.7483 60.9396 91.7483 61.5693 91.7483 62.1091C91.7483 62.379 91.6586 62.5589 91.6586 62.8288C91.5688 63.2786 91.5689 63.6384 91.5689 64.0882C91.6586 65.0777 92.5558 65.8873 93.3633 66.697C93.7222 67.0568 94.0811 67.4166 94.44 67.7765C96.4139 70.0254 96.9523 73.6237 95.8756 77.0422C93.9914 83.2493 88.3388 89.3664 82.5067 91.4355C81.5198 91.9752 80.1739 92.2451 78.9178 92.2451ZM75.6877 57.0714H75.5083C73.983 57.1614 72.8166 58.5108 72.0091 59.5003C71.7399 59.8601 71.4707 60.3099 71.2016 60.6698C70.5735 61.7493 69.766 62.7388 68.8687 63.5484C68.3304 64.0882 67.7023 64.448 67.0743 64.9878C64.562 66.8769 62.6778 68.3162 64.4723 71.8246C65.2798 73.174 66.2667 74.4334 67.5229 75.5129L67.7921 75.7827C68.0612 76.0526 68.3304 76.4124 68.4201 76.7723C68.5098 77.312 68.2407 77.8518 67.8818 78.2116C66.9845 79.2911 66.6256 80.8204 66.8948 82.1698C67.164 83.3392 67.7921 83.6091 68.6893 83.9689C69.1379 84.1488 69.5865 84.4187 70.0351 84.6886C70.9324 85.4083 71.6502 86.2179 72.1885 87.2074C72.4577 87.6572 72.7269 88.107 73.0857 88.5568C75.3288 91.2555 79.3664 91.4355 82.2376 90.356C87.7107 88.3769 93.0044 82.6196 94.8886 76.7723C95.6064 74.4334 95.6961 71.015 93.6325 68.676C93.3633 68.3162 93.0044 67.9564 92.6455 67.6865C91.6586 66.697 90.5819 65.7974 90.4024 64.2681C90.3127 63.7284 90.4024 63.1886 90.4922 62.6488C90.4922 62.4689 90.5819 62.1991 90.5819 62.0191C90.5819 59.2304 88.3388 56.8915 85.5574 56.8915C85.1087 56.8915 84.7498 56.9815 84.3012 57.0714C83.9423 57.1614 83.5834 57.3413 83.2245 57.5212C81.6095 58.5108 79.5459 58.5108 77.9308 57.6112C77.213 57.2514 76.4953 57.1614 75.6877 57.0714Z" fill="#231F20"/>
<path d="M89.3243 86.5745L91.5674 93.6812C91.5674 93.6812 91.6571 97.1895 86.6326 97.6393C81.6081 98.0891 79.8136 95.0305 79.8136 95.0305L76.0452 81.6268C76.0452 81.6268 78.378 78.6581 74.7891 71.3715C74.7891 71.3715 82.7745 71.1916 89.5038 67.9531C89.5038 67.9531 92.4646 76.4992 93.0927 80.3674C93.7208 84.2356 89.3243 86.5745 89.3243 86.5745Z" fill="white"/>
<path d="M85.6417 98.2709C80.976 98.2709 79.2713 95.4822 79.1815 95.3023C79.1815 95.2123 79.0918 95.2123 79.0918 95.1224L75.3234 81.7186C75.2337 81.5387 75.3234 81.3588 75.4131 81.1788C75.4131 81.1788 77.3871 78.3002 74.0673 71.5533C73.9776 71.3734 73.9776 71.1035 74.0673 70.9236C74.157 70.7437 74.3365 70.6537 74.6056 70.6537C74.6954 70.6537 82.591 70.4738 89.0512 67.3253C89.2306 67.2353 89.4101 67.2353 89.5895 67.3253C89.769 67.4152 89.8587 67.5052 89.9484 67.6851C90.0381 68.045 92.9093 76.3211 93.5373 80.1893C94.1654 83.6977 91.1148 85.9466 89.9484 86.7562L92.1018 93.3232C92.1018 93.4132 92.1018 93.4131 92.1018 93.5031C92.1018 93.5031 92.1915 97.6412 86.5389 98.091C86.2697 98.2709 85.9108 98.3608 85.6417 98.2709ZM80.348 94.7625C80.6171 95.1223 82.3219 97.3713 86.5389 97.0115C90.6662 96.6516 90.9354 94.2228 90.9354 93.773L88.6923 86.7562C88.6025 86.4864 88.6923 86.1265 88.9614 86.0366C88.9614 86.0366 92.9093 83.8776 92.3709 80.5491C91.4737 76.591 90.397 72.7228 89.0512 68.9445C84.8341 70.7437 80.2582 71.8232 75.6823 72.0931C78.2843 77.8504 77.1179 80.909 76.6693 81.8985L80.348 94.7625Z" fill="#231F20"/>
<path d="M78.1093 80.5449C77.7504 79.9152 77.212 79.4654 76.4942 79.2855C75.8662 79.1056 75.2381 79.0156 74.61 79.0156C74.2512 79.0156 73.8923 79.0156 73.5334 79.1955C73.2642 79.2855 73.0847 79.4654 72.9053 79.6453C72.4567 80.0951 72.1875 80.6349 72.1875 81.1746C72.1875 81.6244 72.3669 82.1642 72.5464 82.524C72.7258 82.9738 73.0847 83.4236 73.3539 83.8734C74.7895 85.4926 77.3018 85.6725 78.9168 84.2332" fill="white"/>
<path d="M76.31 85.8612H76.0409C74.7847 85.7712 73.7081 85.2315 72.9005 84.3319C72.5416 83.8821 72.2725 83.4323 72.0033 82.8926C71.7341 82.3528 71.5547 81.8131 71.5547 81.1834C71.6444 80.4637 71.9136 79.744 72.4519 79.2043C72.6314 78.9344 72.9005 78.7545 73.2594 78.5746C73.7081 78.3947 74.1567 78.3047 74.6053 78.3947C75.3231 78.3947 76.0409 78.4846 76.7587 78.7545C77.5662 79.0244 78.1942 79.5641 78.6429 80.2838C78.8223 80.5537 78.7326 81.0035 78.4634 81.1834C78.1942 81.3633 77.7456 81.2733 77.5662 81.0034C77.297 80.5537 76.8484 80.1938 76.31 79.924C75.7717 79.744 75.1436 79.6541 74.6053 79.6541C74.3361 79.6541 74.067 79.6541 73.7978 79.744C73.6183 79.834 73.5286 79.9239 73.4389 80.1039C73.08 80.3737 72.9005 80.8235 72.9005 81.2733C72.9005 81.6332 72.9903 81.993 73.2594 82.3528C73.4389 82.8026 73.7081 83.1624 73.9772 83.5223C74.6053 84.152 75.4128 84.6018 76.31 84.6018C77.2073 84.6018 78.0148 84.3319 78.7326 83.7022C79.0018 83.5223 79.4504 83.6122 79.6298 83.8821C79.7195 84.062 79.7195 84.3319 79.6298 84.6018C78.6429 85.4114 77.4765 85.8612 76.31 85.8612Z" fill="#231F20"/>
<path d="M87.7109 74.8828C87.7109 74.8828 91.4793 77.5816 91.1204 78.4811C90.7615 79.3807 88.9671 79.4707 88.9671 79.4707" fill="white"/>
<path d="M89.0557 80.097C88.6968 80.097 88.4276 79.8271 88.4276 79.4673C88.4276 79.1075 88.6968 78.8376 89.0557 78.8376C89.594 78.8376 90.1324 78.5677 90.581 78.2979C89.6837 77.1284 88.6071 76.2288 87.3509 75.4192C87.0818 75.2393 86.992 74.8794 87.1715 74.6096C87.1715 74.6096 87.1715 74.6096 87.1715 74.5196C87.3509 74.2497 87.7098 74.1598 88.0687 74.3397C92.2857 77.3983 91.8371 78.2979 91.7474 78.6577C91.2988 79.7372 89.5043 80.0071 89.0557 80.097Z" fill="#231F20"/>
<path d="M81.9688 74.161C82.2379 73.2615 83.1351 72.7217 84.0324 72.9916C84.3016 73.0815 84.481 73.1715 84.6605 73.2615" fill="white"/>
<path d="M81.9681 74.7947C81.8784 74.7947 81.7887 74.7947 81.7887 74.7947C81.4298 74.7047 81.2503 74.3449 81.4298 73.9851C81.6989 73.2654 82.2373 72.6357 82.9551 72.3658C83.6729 72.1859 84.4804 72.3658 85.1085 72.8156C85.3776 72.9955 85.4673 73.3554 85.2879 73.7152C85.1085 73.9851 84.7496 74.075 84.3907 73.8951C84.1215 73.6252 83.7626 73.5353 83.4037 73.6252C83.0448 73.8051 82.7756 74.075 82.5962 74.4349C82.4167 74.6148 82.1476 74.7947 81.9681 74.7947Z" fill="#231F20"/>
<path d="M86.9922 72.634C86.9922 72.634 87.2614 71.2846 89.325 72.1842L86.9922 72.634Z" fill="white"/>
<path d="M86.9909 73.2634H86.9012C86.5423 73.1734 86.3628 72.9035 86.4526 72.5437C86.5423 72.0939 86.8114 71.6441 87.2601 71.4642C88.0676 71.1044 88.9648 71.1943 89.6826 71.6441C90.0415 71.7341 90.1312 72.0939 90.0415 72.4538C89.9518 72.8136 89.5929 72.9036 89.234 72.8136H89.1443C88.3368 72.4538 87.9779 72.5437 87.7984 72.5437C87.7087 72.5437 87.619 72.6337 87.619 72.7236C87.5292 72.9935 87.3498 73.2634 86.9909 73.2634Z" fill="#231F20"/>
<path d="M89.3205 86.5742C89.3205 86.5742 85.6418 87.6537 83.5781 87.2039C83.5781 87.2039 86.2698 90.9822 90.5766 90.8922L89.3205 86.5742Z" fill="#231F20"/>
<path d="M90.4 91.5222C85.9139 91.5222 83.2221 87.744 83.1324 87.564C82.953 87.2942 83.0427 86.8444 83.3119 86.6645C83.4913 86.5745 83.6708 86.4846 83.8502 86.5745C85.6447 87.0243 89.2336 86.0348 89.2336 85.9448C89.5925 85.8548 89.8617 86.0348 90.0412 86.3946L91.387 90.7126C91.4767 91.0724 91.2973 91.4323 90.9384 91.5222C90.8487 91.5222 90.8487 91.5222 90.7589 91.5222H90.4ZM85.1064 87.9239C86.3625 89.1833 87.9775 89.9929 89.772 90.1728L88.8747 87.2942C87.6186 87.654 86.3625 87.8339 85.1064 87.9239Z" fill="#231F20"/>
<path d="M87.8856 83.069C86.1809 83.069 83.8481 82.2594 81.5152 79.2008C81.3358 78.9309 81.4255 78.4811 81.6947 78.3012C81.9639 78.1213 82.3227 78.2112 82.5022 78.3912C86.45 83.5188 89.9493 81.1799 90.039 81.1799C90.3082 80.9999 90.7568 81.0899 90.9362 81.3598C91.1157 81.6297 91.0259 82.0794 90.7568 82.2594C89.8595 82.7991 88.8726 83.069 87.8856 83.069Z" fill="#231F20"/>
<path d="M115.162 145.226C114.893 145.226 114.713 145.046 114.624 144.776C113.726 140.998 109.509 125.076 106.459 113.471C104.216 105.105 103.408 101.866 103.408 101.686C103.319 101.417 103.588 101.057 103.857 101.057C104.126 100.967 104.395 101.237 104.485 101.506C104.575 101.866 105.92 107.084 107.536 113.201C110.586 124.806 114.803 140.728 115.7 144.506C115.79 144.776 115.611 145.136 115.341 145.226H115.162Z" fill="#231F20"/>
<path d="M71.289 169.243C71.1096 169.243 70.9301 169.153 70.7507 168.974C70.5712 168.704 70.5712 168.254 70.9301 168.074C73.4424 166.275 73.891 163.306 74.1602 161.867C74.1602 161.597 74.2499 161.237 74.3396 160.967C74.5191 160.697 74.878 160.518 75.1471 160.697C75.1471 160.697 75.1471 160.697 75.2369 160.697C75.506 160.877 75.6855 161.237 75.506 161.507C75.506 161.597 75.506 161.777 75.4163 162.047C75.2369 163.486 74.6985 166.905 71.7376 169.064C71.6479 169.153 71.4685 169.243 71.289 169.243Z" fill="white"/>
<path d="M100.898 176.534C100.539 176.534 100.27 176.174 100.36 175.904C100.719 170.686 97.0402 161.061 97.0402 160.971C96.9504 160.611 97.0402 160.251 97.3991 160.161C97.758 160.071 98.1169 160.161 98.2066 160.521C98.386 160.971 102.065 170.507 101.616 175.994C101.526 176.264 101.257 176.534 100.898 176.534Z" fill="white"/>
<path d="M118.307 156.204C115.346 156.204 112.744 153.955 112.565 153.865C112.296 153.685 112.206 153.235 112.475 152.965C112.654 152.695 113.103 152.695 113.372 152.875C113.372 152.875 116.871 155.754 119.743 154.675C120.012 154.495 120.46 154.675 120.55 154.944C120.73 155.214 120.55 155.664 120.281 155.754H120.191C119.563 156.114 118.935 156.204 118.307 156.204Z" fill="white"/>
</g>
<defs>
<clipPath id="clip0_56_108958">
<rect width="325" height="196" fill="white"/>
</clipPath>
</defs>
</svg>
