<svg width="264" height="232" viewBox="0 0 264 232" fill="none" xmlns="http://www.w3.org/2000/svg">
<rect width="298" height="236" fill="white"/>
<path d="M77.0568 126.591C76.8682 126.591 76.6797 126.45 76.6797 126.214C76.6797 125.978 76.8211 125.836 77.0568 125.836L98.5055 124.656C98.6941 124.656 98.8827 124.798 98.8827 124.987C98.8827 125.175 98.7412 125.364 98.5527 125.364L77.0568 126.591Z" fill="#D1D3D4"/>
<path d="M128.488 192.572C128.441 192.572 128.347 192.572 128.3 192.525C128.158 192.431 128.111 192.195 128.205 192.053L138.718 175.675C138.812 175.533 139.048 175.486 139.189 175.58C139.33 175.675 139.377 175.911 139.283 176.052L128.771 192.431C128.724 192.525 128.63 192.572 128.488 192.572Z" fill="#D1D3D4"/>
<path d="M88.744 166.051C88.5555 166.051 88.4141 165.909 88.4141 165.673C88.4141 165.532 88.4612 165.437 88.6026 165.39L104.583 156.422C104.772 156.328 104.96 156.375 105.055 156.564C105.149 156.753 105.102 156.941 104.913 157.036L88.9326 166.004C88.8383 166.004 88.7912 166.051 88.744 166.051Z" fill="#D1D3D4"/>
<path d="M217.256 91.2456C217.209 91.2456 217.162 91.2456 217.115 91.2456C216.926 91.1984 216.832 90.9624 216.879 90.7736L220.792 80.248C220.839 80.0592 221.075 79.9648 221.263 80.012C221.452 80.0592 221.546 80.2952 221.499 80.484L217.586 91.0096C217.539 91.1512 217.398 91.2456 217.256 91.2456Z" fill="#D1D3D4"/>
<path d="M265.709 174.638C265.614 174.638 265.52 174.591 265.426 174.496L254.914 161.233C254.772 161.092 254.819 160.856 254.961 160.761C255.102 160.667 255.291 160.667 255.432 160.808L265.944 174.071C266.086 174.213 266.039 174.449 265.897 174.591C265.85 174.591 265.756 174.638 265.709 174.638Z" fill="#D1D3D4"/>
<path d="M111.856 111.638C111.762 111.638 111.667 111.591 111.62 111.544L104.078 105.078C103.936 104.936 103.889 104.747 104.031 104.558C104.172 104.417 104.361 104.417 104.502 104.511L112.045 110.978C112.186 111.119 112.233 111.308 112.092 111.497C112.045 111.591 111.95 111.638 111.856 111.638Z" fill="#D1D3D4"/>
<g clip-path="url(#clip0_56_109726)">
<rect width="222" height="156" transform="matrix(-1 0 0 1 259 79)" fill="white"/>
<path d="M139.969 99.3545C139.969 99.2011 139.921 99.0511 139.831 98.9268C139.741 98.8025 139.615 98.7102 139.47 98.6621C139.324 98.614 139.167 98.6127 139.021 98.6592C138.876 98.7057 138.748 98.7974 138.657 98.9209L138.508 99.123L138.257 99.124C132.055 99.1511 125.858 99.4703 119.687 100.078C119.891 100.268 120.065 100.504 120.17 100.803C120.433 101.55 120.124 102.306 119.694 102.824L119.504 103.031C119.241 103.289 118.948 103.49 118.669 103.664C118.363 103.855 118.138 103.978 117.869 104.154C117.367 104.482 116.999 104.849 116.892 105.271C116.738 105.874 117.185 106.63 117.912 106.984C118.642 107.34 119.507 107.354 120.474 107.352C126.318 107.337 132.162 107.325 138.007 107.311L138.508 107.309V120.773H139.969V99.3545Z" stroke="#D1D3D4"/>
<path d="M145.743 121.352H89.2021C85.777 121.352 82.8692 124.643 82.8691 128.879V129.678H127.736C129.25 129.678 130.702 130.281 131.771 131.354C132.841 132.428 133.441 133.883 133.441 135.399V135.899H68.3789C68.4367 137.182 68.7153 138.446 69.2061 139.635C69.7603 140.977 70.5728 142.196 71.5967 143.224C72.6208 144.251 73.837 145.066 75.1748 145.622C76.5126 146.178 77.9467 146.464 79.3945 146.464H88.4473V158.655H38.9951C39.2284 185.195 58.0019 208.181 84.0479 213.002C87.5871 213.656 91.1785 213.985 94.7773 213.983H242.947C243.357 213.983 243.76 213.881 244.121 213.686C244.482 213.49 244.789 213.207 245.015 212.863C245.24 212.519 245.377 212.124 245.412 211.714C245.448 211.303 245.382 210.89 245.219 210.512L235.828 188.729C235.649 188.313 235.361 187.955 234.994 187.692C234.627 187.43 234.196 187.273 233.747 187.238L189.402 183.797C188.806 183.751 188.233 183.55 187.736 183.217C187.24 182.883 186.837 182.427 186.568 181.893C186.299 181.358 186.172 180.761 186.199 180.163C186.227 179.565 186.408 178.983 186.725 178.476L190.312 172.722C190.625 172.221 191.059 171.807 191.574 171.521C192.09 171.234 192.669 171.084 193.259 171.084H213.704C214.181 171.084 214.647 170.946 215.048 170.686C215.448 170.426 215.766 170.055 215.962 169.618C216.158 169.181 216.223 168.696 216.15 168.223C216.078 167.749 215.871 167.307 215.554 166.949L208.942 159.488C208.71 159.226 208.425 159.017 208.106 158.873C207.788 158.73 207.443 158.655 207.094 158.655H173.718V146.464H181.374C181.866 146.464 182.348 146.316 182.757 146.04C183.165 145.764 183.483 145.372 183.668 144.913C183.853 144.454 183.898 143.95 183.796 143.466C183.694 142.982 183.45 142.538 183.096 142.194L177.338 136.6C176.876 136.151 176.258 135.899 175.616 135.899H166.19L166.057 135.608C162.083 126.97 154.466 121.523 146.14 121.355L145.743 121.352ZM166.037 170.338C169.326 170.338 172.48 171.649 174.806 173.981C177.131 176.314 178.437 179.477 178.437 182.775V183.275H81.9971C80.3687 183.275 78.7563 182.953 77.252 182.328C75.7475 181.703 74.3798 180.787 73.2285 179.632C72.0773 178.477 71.164 177.105 70.541 175.597C69.9181 174.088 69.5977 172.471 69.5977 170.838V170.338H166.037ZM163.562 158.655H98.6025V146.464H163.562V158.655Z" stroke="#D1D3D4"/>
<mask id="path-9-inside-1_56_109726" fill="white">
<path d="M85.7112 176.809H165.289C165.782 176.809 166.255 177.006 166.603 177.356C166.952 177.705 167.148 178.179 167.148 178.674V183.15H83.8519V178.674C83.8525 178.179 84.0486 177.705 84.3972 177.356C84.7457 177.006 85.2183 176.809 85.7112 176.809ZM149.671 177.555H140.896V182.404H149.671V177.555ZM150.415 182.404H159.19V177.555H150.415V182.404ZM140.152 177.555H131.377V182.404H140.152V177.555ZM130.633 177.555H121.858V182.404H130.633V177.555ZM121.114 177.555H112.339V182.404H121.114V177.555ZM111.595 177.555H102.82V182.404H111.595V177.555ZM102.076 177.555H93.3006V182.404H102.076V177.555ZM166.405 178.674C166.404 178.377 166.287 178.093 166.078 177.883C165.868 177.673 165.585 177.555 165.289 177.555H159.934V182.404H166.405V178.674ZM84.5957 182.404H92.5569V177.555H85.7112C85.4155 177.555 85.1319 177.673 84.9228 177.883C84.7136 178.093 84.596 178.377 84.5957 178.674V182.404Z"/>
</mask>
<path d="M85.7112 176.809L85.7101 175.809H85.7112V176.809ZM165.289 176.809V175.809L165.29 175.809L165.289 176.809ZM167.148 178.674L168.148 178.673V178.674H167.148ZM167.148 183.15H168.148V184.15H167.148V183.15ZM83.8519 183.15V184.15H82.8519V183.15H83.8519ZM83.8519 178.674H82.8519L82.8519 178.673L83.8519 178.674ZM149.671 177.555V176.555H150.671V177.555H149.671ZM140.896 177.555H139.896V176.555H140.896V177.555ZM140.896 182.404V183.404H139.896V182.404H140.896ZM149.671 182.404H150.671V183.404H149.671V182.404ZM150.415 182.404V183.404H149.415V182.404H150.415ZM159.19 182.404H160.19V183.404H159.19V182.404ZM159.19 177.555V176.555H160.19V177.555H159.19ZM150.415 177.555H149.415V176.555H150.415V177.555ZM140.152 177.555V176.555H141.152V177.555H140.152ZM131.377 177.555H130.377V176.555H131.377V177.555ZM131.377 182.404V183.404H130.377V182.404H131.377ZM140.152 182.404H141.152V183.404H140.152V182.404ZM130.633 177.555V176.555H131.633V177.555H130.633ZM121.858 177.555H120.858V176.555H121.858V177.555ZM121.858 182.404V183.404H120.858V182.404H121.858ZM130.633 182.404H131.633V183.404H130.633V182.404ZM121.114 177.555V176.555H122.114V177.555H121.114ZM112.339 177.555H111.339V176.555H112.339V177.555ZM112.339 182.404V183.404H111.339V182.404H112.339ZM121.114 182.404H122.114V183.404H121.114V182.404ZM111.595 177.555V176.555H112.595V177.555H111.595ZM102.82 177.555H101.82V176.555H102.82V177.555ZM102.82 182.404V183.404H101.82V182.404H102.82ZM111.595 182.404H112.595V183.404H111.595V182.404ZM102.076 177.555V176.555H103.076V177.555H102.076ZM93.3006 177.555H92.3006V176.555H93.3006V177.555ZM93.3006 182.404V183.404H92.3006V182.404H93.3006ZM102.076 182.404H103.076V183.404H102.076V182.404ZM166.405 178.674L167.405 178.673V178.674H166.405ZM165.289 177.555V176.555L165.29 176.555L165.289 177.555ZM159.934 177.555H158.934V176.555H159.934V177.555ZM159.934 182.404V183.404H158.934V182.404H159.934ZM166.405 182.404H167.405V183.404H166.405V182.404ZM84.5957 182.404V183.404H83.5957V182.404H84.5957ZM92.5569 182.404H93.5569V183.404H92.5569V182.404ZM92.5569 177.555V176.555H93.5569V177.555H92.5569ZM85.7112 177.555L85.7101 176.555H85.7112V177.555ZM84.5957 178.674H83.5957V178.673L84.5957 178.674ZM85.7112 176.809V175.809H165.289V176.809V177.809H85.7112V176.809ZM165.289 176.809L165.29 175.809C166.049 175.809 166.776 176.112 167.311 176.65L166.603 177.356L165.895 178.062C165.733 177.899 165.515 177.809 165.288 177.809L165.289 176.809ZM166.603 177.356L167.311 176.65C167.847 177.187 168.148 177.914 168.148 178.673L167.148 178.674L166.148 178.675C166.148 178.444 166.057 178.224 165.895 178.062L166.603 177.356ZM167.148 178.674H168.148V183.15H167.148H166.148V178.674H167.148ZM167.148 183.15V184.15H83.8519V183.15V182.15H167.148V183.15ZM83.8519 183.15H82.8519V178.674H83.8519H84.8519V183.15H83.8519ZM83.8519 178.674L82.8519 178.673C82.8528 177.914 83.1535 177.187 83.6889 176.65L84.3972 177.356L85.1054 178.062C84.9437 178.224 84.8522 178.444 84.8519 178.675L83.8519 178.674ZM84.3972 177.356L83.6889 176.65C84.2245 176.112 84.9513 175.809 85.7101 175.809L85.7112 176.809L85.7124 177.809C85.4853 177.809 85.2669 177.899 85.1054 178.062L84.3972 177.356ZM149.671 177.555V178.555H140.896V177.555V176.555H149.671V177.555ZM140.896 177.555H141.896V182.404H140.896H139.896V177.555H140.896ZM140.896 182.404V181.404H149.671V182.404V183.404H140.896V182.404ZM149.671 182.404H148.671V177.555H149.671H150.671V182.404H149.671ZM150.415 182.404V181.404H159.19V182.404V183.404H150.415V182.404ZM159.19 182.404H158.19V177.555H159.19H160.19V182.404H159.19ZM159.19 177.555V178.555H150.415V177.555V176.555H159.19V177.555ZM150.415 177.555H151.415V182.404H150.415H149.415V177.555H150.415ZM140.152 177.555V178.555H131.377V177.555V176.555H140.152V177.555ZM131.377 177.555H132.377V182.404H131.377H130.377V177.555H131.377ZM131.377 182.404V181.404H140.152V182.404V183.404H131.377V182.404ZM140.152 182.404H139.152V177.555H140.152H141.152V182.404H140.152ZM130.633 177.555V178.555H121.858V177.555V176.555H130.633V177.555ZM121.858 177.555H122.858V182.404H121.858H120.858V177.555H121.858ZM121.858 182.404V181.404H130.633V182.404V183.404H121.858V182.404ZM130.633 182.404H129.633V177.555H130.633H131.633V182.404H130.633ZM121.114 177.555V178.555H112.339V177.555V176.555H121.114V177.555ZM112.339 177.555H113.339V182.404H112.339H111.339V177.555H112.339ZM112.339 182.404V181.404H121.114V182.404V183.404H112.339V182.404ZM121.114 182.404H120.114V177.555H121.114H122.114V182.404H121.114ZM111.595 177.555V178.555H102.82V177.555V176.555H111.595V177.555ZM102.82 177.555H103.82V182.404H102.82H101.82V177.555H102.82ZM102.82 182.404V181.404H111.595V182.404V183.404H102.82V182.404ZM111.595 182.404H110.595V177.555H111.595H112.595V182.404H111.595ZM102.076 177.555V178.555H93.3006V177.555V176.555H102.076V177.555ZM93.3006 177.555H94.3006V182.404H93.3006H92.3006V177.555H93.3006ZM93.3006 182.404V181.404H102.076V182.404V183.404H93.3006V182.404ZM102.076 182.404H101.076V177.555H102.076H103.076V182.404H102.076ZM166.405 178.674L165.405 178.675C165.405 178.642 165.392 178.611 165.369 178.589L166.078 177.883L166.786 177.177C167.182 177.574 167.404 178.112 167.405 178.673L166.405 178.674ZM166.078 177.883L165.369 178.589C165.347 178.567 165.318 178.555 165.288 178.555L165.289 177.555L165.29 176.555C165.852 176.555 166.39 176.779 166.786 177.177L166.078 177.883ZM165.289 177.555V178.555H159.934V177.555V176.555H165.289V177.555ZM159.934 177.555H160.934V182.404H159.934H158.934V177.555H159.934ZM159.934 182.404V181.404H166.405V182.404V183.404H159.934V182.404ZM166.405 182.404H165.405V178.674H166.405H167.405V182.404H166.405ZM84.5957 182.404V181.404H92.5569V182.404V183.404H84.5957V182.404ZM92.5569 182.404H91.5569V177.555H92.5569H93.5569V182.404H92.5569ZM92.5569 177.555V178.555H85.7112V177.555V176.555H92.5569V177.555ZM85.7112 177.555L85.7123 178.555C85.6824 178.555 85.6531 178.567 85.631 178.589L84.9228 177.883L84.2145 177.177C84.6107 176.779 85.1485 176.555 85.7101 176.555L85.7112 177.555ZM84.9228 177.883L85.631 178.589C85.6088 178.611 85.5957 178.642 85.5957 178.675L84.5957 178.674L83.5957 178.673C83.5963 178.112 83.8185 177.574 84.2145 177.177L84.9228 177.883ZM84.5957 178.674H85.5957V182.404H84.5957H83.5957V178.674H84.5957Z" fill="#D1D3D4" mask="url(#path-9-inside-1_56_109726)"/>
<path d="M91.8227 124.555H94.0156V144.269H91.8227V124.555Z" fill="#D1D3D4"/>
<path d="M179.794 214.502H257.884C258.18 214.502 258.464 214.442 258.673 214.336C258.882 214.229 259 214.084 259 213.933C259 213.782 258.882 213.637 258.673 213.53C258.464 213.423 258.18 213.363 257.884 213.363H179.794C179.498 213.363 179.214 213.423 179.005 213.53C178.796 213.637 178.678 213.782 178.678 213.933C178.678 214.084 178.796 214.229 179.005 214.336C179.214 214.442 179.498 214.502 179.794 214.502Z" fill="#D1D3D4"/>
<path d="M214.376 222.316H246.728C247.024 222.316 247.308 222.198 247.517 221.989C247.726 221.779 247.844 221.494 247.844 221.197C247.844 220.9 247.726 220.616 247.517 220.406C247.308 220.196 247.024 220.078 246.728 220.078H214.376C214.081 220.078 213.797 220.196 213.588 220.406C213.378 220.616 213.261 220.9 213.261 221.197C213.261 221.494 213.378 221.779 213.588 221.989C213.797 222.198 214.081 222.316 214.376 222.316Z" fill="#D1D3D4"/>
<path d="M71.583 214.502H149.673C149.969 214.502 150.253 214.442 150.462 214.336C150.672 214.229 150.789 214.084 150.789 213.933C150.789 213.782 150.672 213.637 150.462 213.53C150.253 213.423 149.969 213.363 149.673 213.363H71.583C71.2872 213.363 71.0034 213.423 70.7942 213.53C70.585 213.637 70.4674 213.782 70.4674 213.933C70.4674 214.084 70.585 214.229 70.7942 214.336C71.0034 214.442 71.2872 214.502 71.583 214.502Z" fill="#D1D3D4"/>
<path d="M119.552 221.217H197.642C197.938 221.217 198.222 221.157 198.431 221.05C198.64 220.944 198.758 220.799 198.758 220.648C198.758 220.497 198.64 220.352 198.431 220.245C198.222 220.138 197.938 220.078 197.642 220.078H119.552C119.256 220.078 118.972 220.138 118.763 220.245C118.554 220.352 118.436 220.497 118.436 220.648C118.436 220.799 118.554 220.944 118.763 221.05C118.972 221.157 119.256 221.217 119.552 221.217Z" fill="#D1D3D4"/>
<path d="M179.796 227.186H257.886C258.182 227.186 258.465 227.126 258.674 227.019C258.883 226.912 259 226.767 259 226.616C259 226.466 258.883 226.321 258.674 226.214C258.465 226.107 258.182 226.047 257.886 226.047H179.796C179.5 226.047 179.217 226.107 179.008 226.214C178.799 226.321 178.682 226.466 178.682 226.616C178.682 226.767 178.799 226.912 179.008 227.019C179.217 227.126 179.5 227.186 179.796 227.186Z" fill="#D1D3D4"/>
<path d="M71.583 227.186H149.673C149.969 227.186 150.253 227.126 150.462 227.019C150.672 226.912 150.789 226.767 150.789 226.616C150.789 226.465 150.672 226.32 150.462 226.214C150.253 226.107 149.969 226.047 149.673 226.047H71.583C71.2875 226.047 71.0042 226.107 70.7953 226.214C70.5865 226.321 70.4692 226.466 70.4692 226.616C70.4692 226.767 70.5865 226.912 70.7953 227.019C71.0042 227.126 71.2875 227.186 71.583 227.186Z" fill="#D1D3D4"/>
</g>
<path d="M150.515 91.1669C150.392 91.1669 150.331 91.1057 150.27 91.0445C149.474 90.1265 149.78 88.7189 150.576 87.9845C151.372 87.3113 152.29 86.8829 153.269 86.6381C154.493 86.2097 155.839 85.9649 157.124 86.0261C157.492 85.3529 158.104 84.8021 158.777 84.3737C160.001 83.7617 161.347 83.3333 162.755 83.2109C162.938 83.2109 163.122 83.3333 163.183 83.5169C163.183 83.7005 163.061 83.8841 162.877 83.9453C161.592 84.0677 160.307 84.4349 159.144 84.9857C158.654 85.2917 158.226 85.6589 157.92 86.1485C158.838 86.3933 159.634 87.0665 160.123 87.8621C160.49 88.4741 160.552 89.2085 160.368 89.8817C160.368 89.9429 160.246 90.0653 160.184 90.0653C159.511 90.3713 158.777 90.3713 158.165 90.0041C157.369 89.6369 156.818 88.8413 156.696 87.9845C156.635 87.5561 156.696 87.0665 156.818 86.6993C155.656 86.6993 154.554 86.9441 153.452 87.3113C152.596 87.4949 151.739 87.8621 151.066 88.4741C150.515 89.0249 150.27 90.0041 150.76 90.5549C150.882 90.6773 150.882 90.9221 150.76 91.0445C150.637 91.1669 150.576 91.1669 150.515 91.1669ZM157.553 86.8217C157.43 87.1889 157.369 87.5561 157.43 87.9233C157.553 88.5353 157.92 89.0861 158.532 89.3921C158.899 89.5757 159.328 89.6369 159.695 89.5145C159.756 89.0861 159.695 88.5965 159.45 88.2293C159.083 87.5561 158.41 87.0665 157.675 86.8217H157.553Z" fill="#D1D3D4"/>
<path d="M201.8 91.9065C201.678 91.9065 201.556 91.8453 201.494 91.7229C200.638 90.0705 200.393 88.1732 200.882 86.3372C200.944 86.1536 201.127 86.0312 201.311 86.0312C201.494 86.0925 201.617 86.2761 201.617 86.4597C201.617 86.4597 201.617 86.4597 201.617 86.5209C201.188 88.1733 201.372 89.8869 202.168 91.3557C202.229 91.5393 202.168 91.7228 202.045 91.8453C201.984 91.9064 201.923 91.9065 201.8 91.9065Z" fill="#D1D3D4"/>
<path d="M217.891 112.71C216.912 112.71 215.932 112.404 215.076 111.853C213.913 111.119 213.056 110.017 212.75 108.671C212.689 108.487 212.811 108.303 213.056 108.242C213.24 108.181 213.423 108.303 213.484 108.548C214.096 110.874 216.422 112.343 218.809 111.914C218.992 111.853 219.176 111.975 219.237 112.159C219.298 112.343 219.176 112.526 218.992 112.587C218.564 112.649 218.197 112.71 217.891 112.71Z" fill="#D1D3D4"/>
<path d="M184.535 103.836C184.046 103.836 183.617 103.775 183.128 103.714C183.005 103.714 182.883 103.591 182.822 103.469C182.332 102.184 181.781 100.96 181.169 99.7355C179.884 99.8579 178.599 99.6743 177.436 99.2459C177.252 99.1847 177.13 98.9399 177.252 98.7563C177.314 98.5727 177.497 98.4503 177.681 98.5727C178.844 99.0011 180.129 99.1847 181.353 99.0011C181.475 99.0011 181.659 99.0623 181.72 99.1847C182.393 100.409 183.005 101.694 183.495 103.04C184.719 103.224 186.004 103.102 187.167 102.673C187.35 102.612 187.534 102.673 187.595 102.857C187.656 103.04 187.534 103.224 187.35 103.346C186.494 103.652 185.514 103.836 184.535 103.836Z" fill="#D1D3D4"/>
<path d="M151.491 111.552C150.451 111.552 149.594 110.695 149.594 109.655C149.594 108.615 150.451 107.758 151.491 107.758C152.531 107.758 153.388 108.615 153.388 109.655C153.388 110.695 152.531 111.552 151.491 111.552ZM151.491 108.492C150.879 108.492 150.328 109.043 150.328 109.655C150.328 110.267 150.879 110.818 151.491 110.818C152.103 110.818 152.654 110.267 152.654 109.655C152.654 109.043 152.164 108.553 151.491 108.492Z" fill="#D1D3D4"/>
<path d="M253.447 148.098C253.447 148.098 271.71 158.051 273.375 185.412L250.349 189.995L244.246 168.653L253.447 148.098Z" fill="#FFC73C"/>
<path d="M248.361 132.725C252.337 128.327 256.175 123.512 257.331 117.725C257.608 116.382 257.701 114.947 257.1 113.744C256.499 112.54 254.973 111.66 253.724 112.216C254.279 110.688 253.355 109.021 252.291 107.771C249.656 104.762 246.003 102.864 242.073 102.355C242.674 101.984 243.182 101.429 243.506 100.781C243.784 100.133 243.645 99.2066 242.997 98.8826C242.674 98.7437 242.304 98.7437 241.98 98.79C240.686 98.9289 239.483 99.4844 238.466 100.318C239.299 99.9474 239.345 98.6048 238.651 98.003C237.958 97.4011 236.848 97.4474 236.062 97.8641C235.276 98.327 234.582 98.9752 234.074 99.7622C234.351 99.1603 234.074 98.4196 233.426 98.1881C233.288 98.1418 233.103 98.0955 232.964 98.0955C232.64 98.1418 232.317 98.2807 232.039 98.4659C228.294 100.688 225.982 104.947 225.659 109.299C225.335 113.651 226.861 118.049 229.404 121.567C231.947 125.086 235.507 127.817 239.345 129.901C242.443 131.567 246.28 132.817 249.332 131.058" fill="white"/>
<path d="M248.364 133.052C248.456 133.052 248.549 133.006 248.595 132.959C252.618 128.515 256.502 123.608 257.611 117.774C257.843 116.663 258.028 114.997 257.334 113.561C256.779 112.404 255.438 111.524 254.144 111.71C254.421 110.043 253.265 108.376 252.479 107.497C249.982 104.626 246.561 102.728 242.816 102.08C243.232 101.756 243.555 101.339 243.787 100.876C244.11 100.089 243.925 98.9782 243.093 98.5616C242.723 98.4227 242.307 98.3764 241.891 98.4227C241.012 98.5153 240.18 98.793 239.44 99.2097C239.486 98.6542 239.255 98.0986 238.839 97.7282C238.007 96.9875 236.759 97.0801 235.88 97.5431C235.325 97.8671 234.817 98.2838 234.4 98.793C234.354 98.6542 234.308 98.5153 234.215 98.4227C233.938 97.9597 233.429 97.6819 232.921 97.7282C232.551 97.7745 232.181 97.9134 231.857 98.1449C228.158 100.367 225.662 104.626 225.338 109.256C225.014 113.469 226.355 117.913 229.176 121.709C231.534 124.996 234.909 127.82 239.209 130.135C243.047 132.219 246.376 132.728 248.873 131.617L248.087 132.496C247.948 132.635 247.994 132.82 248.087 132.959C248.225 133.052 248.318 133.052 248.364 133.052ZM249.381 130.737C249.335 130.737 249.289 130.737 249.196 130.783C246.191 132.543 242.261 131.107 239.533 129.626C235.325 127.357 232.042 124.58 229.73 121.385C227.049 117.682 225.754 113.422 226.032 109.348C226.355 104.904 228.76 100.83 232.274 98.7467C232.505 98.6079 232.782 98.469 233.06 98.4227C233.568 98.469 233.938 98.8856 233.892 99.3486C233.892 99.4412 233.846 99.5338 233.846 99.6264C233.753 99.7653 233.846 99.9967 233.984 100.043C234.123 100.136 234.308 100.089 234.4 99.9504C234.909 99.2097 235.556 98.6079 236.296 98.1449C236.943 97.8208 237.914 97.6819 238.516 98.2375C238.793 98.5153 238.932 98.9319 238.885 99.3486C238.885 99.4875 238.793 99.6264 238.747 99.7652C238.608 99.8578 238.469 99.9504 238.331 100.089C238.192 100.182 238.192 100.367 238.284 100.506C238.377 100.645 238.562 100.691 238.7 100.645C238.885 100.552 239.07 100.413 239.209 100.275C240.088 99.6727 241.059 99.3023 242.076 99.1634C242.353 99.1171 242.631 99.1171 242.908 99.2097C243.37 99.4412 243.509 100.182 243.278 100.691C242.954 101.293 242.492 101.756 241.937 102.126C241.845 102.219 241.798 102.358 241.845 102.45C241.891 102.589 241.983 102.682 242.122 102.682C246.006 103.145 249.566 105.043 252.155 107.96C252.895 108.839 254.097 110.506 253.543 112.08C253.496 112.265 253.589 112.45 253.727 112.497C253.82 112.543 253.866 112.543 253.959 112.497C255.068 112.034 256.409 112.867 256.918 113.885C257.38 114.811 257.473 116.061 257.149 117.682C256.178 122.589 253.173 126.941 249.797 130.83C249.566 130.783 249.52 130.737 249.381 130.737Z" fill="#231F20"/>
<path d="M185.619 230.643H245.866C246.42 225.18 246.883 221.523 246.883 221.523L189.318 210.227C188.902 213.004 187.515 220.504 185.619 230.643Z" fill="#231F20"/>
<path d="M185.615 230.917H245.862C246 230.917 246.139 230.825 246.139 230.686C246.694 225.315 247.156 221.612 247.156 221.566C247.156 221.427 247.064 221.288 246.925 221.241L189.36 209.945C189.268 209.945 189.221 209.945 189.129 209.992C189.083 210.038 189.036 210.084 189.036 210.177C188.667 212.816 187.372 219.899 185.384 230.547C185.384 230.639 185.384 230.732 185.43 230.778C185.476 230.871 185.569 230.917 185.615 230.917ZM245.584 230.362H185.985C187.88 220.223 189.083 213.417 189.545 210.593L246.555 221.751C246.416 222.677 246.093 225.917 245.584 230.362Z" fill="#231F20"/>
<path d="M215.578 123.468C215.578 123.468 214.006 127.356 209.012 131.338L204.851 126.847L213.174 116.199L215.578 123.468Z" fill="white"/>
<path d="M209.06 131.662C209.152 131.662 209.198 131.616 209.245 131.616C214.238 127.635 215.81 123.746 215.903 123.607C215.949 123.514 215.949 123.468 215.903 123.375L213.498 116.107C213.452 116.014 213.36 115.922 213.267 115.876C213.129 115.829 213.036 115.922 212.944 116.014L204.621 126.662C204.529 126.801 204.529 126.94 204.621 127.079L208.782 131.57C208.829 131.616 208.921 131.662 209.06 131.662ZM215.256 123.422C214.978 124.07 213.314 127.403 209.06 130.875L205.315 126.801L213.082 116.848L215.256 123.422Z" fill="#231F20"/>
<path d="M205.73 123.188C205.73 123.188 213.96 129.9 213.082 131.428C212.203 132.956 200.551 141.382 200.551 141.382C201.522 140.687 205.453 141.382 206.608 141.428C211.787 141.521 216.919 141.845 222.052 142.354C229.265 143.048 236.431 144.159 243.506 145.687C246.326 146.289 250.996 146.613 253.493 148.095C255.989 149.576 255.296 151.752 254.556 154.53C254.232 155.78 253.955 156.983 253.631 158.233C248.961 178.835 248.545 200.501 246.835 221.52C246.835 221.52 203.973 222.816 186.68 211.566L196.251 162.493C196.251 162.493 162.175 165.178 158.753 152.169C155.332 139.16 205.73 123.188 205.73 123.188Z" fill="#FFC73C"/>
<path d="M226.909 138.099L223.996 147.821C223.996 147.821 223.95 152.636 230.886 153.099C237.821 153.562 240.179 149.395 240.179 149.395L244.942 131.108C244.942 131.108 241.751 127.081 246.375 117.127C246.375 117.127 235.463 117.127 226.216 112.914C226.216 112.914 222.424 124.673 221.684 129.905C220.945 135.136 226.909 138.099 226.909 138.099Z" fill="white"/>
<path d="M231.903 153.42C238.191 153.42 240.318 149.67 240.457 149.485C240.457 149.439 240.503 149.439 240.503 149.393L245.266 131.106C245.312 131.013 245.266 130.921 245.219 130.828C245.173 130.782 242.214 126.8 246.653 117.171C246.699 117.078 246.699 116.939 246.653 116.847C246.607 116.754 246.468 116.708 246.375 116.708C246.283 116.708 235.417 116.661 226.355 112.541C226.216 112.449 225.985 112.541 225.939 112.68C225.939 112.68 225.939 112.726 225.892 112.726C225.846 112.819 222.101 124.532 221.315 129.763C220.621 134.578 225.384 137.587 226.54 138.235L223.719 147.68C223.719 147.726 223.719 147.726 223.719 147.772C223.719 147.819 223.719 152.911 230.886 153.374C231.21 153.42 231.533 153.42 231.903 153.42ZM239.81 149.207C239.579 149.624 237.267 153.143 230.84 152.726C224.552 152.309 224.274 148.328 224.274 147.819L227.187 138.143C227.233 138.004 227.141 137.819 227.002 137.772C226.956 137.726 221.176 134.809 221.916 129.856C222.61 125.18 225.707 115.226 226.355 113.282C234.354 116.8 243.601 117.31 245.821 117.356C241.844 126.198 244.017 130.319 244.526 131.106L239.81 149.207Z" fill="#231F20"/>
<path d="M241.979 129.579C242.487 128.745 243.227 128.144 244.106 127.773C244.938 127.495 245.817 127.31 246.741 127.357C247.25 127.31 247.712 127.357 248.175 127.542C248.498 127.681 248.776 127.912 249.007 128.144C249.608 128.699 249.978 129.44 250.07 130.273C250.07 130.921 249.885 131.569 249.562 132.125C249.284 132.773 248.914 133.375 248.452 133.931C246.556 136.199 243.181 136.477 240.915 134.579L240.869 134.532" fill="white"/>
<path d="M244.387 136.106H244.803C246.329 135.967 247.716 135.272 248.687 134.115C249.149 133.56 249.519 132.911 249.843 132.217C250.167 131.615 250.352 130.874 250.352 130.18C250.259 129.3 249.843 128.467 249.196 127.865C248.918 127.587 248.641 127.356 248.271 127.171C247.762 126.986 247.207 126.893 246.699 126.986C245.774 126.986 244.849 127.124 243.971 127.449C243 127.819 242.214 128.513 241.659 129.393C241.567 129.532 241.613 129.763 241.798 129.856C241.936 129.948 242.121 129.902 242.214 129.763C242.676 129.023 243.37 128.421 244.202 128.097C244.988 127.819 245.867 127.68 246.699 127.68C247.115 127.634 247.577 127.68 247.993 127.819C248.271 127.958 248.502 128.143 248.687 128.374C249.242 128.884 249.566 129.578 249.658 130.273C249.658 130.874 249.473 131.476 249.196 131.985C248.918 132.587 248.548 133.189 248.132 133.745C247.254 134.763 246.005 135.411 244.664 135.504C243.324 135.597 241.983 135.18 240.965 134.3C240.827 134.161 240.642 134.208 240.503 134.347C240.364 134.485 240.411 134.671 240.549 134.81C241.567 135.689 242.907 136.198 244.295 136.198L244.387 136.106Z" fill="#231F20"/>
<path d="M228.664 121.988C228.664 121.988 223.578 125.831 224.087 126.988C224.595 128.146 227 128.331 227 128.331" fill="white"/>
<path d="M226.997 128.654C227.182 128.654 227.321 128.515 227.321 128.33C227.321 128.145 227.182 128.006 226.997 128.006C226.396 127.959 224.685 127.635 224.362 126.848C224.13 126.385 226.257 124.209 228.847 122.265C228.985 122.172 229.032 121.941 228.893 121.802C228.8 121.663 228.569 121.617 228.43 121.756C226.858 122.959 223.206 125.876 223.714 127.126C224.223 128.376 226.72 128.654 226.997 128.654Z" fill="#231F20"/>
<path d="M236.57 120.966C236.57 120.966 235.461 117.957 232.825 119.855L236.57 120.966Z" fill="white"/>
<path d="M236.573 121.29C236.619 121.29 236.666 121.29 236.666 121.29C236.851 121.243 236.897 121.058 236.851 120.873C236.804 120.827 236.296 119.392 235.047 119.021C234.307 118.79 233.475 118.975 232.643 119.623C232.504 119.716 232.458 119.947 232.55 120.086C232.643 120.225 232.874 120.271 233.013 120.179C233.521 119.716 234.215 119.531 234.862 119.669C235.787 119.947 236.249 121.105 236.249 121.151C236.296 121.243 236.434 121.29 236.573 121.29Z" fill="#231F20"/>
<path d="M229.586 118.978C229.586 118.978 229.216 117.08 226.349 118.469L229.586 118.978Z" fill="white"/>
<path d="M229.586 119.302H229.632C229.817 119.256 229.909 119.117 229.863 118.932C229.725 118.469 229.447 118.098 229.031 117.867C228.337 117.496 227.366 117.635 226.164 118.191C226.026 118.284 225.933 118.469 226.026 118.608C226.118 118.746 226.303 118.839 226.442 118.746C227.413 118.284 228.199 118.145 228.707 118.376C228.985 118.515 229.17 118.746 229.216 119.024C229.308 119.209 229.447 119.302 229.586 119.302Z" fill="#231F20"/>
<path d="M226.905 138.098C226.905 138.098 231.991 139.487 234.719 138.746C234.719 138.746 231.159 144.024 225.24 143.931L226.905 138.098Z" fill="#231F20"/>
<path d="M225.337 144.302C231.301 144.302 234.815 139.163 234.954 138.978C235.047 138.885 235.047 138.7 234.954 138.607C234.862 138.515 234.723 138.469 234.584 138.469C231.949 139.163 227.001 137.82 226.955 137.82C226.77 137.774 226.631 137.867 226.539 138.052L224.874 143.931C224.828 144.024 224.874 144.117 224.921 144.209C224.967 144.302 225.059 144.348 225.152 144.348L225.337 144.302ZM233.937 139.209C232.827 140.552 229.868 143.468 225.66 143.607L227.094 138.469C228.157 138.746 231.486 139.533 233.937 139.209Z" fill="#231F20"/>
<path d="M184.645 94.5781L227.969 133.189L175.212 115.967L184.645 94.5781Z" fill="white"/>
<path d="M227.969 133.515C228.108 133.515 228.2 133.469 228.246 133.33C228.339 133.191 228.293 133.006 228.2 132.914L184.922 94.2567C184.83 94.2104 184.738 94.1641 184.645 94.1641C184.553 94.1641 184.46 94.2567 184.414 94.3492L174.935 115.738C174.889 115.83 174.889 115.923 174.935 116.016C174.982 116.108 175.028 116.155 175.12 116.201L227.877 133.423C227.923 133.515 227.923 133.515 227.969 133.515ZM184.784 95.09L226.582 132.404L175.629 115.738L184.784 95.09Z" fill="#231F20"/>
<path d="M215.579 123.469C212.943 123.144 210.123 120.552 210.354 117.728C210.631 114.117 214.099 115.691 215.671 117.496C216.55 118.469 218.677 121.987 217.243 123.144C216.781 123.422 216.18 123.561 215.579 123.469Z" fill="white"/>
<path d="M216.042 123.793C216.55 123.793 217.059 123.655 217.475 123.33C217.845 123.053 218.03 122.59 218.03 122.127C218.169 120.506 216.689 118.099 215.903 117.219C214.747 115.923 212.805 114.812 211.464 115.275C210.863 115.46 210.17 116.062 210.031 117.682C209.8 120.692 212.805 123.423 215.533 123.793C215.718 123.747 215.903 123.793 216.042 123.793ZM212.158 115.831C213.175 115.831 214.608 116.71 215.441 117.682C216.18 118.516 217.521 120.784 217.383 122.127C217.383 122.405 217.244 122.682 217.059 122.868C216.643 123.145 216.134 123.238 215.626 123.145C213.221 122.868 210.493 120.368 210.678 117.729C210.771 116.71 211.094 116.108 211.649 115.923C211.834 115.877 212.019 115.831 212.158 115.831Z" fill="#231F20"/>
<path d="M230.469 131.199C230.469 131.199 226.492 132.218 227.602 135.32L230.469 131.199Z" fill="white"/>
<path d="M227.602 135.644C227.648 135.644 227.694 135.644 227.694 135.644C227.879 135.598 227.972 135.413 227.879 135.227C227.602 134.626 227.648 133.885 227.926 133.283C228.619 131.987 230.469 131.524 230.515 131.524C230.7 131.478 230.792 131.292 230.746 131.153C230.7 130.968 230.515 130.876 230.376 130.922C230.284 130.922 228.203 131.478 227.371 133.005C227.001 133.746 226.955 134.672 227.278 135.459C227.324 135.598 227.463 135.69 227.602 135.644Z" fill="#231F20"/>
<path d="M175.2 115.912C171.971 114.703 171.202 108.772 173.482 102.665C175.762 96.5578 180.229 92.5869 183.458 93.7957C186.687 95.0045 187.456 100.935 185.176 107.042C182.895 113.15 178.429 117.121 175.2 115.912Z" fill="#231F20"/>
<path d="M176.416 116.478C179.607 116.478 183.444 112.681 185.525 107.172C187.883 100.876 187.004 94.765 183.629 93.4687C181.965 92.8205 179.93 93.4687 177.942 95.2279C175.954 96.9872 174.336 99.5334 173.226 102.543C172.116 105.552 171.654 108.607 171.977 111.154C172.301 113.793 173.411 115.598 175.122 116.2C175.538 116.431 175.954 116.478 176.416 116.478ZM182.242 93.9316C182.612 93.9316 182.982 93.9779 183.352 94.1168C186.403 95.2742 187.097 101.015 184.878 106.987C182.658 112.959 178.358 116.848 175.306 115.691C173.873 115.135 172.902 113.561 172.578 111.154C172.255 108.7 172.671 105.737 173.781 102.82C174.89 99.9038 176.462 97.4038 178.312 95.7372C179.699 94.5335 181.04 93.8853 182.242 93.9316Z" fill="#231F20"/>
<path d="M182.939 154.624C182.985 154.624 183.032 154.624 183.078 154.578C195.469 148.143 209.71 134.671 209.849 134.532C209.988 134.393 209.988 134.208 209.849 134.069C209.71 133.93 209.525 133.93 209.387 134.069C209.248 134.208 195.053 147.587 182.754 154.022C182.616 154.115 182.523 154.3 182.616 154.439C182.708 154.578 182.8 154.624 182.939 154.624Z" fill="#231F20"/>
<path d="M189.779 196.061C189.918 196.061 190.057 195.968 190.103 195.783L197.639 155.321C197.686 155.136 197.547 154.997 197.362 154.95C197.177 154.904 197.038 155.043 196.992 155.228L189.456 195.691C189.409 195.876 189.548 196.015 189.733 196.061H189.779Z" fill="#231F20"/>
<path d="M260.656 223.003C260.703 222.91 260.749 222.864 260.795 222.771L260.934 222.679C261.026 222.632 261.165 222.586 261.258 222.586H261.442C261.535 222.632 261.627 222.679 261.72 222.771L262.182 223.234C262.228 223.28 262.275 223.373 262.321 223.466C262.367 223.558 262.367 223.651 262.367 223.697C262.367 223.79 262.367 223.882 262.321 223.929C262.275 224.021 262.228 224.067 262.182 224.16L262.044 224.253C261.951 224.299 261.812 224.345 261.72 224.345H261.535C261.442 224.299 261.35 224.253 261.258 224.16L260.795 223.697C260.749 223.651 260.703 223.558 260.656 223.466C260.61 223.373 260.61 223.28 260.61 223.234C260.61 223.188 260.61 223.095 260.656 223.003Z" fill="#D1D3D4"/>
<path d="M263.122 180.24L191.203 162.102L179.15 209.763L251.069 227.901L263.122 180.24Z" fill="white"/>
<mask id="path-55-outside-2_56_109726" maskUnits="userSpaceOnUse" x="188.463" y="177.803" width="66.8877" height="21.692" fill="black">
<rect fill="white" x="188.463" y="177.803" width="66.8877" height="21.692"/>
<path d="M192.34 185.34C191.515 185.152 190.894 184.725 190.475 184.059C190.057 183.387 189.94 182.648 190.124 181.844C190.308 181.04 190.733 180.428 191.4 180.008C192.068 179.583 192.814 179.464 193.638 179.652C194.134 179.765 194.564 179.986 194.928 180.316C195.297 180.648 195.553 181.041 195.696 181.497L194.809 181.773C194.725 181.468 194.56 181.205 194.314 180.984C194.074 180.76 193.782 180.608 193.438 180.53C192.854 180.396 192.336 180.474 191.886 180.762C191.442 181.05 191.154 181.48 191.024 182.049C190.894 182.618 190.967 183.129 191.242 183.582C191.523 184.036 191.956 184.33 192.54 184.463C192.884 184.541 193.215 184.534 193.533 184.441C193.852 184.344 194.113 184.175 194.316 183.935L194.996 184.56C194.675 184.91 194.275 185.157 193.798 185.301C193.327 185.441 192.841 185.454 192.34 185.34Z"/>
<path d="M198.59 186.655L197.888 184.394L196.823 184.152L196.367 186.15L195.467 185.945L196.719 180.46L198.911 180.959C199.401 181.071 199.777 181.337 200.037 181.759C200.304 182.177 200.382 182.632 200.27 183.123C200.19 183.473 200.015 183.771 199.744 184.017C199.481 184.259 199.172 184.409 198.819 184.466L199.577 186.88L198.59 186.655ZM197.426 181.511L197.008 183.345L198.299 183.639C198.539 183.693 198.763 183.651 198.971 183.511C199.178 183.372 199.311 183.174 199.37 182.918C199.428 182.662 199.394 182.426 199.267 182.211C199.141 181.995 198.958 181.86 198.718 181.805L197.426 181.511Z"/>
<path d="M203.831 187.411C203.366 187.668 202.829 187.727 202.218 187.588C201.607 187.449 201.148 187.163 200.841 186.731C200.535 186.293 200.448 185.782 200.582 185.197L201.419 181.53L202.319 181.735L201.495 185.347C201.418 185.681 201.454 185.969 201.602 186.212C201.755 186.455 202.027 186.622 202.418 186.711C202.81 186.8 203.125 186.767 203.363 186.612C203.607 186.459 203.767 186.215 203.843 185.881L204.668 182.269L205.568 182.474L204.731 186.141C204.597 186.726 204.297 187.149 203.831 187.411Z"/>
<path d="M206.603 182.71L207.503 182.915L206.251 188.399L205.351 188.194L206.603 182.71Z"/>
<path d="M209.07 189.148C208.543 189.028 208.122 188.805 207.806 188.481C207.496 188.157 207.315 187.77 207.265 187.319L208.143 187.041C208.222 187.707 208.605 188.119 209.294 188.275C209.633 188.353 209.901 188.345 210.098 188.252C210.301 188.156 210.428 188 210.476 187.786C210.528 187.562 210.475 187.371 210.319 187.215C210.164 187.053 209.87 186.849 209.438 186.602C209.194 186.464 209 186.343 208.854 186.238C208.707 186.134 208.557 186 208.401 185.839C208.253 185.673 208.155 185.489 208.108 185.286C208.061 185.083 208.065 184.858 208.121 184.613C208.232 184.127 208.492 183.782 208.901 183.579C209.311 183.37 209.759 183.321 210.244 183.431C210.682 183.531 211.041 183.725 211.321 184.014C211.601 184.303 211.787 184.656 211.878 185.072L211.019 185.338C210.906 184.774 210.581 184.431 210.044 184.309C209.783 184.249 209.56 184.264 209.374 184.354C209.19 184.439 209.075 184.585 209.027 184.794C208.98 184.998 209.022 185.178 209.151 185.333C209.286 185.485 209.548 185.674 209.936 185.899C210.129 186.015 210.268 186.101 210.354 186.159C210.446 186.213 210.57 186.296 210.725 186.409C210.886 186.522 211.002 186.626 211.074 186.719C211.146 186.812 211.219 186.925 211.293 187.057C211.373 187.191 211.417 187.333 211.427 187.483C211.436 187.634 211.421 187.798 211.38 187.975C211.267 188.472 210.997 188.825 210.57 189.036C210.15 189.242 209.65 189.279 209.07 189.148Z"/>
<path d="M212.869 188.998L215.296 189.551L215.099 190.412L211.772 189.655L213.024 184.171L216.312 184.919L216.115 185.781L213.728 185.238L213.402 186.664L215.594 187.162L215.399 188.016L213.207 187.518L212.869 188.998Z"/>
<path d="M219.273 191.362L218.623 185.445L219.61 185.67L220.062 190.396L222.53 186.334L223.508 186.557L220.354 191.608L219.273 191.362Z"/>
<path d="M227.348 192.442C226.675 192.866 225.942 192.987 225.149 192.807C224.355 192.626 223.745 192.199 223.317 191.524C222.895 190.846 222.775 190.11 222.956 189.316C223.138 188.522 223.565 187.913 224.238 187.489C224.918 187.062 225.654 186.938 226.447 187.119C227.24 187.299 227.848 187.729 228.269 188.407C228.697 189.081 228.821 189.815 228.639 190.609C228.458 191.403 228.028 192.014 227.348 192.442ZM224.09 191.058C224.381 191.514 224.801 191.804 225.349 191.929C225.897 192.054 226.398 191.973 226.854 191.686C227.315 191.396 227.61 190.969 227.739 190.404C227.868 189.84 227.787 189.33 227.496 188.874C227.211 188.413 226.795 188.121 226.247 187.996C225.699 187.871 225.194 187.954 224.733 188.245C224.277 188.531 223.985 188.957 223.857 189.521C223.728 190.085 223.806 190.597 224.09 191.058Z"/>
<path d="M232.398 193.913C231.933 194.169 231.395 194.228 230.785 194.089C230.174 193.95 229.715 193.665 229.408 193.232C229.102 192.794 229.015 192.283 229.149 191.698L229.986 188.031L230.886 188.236L230.061 191.848C229.985 192.182 230.021 192.47 230.169 192.713C230.322 192.956 230.594 193.123 230.985 193.212C231.377 193.301 231.691 193.268 231.93 193.114C232.173 192.96 232.333 192.716 232.41 192.382L233.234 188.77L234.135 188.975L233.297 192.642C233.164 193.227 232.864 193.65 232.398 193.913Z"/>
<path d="M236.486 195.387C235.661 195.199 235.039 194.772 234.621 194.105C234.203 193.433 234.086 192.695 234.27 191.891C234.454 191.086 234.879 190.474 235.546 190.055C236.214 189.63 236.96 189.511 237.784 189.699C238.28 189.811 238.71 190.033 239.074 190.363C239.443 190.694 239.699 191.088 239.842 191.543L238.955 191.82C238.871 191.515 238.706 191.252 238.46 191.031C238.22 190.806 237.928 190.655 237.584 190.576C236.999 190.443 236.482 190.52 236.032 190.808C235.588 191.097 235.3 191.526 235.17 192.096C235.04 192.665 235.113 193.176 235.388 193.629C235.669 194.083 236.101 194.376 236.686 194.509C237.03 194.588 237.361 194.581 237.679 194.488C237.998 194.39 238.259 194.222 238.461 193.982L239.142 194.607C238.821 194.957 238.421 195.204 237.944 195.348C237.473 195.488 236.987 195.501 236.486 195.387Z"/>
<path d="M244.114 191.246L245.014 191.451L243.762 196.935L242.861 196.731L243.403 194.357L241.055 193.822L240.513 196.196L239.613 195.991L240.865 190.507L241.765 190.712L241.252 192.96L243.6 193.495L244.114 191.246Z"/>
<path d="M245.954 196.528L248.38 197.08L248.184 197.942L244.857 197.185L246.109 191.7L249.397 192.449L249.2 193.31L246.812 192.767L246.487 194.193L248.679 194.692L248.484 195.546L246.292 195.047L245.954 196.528Z"/>
<path d="M252.131 198.84L251.429 196.579L250.364 196.336L249.908 198.334L249.008 198.129L250.26 192.645L252.452 193.144C252.942 193.255 253.318 193.522 253.578 193.944C253.845 194.362 253.923 194.816 253.81 195.307C253.731 195.657 253.555 195.955 253.285 196.202C253.021 196.444 252.713 196.593 252.359 196.65L253.117 199.065L252.131 198.84ZM250.967 193.696L250.548 195.529L251.84 195.823C252.08 195.878 252.304 195.835 252.511 195.696C252.719 195.556 252.852 195.359 252.91 195.103C252.969 194.847 252.935 194.611 252.808 194.395C252.682 194.18 252.499 194.045 252.258 193.99L250.967 193.696Z"/>
</mask>
<path d="M192.34 185.34C191.515 185.152 190.894 184.725 190.475 184.059C190.057 183.387 189.94 182.648 190.124 181.844C190.308 181.04 190.733 180.428 191.4 180.008C192.068 179.583 192.814 179.464 193.638 179.652C194.134 179.765 194.564 179.986 194.928 180.316C195.297 180.648 195.553 181.041 195.696 181.497L194.809 181.773C194.725 181.468 194.56 181.205 194.314 180.984C194.074 180.76 193.782 180.608 193.438 180.53C192.854 180.396 192.336 180.474 191.886 180.762C191.442 181.05 191.154 181.48 191.024 182.049C190.894 182.618 190.967 183.129 191.242 183.582C191.523 184.036 191.956 184.33 192.54 184.463C192.884 184.541 193.215 184.534 193.533 184.441C193.852 184.344 194.113 184.175 194.316 183.935L194.996 184.56C194.675 184.91 194.275 185.157 193.798 185.301C193.327 185.441 192.841 185.454 192.34 185.34Z" fill="black"/>
<path d="M198.59 186.655L197.888 184.394L196.823 184.152L196.367 186.15L195.467 185.945L196.719 180.46L198.911 180.959C199.401 181.071 199.777 181.337 200.037 181.759C200.304 182.177 200.382 182.632 200.27 183.123C200.19 183.473 200.015 183.771 199.744 184.017C199.481 184.259 199.172 184.409 198.819 184.466L199.577 186.88L198.59 186.655ZM197.426 181.511L197.008 183.345L198.299 183.639C198.539 183.693 198.763 183.651 198.971 183.511C199.178 183.372 199.311 183.174 199.37 182.918C199.428 182.662 199.394 182.426 199.267 182.211C199.141 181.995 198.958 181.86 198.718 181.805L197.426 181.511Z" fill="black"/>
<path d="M203.831 187.411C203.366 187.668 202.829 187.727 202.218 187.588C201.607 187.449 201.148 187.163 200.841 186.731C200.535 186.293 200.448 185.782 200.582 185.197L201.419 181.53L202.319 181.735L201.495 185.347C201.418 185.681 201.454 185.969 201.602 186.212C201.755 186.455 202.027 186.622 202.418 186.711C202.81 186.8 203.125 186.767 203.363 186.612C203.607 186.459 203.767 186.215 203.843 185.881L204.668 182.269L205.568 182.474L204.731 186.141C204.597 186.726 204.297 187.149 203.831 187.411Z" fill="black"/>
<path d="M206.603 182.71L207.503 182.915L206.251 188.399L205.351 188.194L206.603 182.71Z" fill="black"/>
<path d="M209.07 189.148C208.543 189.028 208.122 188.805 207.806 188.481C207.496 188.157 207.315 187.77 207.265 187.319L208.143 187.041C208.222 187.707 208.605 188.119 209.294 188.275C209.633 188.353 209.901 188.345 210.098 188.252C210.301 188.156 210.428 188 210.476 187.786C210.528 187.562 210.475 187.371 210.319 187.215C210.164 187.053 209.87 186.849 209.438 186.602C209.194 186.464 209 186.343 208.854 186.238C208.707 186.134 208.557 186 208.401 185.839C208.253 185.673 208.155 185.489 208.108 185.286C208.061 185.083 208.065 184.858 208.121 184.613C208.232 184.127 208.492 183.782 208.901 183.579C209.311 183.37 209.759 183.321 210.244 183.431C210.682 183.531 211.041 183.725 211.321 184.014C211.601 184.303 211.787 184.656 211.878 185.072L211.019 185.338C210.906 184.774 210.581 184.431 210.044 184.309C209.783 184.249 209.56 184.264 209.374 184.354C209.19 184.439 209.075 184.585 209.027 184.794C208.98 184.998 209.022 185.178 209.151 185.333C209.286 185.485 209.548 185.674 209.936 185.899C210.129 186.015 210.268 186.101 210.354 186.159C210.446 186.213 210.57 186.296 210.725 186.409C210.886 186.522 211.002 186.626 211.074 186.719C211.146 186.812 211.219 186.925 211.293 187.057C211.373 187.191 211.417 187.333 211.427 187.483C211.436 187.634 211.421 187.798 211.38 187.975C211.267 188.472 210.997 188.825 210.57 189.036C210.15 189.242 209.65 189.279 209.07 189.148Z" fill="black"/>
<path d="M212.869 188.998L215.296 189.551L215.099 190.412L211.772 189.655L213.024 184.171L216.312 184.919L216.115 185.781L213.728 185.238L213.402 186.664L215.594 187.162L215.399 188.016L213.207 187.518L212.869 188.998Z" fill="black"/>
<path d="M219.273 191.362L218.623 185.445L219.61 185.67L220.062 190.396L222.53 186.334L223.508 186.557L220.354 191.608L219.273 191.362Z" fill="black"/>
<path d="M227.348 192.442C226.675 192.866 225.942 192.987 225.149 192.807C224.355 192.626 223.745 192.199 223.317 191.524C222.895 190.846 222.775 190.11 222.956 189.316C223.138 188.522 223.565 187.913 224.238 187.489C224.918 187.062 225.654 186.938 226.447 187.119C227.24 187.299 227.848 187.729 228.269 188.407C228.697 189.081 228.821 189.815 228.639 190.609C228.458 191.403 228.028 192.014 227.348 192.442ZM224.09 191.058C224.381 191.514 224.801 191.804 225.349 191.929C225.897 192.054 226.398 191.973 226.854 191.686C227.315 191.396 227.61 190.969 227.739 190.404C227.868 189.84 227.787 189.33 227.496 188.874C227.211 188.413 226.795 188.121 226.247 187.996C225.699 187.871 225.194 187.954 224.733 188.245C224.277 188.531 223.985 188.957 223.857 189.521C223.728 190.085 223.806 190.597 224.09 191.058Z" fill="black"/>
<path d="M232.398 193.913C231.933 194.169 231.395 194.228 230.785 194.089C230.174 193.95 229.715 193.665 229.408 193.232C229.102 192.794 229.015 192.283 229.149 191.698L229.986 188.031L230.886 188.236L230.061 191.848C229.985 192.182 230.021 192.47 230.169 192.713C230.322 192.956 230.594 193.123 230.985 193.212C231.377 193.301 231.691 193.268 231.93 193.114C232.173 192.96 232.333 192.716 232.41 192.382L233.234 188.77L234.135 188.975L233.297 192.642C233.164 193.227 232.864 193.65 232.398 193.913Z" fill="black"/>
<path d="M236.486 195.387C235.661 195.199 235.039 194.772 234.621 194.105C234.203 193.433 234.086 192.695 234.27 191.891C234.454 191.086 234.879 190.474 235.546 190.055C236.214 189.63 236.96 189.511 237.784 189.699C238.28 189.811 238.71 190.033 239.074 190.363C239.443 190.694 239.699 191.088 239.842 191.543L238.955 191.82C238.871 191.515 238.706 191.252 238.46 191.031C238.22 190.806 237.928 190.655 237.584 190.576C236.999 190.443 236.482 190.52 236.032 190.808C235.588 191.097 235.3 191.526 235.17 192.096C235.04 192.665 235.113 193.176 235.388 193.629C235.669 194.083 236.101 194.376 236.686 194.509C237.03 194.588 237.361 194.581 237.679 194.488C237.998 194.39 238.259 194.222 238.461 193.982L239.142 194.607C238.821 194.957 238.421 195.204 237.944 195.348C237.473 195.488 236.987 195.501 236.486 195.387Z" fill="black"/>
<path d="M244.114 191.246L245.014 191.451L243.762 196.935L242.861 196.731L243.403 194.357L241.055 193.822L240.513 196.196L239.613 195.991L240.865 190.507L241.765 190.712L241.252 192.96L243.6 193.495L244.114 191.246Z" fill="black"/>
<path d="M245.954 196.528L248.38 197.08L248.184 197.942L244.857 197.185L246.109 191.7L249.397 192.449L249.2 193.31L246.812 192.767L246.487 194.193L248.679 194.692L248.484 195.546L246.292 195.047L245.954 196.528Z" fill="black"/>
<path d="M252.131 198.84L251.429 196.579L250.364 196.336L249.908 198.334L249.008 198.129L250.26 192.645L252.452 193.144C252.942 193.255 253.318 193.522 253.578 193.944C253.845 194.362 253.923 194.816 253.81 195.307C253.731 195.657 253.555 195.955 253.285 196.202C253.021 196.444 252.713 196.593 252.359 196.65L253.117 199.065L252.131 198.84ZM250.967 193.696L250.548 195.529L251.84 195.823C252.08 195.878 252.304 195.835 252.511 195.696C252.719 195.556 252.852 195.359 252.91 195.103C252.969 194.847 252.935 194.611 252.808 194.395C252.682 194.18 252.499 194.045 252.258 193.99L250.967 193.696Z" fill="black"/>
<path d="M192.34 185.34C191.515 185.152 190.894 184.725 190.475 184.059C190.057 183.387 189.94 182.648 190.124 181.844C190.308 181.04 190.733 180.428 191.4 180.008C192.068 179.583 192.814 179.464 193.638 179.652C194.134 179.765 194.564 179.986 194.928 180.316C195.297 180.648 195.553 181.041 195.696 181.497L194.809 181.773C194.725 181.468 194.56 181.205 194.314 180.984C194.074 180.76 193.782 180.608 193.438 180.53C192.854 180.396 192.336 180.474 191.886 180.762C191.442 181.05 191.154 181.48 191.024 182.049C190.894 182.618 190.967 183.129 191.242 183.582C191.523 184.036 191.956 184.33 192.54 184.463C192.884 184.541 193.215 184.534 193.533 184.441C193.852 184.344 194.113 184.175 194.316 183.935L194.996 184.56C194.675 184.91 194.275 185.157 193.798 185.301C193.327 185.441 192.841 185.454 192.34 185.34Z" stroke="black" stroke-width="0.2" mask="url(#path-55-outside-2_56_109726)"/>
<path d="M198.59 186.655L197.888 184.394L196.823 184.152L196.367 186.15L195.467 185.945L196.719 180.46L198.911 180.959C199.401 181.071 199.777 181.337 200.037 181.759C200.304 182.177 200.382 182.632 200.27 183.123C200.19 183.473 200.015 183.771 199.744 184.017C199.481 184.259 199.172 184.409 198.819 184.466L199.577 186.88L198.59 186.655ZM197.426 181.511L197.008 183.345L198.299 183.639C198.539 183.693 198.763 183.651 198.971 183.511C199.178 183.372 199.311 183.174 199.37 182.918C199.428 182.662 199.394 182.426 199.267 182.211C199.141 181.995 198.958 181.86 198.718 181.805L197.426 181.511Z" stroke="black" stroke-width="0.2" mask="url(#path-55-outside-2_56_109726)"/>
<path d="M203.831 187.411C203.366 187.668 202.829 187.727 202.218 187.588C201.607 187.449 201.148 187.163 200.841 186.731C200.535 186.293 200.448 185.782 200.582 185.197L201.419 181.53L202.319 181.735L201.495 185.347C201.418 185.681 201.454 185.969 201.602 186.212C201.755 186.455 202.027 186.622 202.418 186.711C202.81 186.8 203.125 186.767 203.363 186.612C203.607 186.459 203.767 186.215 203.843 185.881L204.668 182.269L205.568 182.474L204.731 186.141C204.597 186.726 204.297 187.149 203.831 187.411Z" stroke="black" stroke-width="0.2" mask="url(#path-55-outside-2_56_109726)"/>
<path d="M206.603 182.71L207.503 182.915L206.251 188.399L205.351 188.194L206.603 182.71Z" stroke="black" stroke-width="0.2" mask="url(#path-55-outside-2_56_109726)"/>
<path d="M209.07 189.148C208.543 189.028 208.122 188.805 207.806 188.481C207.496 188.157 207.315 187.77 207.265 187.319L208.143 187.041C208.222 187.707 208.605 188.119 209.294 188.275C209.633 188.353 209.901 188.345 210.098 188.252C210.301 188.156 210.428 188 210.476 187.786C210.528 187.562 210.475 187.371 210.319 187.215C210.164 187.053 209.87 186.849 209.438 186.602C209.194 186.464 209 186.343 208.854 186.238C208.707 186.134 208.557 186 208.401 185.839C208.253 185.673 208.155 185.489 208.108 185.286C208.061 185.083 208.065 184.858 208.121 184.613C208.232 184.127 208.492 183.782 208.901 183.579C209.311 183.37 209.759 183.321 210.244 183.431C210.682 183.531 211.041 183.725 211.321 184.014C211.601 184.303 211.787 184.656 211.878 185.072L211.019 185.338C210.906 184.774 210.581 184.431 210.044 184.309C209.783 184.249 209.56 184.264 209.374 184.354C209.19 184.439 209.075 184.585 209.027 184.794C208.98 184.998 209.022 185.178 209.151 185.333C209.286 185.485 209.548 185.674 209.936 185.899C210.129 186.015 210.268 186.101 210.354 186.159C210.446 186.213 210.57 186.296 210.725 186.409C210.886 186.522 211.002 186.626 211.074 186.719C211.146 186.812 211.219 186.925 211.293 187.057C211.373 187.191 211.417 187.333 211.427 187.483C211.436 187.634 211.421 187.798 211.38 187.975C211.267 188.472 210.997 188.825 210.57 189.036C210.15 189.242 209.65 189.279 209.07 189.148Z" stroke="black" stroke-width="0.2" mask="url(#path-55-outside-2_56_109726)"/>
<path d="M212.869 188.998L215.296 189.551L215.099 190.412L211.772 189.655L213.024 184.171L216.312 184.919L216.115 185.781L213.728 185.238L213.402 186.664L215.594 187.162L215.399 188.016L213.207 187.518L212.869 188.998Z" stroke="black" stroke-width="0.2" mask="url(#path-55-outside-2_56_109726)"/>
<path d="M219.273 191.362L218.623 185.445L219.61 185.67L220.062 190.396L222.53 186.334L223.508 186.557L220.354 191.608L219.273 191.362Z" stroke="black" stroke-width="0.2" mask="url(#path-55-outside-2_56_109726)"/>
<path d="M227.348 192.442C226.675 192.866 225.942 192.987 225.149 192.807C224.355 192.626 223.745 192.199 223.317 191.524C222.895 190.846 222.775 190.11 222.956 189.316C223.138 188.522 223.565 187.913 224.238 187.489C224.918 187.062 225.654 186.938 226.447 187.119C227.24 187.299 227.848 187.729 228.269 188.407C228.697 189.081 228.821 189.815 228.639 190.609C228.458 191.403 228.028 192.014 227.348 192.442ZM224.09 191.058C224.381 191.514 224.801 191.804 225.349 191.929C225.897 192.054 226.398 191.973 226.854 191.686C227.315 191.396 227.61 190.969 227.739 190.404C227.868 189.84 227.787 189.33 227.496 188.874C227.211 188.413 226.795 188.121 226.247 187.996C225.699 187.871 225.194 187.954 224.733 188.245C224.277 188.531 223.985 188.957 223.857 189.521C223.728 190.085 223.806 190.597 224.09 191.058Z" stroke="black" stroke-width="0.2" mask="url(#path-55-outside-2_56_109726)"/>
<path d="M232.398 193.913C231.933 194.169 231.395 194.228 230.785 194.089C230.174 193.95 229.715 193.665 229.408 193.232C229.102 192.794 229.015 192.283 229.149 191.698L229.986 188.031L230.886 188.236L230.061 191.848C229.985 192.182 230.021 192.47 230.169 192.713C230.322 192.956 230.594 193.123 230.985 193.212C231.377 193.301 231.691 193.268 231.93 193.114C232.173 192.96 232.333 192.716 232.41 192.382L233.234 188.77L234.135 188.975L233.297 192.642C233.164 193.227 232.864 193.65 232.398 193.913Z" stroke="black" stroke-width="0.2" mask="url(#path-55-outside-2_56_109726)"/>
<path d="M236.486 195.387C235.661 195.199 235.039 194.772 234.621 194.105C234.203 193.433 234.086 192.695 234.27 191.891C234.454 191.086 234.879 190.474 235.546 190.055C236.214 189.63 236.96 189.511 237.784 189.699C238.28 189.811 238.71 190.033 239.074 190.363C239.443 190.694 239.699 191.088 239.842 191.543L238.955 191.82C238.871 191.515 238.706 191.252 238.46 191.031C238.22 190.806 237.928 190.655 237.584 190.576C236.999 190.443 236.482 190.52 236.032 190.808C235.588 191.097 235.3 191.526 235.17 192.096C235.04 192.665 235.113 193.176 235.388 193.629C235.669 194.083 236.101 194.376 236.686 194.509C237.03 194.588 237.361 194.581 237.679 194.488C237.998 194.39 238.259 194.222 238.461 193.982L239.142 194.607C238.821 194.957 238.421 195.204 237.944 195.348C237.473 195.488 236.987 195.501 236.486 195.387Z" stroke="black" stroke-width="0.2" mask="url(#path-55-outside-2_56_109726)"/>
<path d="M244.114 191.246L245.014 191.451L243.762 196.935L242.861 196.731L243.403 194.357L241.055 193.822L240.513 196.196L239.613 195.991L240.865 190.507L241.765 190.712L241.252 192.96L243.6 193.495L244.114 191.246Z" stroke="black" stroke-width="0.2" mask="url(#path-55-outside-2_56_109726)"/>
<path d="M245.954 196.528L248.38 197.08L248.184 197.942L244.857 197.185L246.109 191.7L249.397 192.449L249.2 193.31L246.812 192.767L246.487 194.193L248.679 194.692L248.484 195.546L246.292 195.047L245.954 196.528Z" stroke="black" stroke-width="0.2" mask="url(#path-55-outside-2_56_109726)"/>
<path d="M252.131 198.84L251.429 196.579L250.364 196.336L249.908 198.334L249.008 198.129L250.26 192.645L252.452 193.144C252.942 193.255 253.318 193.522 253.578 193.944C253.845 194.362 253.923 194.816 253.81 195.307C253.731 195.657 253.555 195.955 253.285 196.202C253.021 196.444 252.713 196.593 252.359 196.65L253.117 199.065L252.131 198.84ZM250.967 193.696L250.548 195.529L251.84 195.823C252.08 195.878 252.304 195.835 252.511 195.696C252.719 195.556 252.852 195.359 252.91 195.103C252.969 194.847 252.935 194.611 252.808 194.395C252.682 194.18 252.499 194.045 252.258 193.99L250.967 193.696Z" stroke="black" stroke-width="0.2" mask="url(#path-55-outside-2_56_109726)"/>
<path d="M223.479 202.966L223.449 203.023L222.435 204.936L222.417 204.97L221.618 204.788L221.641 204.734L222.418 202.767L222.434 202.728L223.479 202.966ZM227.11 198.905C227.802 199.062 228.284 199.45 228.548 200.068C228.816 200.685 228.848 201.429 228.65 202.298C228.452 203.166 228.1 203.823 227.59 204.262C227.084 204.705 226.482 204.848 225.789 204.69C225.096 204.533 224.612 204.143 224.342 203.524L224.341 203.524C224.078 202.908 224.05 202.164 224.248 201.296C224.446 200.428 224.795 199.77 225.299 199.33L225.3 199.329C225.812 198.888 226.417 198.747 227.11 198.905ZM232.04 200.027C232.733 200.184 233.214 200.572 233.479 201.19C233.747 201.807 233.78 202.551 233.581 203.42C233.383 204.288 233.03 204.945 232.521 205.384C232.014 205.827 231.412 205.97 230.719 205.812C230.026 205.655 229.542 205.265 229.273 204.646L229.272 204.646C229.009 204.03 228.98 203.287 229.178 202.418C229.377 201.55 229.726 200.892 230.229 200.452L230.231 200.451C230.742 200.01 231.348 199.869 232.04 200.027ZM236.971 201.149C237.663 201.306 238.145 201.695 238.409 202.312C238.677 202.929 238.71 203.674 238.512 204.542C238.314 205.411 237.961 206.067 237.452 206.506C236.945 206.949 236.343 207.092 235.65 206.934C234.957 206.777 234.473 206.387 234.203 205.768L234.202 205.768C233.939 205.153 233.911 204.409 234.109 203.54C234.307 202.672 234.656 202.014 235.16 201.574L235.161 201.573C235.673 201.132 236.278 200.991 236.971 201.149ZM207.336 194.512L206.061 200.094L205.063 199.866L206.338 194.284L207.336 194.512ZM209.112 194.916L209.121 194.94L210.795 199.102L211.621 195.487L212.619 195.714L211.344 201.296L210.565 201.119L210.555 201.094L208.881 196.933L208.056 200.547L207.058 200.32L208.333 194.738L209.112 194.916ZM215.855 196.45C216.358 196.565 216.746 196.839 217.014 197.273L217.013 197.273C217.287 197.702 217.367 198.17 217.252 198.674C217.169 199.034 216.989 199.34 216.711 199.593C216.454 199.829 216.156 199.978 215.816 200.043L216.558 202.405L216.584 202.488L215.484 202.238L215.476 202.21L214.782 199.976L213.794 199.751L213.338 201.75L212.34 201.522L213.615 195.941L215.855 196.45ZM222.247 197.905L220.973 203.487L219.975 203.26L221.004 198.754L219.894 198.814L219.845 198.817L219.842 198.766L219.797 197.948L219.795 197.902L219.842 197.897L221.398 197.715L221.407 197.714L222.247 197.905ZM226.887 199.879C226.502 199.792 226.169 199.885 225.885 200.162C225.603 200.444 225.389 200.895 225.246 201.523C225.103 202.15 225.1 202.65 225.231 203.025C225.367 203.399 225.626 203.628 226.011 203.715C226.402 203.804 226.734 203.71 227.013 203.431C227.295 203.15 227.51 202.698 227.653 202.071C227.796 201.443 227.798 200.944 227.666 200.569C227.536 200.197 227.278 199.968 226.887 199.879ZM231.818 201.002C231.433 200.914 231.1 201.007 230.816 201.284C230.534 201.566 230.32 202.018 230.176 202.645C230.033 203.272 230.03 203.772 230.162 204.147C230.298 204.521 230.557 204.75 230.942 204.837C231.332 204.926 231.664 204.832 231.943 204.554C232.225 204.272 232.44 203.821 232.584 203.193C232.727 202.566 232.729 202.066 232.597 201.691C232.466 201.319 232.208 201.091 231.818 201.002ZM236.748 202.124C236.363 202.036 236.031 202.129 235.746 202.406C235.464 202.688 235.25 203.14 235.107 203.767C234.964 204.394 234.961 204.894 235.093 205.269C235.228 205.643 235.487 205.872 235.872 205.96C236.263 206.048 236.595 205.954 236.874 205.676C237.156 205.394 237.371 204.943 237.514 204.315C237.657 203.688 237.659 203.188 237.528 202.813C237.397 202.441 237.139 202.213 236.748 202.124ZM214.001 198.847L215.243 199.13C215.47 199.181 215.68 199.142 215.876 199.01C216.072 198.878 216.198 198.691 216.254 198.447C216.309 198.203 216.277 197.98 216.157 197.776C216.038 197.572 215.866 197.445 215.64 197.394L214.397 197.111L214.001 198.847Z" fill="black" stroke="black" stroke-width="0.1"/>
<path d="M178.987 210.002C178.866 209.934 178.791 209.785 178.819 209.641L190.876 162.034C190.927 161.85 191.099 161.734 191.282 161.785L263.21 179.948C263.394 179.999 263.509 180.171 263.458 180.355L251.378 228.002C251.327 228.186 251.155 228.302 250.972 228.251L179.067 210.048C179.027 210.025 179.027 210.025 178.987 210.002ZM191.433 162.456L179.553 209.472L250.866 227.499L262.747 180.484L191.433 162.456Z" fill="#231F20"/>
<path d="M217.867 219.798C217.867 219.798 217.303 221.075 214.888 221.302C212.474 221.53 205.952 219.908 205.088 218.62C204.224 217.332 203.123 215.43 203.139 213.151C203.156 210.872 203.102 207.967 204.265 207.509C205.428 207.051 206.025 209.093 206.081 212.743C206.081 212.743 206.873 206.753 208.262 207.115C209.652 207.477 209.726 209.222 210.05 212.492C210.05 212.492 210.881 206.152 212.427 207.081C213.973 208.011 214.144 215.771 214.327 215.449C214.509 215.127 215.307 209.033 216.471 210.917C217.635 212.801 216.143 218.714 216.143 218.714L217.867 219.798Z" fill="white"/>
<path d="M205.681 219.541C205.359 219.359 205.06 219.136 204.807 218.833C203.943 217.544 202.784 215.557 202.806 213.175L202.8 212.905C202.804 210.459 202.803 207.744 204.115 207.211C204.453 207.083 204.826 207.082 205.125 207.304C205.665 207.664 206.029 208.616 206.24 210.119C206.58 208.768 207.029 207.32 207.671 206.939C207.865 206.783 208.118 206.713 208.342 206.787C209.524 207.138 209.923 208.216 210.152 210.155C210.475 208.742 210.976 207.109 211.783 206.716C212.059 206.606 212.391 206.581 212.61 206.759C213.736 207.397 214.135 210.444 214.453 213.445C214.889 211.457 215.322 210.319 215.97 210.207C216.199 210.177 216.486 210.234 216.814 210.686C217.984 212.467 216.856 217.362 216.59 218.488L218.09 219.498C218.21 219.567 218.263 219.756 218.194 219.877C218.171 219.917 217.516 221.355 214.935 221.594C212.956 221.803 207.876 220.732 205.681 219.541ZM204.702 207.863C204.581 207.795 204.478 207.789 204.329 207.864C203.441 208.212 203.414 211.071 203.42 212.937L203.426 213.207C203.415 215.382 204.516 217.284 205.323 218.486C206.031 219.58 212.364 221.254 214.841 221.009C216.424 220.842 217.14 220.237 217.385 219.897L215.966 218.933C215.845 218.864 215.77 218.715 215.838 218.594C216.276 216.98 217.152 212.527 216.213 211.09C216.098 210.918 216.017 210.873 216.017 210.873C215.828 210.925 215.417 211.65 214.823 214.666C214.807 214.976 214.728 215.304 214.608 215.608C214.54 215.729 214.391 215.804 214.247 215.776C213.96 215.72 213.983 215.68 213.83 214.262C213.693 212.535 213.273 207.933 212.227 207.34C212.146 207.294 212.043 207.289 211.98 207.306C211.258 207.642 210.567 210.55 210.297 212.525C210.246 212.709 210.114 212.848 209.93 212.797C209.787 212.768 209.649 212.637 209.654 212.534L209.613 212.138C209.323 208.993 209.142 207.719 208.08 207.436C208.039 207.414 207.976 207.431 207.953 207.471C207.203 207.951 206.546 210.984 206.328 212.776C206.276 212.96 206.105 213.076 205.961 213.047C205.818 213.019 205.72 212.911 205.708 212.744C205.645 208.824 204.92 208.04 204.702 207.863Z" fill="#231F20"/>
<defs>
<clipPath id="clip0_56_109726">
<rect width="222" height="156" fill="white" transform="matrix(-1 0 0 1 259 79)"/>
</clipPath>
</defs>
</svg>
