<svg width="208" height="179" viewBox="0 0 208 179" fill="none" xmlns="http://www.w3.org/2000/svg">
<path d="M13.4403 148.326H187.12C187.287 148.326 187.412 148.243 187.453 148.078C187.453 147.912 187.37 147.788 187.204 147.746C187.162 147.746 187.162 147.746 187.12 147.746H13.4819C13.3155 147.746 13.1907 147.829 13.1491 147.995C13.1491 148.161 13.2323 148.285 13.3987 148.326H13.4403Z" fill="#D1D3D4"/>
<path d="M189.929 4.75H113.969V83.0956H189.929V4.75Z" fill="#000053"/>
<path d="M189.929 83.5014H113.968C113.736 83.5014 113.562 83.328 113.562 83.0969V4.75128C113.562 4.52017 113.736 4.34684 114.026 4.28906H189.987C190.219 4.28906 190.451 4.4624 190.451 4.75128V83.0969C190.393 83.328 190.161 83.5014 189.929 83.5014ZM114.432 82.6347H189.523V5.15572H114.432V82.6347Z" fill="#D1D3D4"/>
<path d="M119.594 62.8156C119.42 62.8156 119.304 62.7 119.188 62.5845C118.26 60.8512 116.115 60.1578 114.375 61.0823C114.317 61.0823 114.317 61.14 114.259 61.14C114.027 61.2556 113.795 61.14 113.679 60.9667C113.564 60.7356 113.679 60.5045 113.853 60.3889C115.999 59.349 117.564 59.9267 118.608 60.6778C117.159 55.1312 118.666 50.9135 123.189 48.1402C127.306 45.598 132.293 46.1758 134.67 46.6958C132.583 43.6914 133.278 39.4737 133.336 39.2426C133.394 39.0114 133.568 38.8959 133.8 38.8959C135.772 38.9537 137.279 39.5892 138.149 40.8025C138.845 41.8425 139.193 43.1136 139.077 44.3847C141.338 40.7448 146.731 34.3893 156.125 36.8737C163.373 38.8381 165.808 44.9047 166.504 47.5624C167.722 45.4247 170.969 40.9181 177.057 40.1092C185.987 38.9537 189.814 46.8113 189.872 46.8691C189.988 47.1002 189.872 47.3313 189.64 47.4469C189.408 47.5624 189.176 47.4469 189.06 47.2158C188.944 46.9269 185.465 39.8203 177.173 40.9181C169.693 41.9003 166.736 48.8913 166.736 48.9491C166.62 49.1802 166.388 49.2958 166.156 49.1802C165.982 49.1224 165.924 49.0069 165.866 48.8335C165.866 48.718 164.532 39.9937 155.835 37.6826C143.832 34.4471 138.845 46.4647 138.613 46.9269C138.555 47.158 138.265 47.2736 138.091 47.158C137.859 47.1002 137.743 46.8691 137.801 46.638C137.801 46.5802 138.845 43.2292 137.395 41.207C136.758 40.2825 135.656 39.7626 134.148 39.647C134.032 40.8603 133.8 44.8469 136.236 46.9847C136.41 47.1002 136.41 47.3313 136.352 47.5047C136.236 47.678 136.062 47.7358 135.83 47.678C135.772 47.678 128.872 45.4825 123.653 48.718C116.927 52.8202 119.13 59.349 119.826 61.4867C119.884 61.7178 120 61.9489 120 62.18C120 62.4111 119.884 62.5845 119.71 62.6423C119.652 62.7578 119.652 62.8156 119.594 62.8156Z" fill="#D1D3D4"/>
<path d="M125.681 62.2385C125.623 62.2385 125.565 62.2385 125.507 62.1807C123.42 61.0829 122.318 58.8296 122.724 56.5185C122.724 56.3452 122.898 56.1719 123.072 56.1719C124.927 55.7674 126.725 56.7496 127.769 57.3852C127.885 54.0919 131.48 52.8208 131.538 52.8208C131.654 52.763 131.828 52.8208 131.944 52.8786C134.147 54.4386 132.929 59.5229 132.871 59.7541C132.813 59.9852 132.581 60.1585 132.349 60.1007C132.117 60.0429 131.944 59.8118 132.002 59.5807C132.291 58.3096 132.813 54.9008 131.596 53.7452C130.784 54.0919 128.232 55.4208 128.696 58.2518C128.696 58.4252 128.638 58.5985 128.464 58.7141C128.29 58.8296 128.117 58.7718 127.943 58.6563C127.943 58.6563 125.681 56.8074 123.536 57.0385C123.304 58.8296 124.232 60.6207 125.855 61.4874C126.087 61.6029 126.145 61.834 126.087 62.0651C125.971 62.1807 125.797 62.2385 125.681 62.2385Z" fill="#D1D3D4"/>
<path d="M144.296 50.3942C144.122 50.3942 144.006 50.3364 143.89 50.1631C143.832 50.0475 142.324 47.5053 143.31 45.1943C143.89 43.8654 145.166 42.941 147.079 42.421C147.311 42.3632 147.543 42.4788 147.601 42.7099C147.659 42.8254 148.703 46.1765 147.079 48.892C146.963 49.0653 146.731 49.1809 146.499 49.0653C146.325 48.9498 146.209 48.7187 146.325 48.4876C147.427 46.5809 147.079 44.3276 146.847 43.4032C145.398 43.8654 144.47 44.5587 144.064 45.5409C143.252 47.3898 144.586 49.7009 144.586 49.7587C144.702 49.9898 144.644 50.2209 144.412 50.3364C144.47 50.3364 144.354 50.3942 144.296 50.3942Z" fill="#D1D3D4"/>
<path d="M151.948 83.0987C151.716 83.0987 151.484 82.9254 151.484 82.6365V5.15753C151.484 4.92642 151.658 4.69531 151.948 4.69531C152.238 4.69531 152.412 4.86864 152.412 5.15753V82.6365C152.412 82.8676 152.18 83.0987 151.948 83.0987Z" fill="#D1D3D4"/>
<path d="M189.526 44.3307H114.378C114.146 44.3307 113.914 44.1574 113.914 43.8685C113.914 43.5796 114.088 43.4062 114.378 43.4062H189.526C189.758 43.4062 189.99 43.5796 189.99 43.8685C189.99 44.1574 189.758 44.3307 189.526 44.3307Z" fill="#D1D3D4"/>
<path d="M179.03 23.1838C176.885 27.4593 171.724 29.1926 167.491 27.0548C163.2 24.9171 161.461 19.7749 163.606 15.5572C165.056 12.6106 168.071 10.7617 171.318 10.7617C171.898 10.7617 172.42 10.8195 173 10.935C169.173 11.7439 166.796 15.4994 167.607 19.3127C168.419 23.126 172.188 25.4949 176.015 24.686C177.117 24.3971 178.161 23.9349 179.03 23.1838Z" fill="white"/>
<path d="M171.319 28.3819C166.332 28.2663 162.332 24.1064 162.505 19.1376C162.621 14.3421 166.506 10.471 171.319 10.3555C171.899 10.3555 172.479 10.4132 173.117 10.5288C173.291 10.5866 173.465 10.7599 173.465 10.9332C173.465 11.1643 173.349 11.3377 173.117 11.3377C169.522 12.1466 167.26 15.6132 168.072 19.1954C168.884 22.7775 172.363 25.0308 175.958 24.222C177.002 23.9908 177.987 23.5286 178.799 22.8353C178.973 22.662 179.263 22.7198 179.437 22.8931C179.553 23.0086 179.553 23.182 179.495 23.3553C177.929 26.4753 174.74 28.3819 171.319 28.3819ZM171.029 11.2221C166.506 11.3955 162.969 15.2087 163.143 19.7153C163.317 24.222 167.144 27.7464 171.667 27.573C173.986 27.5152 176.19 26.4175 177.64 24.6264C173.871 26.3019 169.406 24.6264 167.724 20.8709C166.101 17.2309 167.55 13.071 171.029 11.2221Z" fill="#231F20"/>
<path d="M53.0329 137.464C52.9497 141.278 53.7817 145.05 55.4457 148.49C60.2713 158.521 71.6281 164.739 82.7769 167.35C92.1369 169.506 101.83 169.63 111.439 169.216C121.631 168.801 132.239 167.682 140.851 162.21C148.963 156.988 154.995 149.153 158.031 139.993C161.526 129.091 162.607 117.609 163.107 106.21C163.273 103.516 163.273 100.78 163.065 98.086C162.982 97.0497 162.815 96.0134 162.607 94.9772C161.651 90.459 159.446 86.314 156.201 82.9979C155.452 82.2518 154.703 81.5057 153.871 80.8425C144.387 72.9668 129.535 71.0186 119.011 77.9824C111.606 82.8735 104.118 86.3969 98.9593 94.0238C97.3785 96.3451 96.0889 98.7907 94.5497 101.112C90.0153 107.703 83.5673 112.76 76.0377 115.495C74.1241 116.159 72.1689 116.656 70.1721 116.946C64.7641 117.858 59.6057 118.273 56.3609 123.868C54.1561 127.599 53.3657 132.034 53.1161 136.387C53.1161 136.677 53.0745 136.967 53.0745 137.257C53.0329 137.298 53.0329 137.381 53.0329 137.464Z" fill="white"/>
<path d="M133.865 73.6319C128.582 73.549 123.424 75.0412 119.014 77.9013C111.609 82.7925 104.121 86.3159 98.9629 93.9428C97.3821 96.264 96.0925 98.7096 94.5533 101.031C90.0189 107.622 83.5709 112.679 76.0413 115.414C74.1277 116.078 72.1725 116.575 70.1757 116.865C64.7677 117.777 59.6093 118.192 56.3645 123.787C54.1597 127.518 53.3693 131.953 53.1197 136.306C53.1197 136.596 53.0781 136.886 53.0781 137.176C53.0781 137.259 53.0781 137.342 53.0781 137.466C52.9949 141.28 53.8269 145.052 55.4909 148.492C60.3165 158.523 71.6733 164.741 82.8221 167.352C89.5197 168.927 96.4253 169.383 103.331 169.383C106.035 169.383 108.78 169.3 111.484 169.176C121.676 168.761 132.284 167.642 140.896 162.171C149.008 156.948 155.04 149.114 158.076 139.953C161.571 129.052 162.652 117.57 163.152 106.171C163.318 103.476 163.318 100.741 163.11 98.0464C163.027 97.0102 162.86 95.9739 162.652 94.9376C161.696 90.4195 159.491 86.2744 156.246 82.9583C155.497 82.2122 154.748 81.4661 153.916 80.8029C148.217 76.1604 141.145 73.6319 133.865 73.6319ZM133.865 73.0516C141.312 73.0516 148.508 75.6215 154.249 80.3055C155.081 81.0102 155.872 81.7563 156.62 82.5438C159.907 85.9428 162.195 90.2122 163.193 94.8133C163.401 95.8495 163.568 96.9273 163.651 98.005C163.859 100.741 163.859 103.476 163.692 106.212C163.235 116.492 162.278 128.596 158.576 140.16C155.705 149.114 149.216 157.57 141.145 162.668C132.492 168.181 121.76 169.342 111.443 169.756C108.406 169.881 105.744 169.964 103.289 169.964C95.2605 169.964 88.6877 169.3 82.6557 167.891C69.4269 164.824 59.3181 157.86 54.9085 148.741C53.2029 145.217 52.3709 141.363 52.4541 137.466V137.3C52.4541 137.259 52.4541 137.217 52.4541 137.176C52.4541 136.886 52.4541 136.596 52.4957 136.306C52.7453 131.041 53.8685 126.855 55.8237 123.539C58.9853 118.15 63.7693 117.362 68.8445 116.575L70.0925 116.368C72.0477 116.078 74.0029 115.622 75.8749 114.958C83.2797 112.223 89.6445 107.29 94.1373 100.782C94.8861 99.663 95.5933 98.4609 96.3005 97.3003C97.0077 96.1397 97.7565 94.8547 98.5469 93.6941C102.748 87.5179 108.364 83.9946 114.313 80.3055C115.769 79.3936 117.308 78.4402 118.764 77.4868C123.174 74.5438 128.457 73.0101 133.865 73.0516Z" fill="#231F20"/>
<path d="M98.5029 107.539C98.5445 107.539 98.5445 107.539 98.5861 107.539C98.7525 107.497 98.8357 107.373 98.7941 107.207C98.2533 104.927 95.3413 103.642 95.2165 103.601C95.0501 103.559 94.8837 103.601 94.8421 103.767C94.7589 103.891 94.8421 104.098 94.9669 104.14C95.0085 104.14 97.7541 105.383 98.2117 107.373C98.2533 107.456 98.3781 107.539 98.5029 107.539Z" fill="#D1D3D4"/>
<path d="M117.183 142.314C117.224 142.314 117.266 142.314 117.307 142.273C117.432 142.19 117.515 142.024 117.432 141.9C115.435 138.003 112.024 134.77 109.986 133.071C110.818 133.361 111.816 133.692 112.856 134.024C117.224 135.475 122.715 137.257 123.506 139.744C123.547 139.91 123.714 139.993 123.839 139.952C123.963 139.91 124.088 139.744 124.047 139.62V139.579C123.173 136.76 117.557 134.936 113.064 133.485C111.442 133.029 109.861 132.449 108.28 131.744C108.155 131.661 107.947 131.744 107.906 131.869C107.864 131.993 107.864 132.159 107.989 132.242C108.031 132.283 114.063 136.511 116.975 142.19C116.975 142.273 117.058 142.314 117.183 142.314Z" fill="#D1D3D4"/>
<path d="M79.3653 138.836C79.4901 138.836 79.5733 138.753 79.6149 138.67C79.6981 138.546 79.615 138.339 79.4902 138.297C75.3718 136.266 70.5461 134.359 65.9285 135.561C65.4293 135.644 64.9717 135.934 64.6389 136.349C64.5557 136.473 64.639 136.681 64.7638 136.722C64.8886 136.805 65.055 136.763 65.1382 136.639C65.3878 136.349 65.6789 136.183 66.0533 136.142C70.5045 134.981 75.2053 136.888 79.2405 138.836C79.2821 138.836 79.3237 138.836 79.3653 138.836Z" fill="#D1D3D4"/>
<path d="M123.386 118.233C123.427 118.233 123.469 118.233 123.511 118.192C123.594 118.151 123.677 118.068 123.677 117.943C124.051 117.363 128.419 113.923 134.285 112.265C139.776 110.731 144.602 111.228 148.595 113.84C148.72 113.923 148.928 113.881 149.011 113.757C149.095 113.632 149.053 113.425 148.928 113.342C138.861 106.834 126.298 114.793 123.719 117.073C123.178 117.57 123.053 117.819 123.136 118.026C123.178 118.151 123.261 118.233 123.386 118.233Z" fill="#D1D3D4"/>
<path d="M136.691 137.304C136.774 137.304 136.857 137.263 136.899 137.221C137.023 137.097 137.023 136.931 136.899 136.807C125.542 124.869 117.679 128.309 117.388 128.475C117.263 128.558 117.18 128.724 117.263 128.848C117.347 128.972 117.513 129.055 117.638 128.972C117.721 128.931 125.5 125.573 136.524 137.221C136.524 137.263 136.607 137.304 136.691 137.304Z" fill="#D1D3D4"/>
<path d="M68.6027 103.723L65.4411 97.1326C65.4411 97.1326 43.4347 104.925 40.4811 108.034C37.5275 111.143 37.1115 113.215 33.4923 113.091H33.4507C31.7035 112.842 29.9979 111.267 28.6667 110.19C26.2539 108.241 23.9659 106.127 21.8027 103.889C19.6811 101.775 17.6843 99.4953 15.8955 97.0911C15.2299 96.1792 14.1899 94.8942 14.0651 93.7751C13.8987 92.3657 15.1467 90.2517 16.3531 89.5885C19.3899 87.889 24.4651 92.7388 26.8363 94.231C28.1675 95.1015 30.4555 97.2155 32.0363 97.2569C32.9099 97.2569 34.2411 96.4694 35.0315 96.1792C39.2331 94.5626 43.4347 92.8217 47.6363 91.1222C52.6283 89.0911 57.6203 87.1015 62.6955 85.2362C64.5675 84.573 66.3979 83.8683 68.3115 83.3295C69.1019 83.0808 70.3499 82.5419 71.1819 82.7906C73.8443 83.5782 82.2891 97.1326 82.2891 97.1326" fill="white"/>
<path d="M33.7796 113.341C36.4004 113.341 37.3988 112.138 38.8548 110.315C39.354 109.693 39.9364 108.988 40.6852 108.201C43.3892 105.341 62.858 98.3353 65.2708 97.4649L68.3492 103.848C68.3908 104.014 68.5572 104.056 68.7236 104.014C68.89 103.973 68.9316 103.807 68.89 103.641V103.6L65.7284 97.0089C65.6452 96.8846 65.5204 96.8017 65.354 96.8431C64.4388 97.1747 43.2228 104.677 40.2692 107.786C39.5204 108.574 38.938 109.32 38.3972 109.942C36.8996 111.807 36.026 112.843 33.4884 112.76C32.0324 112.553 30.5348 111.351 29.37 110.356L28.8292 109.9C26.4164 107.952 24.1284 105.838 22.0068 103.641C19.8852 101.527 17.93 99.2473 16.1412 96.8431L15.85 96.4286C15.226 95.5996 14.4772 94.5633 14.3524 93.6514C14.186 92.3664 15.434 90.3768 16.5156 89.755C18.762 88.5115 22.506 91.2887 24.9604 93.1125C25.626 93.61 26.2084 94.0659 26.7076 94.3975C27.082 94.6048 27.498 94.9364 27.9556 95.268C29.2868 96.2628 30.826 97.4234 32.074 97.4649C32.7812 97.4649 33.6548 97.0504 34.4036 96.7188C34.6948 96.5944 34.9444 96.4701 35.194 96.3872C38.1476 95.2265 41.1428 94.0245 44.0548 92.8224C45.3028 92.325 46.5508 91.8276 47.7988 91.3302C52.666 89.3405 57.7412 87.3094 62.8164 85.4442C64.522 84.8224 66.4772 84.1177 68.3908 83.5374C68.5572 83.496 68.7236 83.4131 68.9316 83.3716C69.6388 83.1229 70.5124 82.8327 71.0948 82.9986C73.1748 83.6203 79.706 93.4856 82.0356 97.2162C82.1188 97.3405 82.2852 97.4234 82.4516 97.3405C82.5764 97.2576 82.618 97.0918 82.5348 96.926C82.202 96.3457 74.0068 83.2473 71.2612 82.4597C70.5124 82.2524 69.5556 82.584 68.7652 82.8328C68.5988 82.8742 68.3908 82.9571 68.266 82.9986C66.3108 83.5789 64.3556 84.2835 62.65 84.9053C57.5332 86.7706 52.458 88.8431 47.5908 90.7913L43.8468 92.2835C40.9348 93.4856 37.9396 94.6877 34.986 95.8483C34.7364 95.9312 34.4868 96.0556 34.1956 96.2214C33.53 96.553 32.698 96.926 32.1156 96.926H32.074C31.034 96.8846 29.5364 95.7654 28.33 94.8535C27.8724 94.4804 27.4148 94.1903 27.0404 93.9416C26.5828 93.6514 26.0004 93.1955 25.3348 92.698C22.5892 90.6255 18.8452 87.8483 16.266 89.2576C15.018 89.9623 13.6036 92.1592 13.8116 93.7343C13.9364 94.812 14.7684 95.8897 15.434 96.8017L15.7252 97.2162C17.514 99.6618 19.5108 101.942 21.6324 104.056C23.7956 106.294 26.0836 108.408 28.4964 110.356L29.0372 110.812C30.2852 111.848 31.8244 113.092 33.4468 113.341H33.53H33.7796Z" fill="#231F20"/>
<path d="M126.341 86.6893L133.372 87.6427L144.021 79.4354L139.071 77.2386L141.525 71.0209C141.525 71.0209 159.039 66.8759 161.992 71.1867C169.73 82.5857 152.175 89.1349 140.402 101.446C140.402 101.446 129.877 120.182 115.941 132.7C115.941 132.7 103.336 123.995 94.9748 112.803L103.794 90.0883C103.794 90.0883 97.0548 63.2696 100.175 60.4095C103.295 57.5494 123.887 66.1712 123.887 66.1712L119.976 71.1867L112.28 71.0209L113.612 78.3992C113.57 78.3992 122.722 81.9639 126.341 86.6893Z" fill="#66CB95"/>
<path d="M142.61 68.4526C141.611 67.6236 140.197 67.292 139.074 67.9137C139.698 67.0847 139.656 65.8826 139.199 64.9293C138.699 64.0174 137.992 63.2298 137.16 62.5666C136.079 61.5718 134.831 60.7842 133.458 60.2453C129.88 59.0018 125.887 60.6598 122.85 62.9811C121.227 64.2246 119.314 66.1313 119.231 68.2868C119.147 70.3179 121.061 73.0951 122.059 74.7946C123.474 77.2402 125.304 79.52 127.675 81.0122C134.04 84.9915 141.653 81.0122 143.691 74.2142C144.149 72.5977 144.274 70.8153 143.4 69.3645C143.151 68.9915 142.901 68.7013 142.61 68.4526Z" fill="white"/>
<path d="M132.993 82.8758C134.241 82.8758 135.489 82.6271 136.654 82.2126C140.19 80.8447 142.853 77.9017 143.934 74.2955C144.517 72.3473 144.392 70.5235 143.601 69.1971C143.393 68.824 143.102 68.4924 142.769 68.2022C141.937 67.4561 140.773 67.1245 139.649 67.3318C139.899 66.4613 139.816 65.5494 139.441 64.7618C138.901 63.8085 138.193 62.9794 137.32 62.3162C136.197 61.3214 134.907 60.4924 133.534 59.9535C130.373 58.8344 126.421 59.8706 122.677 62.7307C121.013 64.0157 119.016 66.0053 118.933 68.2437C118.849 70.0675 120.305 72.4302 121.345 74.1297C121.512 74.3784 121.678 74.6271 121.803 74.8758C123.509 77.8188 125.381 79.8914 127.502 81.2178C129.125 82.2955 131.038 82.8758 132.993 82.8758ZM142.395 68.6582C142.686 68.9069 142.894 69.1556 143.102 69.4872C144.059 71.1038 143.685 73.0934 143.352 74.1297C142.353 77.5701 139.774 80.3473 136.446 81.6737C133.576 82.7929 130.331 82.4613 127.752 80.7618C125.713 79.4769 123.883 77.4872 122.219 74.6271L121.761 73.881C120.763 72.223 119.39 69.9432 119.432 68.3266C119.515 66.2955 121.387 64.4302 122.968 63.2281C124.673 61.9432 129.083 59.0416 133.285 60.5338C134.616 61.0727 135.864 61.8188 136.904 62.7722C137.694 63.3939 138.401 64.1401 138.859 65.052C139.317 65.881 139.275 66.9173 138.776 67.7463C138.693 67.8706 138.693 67.995 138.776 68.1193C138.859 68.2022 139.025 68.2437 139.15 68.1608C140.232 67.539 141.563 67.9535 142.395 68.6582Z" fill="#231F20"/>
<path d="M118.982 83.0862L115.945 87.8945C115.945 87.8945 115.279 91.708 120.438 92.8686C125.596 94.0292 127.926 90.5888 127.926 90.5888L134.498 80.8893C134.498 80.8893 132.002 77.366 136.703 70.4437C132.127 70.195 127.676 68.7028 123.849 66.1328C123.849 66.1328 117.734 73.138 116.486 76.9515C115.238 80.7649 118.982 83.0862 118.982 83.0862Z" fill="white"/>
<path d="M122.514 93.4045C124.719 93.4459 126.799 92.4925 128.171 90.7516L134.744 81.0521C134.827 80.9692 134.827 80.8034 134.744 80.7205C134.744 80.6791 132.415 77.2386 136.949 70.6065C137.032 70.4822 136.991 70.2749 136.866 70.192C136.824 70.1506 136.783 70.1506 136.699 70.1506C132.165 69.9018 127.797 68.4096 124.011 65.8811C123.887 65.7982 123.72 65.8397 123.637 65.9226C123.387 66.2127 117.48 73.0107 116.232 76.8656C115.15 80.2646 117.73 82.5029 118.562 83.1247L115.65 87.6842C115.65 87.7257 115.608 87.7671 115.608 87.7671C115.608 87.8086 114.943 91.8708 120.351 93.0728C121.099 93.3215 121.807 93.4045 122.514 93.4045ZM134.162 80.8863L127.672 90.42C127.589 90.5443 125.426 93.6946 120.517 92.5754C115.941 91.5392 116.191 88.4304 116.232 87.9744L119.227 83.249C119.269 83.1661 119.269 83.1247 119.269 83.0418C119.269 82.9589 119.227 82.9174 119.144 82.876C118.978 82.7931 115.65 80.7205 116.815 77.1143C117.896 73.7153 122.971 67.705 123.928 66.5858C127.589 68.9485 131.832 70.3993 136.2 70.7723C132.29 76.6998 133.704 80.0987 134.162 80.8863Z" fill="#231F20"/>
<path d="M130.459 82.8781C131.166 83.7072 132.165 84.246 133.246 84.3289C134.786 84.4118 136.242 83.7072 137.157 82.4222C137.49 81.9662 137.781 81.4688 137.906 80.93C138.03 80.3911 137.906 79.8108 137.573 79.3548C137.157 78.816 136.45 78.6502 135.784 78.4844C134.827 78.2357 134.453 78.6087 133.579 78.8574C133.662 78.8574 133.829 78.7331 133.912 78.6916" fill="white"/>
<path d="M133.58 84.658C135.078 84.6166 136.492 83.8705 137.366 82.627C137.74 82.171 138.032 81.5907 138.156 81.0104C138.281 80.3886 138.156 79.7254 137.782 79.1865C137.283 78.5648 136.451 78.3575 135.868 78.1917C135.286 78.0259 134.704 78.1088 134.163 78.3575L133.996 78.399C133.955 78.399 133.913 78.399 133.872 78.399C133.788 78.399 133.705 78.4404 133.622 78.4819L133.539 78.5233C133.372 78.5648 133.289 78.7306 133.331 78.8549C133.372 79.0207 133.497 79.1036 133.664 79.1036H133.747C133.996 79.0207 134.204 78.9378 134.412 78.8964C134.828 78.6891 135.328 78.6477 135.785 78.772C136.451 78.9378 137.033 79.1036 137.408 79.5596C137.699 79.9327 137.782 80.4301 137.657 80.9275C137.532 81.4249 137.283 81.8808 136.992 82.2954C136.16 83.4974 134.787 84.1606 133.372 84.0777C132.374 83.9948 131.417 83.4974 130.793 82.7099C130.71 82.5855 130.502 82.5441 130.377 82.6684C130.252 82.7513 130.211 82.9586 130.336 83.0829C131.084 83.9948 132.166 84.5337 133.331 84.658C133.331 84.658 133.456 84.658 133.58 84.658Z" fill="#231F20"/>
<path d="M116.402 87.1481C116.402 87.1481 118.524 88.1429 121.519 87.231C124.514 86.3191 125.18 84.5782 125.18 84.5782C125.18 84.5782 121.685 85.1999 118.981 83.0859L116.402 87.1481Z" fill="#231F20"/>
<path d="M118.975 87.9335C119.89 87.9335 120.764 87.8092 121.637 87.519C124.757 86.5242 125.465 84.7418 125.506 84.7004C125.548 84.6175 125.506 84.4931 125.465 84.4102C125.381 84.3273 125.298 84.2859 125.173 84.3273C125.132 84.3273 121.762 84.9076 119.183 82.918C119.1 82.8765 119.017 82.8351 118.933 82.8765C118.85 82.8765 118.767 82.918 118.725 83.0009L116.146 87.0631C116.063 87.1874 116.105 87.3947 116.229 87.4776C116.229 87.4776 116.229 87.4776 116.271 87.4776C117.145 87.7677 118.06 87.9335 118.975 87.9335ZM124.633 84.9076C124.217 85.4465 123.301 86.3584 121.429 86.9387C119.932 87.4361 118.351 87.4776 116.812 86.9802L119.058 83.4569C120.722 84.576 122.677 85.0734 124.633 84.9076Z" fill="#231F20"/>
<path d="M126.344 72.6797C126.344 72.6797 122.059 74.918 122.267 75.83C122.475 76.7419 124.305 77.1978 124.305 77.1978" fill="white"/>
<path d="M124.304 77.5303C124.47 77.5303 124.595 77.4059 124.595 77.2401C124.595 77.1157 124.512 76.9914 124.387 76.9499C123.971 76.867 122.723 76.4111 122.556 75.7893C122.473 75.4163 124.345 74.0484 126.467 72.9292C126.592 72.8463 126.675 72.6805 126.592 72.5562C126.508 72.4318 126.342 72.3489 126.217 72.4318C124.844 73.1365 121.724 74.9189 122.016 75.9137C122.307 76.9085 124.054 77.4474 124.262 77.4888L124.304 77.5303Z" fill="#231F20"/>
<path d="M128.951 74.8868C128.614 74.7399 128.513 74.2298 128.725 73.7475C128.937 73.2652 129.382 72.9933 129.718 73.1402C130.055 73.2872 130.156 73.7972 129.944 74.2795C129.732 74.7618 129.288 75.0337 128.951 74.8868Z" fill="#231F20"/>
<path d="M123.121 71.7447C122.843 71.5054 122.897 70.9883 123.242 70.5896C123.587 70.191 124.093 70.0618 124.371 70.3011C124.649 70.5404 124.595 71.0575 124.25 71.4562C123.905 71.8548 123.399 71.984 123.121 71.7447Z" fill="#231F20"/>
<path d="M121.726 82.0461C122.35 82.0461 122.974 81.9218 123.515 81.6316C124.347 81.2171 125.096 80.5953 125.636 79.8078C125.678 79.7249 125.72 79.642 125.678 79.5591C125.636 79.3933 125.636 79.3104 120.27 76.3673C120.145 76.2844 119.979 76.3259 119.896 76.4503C119.854 76.5332 118.356 78.357 118.731 80.1394C118.939 80.844 119.438 81.4243 120.145 81.756C120.644 81.9632 121.185 82.0461 121.726 82.0461ZM124.971 79.6834C124.513 80.2637 123.931 80.7611 123.265 81.0927C122.392 81.5487 121.352 81.5901 120.436 81.1756C119.896 80.9684 119.521 80.5124 119.355 79.9736C119.105 78.7715 119.896 77.4451 120.27 76.9891C121.851 77.901 124.222 79.2275 124.971 79.6834Z" fill="#231F20"/>
<path d="M123.391 81.3445C121.311 82.3393 119.314 81.2616 119.064 80.0595C119.771 79.6035 120.645 79.2719 121.477 79.5621C122.267 79.8937 122.975 80.5569 123.391 81.3445Z" fill="#231F20"/>
<path d="M121.723 82.0469C122.347 82.0469 122.971 81.9226 123.512 81.6324C123.595 81.591 123.636 81.5495 123.678 81.4666C123.72 81.3837 123.678 81.3008 123.636 81.2179C123.179 80.3474 122.43 79.6428 121.515 79.2697C120.766 78.9795 119.851 79.1868 118.852 79.8086C118.769 79.8915 118.686 80.0158 118.728 80.0987C118.936 80.8034 119.435 81.3837 120.142 81.6739C120.641 81.9226 121.182 82.0469 121.723 82.0469ZM122.971 81.2179C122.139 81.5495 121.224 81.5495 120.433 81.1764C119.976 80.9692 119.601 80.6376 119.393 80.1816C120.142 79.7257 120.808 79.6013 121.348 79.8086C122.014 80.0987 122.596 80.5961 122.971 81.2179Z" fill="#231F20"/>
<path d="M94.9709 112.8C94.9709 112.8 83.8221 93.484 83.0733 93.111C82.3245 92.7379 65.4765 103.598 65.4765 103.598L76.7501 127.474C76.7085 127.474 96.9677 123.287 94.9709 112.8Z" fill="#231F20"/>
<path d="M76.7162 127.768H76.7578C80.2106 126.98 83.5386 125.861 86.7002 124.369C93.1482 121.218 96.0602 117.239 95.2282 112.804C95.2282 112.762 95.2282 112.721 95.1866 112.721C92.5658 108.161 83.913 93.2806 83.1642 92.9075C82.4154 92.5344 73.0138 98.4205 65.2762 103.395C65.1514 103.477 65.1098 103.643 65.193 103.768L76.4666 127.602C76.5082 127.685 76.5914 127.768 76.7162 127.768ZM94.6874 112.928C96.4762 122.379 79.0874 126.648 76.8826 127.146L65.817 103.726C71.9738 99.7469 81.7914 93.6536 82.9562 93.4464C83.7466 94.1925 90.361 105.426 94.6874 112.928Z" fill="#231F20"/>
<path d="M74.6328 113.009C74.6328 113.009 49.548 102.481 46.1368 105.59C42.7256 108.699 38.94 154.585 37.9832 155.041C33.8648 156.906 26.7096 159.725 26.46 159.725C25.1288 159.766 18.764 160.222 21.1768 162.875C23.132 165.03 25.8776 164.326 28.4984 164.45C31.9512 164.616 32.7 164.74 36.1528 164.823C39.3144 164.906 42.4344 164.947 45.596 164.989C47.4264 164.989 49.0488 163.828 49.5896 162.046L58.0344 123.704L68.9336 129.051L74.6328 113.009Z" fill="white"/>
<path d="M45.5934 165.321C47.5486 165.321 49.2542 164.036 49.795 162.171L58.1566 124.16L68.723 129.342C68.8062 129.383 68.8894 129.383 68.9726 129.342C69.0558 129.3 69.0974 129.259 69.139 129.176L74.8798 113.093C74.9214 112.927 74.8382 112.803 74.7134 112.72C73.6734 112.305 49.4206 102.191 45.8846 105.342C43.763 107.248 41.683 123.456 39.5614 141.362C38.771 147.87 38.0638 154.005 37.731 154.751C33.6542 156.575 26.7902 159.31 26.3326 159.393C25.1262 159.435 21.0078 159.725 20.3422 161.3C20.1342 161.839 20.3006 162.419 20.8414 163.041C22.4222 164.823 24.5438 164.741 26.5822 164.699C27.1646 164.699 27.7886 164.658 28.371 164.699C29.5358 164.741 30.4094 164.823 31.1998 164.865C32.6974 164.948 33.779 165.031 36.067 165.072C39.2702 165.155 42.4734 165.238 45.5102 165.238L45.5934 165.321ZM57.9486 123.456C57.907 123.456 57.8654 123.456 57.8238 123.497C57.7406 123.538 57.699 123.621 57.6574 123.704L49.2126 162.005C48.7134 163.621 47.2574 164.699 45.5518 164.699H45.5102C42.4734 164.658 39.2702 164.616 36.067 164.533C33.8206 164.492 32.739 164.409 31.2414 164.326C30.451 164.285 29.619 164.243 28.4126 164.16C27.7886 164.119 27.1646 164.16 26.5822 164.16C24.5854 164.202 22.7134 164.243 21.299 162.668C20.883 162.212 20.7582 161.839 20.883 161.549C21.2574 160.637 24.003 160.098 26.3742 160.015C26.7486 160.015 34.3614 156.948 38.0222 155.29C38.4382 155.082 38.7294 153.3 40.1438 141.445C41.7246 128.015 44.1374 107.704 46.3006 105.797C48.963 103.393 67.1422 110.191 74.2558 113.176L68.6814 128.678L58.115 123.497C58.0318 123.456 57.9902 123.414 57.9486 123.456Z" fill="#231F20"/>
<path d="M115.898 132.703C115.898 132.703 105.124 145.76 93.3096 145.76C81.4952 145.76 63.7736 129.221 63.7736 129.221L73.1336 109.117L94.932 112.765C94.9736 112.806 113.569 127.977 115.898 132.703Z" fill="#231F20"/>
<path d="M93.353 146.044C99.5514 146.044 105.417 142.437 109.244 139.453C111.74 137.505 114.07 135.308 116.15 132.862C116.233 132.779 116.233 132.655 116.191 132.531C113.82 127.805 95.9322 113.173 95.1418 112.551C95.1002 112.51 95.0586 112.51 95.017 112.51L73.2186 108.862C73.0938 108.821 72.969 108.904 72.8858 109.028L63.5258 129.132C63.4842 129.256 63.4842 129.38 63.5674 129.463C66.8538 132.448 70.3066 135.225 73.9258 137.754C81.8714 143.267 88.4026 146.044 93.353 146.044ZM115.567 132.655C114.361 134.064 104.211 145.463 93.353 145.463C82.3706 145.463 65.9386 130.748 64.1914 129.173L73.3434 109.484L94.8506 113.09C95.9738 114.002 113.03 127.971 115.567 132.655Z" fill="#231F20"/>
<path d="M97.6775 118.23C97.8439 118.23 97.9688 118.106 97.9688 117.94C97.9688 117.816 97.8856 117.691 97.7608 117.65C87.0696 113.298 73.3416 108.904 73.2168 108.862C73.0504 108.821 72.884 108.904 72.8424 109.028C72.8008 109.194 72.884 109.36 73.0504 109.401C73.1752 109.443 86.8616 113.836 97.5528 118.189C97.636 118.189 97.6359 118.23 97.6775 118.23Z" fill="white"/>
<path d="M22.2607 93.1133C22.2607 93.1133 34.4079 101.735 37.0703 107.621L22.2607 93.1133Z" fill="white"/>
<path d="M37.0652 107.914C37.1068 107.914 37.1484 107.914 37.19 107.872C37.3148 107.789 37.398 107.623 37.3564 107.499C34.694 101.613 22.9212 93.24 22.422 92.867C22.2972 92.7841 22.0892 92.7841 22.006 92.9499C21.9228 93.0742 21.9228 93.2815 22.0892 93.3644C22.214 93.4473 34.2364 102.028 36.8156 107.748C36.8572 107.831 36.982 107.914 37.0652 107.914Z" fill="#231F20"/>
<path d="M131.583 90.3797C131.666 90.3797 131.749 90.3382 131.833 90.2553C136.825 83.3745 148.764 76.9496 148.889 76.8667C149.013 76.7838 149.097 76.618 149.013 76.4937C148.93 76.3693 148.764 76.2864 148.639 76.3693C148.514 76.4522 136.45 82.96 131.375 89.9237C131.292 90.0481 131.292 90.2139 131.417 90.3382C131.458 90.3797 131.541 90.3797 131.583 90.3797Z" fill="#231F20"/>
<path d="M112.238 71.3115H112.321C112.487 71.2701 112.57 71.1457 112.57 70.9799C111.988 67.7053 110.199 66.0473 110.116 65.9644C109.991 65.84 109.825 65.84 109.7 65.9644C109.575 66.0887 109.575 66.2545 109.7 66.3789C110.906 67.7053 111.697 69.3219 111.946 71.0628C111.988 71.1872 112.113 71.3115 112.238 71.3115Z" fill="#231F20"/>
<path d="M167.939 162.794C168.438 162.794 168.812 162.421 168.812 161.924V134.152C168.812 133.654 168.438 133.281 167.939 133.281C167.44 133.281 167.065 133.654 167.065 134.152V161.924C167.065 162.421 167.481 162.794 167.939 162.794Z" fill="#231F20"/>
<path d="M167.938 141.489C153.234 141.489 141.314 138.223 141.314 134.194C141.314 130.165 153.234 126.898 167.938 126.898C182.643 126.898 194.562 130.165 194.562 134.194C194.562 138.223 182.643 141.489 167.938 141.489Z" fill="white"/>
<path d="M167.936 141.776C183.037 141.776 194.852 138.46 194.852 134.191C194.852 129.922 183.037 126.605 167.936 126.605C152.836 126.605 141.021 129.922 141.021 134.191C141.021 138.46 152.836 141.776 167.936 141.776ZM167.936 127.186C182.205 127.186 194.269 130.377 194.269 134.191C194.269 138.004 182.205 141.196 167.936 141.196C153.668 141.196 141.604 138.004 141.604 134.191C141.604 130.377 153.668 127.186 167.936 127.186Z" fill="#231F20"/>
<path d="M157.745 168.969C158.244 168.969 158.619 168.596 158.619 168.099C158.619 166.275 164.11 163.912 167.979 162.835C171.848 163.912 177.339 166.275 177.339 168.099C177.339 168.596 177.713 168.969 178.212 168.969C178.712 168.969 179.086 168.596 179.086 168.099C179.086 164.202 170.017 161.591 168.228 161.094C168.062 161.052 167.937 161.052 167.771 161.094C165.94 161.591 156.872 164.244 156.872 168.099C156.83 168.596 157.204 168.969 157.745 168.969C157.704 168.969 157.704 168.969 157.745 168.969Z" fill="#231F20"/>
<path d="M183.082 116.909C180.853 116.909 179.047 115.108 179.047 112.888C179.047 110.667 180.853 108.867 183.082 108.867C185.311 108.867 187.117 110.667 187.117 112.888C187.117 115.108 185.311 116.909 183.082 116.909Z" fill="white"/>
<path d="M183.08 117.2C185.493 117.2 187.406 115.252 187.406 112.889C187.406 110.485 185.451 108.578 183.08 108.578C180.709 108.578 178.753 110.526 178.753 112.889C178.753 115.252 180.667 117.2 183.08 117.2ZM183.08 109.158C185.16 109.158 186.824 110.816 186.824 112.889C186.824 114.962 185.16 116.62 183.08 116.62C181 116.62 179.336 114.962 179.336 112.889C179.336 110.816 181 109.158 183.08 109.158Z" fill="#231F20"/>
<path d="M181.916 134.109H171.308L170.018 113.094H183.164L181.916 134.109Z" fill="white"/>
<path d="M171.306 134.401H181.914C182.08 134.401 182.205 134.276 182.205 134.11L183.453 113.095C183.453 113.012 183.412 112.929 183.37 112.888C183.328 112.846 183.245 112.805 183.162 112.805H170.016C169.933 112.805 169.85 112.846 169.808 112.888C169.767 112.929 169.725 113.012 169.725 113.095L170.973 134.11C170.973 134.276 171.14 134.401 171.306 134.401ZM181.623 133.82H171.597L170.349 113.385H182.829L181.623 133.82Z" fill="#231F20"/>
<path d="M180.376 132.45H172.846L172.222 121.383H181L180.376 132.45Z" fill="#66CB95"/>
<path d="M174.51 131.914C174.634 131.914 174.759 131.831 174.801 131.665C174.884 131.251 173.636 113.883 173.054 106.463C173.054 106.38 173.012 106.297 172.97 106.256L167.687 101.489C167.562 101.365 167.396 101.406 167.271 101.531C167.146 101.655 167.188 101.821 167.313 101.945L172.513 106.629C173.012 113.468 174.302 130.878 174.26 131.541C174.218 131.707 174.302 131.831 174.468 131.873C174.468 131.873 174.468 131.873 174.51 131.873C174.468 131.914 174.51 131.914 174.51 131.914Z" fill="#231F20"/>
<path d="M170.016 135.56L170.391 138.503L152.96 139.042L146.887 129.716L147.053 126.109L170.016 135.56Z" fill="white"/>
<path d="M152.963 139.371L170.435 138.79C170.519 138.79 170.602 138.749 170.643 138.707C170.685 138.625 170.727 138.542 170.727 138.5L170.352 135.557C170.352 135.433 170.269 135.35 170.186 135.309L147.223 125.816C147.139 125.775 147.056 125.775 146.973 125.858C146.89 125.899 146.848 125.982 146.848 126.106L146.682 129.754C146.682 129.796 146.682 129.878 146.723 129.92L152.714 139.205C152.755 139.288 152.839 139.329 152.963 139.371ZM170.061 138.21L153.088 138.749L147.181 129.63L147.306 126.521L169.77 135.764L170.061 138.21Z" fill="#231F20"/>
<path d="M162.902 125.32L170.016 135.559L153.292 136.056L147.052 126.108L162.902 125.32Z" fill="white"/>
<path d="M153.298 136.347L170.021 135.85C170.188 135.85 170.312 135.726 170.312 135.56C170.312 135.518 170.313 135.435 170.271 135.394L163.157 125.156C163.116 125.073 162.991 125.031 162.908 125.031L147.058 125.819C146.892 125.819 146.767 125.943 146.767 126.109C146.767 126.15 146.767 126.192 146.808 126.233L153.048 136.182C153.09 136.306 153.215 136.347 153.298 136.347ZM169.48 135.27L153.464 135.726L147.557 126.316L162.741 125.57L169.48 135.27Z" fill="#231F20"/>
<path d="M152.967 139.372C153.133 139.372 153.258 139.247 153.258 139.123L153.633 136.097C153.674 135.931 153.549 135.807 153.383 135.766C153.217 135.766 153.092 135.849 153.05 136.014L152.676 139.04C152.634 139.206 152.759 139.33 152.925 139.372C152.925 139.33 152.925 139.33 152.967 139.372Z" fill="#231F20"/>
<path d="M152.676 130.334L163.118 129.878C163.242 129.878 163.326 129.795 163.367 129.713C163.409 129.63 163.409 129.505 163.367 129.422L161.62 126.894C161.578 126.811 161.454 126.77 161.37 126.77L151.012 127.267C150.929 127.267 150.804 127.35 150.762 127.433C150.721 127.516 150.721 127.64 150.762 127.723L152.426 130.21C152.468 130.293 152.593 130.334 152.676 130.334ZM162.577 129.339L152.801 129.754L151.511 127.847L161.204 127.391L162.577 129.339Z" fill="#D1D3D4"/>
</svg>
