<svg width="32" height="32" viewBox="0 0 32 32" fill="none" xmlns="http://www.w3.org/2000/svg">
<path d="M9.3333 30.6667L13.4333 9.93333C13.5666 9.28889 13.8666 8.80556 14.3333 8.48333C14.8 8.16111 15.2889 8 15.8 8C16.3111 8 16.7833 8.11111 17.2166 8.33333C17.65 8.55556 18 8.88889 18.2666 9.33333L19.6 11.4667C20 12.1111 20.5166 12.6944 21.15 13.2167C21.7833 13.7389 22.5111 14.1222 23.3333 14.3667V12H25.3333V30.6667H23.3333V17.1333C22.2666 16.8889 21.2777 16.5 20.3666 15.9667C19.4555 15.4333 18.6666 14.7778 18 14L17.2 18L20 20.6667V30.6667H17.3333V22.6667L14.5333 20L12.1333 30.6667H9.3333ZM9.89997 17.5L7.06663 16.9667C6.71108 16.9 6.4333 16.7167 6.2333 16.4167C6.0333 16.1167 5.96663 15.7778 6.0333 15.4L7.0333 10.1667C7.16663 9.45556 7.54441 8.89444 8.16663 8.48333C8.78886 8.07222 9.45552 7.93333 10.1666 8.06667L11.7 8.36667L9.89997 17.5ZM18 7.33333C17.2666 7.33333 16.6389 7.07222 16.1166 6.55C15.5944 6.02778 15.3333 5.4 15.3333 4.66667C15.3333 3.93333 15.5944 3.30556 16.1166 2.78333C16.6389 2.26111 17.2666 2 18 2C18.7333 2 19.3611 2.26111 19.8833 2.78333C20.4055 3.30556 20.6666 3.93333 20.6666 4.66667C20.6666 5.4 20.4055 6.02778 19.8833 6.55C19.3611 7.07222 18.7333 7.33333 18 7.33333Z" fill="#0593B7"/>
</svg>
