<svg width="32" height="32" viewBox="0 0 32 32" fill="none" xmlns="http://www.w3.org/2000/svg">
<path d="M3.99998 26.6674C3.26665 26.6674 2.63909 26.4065 2.11731 25.8847C1.59554 25.3629 1.3342 24.7349 1.33331 24.0007V22.934C1.33331 22.1785 1.52798 21.4842 1.91731 20.8514C2.30665 20.2185 2.82309 19.7349 3.46665 19.4007C4.84442 18.7118 6.24442 18.1954 7.66665 17.8514C9.08887 17.5074 10.5333 17.3349 12 17.334C12.5111 17.334 13.0169 17.3562 13.5173 17.4007C14.0178 17.4451 14.5231 17.5118 15.0333 17.6007C15.3444 17.6451 15.5666 17.8176 15.7 18.118C15.8333 18.4185 15.8444 18.7238 15.7333 19.034C15.6222 19.3442 15.4111 19.6167 15.1 19.8514C14.7889 20.086 14.3444 20.1691 13.7666 20.1007C13.4555 20.0562 13.1555 20.0287 12.8666 20.018C12.5778 20.0074 12.2889 20.0016 12 20.0007C10.7555 20.0007 9.5222 20.1509 8.29998 20.4514C7.07776 20.7518 5.86665 21.2016 4.66665 21.8007C4.46665 21.9118 4.30531 22.0674 4.18265 22.2674C4.05998 22.4674 3.99909 22.6896 3.99998 22.934V24.0007H13.8333C14.2778 24.0007 14.6111 24.1398 14.8333 24.418C15.0555 24.6962 15.1666 25.0016 15.1666 25.334C15.1666 25.6665 15.0555 25.9722 14.8333 26.2514C14.6111 26.5305 14.2778 26.6691 13.8333 26.6674H3.99998ZM12 16.0007C10.5333 16.0007 9.27776 15.4785 8.23331 14.434C7.18887 13.3896 6.66665 12.134 6.66665 10.6674C6.66665 9.20069 7.18887 7.94513 8.23331 6.90069C9.27776 5.85624 10.5333 5.33402 12 5.33402C13.4666 5.33402 14.7222 5.85624 15.7666 6.90069C16.8111 7.94513 17.3333 9.20069 17.3333 10.6674C17.3333 12.134 16.8111 13.3896 15.7666 14.434C14.7222 15.4785 13.4666 16.0007 12 16.0007ZM25.3333 10.6674C25.3333 12.134 24.8111 13.3896 23.7666 14.434C22.7222 15.4785 21.4666 16.0007 20 16.0007C19.7555 16.0007 19.4444 15.9731 19.0666 15.918C18.6889 15.8629 18.3778 15.8016 18.1333 15.734C18.7333 15.0229 19.1946 14.234 19.5173 13.3674C19.84 12.5007 20.0009 11.6007 20 10.6674C19.9991 9.73402 19.8382 8.83402 19.5173 7.96735C19.1964 7.10069 18.7351 6.3118 18.1333 5.60069C18.4444 5.48957 18.7555 5.41713 19.0666 5.38335C19.3778 5.34957 19.6889 5.33313 20 5.33402C21.4666 5.33402 22.7222 5.85624 23.7666 6.90069C24.8111 7.94513 25.3333 9.20069 25.3333 10.6674ZM12 13.334C12.7333 13.334 13.3613 13.0731 13.884 12.5514C14.4066 12.0296 14.6675 11.4016 14.6666 10.6674C14.6658 9.93313 14.4049 9.30557 13.884 8.78469C13.3631 8.2638 12.7351 8.00246 12 8.00069C11.2649 7.99891 10.6373 8.26024 10.1173 8.78469C9.59731 9.30913 9.33598 9.93669 9.33331 10.6674C9.33065 11.398 9.59198 12.026 10.1173 12.5514C10.6426 13.0767 11.2702 13.3376 12 13.334ZM22.6666 25.334C23.4222 25.334 24.0502 25.1118 24.5506 24.6674C25.0511 24.2229 25.312 23.5562 25.3333 22.6674C25.3555 21.9118 25.1058 21.2785 24.584 20.7674C24.0622 20.2562 23.4231 20.0007 22.6666 20.0007C21.9102 20.0007 21.2769 20.2562 20.7666 20.7674C20.2564 21.2785 20.0009 21.9118 20 22.6674C19.9991 23.4229 20.2546 24.0562 20.7666 24.5674C21.2786 25.0785 21.912 25.334 22.6666 25.334ZM22.6666 28.0007C21.2 28.0007 19.9444 27.4785 18.9 26.434C17.8555 25.3896 17.3333 24.134 17.3333 22.6674C17.3333 21.2007 17.8555 19.9451 18.9 18.9007C19.9444 17.8562 21.2 17.334 22.6666 17.334C24.1333 17.334 25.3889 17.8562 26.4333 18.9007C27.4778 19.9451 28 21.2007 28 22.6674C28 23.1785 27.9391 23.662 27.8173 24.118C27.6955 24.574 27.512 25.0016 27.2666 25.4007L29.7333 27.8674C29.9778 28.1118 30.1 28.4229 30.1 28.8007C30.1 29.1785 29.9778 29.4896 29.7333 29.734C29.4889 29.9785 29.1778 30.1007 28.8 30.1007C28.4222 30.1007 28.1111 29.9785 27.8666 29.734L25.4 27.2674C25 27.5118 24.5724 27.6954 24.1173 27.818C23.6622 27.9407 23.1786 28.0016 22.6666 28.0007Z" fill="#0593B7"/>
</svg>
