<svg width="32" height="32" viewBox="0 0 32 32" fill="none" xmlns="http://www.w3.org/2000/svg">
<path d="M11.2 7.20047C11.2 8.01647 10.9568 8.77327 10.5376 9.40687L13.792 12.6629C14.4466 12.2305 15.2138 12.0001 15.9984 12.0005C16.8144 12.0005 17.5712 12.2437 18.2048 12.6629L21.4608 9.40687C20.9141 8.57993 20.6941 7.57948 20.8432 6.59949C20.9923 5.61949 21.5 4.72978 22.2678 4.10283C23.0356 3.47588 24.0089 3.15637 24.9989 3.20624C25.9889 3.25611 26.9251 3.67181 27.6261 4.37275C28.327 5.07368 28.7427 6.00992 28.7926 6.99993C28.8425 7.98995 28.5229 8.96322 27.896 9.73105C27.2691 10.4989 26.3793 11.0066 25.3993 11.1557C24.4194 11.3048 23.4189 11.0847 22.592 10.5381L19.3376 13.7925C19.7568 14.4261 20 15.1845 20 15.9989C20 16.8149 19.7568 17.5717 19.3376 18.2053L22.5936 21.4613C23.4205 20.9147 24.4209 20.6946 25.4009 20.8437C26.3809 20.9928 27.2707 21.5005 27.8976 22.2683C28.5246 23.0361 28.8441 24.0094 28.7942 24.9994C28.7443 25.9894 28.3286 26.9257 27.6277 27.6266C26.9267 28.3275 25.9905 28.7432 25.0005 28.7931C24.0105 28.843 23.0372 28.5235 22.2694 27.8965C21.5016 27.2696 20.9939 26.3799 20.8448 25.3999C20.6957 24.4199 20.9157 23.4194 21.4624 22.5925L18.2064 19.3365C17.5518 19.7689 16.7845 19.9992 16 19.9989C15.184 19.9989 14.4272 19.7557 13.7936 19.3365L10.5376 22.5925C11.0842 23.4194 11.3043 24.4199 11.1551 25.3999C11.006 26.3799 10.4984 27.2696 9.73053 27.8965C8.9627 28.5235 7.98943 28.843 6.99942 28.7931C6.0094 28.7432 5.07317 28.3275 4.37223 27.6266C3.67129 26.9257 3.25559 25.9894 3.20572 24.9994C3.15585 24.0094 3.47536 23.0361 4.10231 22.2683C4.72926 21.5005 5.61898 20.9928 6.59897 20.8437C7.57896 20.6946 8.57941 20.9147 9.40636 21.4613L12.6624 18.2053C12.2303 17.5511 11.9999 16.7844 12 16.0005C12 15.1845 12.2432 14.4277 12.6624 13.7941L9.40796 10.5381C8.66507 11.0299 7.77927 11.2596 6.89101 11.1907C6.00276 11.1219 5.1629 10.7586 4.50461 10.1582C3.84633 9.55789 3.40731 8.75498 3.25717 7.8768C3.10703 6.99863 3.25436 6.09546 3.6758 5.31053C4.09724 4.5256 4.76866 3.90383 5.5836 3.54382C6.39854 3.18381 7.31034 3.10617 8.17442 3.32321C9.03849 3.54025 9.80538 4.03955 10.3535 4.74193C10.9016 5.44431 11.1995 6.30956 11.2 7.20047Z" fill="#0593B7"/>
</svg>
