<svg width="32" height="32" viewBox="0 0 32 32" fill="none" xmlns="http://www.w3.org/2000/svg">
<path d="M6.85727 18.666C5.85682 17.0277 5.32935 15.1444 5.33327 13.2247C5.33327 7.39268 10.1093 2.66602 15.9999 2.66602C21.8906 2.66602 26.6666 7.39268 26.6666 13.2247C26.6705 15.1444 26.1431 17.0277 25.1426 18.666M19.9999 25.3327L19.8266 26.1953C19.6399 27.138 19.5453 27.6087 19.3333 27.982C19.0066 28.5574 18.4777 28.9908 17.8493 29.198C17.4426 29.3327 16.9599 29.3327 15.9999 29.3327C15.0399 29.3327 14.5573 29.3327 14.1506 29.1993C13.522 28.9918 12.993 28.5579 12.6666 27.982C12.4546 27.6087 12.3599 27.138 12.1733 26.1953L11.9999 25.3327M9.84394 22.7967C9.72127 22.4287 9.65994 22.2433 9.66661 22.094C9.67415 21.9396 9.72627 21.7907 9.81666 21.6653C9.90705 21.5399 10.0318 21.4433 10.1759 21.3873C10.3146 21.3327 10.5093 21.3327 10.8959 21.3327H21.1039C21.4919 21.3327 21.6853 21.3327 21.8239 21.386C21.9682 21.4421 22.0932 21.5388 22.1836 21.6645C22.274 21.7902 22.326 21.9394 22.3333 22.094C22.3399 22.2433 22.2786 22.4273 22.1559 22.7967C21.9293 23.478 21.8159 23.8193 21.6413 24.0953C21.2759 24.6722 20.7033 25.0869 20.0413 25.254C19.7239 25.3327 19.3666 25.3327 18.6506 25.3327H13.3493C12.6333 25.3327 12.2746 25.3327 11.9586 25.2527C11.2968 25.0859 10.7242 24.6717 10.3586 24.0953C10.1839 23.8193 10.0706 23.478 9.84394 22.7967Z" stroke="#0593B7" stroke-width="2.5" stroke-linecap="round" stroke-linejoin="round"/>
<path d="M11 13L14 16V21.3333M21 13L18 16V21.3333M11 14C11.2652 14 11.5196 13.8946 11.7071 13.7071C11.8946 13.5196 12 13.2652 12 13C12 12.7348 11.8946 12.4804 11.7071 12.2929C11.5196 12.1054 11.2652 12 11 12C10.7348 12 10.4804 12.1054 10.2929 12.2929C10.1054 12.4804 10 12.7348 10 13C10 13.2652 10.1054 13.5196 10.2929 13.7071C10.4804 13.8946 10.7348 14 11 14ZM21 14C20.7348 14 20.4804 13.8946 20.2929 13.7071C20.1054 13.5196 20 13.2652 20 13C20 12.7348 20.1054 12.4804 20.2929 12.2929C20.4804 12.1054 20.7348 12 21 12C21.2652 12 21.5196 12.1054 21.7071 12.2929C21.8946 12.4804 22 12.7348 22 13C22 13.2652 21.8946 13.5196 21.7071 13.7071C21.5196 13.8946 21.2652 14 21 14Z" stroke="#0593B7" stroke-width="1.5" stroke-linecap="round" stroke-linejoin="round"/>
</svg>
