<svg width="36" height="36" viewBox="0 0 36 36" fill="none" xmlns="http://www.w3.org/2000/svg">
<path d="M18 15.9781C20.6289 15.9781 22.76 13.8739 22.76 11.2781C22.76 8.68239 20.6289 6.57812 18 6.57812C15.3711 6.57812 13.24 8.68239 13.24 11.2781C13.24 13.8739 15.3711 15.9781 18 15.9781Z" fill="white"/>
<path d="M10.7803 11.749H11.2603V11.319C11.2632 10.0686 11.6159 8.84394 12.2787 7.7836C12.9414 6.72326 13.8876 5.86953 15.0103 5.31898C14.6779 4.55354 14.1444 3.89241 13.4665 3.40582C12.7886 2.91922 11.9915 2.62532 11.16 2.55534C10.3284 2.48536 9.49345 2.6419 8.74373 3.00835C7.99401 3.3748 7.35754 3.93746 6.90192 4.63659C6.4463 5.33571 6.18854 6.14518 6.15603 6.97903C6.12351 7.81288 6.31744 8.63997 6.71723 9.37245C7.11702 10.1049 7.70774 10.7155 8.42665 11.1392C9.14555 11.5629 9.9658 11.784 10.8003 11.779L10.7803 11.749ZM24.7603 11.279V11.709H25.2403C26.0636 11.7007 26.8695 11.4706 27.5731 11.043C28.2768 10.6153 28.8521 10.0059 29.2385 9.27878C29.625 8.55171 29.8083 7.7339 29.7691 6.91144C29.73 6.08897 29.4698 5.29227 29.016 4.60519C28.5623 3.91812 27.9317 3.36608 27.1906 3.00718C26.4495 2.64828 25.6254 2.4958 24.805 2.56579C23.9846 2.63577 23.1982 2.92563 22.5287 3.40487C21.8591 3.8841 21.3311 4.53497 21.0003 5.28898C22.1233 5.83738 23.0705 6.68895 23.735 7.74746C24.3994 8.80597 24.7546 10.0292 24.7603 11.279ZM22.2903 16.449C24.2785 16.8425 26.201 17.5159 28.0003 18.449C28.2538 18.5882 28.4833 18.7672 28.6803 18.979H34.0003V15.559C34.0012 15.4278 33.9664 15.2989 33.8994 15.1861C33.8324 15.0733 33.7359 14.9809 33.6203 14.919C31.0284 13.5633 28.1452 12.8597 25.2203 12.869H24.5603C24.2137 14.2777 23.4166 15.5347 22.2903 16.449ZM6.53026 20.919C6.52844 20.4154 6.66445 19.9208 6.92356 19.489C7.18268 19.0571 7.55503 18.7044 8.00026 18.469C9.79955 17.5359 11.722 16.8625 13.7103 16.469C12.5893 15.5625 11.7928 14.3168 11.4403 12.919H10.7803C7.85529 12.9097 4.97211 13.6133 2.38026 14.969C2.26463 15.0309 2.16812 15.1233 2.10115 15.2361C2.03418 15.3489 1.99929 15.4778 2.00026 15.609V21.999H6.53026V20.919ZM21.4603 26.689H27.4203V28.089H21.4603V26.689Z" fill="white"/>
<path d="M32.8105 21.2602H25.9405V20.2602C25.9405 19.995 25.8352 19.7406 25.6476 19.5531C25.4601 19.3655 25.2058 19.2602 24.9405 19.2602C24.6753 19.2602 24.421 19.3655 24.2334 19.5531C24.0459 19.7406 23.9405 19.995 23.9405 20.2602V21.2602H22.0005V18.4302C20.6849 18.1539 19.3449 18.0098 18.0005 18.0002C14.8443 17.987 11.7332 18.7494 8.94054 20.2202C8.81615 20.2847 8.71202 20.3824 8.63967 20.5024C8.56731 20.6224 8.52954 20.76 8.53054 20.9002V26.5102H15.6405V32.6002C15.6405 32.8654 15.7459 33.1197 15.9334 33.3073C16.121 33.4948 16.3753 33.6002 16.6405 33.6002H32.8105C33.0758 33.6002 33.3301 33.4948 33.5176 33.3073C33.7052 33.1197 33.8105 32.8654 33.8105 32.6002V22.2602C33.8105 21.995 33.7052 21.7406 33.5176 21.5531C33.3301 21.3655 33.0758 21.2602 32.8105 21.2602ZM31.8105 31.6202H17.6405V23.2602H23.9405V24.1702C23.9405 24.4354 24.0459 24.6897 24.2334 24.8773C24.421 25.0648 24.6753 25.1702 24.9405 25.1702C25.2058 25.1702 25.4601 25.0648 25.6476 24.8773C25.8352 24.6897 25.9405 24.4354 25.9405 24.1702V23.2602H31.8105V31.6202Z" fill="white"/>
</svg>
