<svg width="38" height="38" viewBox="0 0 38 38" fill="none" xmlns="http://www.w3.org/2000/svg">
<path d="M19.0002 4.91602C19.4219 4.91608 19.8389 5.00473 20.2239 5.17676C20.609 5.34886 20.9532 5.60078 21.2346 5.91504L22.342 7.15137V7.15234C22.6755 7.52529 23.0889 7.81821 23.551 8.00977C23.9553 8.17733 24.3881 8.2633 24.8245 8.26367L25.012 8.25879L26.6741 8.16699C27.0949 8.14395 27.5158 8.20984 27.9094 8.36035C28.3032 8.51096 28.6611 8.74289 28.9592 9.04102C29.2574 9.33918 29.4893 9.69696 29.6399 10.0908C29.7904 10.4845 29.8563 10.9053 29.8333 11.3262L29.7415 12.9893V12.9902C29.7143 13.4891 29.7999 13.9877 29.9915 14.4492C30.183 14.9108 30.4763 15.3232 30.8489 15.6562L32.0872 16.7637V16.7646C32.4015 17.046 32.6532 17.3902 32.8254 17.7754C32.9976 18.1606 33.0872 18.5781 33.0872 19C33.0871 19.4219 32.9976 19.8395 32.8254 20.2246C32.6534 20.6093 32.4021 20.9532 32.0881 21.2344L30.8489 22.3428C30.4759 22.6762 30.1821 23.0896 29.9905 23.5518C29.8228 23.9563 29.7368 24.3895 29.7366 24.8262L29.7415 25.0127L29.8333 26.6748C29.8563 27.0957 29.7904 27.5165 29.6399 27.9102C29.4893 28.304 29.2574 28.6618 28.9592 28.96C28.6611 29.2581 28.3033 29.49 27.9094 29.6406C27.5648 29.7724 27.1994 29.8397 26.8313 29.8389L26.6741 29.834L25.012 29.7422H25.011C24.512 29.7149 24.0126 29.8006 23.551 29.9922C23.1474 30.1597 22.7812 30.4048 22.4729 30.7129L22.344 30.8496L21.2366 32.0879C20.9552 32.4023 20.61 32.654 20.2249 32.8262C19.8396 32.9984 19.4222 33.0879 19.0002 33.0879C18.5785 33.0878 18.1617 32.9983 17.7766 32.8262C17.3914 32.654 17.0463 32.4023 16.7649 32.0879L15.6575 30.8496L15.5286 30.7129C15.2198 30.4044 14.8528 30.1588 14.4485 29.9912C13.9864 29.7997 13.487 29.7145 12.9875 29.7422L11.3254 29.834C10.9046 29.857 10.4838 29.7912 10.0901 29.6406C9.69623 29.49 9.33846 29.2581 9.04028 28.96C8.74215 28.6618 8.51023 28.304 8.35962 27.9102C8.22786 27.5655 8.16053 27.2001 8.16138 26.832L8.16626 26.6748L8.25806 25.0127V25.0117C8.2853 24.5127 8.19962 24.0133 8.00806 23.5518C7.81654 23.0904 7.52399 22.6777 7.15161 22.3447H7.15063L5.91333 21.2373C5.59891 20.9559 5.34725 20.6108 5.17505 20.2256C5.00294 19.8405 4.91431 19.4228 4.91431 19.001C4.91437 18.5793 5.00302 18.1623 5.17505 17.7773C5.34725 17.3922 5.59893 17.047 5.91333 16.7656H5.91431L7.15063 15.6582C7.52366 15.3247 7.81745 14.9114 8.00903 14.4492C8.17656 14.0449 8.26259 13.6122 8.26294 13.1758L8.25806 12.9883L8.16626 11.3262C8.14324 10.9053 8.20907 10.4845 8.35962 10.0908C8.51024 9.69695 8.74211 9.33919 9.04028 9.04102C9.33845 8.74286 9.69624 8.51097 10.0901 8.36035C10.4837 8.20983 10.9046 8.14396 11.3254 8.16699L12.9875 8.25879H12.9895C13.4884 8.28596 13.987 8.20029 14.4485 8.00879C14.8524 7.84115 15.2192 7.5964 15.5276 7.28809L15.6555 7.15234L16.2424 6.49707H16.2434L16.7649 5.91504C17.0463 5.60078 17.3905 5.34886 17.7756 5.17676C18.1607 5.00465 18.5784 4.91602 19.0002 4.91602ZM15.0413 10.917C13.9473 10.917 12.8978 11.3515 12.1243 12.125C11.3507 12.8985 10.9163 13.9481 10.9163 15.042V15.0586C10.9164 16.1523 11.351 17.2012 12.1243 17.9746C12.6943 18.5447 13.4146 18.9301 14.1917 19.0938L11.8928 21.3936L11.8713 21.415C11.2642 22.0436 10.9283 22.8859 10.9358 23.7598C10.9434 24.6337 11.2944 25.4699 11.9124 26.0879C12.5304 26.7059 13.3665 27.0569 14.2405 27.0645C15.1144 27.072 15.9566 26.7361 16.5852 26.1289L16.6067 26.1074L18.9163 23.7969C19.0765 24.5845 19.4644 25.3147 20.0413 25.8916C20.8148 26.6652 21.8642 27.0996 22.9583 27.0996H22.9739C24.0679 27.0996 25.1173 26.6652 25.8909 25.8916C26.6644 25.118 27.0989 24.0686 27.0989 22.9746V22.959C27.0989 21.865 26.6645 20.8156 25.8909 20.042C25.314 19.4652 24.5838 19.0772 23.7961 18.917L26.1067 16.6074C26.7315 15.9824 27.0832 15.1347 27.0833 14.251C27.0833 13.3671 26.7316 12.5186 26.1067 11.8936L25.9866 11.7793C25.416 11.2629 24.6839 10.9601 23.9153 10.9219L23.7502 10.918C22.8664 10.918 22.0179 11.2686 21.3928 11.8936L19.093 14.1924C18.9294 13.4154 18.5439 12.695 17.9739 12.125C17.2003 11.3516 16.1507 10.917 15.0569 10.917H15.0413Z" fill="white" stroke="white" stroke-width="3.5"/>
</svg>
