<svg width="36" height="36" viewBox="0 0 36 36" fill="none" xmlns="http://www.w3.org/2000/svg">
<path d="M28.3585 2.875C28.5414 2.87482 28.7227 2.9105 28.8917 2.98047C29.0608 3.05051 29.2146 3.15363 29.3439 3.2832C29.4731 3.41269 29.5759 3.56621 29.6456 3.73535C29.7153 3.90462 29.7507 4.08647 29.7501 4.26953V12.9238C29.749 13.0283 29.7067 13.1279 29.6329 13.2021L12.3644 30.4658C12.1014 30.7281 11.7446 30.876 11.3732 30.876C11.0483 30.8759 10.7348 30.7634 10.4855 30.5596L10.3829 30.4658L2.15833 22.2412C1.89707 21.9782 1.75012 21.6228 1.75012 21.252C1.75012 20.8803 1.89693 20.523 2.1593 20.2598L19.4327 2.99121L19.4337 2.99219C19.4901 2.93623 19.561 2.89825 19.6378 2.88281L19.7159 2.875H28.3585ZM26.2804 4.17969C25.5496 3.87703 24.7456 3.79786 23.9698 3.95215C23.1939 4.10648 22.4814 4.4875 21.922 5.04688C21.3626 5.60628 20.9816 6.3188 20.8273 7.09473C20.673 7.87055 20.7522 8.67445 21.0548 9.40527C21.3576 10.1362 21.8697 10.7616 22.5275 11.2012C23.1853 11.6407 23.959 11.875 24.7501 11.875C25.8109 11.875 26.8281 11.4532 27.5782 10.7031C28.3284 9.95298 28.7501 8.93584 28.7501 7.875C28.7501 7.08388 28.5158 6.31014 28.0763 5.65234C27.6368 4.99458 27.0113 4.48243 26.2804 4.17969Z" fill="white" stroke="white" stroke-width="3.5"/>
<path d="M34.875 4.5C34.5766 4.5 34.2905 4.61853 34.0795 4.82951C33.8685 5.04048 33.75 5.32663 33.75 5.625V14.5807L15.3766 32.9548C15.2678 33.0582 15.1807 33.1824 15.1206 33.32C15.0605 33.4576 15.0285 33.6058 15.0266 33.756C15.0247 33.9061 15.0528 34.0551 15.1094 34.1942C15.166 34.3333 15.2498 34.4597 15.356 34.5659C15.4622 34.672 15.5885 34.7559 15.7276 34.8125C15.8667 34.869 16.0157 34.8972 16.1659 34.8953C16.316 34.8934 16.4643 34.8614 16.6019 34.8013C16.7395 34.7412 16.8637 34.6541 16.9671 34.5452L35.389 16.1234C35.5849 15.9265 35.7398 15.6927 35.8447 15.4355C35.9496 15.1782 36.0024 14.9028 36 14.625V5.625C36 5.32663 35.8815 5.04048 35.6705 4.82951C35.4595 4.61853 35.1733 4.5 34.875 4.5Z" fill="#FF6A00"/>
</svg>
