<svg width="48" height="48" viewBox="0 0 48 48" fill="none" xmlns="http://www.w3.org/2000/svg">
<path d="M33.4484 28.1203C32.9375 27.8578 30.3922 26.6109 29.9187 26.4422C29.4453 26.2641 29.0984 26.1797 28.7562 26.7047C28.4094 27.225 27.425 28.3828 27.1156 28.7344C26.8156 29.0813 26.5109 29.1234 26 28.8656C22.9625 27.3469 20.9703 26.1563 18.9687 22.7203C18.4391 21.8063 19.4984 21.8719 20.4875 19.8984C20.6562 19.5516 20.5719 19.2563 20.4406 18.9938C20.3094 18.7313 19.2781 16.1906 18.8469 15.1547C18.4297 14.1469 17.9984 14.2875 17.6844 14.2687C17.3844 14.25 17.0422 14.25 16.6953 14.25C16.3484 14.25 15.7906 14.3813 15.3172 14.8922C14.8438 15.4125 13.5078 16.6641 13.5078 19.2047C13.5078 21.7453 15.3594 24.2063 15.6125 24.5531C15.875 24.9 19.2547 30.1125 24.4438 32.3578C27.725 33.7734 29.0094 33.8953 30.65 33.6516C31.6484 33.5016 33.7062 32.4047 34.1328 31.1906C34.5594 29.9813 34.5594 28.9453 34.4328 28.7297C34.3062 28.5 33.9594 28.3688 33.4484 28.1203Z" fill="#FF6A00"/>
<path d="M43.369 15.8625C42.3096 13.3453 40.7909 11.0859 38.855 9.14531C36.919 7.20938 34.6596 5.68594 32.1378 4.63125C29.5596 3.54844 26.8221 3 24.0003 3H23.9065C21.0659 3.01406 18.3143 3.57656 15.7268 4.68281C13.2284 5.75156 10.9878 7.27031 9.07058 9.20625C7.15339 11.1422 5.6487 13.3922 4.60808 15.9C3.52995 18.4969 2.9862 21.2578 3.00027 24.0984C3.01433 27.3516 3.79245 30.5812 5.25027 33.4688V40.5938C5.25027 41.7844 6.21589 42.75 7.40652 42.75H14.5362C17.4237 44.2078 20.6534 44.9859 23.9065 45H24.005C26.8128 45 29.5362 44.4562 32.1003 43.3922C34.6081 42.3469 36.8628 40.8469 38.794 38.9297C40.73 37.0125 42.2534 34.7719 43.3175 32.2734C44.4237 29.6859 44.9862 26.9344 45.0003 24.0938C45.0143 21.2391 44.4612 18.4688 43.369 15.8625ZM36.2862 36.3938C33.0003 39.6469 28.6409 41.4375 24.0003 41.4375H23.9206C21.094 41.4234 18.2862 40.7203 15.8065 39.3984L15.4128 39.1875H8.81277V32.5875L8.60183 32.1937C7.27995 29.7141 6.57683 26.9062 6.56277 24.0797C6.54402 19.4062 8.32995 15.0187 11.6065 11.7141C14.8784 8.40937 19.2518 6.58125 23.9253 6.5625H24.005C26.3487 6.5625 28.6221 7.01719 30.7643 7.91719C32.855 8.79375 34.73 10.0547 36.3425 11.6672C37.9503 13.275 39.2159 15.1547 40.0925 17.2453C41.0018 19.4109 41.4565 21.7078 41.4471 24.0797C41.419 28.7484 39.5862 33.1219 36.2862 36.3938Z" fill="#FF6A00"/>
</svg>
