<svg width="48" height="48" viewBox="0 0 48 48" fill="none" xmlns="http://www.w3.org/2000/svg">
<path fill-rule="evenodd" clip-rule="evenodd" d="M24 4C18.568 4 17.888 4.024 15.754 4.12C13.626 4.218 12.172 4.556 10.9 5.05C9.56497 5.55169 8.35551 6.33866 7.356 7.356C6.33871 8.35555 5.55175 9.565 5.05 10.9C4.556 12.172 4.218 13.626 4.12 15.754C4.022 17.888 4 18.568 4 24C4 29.432 4.022 30.112 4.12 32.246C4.218 34.374 4.556 35.828 5.05 37.1C5.5518 38.435 6.33876 39.6444 7.356 40.644C8.35559 41.6612 9.56503 42.4482 10.9 42.95C12.172 43.444 13.626 43.782 15.754 43.88C17.888 43.976 18.568 44 24 44C29.432 44 30.112 43.976 32.246 43.88C34.374 43.782 35.828 43.444 37.1 42.95C38.435 42.4482 39.6445 41.6613 40.644 40.644C41.6613 39.6445 42.4482 38.435 42.95 37.1C43.444 35.828 43.782 34.374 43.88 32.246C43.976 30.112 44 29.432 44 24C44 18.568 43.976 17.888 43.88 15.754C43.782 13.626 43.444 12.172 42.95 10.9C42.4482 9.565 41.6613 8.35555 40.644 7.356C39.6445 6.33866 38.435 5.55169 37.1 5.05C35.828 4.556 34.374 4.218 32.246 4.12C30.112 4.024 29.432 4 24 4ZM24 7.604C29.34 7.604 29.972 7.624 32.08 7.72C34.032 7.81 35.09 8.134 35.796 8.408C36.728 8.772 37.396 9.206 38.096 9.904C38.796 10.604 39.228 11.272 39.592 12.204C39.864 12.91 40.192 13.968 40.28 15.918C40.376 18.028 40.396 18.658 40.396 24C40.396 29.34 40.376 29.972 40.28 32.08C40.19 34.032 39.864 35.09 39.592 35.796C39.2714 36.6648 38.7602 37.4507 38.096 38.096C37.396 38.796 36.728 39.228 35.796 39.592C35.09 39.864 34.032 40.192 32.082 40.28C29.974 40.376 29.342 40.396 24 40.396C18.66 40.396 18.026 40.376 15.92 40.28C13.968 40.19 12.91 39.864 12.204 39.592C11.3352 39.2715 10.5492 38.7603 9.904 38.096C9.23972 37.4508 8.72852 36.6648 8.408 35.796C8.134 35.09 7.808 34.032 7.72 32.082C7.624 29.972 7.604 29.342 7.604 24C7.604 18.66 7.624 18.028 7.72 15.92C7.81 13.968 8.134 12.91 8.408 12.204C8.772 11.272 9.206 10.604 9.904 9.904C10.604 9.204 11.272 8.772 12.204 8.408C12.91 8.134 13.968 7.808 15.918 7.72C18.028 7.624 18.658 7.604 24 7.604ZM24 30.666C22.2321 30.666 20.5365 29.9637 19.2864 28.7136C18.0363 27.4635 17.334 25.7679 17.334 24C17.334 22.2321 18.0363 20.5365 19.2864 19.2864C20.5365 18.0363 22.2321 17.334 24 17.334C25.7679 17.334 27.4635 18.0363 28.7136 19.2864C29.9637 20.5365 30.666 22.2321 30.666 24C30.666 25.7679 29.9637 27.4635 28.7136 28.7136C27.4635 29.9637 25.7679 30.666 24 30.666ZM24 13.73C22.6513 13.73 21.3159 13.9956 20.0698 14.5118C18.8238 15.0279 17.6917 15.7844 16.738 16.738C15.7844 17.6917 15.0279 18.8238 14.5118 20.0698C13.9956 21.3159 13.73 22.6513 13.73 24C13.73 25.3487 13.9956 26.6841 14.5118 27.9302C15.0279 29.1762 15.7844 30.3083 16.738 31.262C17.6917 32.2156 18.8238 32.9721 20.0698 33.4882C21.3159 34.0044 22.6513 34.27 24 34.27C26.7238 34.27 29.336 33.188 31.262 31.262C33.188 29.336 34.27 26.7238 34.27 24C34.27 21.2762 33.188 18.664 31.262 16.738C29.336 14.812 26.7238 13.73 24 13.73ZM37.076 13.324C37.076 13.6392 37.0139 13.9513 36.8933 14.2424C36.7727 14.5336 36.5959 14.7982 36.3731 15.0211C36.1502 15.2439 35.8856 15.4207 35.5944 15.5413C35.3033 15.6619 34.9912 15.724 34.676 15.724C34.3608 15.724 34.0487 15.6619 33.7576 15.5413C33.4664 15.4207 33.2018 15.2439 32.9789 15.0211C32.7561 14.7982 32.5793 14.5336 32.4587 14.2424C32.3381 13.9513 32.276 13.6392 32.276 13.324C32.276 12.6875 32.5289 12.077 32.9789 11.6269C33.429 11.1769 34.0395 10.924 34.676 10.924C35.3125 10.924 35.923 11.1769 36.3731 11.6269C36.8231 12.077 37.076 12.6875 37.076 13.324Z" fill="#FF6A00"/>
</svg>
