<svg width="32" height="32" viewBox="0 0 32 32" fill="none" xmlns="http://www.w3.org/2000/svg">
<path d="M5.4974 5.33301C4.74595 5.33301 4.02528 5.63152 3.49393 6.16287C2.96257 6.69422 2.66406 7.41489 2.66406 8.16634V23.833C2.66406 24.5845 2.96257 25.3051 3.49393 25.8365C4.02528 26.3678 4.74595 26.6663 5.4974 26.6663H26.4974C27.2488 26.6663 27.9695 26.3678 28.5009 25.8365C29.0322 25.3051 29.3307 24.5845 29.3307 23.833V8.16634C29.3307 7.41489 29.0322 6.69422 28.5009 6.16287C27.9695 5.63152 27.2488 5.33301 26.4974 5.33301H5.4974ZM12.6641 13.333C12.6641 13.8634 12.4533 14.3721 12.0783 14.7472C11.7032 15.1223 11.1945 15.333 10.6641 15.333C10.1336 15.333 9.62492 15.1223 9.24985 14.7472C8.87478 14.3721 8.66406 13.8634 8.66406 13.333C8.66406 12.8026 8.87478 12.2939 9.24985 11.9188C9.62492 11.5437 10.1336 11.333 10.6641 11.333C11.1945 11.333 11.7032 11.5437 12.0783 11.9188C12.4533 12.2939 12.6641 12.8026 12.6641 13.333ZM7.33073 17.6663C7.33073 17.4011 7.43609 17.1468 7.62362 16.9592C7.81116 16.7717 8.06551 16.6663 8.33073 16.6663H12.9974C13.2626 16.6663 13.517 16.7717 13.7045 16.9592C13.892 17.1468 13.9974 17.4011 13.9974 17.6663V17.9997C13.9974 17.9997 13.9974 20.6663 10.6641 20.6663C7.33073 20.6663 7.33073 17.9997 7.33073 17.9997V17.6663ZM16.6641 13.4997C16.6641 13.0397 17.0374 12.6663 17.4974 12.6663H23.8307C23.9402 12.6663 24.0485 12.6879 24.1496 12.7298C24.2507 12.7717 24.3426 12.833 24.42 12.9104C24.4974 12.9878 24.5587 13.0797 24.6006 13.1808C24.6425 13.2819 24.6641 13.3902 24.6641 13.4997C24.6641 13.6091 24.6425 13.7175 24.6006 13.8186C24.5587 13.9197 24.4974 14.0115 24.42 14.0889C24.3426 14.1663 24.2507 14.2277 24.1496 14.2696C24.0485 14.3115 23.9402 14.333 23.8307 14.333H17.4974C17.0374 14.333 16.6641 13.9597 16.6641 13.4997ZM17.4974 17.333H23.8307C24.0517 17.333 24.2637 17.4208 24.42 17.5771C24.5763 17.7334 24.6641 17.9453 24.6641 18.1663C24.6641 18.3874 24.5763 18.5993 24.42 18.7556C24.2637 18.9119 24.0517 18.9997 23.8307 18.9997H17.4974C17.2764 18.9997 17.0644 18.9119 16.9081 18.7556C16.7519 18.5993 16.6641 18.3874 16.6641 18.1663C16.6641 17.9453 16.7519 17.7334 16.9081 17.5771C17.0644 17.4208 17.2764 17.333 17.4974 17.333Z" fill="#FF6A00"/>
</svg>
