<svg width="32" height="32" viewBox="0 0 32 32" fill="none" xmlns="http://www.w3.org/2000/svg">
<path fill-rule="evenodd" clip-rule="evenodd" d="M6.66406 26.6663C5.6032 26.6663 4.58578 26.2449 3.83564 25.4948C3.08549 24.7446 2.66406 23.7272 2.66406 22.6663V9.33301C2.66406 8.27214 3.08549 7.25473 3.83564 6.50458C4.58578 5.75444 5.6032 5.33301 6.66406 5.33301H25.3307C26.3916 5.33301 27.409 5.75444 28.1592 6.50458C28.9093 7.25473 29.3307 8.27214 29.3307 9.33301V22.6663C29.3307 23.7272 28.9093 24.7446 28.1592 25.4948C27.409 26.2449 26.3916 26.6663 25.3307 26.6663H6.66406ZM10.1641 10.9597C10.0282 10.8437 9.8705 10.7562 9.70021 10.7023C9.52992 10.6485 9.35055 10.6294 9.17274 10.6462C8.99494 10.663 8.82232 10.7154 8.66514 10.8002C8.50795 10.885 8.36941 11.0005 8.25773 11.1399C8.14605 11.2793 8.06351 11.4397 8.01501 11.6116C7.96651 11.7834 7.95304 11.9633 7.97539 12.1405C7.99774 12.3177 8.05547 12.4886 8.14514 12.6431C8.23481 12.7975 8.3546 12.9324 8.4974 13.0397L13.4974 17.041C14.2068 17.609 15.0886 17.9185 15.9974 17.9185C16.9062 17.9185 17.7879 17.609 18.4974 17.041L23.4974 13.041C23.6341 12.9316 23.748 12.7963 23.8325 12.6428C23.9169 12.4894 23.9703 12.3208 23.9897 12.1468C24.009 11.9727 23.9938 11.7965 23.945 11.6283C23.8963 11.4601 23.8148 11.3031 23.7054 11.1663C23.596 11.0296 23.4607 10.9157 23.3072 10.8313C23.1538 10.7468 22.9852 10.6934 22.8111 10.6741C22.6371 10.6548 22.4609 10.6699 22.2927 10.7187C22.1244 10.7675 21.9675 10.8489 21.8307 10.9583L16.8307 14.9583C16.5942 15.1477 16.3003 15.2508 15.9974 15.2508C15.6945 15.2508 15.4005 15.1477 15.1641 14.9583L10.1641 10.9583V10.9597Z" fill="#FF6A00"/>
</svg>
