<svg width="32" height="32" viewBox="0 0 32 32" fill="none" xmlns="http://www.w3.org/2000/svg">
<path d="M21.8107 18.667C21.9174 17.787 21.9974 16.907 21.9974 16.0003C21.9974 15.0937 21.9174 14.2137 21.8107 13.3337H26.3174C26.5307 14.187 26.6641 15.0803 26.6641 16.0003C26.6641 16.9203 26.5307 17.8137 26.3174 18.667M19.4507 26.0803C20.2507 24.6003 20.8641 23.0003 21.2907 21.3337H25.2241C23.9323 23.558 21.8829 25.243 19.4507 26.0803ZM19.1174 18.667H12.8774C12.7441 17.787 12.6641 16.907 12.6641 16.0003C12.6641 15.0937 12.7441 14.2003 12.8774 13.3337H19.1174C19.2374 14.2003 19.3307 15.0937 19.3307 16.0003C19.3307 16.907 19.2374 17.787 19.1174 18.667ZM15.9974 26.6137C14.8907 25.0137 13.9974 23.2403 13.4507 21.3337H18.5441C17.9974 23.2403 17.1041 25.0137 15.9974 26.6137ZM10.6641 10.667H6.77073C8.0492 8.43661 10.0971 6.74897 12.5307 5.92033C11.7307 7.40033 11.1307 9.00033 10.6641 10.667ZM6.77073 21.3337H10.6641C11.1307 23.0003 11.7307 24.6003 12.5307 26.0803C10.1022 25.2425 8.05719 23.5573 6.77073 21.3337ZM5.6774 18.667C5.46406 17.8137 5.33073 16.9203 5.33073 16.0003C5.33073 15.0803 5.46406 14.187 5.6774 13.3337H10.1841C10.0774 14.2137 9.9974 15.0937 9.9974 16.0003C9.9974 16.907 10.0774 17.787 10.1841 18.667M15.9974 5.37366C17.1041 6.97366 17.9974 8.76033 18.5441 10.667H13.4507C13.9974 8.76033 14.8907 6.97366 15.9974 5.37366ZM25.2241 10.667H21.2907C20.8734 9.0156 20.2555 7.42152 19.4507 5.92033C21.9041 6.76033 23.9441 8.45366 25.2241 10.667ZM15.9974 2.66699C8.62406 2.66699 2.66406 8.66699 2.66406 16.0003C2.66406 19.5365 4.06882 22.9279 6.56931 25.4284C7.80742 26.6665 9.27727 27.6487 10.8949 28.3187C12.5126 28.9888 14.2464 29.3337 15.9974 29.3337C19.5336 29.3337 22.925 27.9289 25.4255 25.4284C27.926 22.9279 29.3307 19.5365 29.3307 16.0003C29.3307 14.2494 28.9859 12.5156 28.3158 10.8979C27.6457 9.2802 26.6636 7.81035 25.4255 6.57223C24.1874 5.33412 22.7175 4.35199 21.0998 3.68193C19.4822 3.01187 17.7484 2.66699 15.9974 2.66699Z" fill="#FF6A00"/>
</svg>
