<svg width="48" height="48" viewBox="0 0 48 48" fill="none" xmlns="http://www.w3.org/2000/svg">
<path d="M44.9181 12C43.3781 12.7 41.7181 13.16 39.9981 13.38C41.7581 12.32 43.1181 10.64 43.7581 8.62C42.0981 9.62 40.2581 10.32 38.3181 10.72C36.7381 9 34.5181 8 31.9981 8C27.2981 8 23.4581 11.84 23.4581 16.58C23.4581 17.26 23.5381 17.92 23.6781 18.54C16.5581 18.18 10.2181 14.76 5.99813 9.58C5.25813 10.84 4.83813 12.32 4.83813 13.88C4.83813 16.86 6.33812 19.5 8.65812 21C7.23812 21 5.91813 20.6 4.75813 20V20.06C4.75813 24.22 7.71813 27.7 11.6381 28.48C10.3796 28.8244 9.05832 28.8723 7.77813 28.62C8.32134 30.325 9.3852 31.8168 10.8202 32.8859C12.2551 33.9549 13.989 34.5474 15.7781 34.58C12.7454 36.9809 8.98612 38.2786 5.11812 38.26C4.43812 38.26 3.75813 38.22 3.07812 38.14C6.87812 40.58 11.3981 42 16.2381 42C31.9981 42 40.6581 28.92 40.6581 17.58C40.6581 17.2 40.6581 16.84 40.6381 16.46C42.3181 15.26 43.7581 13.74 44.9181 12Z" fill="#FF6A00"/>
</svg>
