<svg width="48" height="48" viewBox="0 0 48 48" fill="none" xmlns="http://www.w3.org/2000/svg">
<path d="M24.488 8C25.556 8.006 28.228 8.032 31.068 8.146L32.076 8.19C34.934 8.324 37.79 8.556 39.208 8.95C41.098 9.482 42.582 11.03 43.084 12.994C43.884 16.114 43.984 22.198 43.996 23.672L43.998 23.976V24.324C43.984 25.798 43.884 31.884 43.084 35.002C42.576 36.972 41.09 38.522 39.208 39.046C37.79 39.44 34.934 39.672 32.076 39.806L31.068 39.852C28.228 39.964 25.556 39.992 24.488 39.996L24.018 39.998H23.508C21.248 39.984 11.796 39.882 8.788 39.046C6.9 38.514 5.414 36.966 4.912 35.002C4.112 31.882 4.012 25.798 4 24.324V23.672C4.012 22.198 4.112 16.112 4.912 12.994C5.42 11.024 6.906 9.474 8.79 8.952C11.796 8.114 21.25 8.012 23.51 8H24.488ZM19.998 17V31L31.998 24L19.998 17Z" fill="#FF6A00"/>
</svg>
