<svg width="32" height="32" viewBox="0 0 32 32" fill="none" xmlns="http://www.w3.org/2000/svg">
<path d="M22.0784 17.2083L21.4717 17.8123C21.4717 17.8123 20.0277 19.247 16.0877 15.3296C12.1477 11.4123 13.5917 9.97763 13.5917 9.97763L13.9731 9.5963C14.9157 8.6603 15.0051 7.1563 14.1824 6.05763L12.5024 3.81363C11.4837 2.45363 9.51708 2.27363 8.35041 3.43363L6.25708 5.51363C5.67975 6.08963 5.29308 6.83363 5.33975 7.6603C5.45975 9.7763 6.41708 14.327 11.7557 19.6363C17.4184 25.2656 22.7317 25.4896 24.9037 25.287C25.5917 25.223 26.1891 24.8736 26.6704 24.3936L28.5637 22.511C29.8437 21.2403 29.4837 19.0603 27.8464 18.171L25.2997 16.7856C24.2251 16.2016 22.9184 16.3736 22.0784 17.2083Z" fill="#FF6A00"/>
</svg>
