<svg width="206" height="220" viewBox="0 0 206 220" fill="none" xmlns="http://www.w3.org/2000/svg">
<g opacity="0.1">
<path d="M35.9478 27.5876C54.1215 -52.3154 126.634 -106.169 205.889 -104.085L205.308 -101.535C127.45 -103.337 56.3152 -50.3643 38.4562 28.155C26.4824 80.7993 41.0757 133.382 73.3995 171.928C94.1742 199.801 132.29 219.499 132.29 219.499C59.8906 187.276 17.772 107.5 35.9478 27.5876Z" fill="#C3937C"/>
<path d="M198.074 -100.277C182.98 -101.44 165.252 -91.6045 156.278 -79.7741C150.707 -72.424 147.82 -63.3783 145.233 -54.6457C142.728 -46.1088 140.72 -37.4344 139.22 -28.666C138.985 -27.3087 136.899 -27.7857 137.132 -29.1384C138.862 -39.2779 141.278 -49.2888 144.364 -59.1027C146.976 -67.3547 150.12 -75.6744 155.668 -82.4456C165.168 -93.9642 182.748 -103.585 197.958 -102.411C199.315 -102.307 199.435 -100.172 198.055 -100.281L198.074 -100.277Z" fill="#C3937C"/>
<path d="M199.618 -100.1C196.427 -82.1172 189.745 -64.2705 177.739 -50.2262C167.66 -38.428 153.934 -30.7307 138.832 -27.3975C137.494 -27.1063 136.839 -29.1398 138.188 -29.4382C152.984 -32.6875 166.305 -40.135 176.175 -51.6886C187.936 -65.4467 194.403 -82.9609 197.53 -100.573C197.769 -101.929 199.861 -101.451 199.618 -100.1Z" fill="#C3937C"/>
<path d="M197.483 -99.7124C171.591 -91.7438 151.911 -70.3354 142.607 -45.3921C142.275 -44.5022 140.801 -44.811 141.142 -45.7234C150.635 -71.1683 170.591 -92.9994 197.033 -101.14C197.223 -101.2 197.429 -101.182 197.606 -101.09C197.783 -100.998 197.915 -100.84 197.975 -100.65C198.035 -100.461 198.016 -100.256 197.924 -100.08C197.832 -99.9039 197.673 -99.7718 197.483 -99.7124Z" fill="#C3937C"/>
<path d="M198.504 -98.8285L167.138 -67.5987C162.07 -62.5496 156.937 -57.5353 151.939 -52.4408C146.373 -46.7721 140.982 -40.3907 140.641 -32.0755C140.597 -31.0957 139.101 -31.0483 139.136 -32.0102C139.712 -46.0076 153.37 -56.0064 162.483 -65.0839L197.406 -99.8538C198.087 -100.531 199.187 -99.5152 198.5 -98.8295L198.504 -98.8285Z" fill="#C3937C"/>
<path d="M197.483 -97.941C196.158 -79.6494 183.73 -62.8702 170.215 -51.2307C165.162 -46.8809 159.562 -43.1153 154.22 -39.128C149.199 -35.3747 144.204 -31.0811 138.681 -28.0651C137.837 -27.6078 137.031 -28.869 137.882 -29.3346C142.815 -32.024 147.302 -35.8137 151.774 -39.1617C156.631 -42.7837 161.648 -46.2558 166.396 -50.0113C180.829 -61.4283 194.609 -78.9309 195.983 -97.8745C196.05 -98.8243 197.552 -98.9002 197.487 -97.9399L197.483 -97.941Z" fill="#C3937C"/>
<path d="M198.643 -97.169C192.409 -83.6253 183.143 -70.8414 171.698 -61.203C160.252 -51.5647 145.824 -43.5314 139.309 -29.3435C138.901 -28.446 137.582 -29.175 137.98 -30.05C144.008 -43.1456 156.742 -51.1761 167.671 -59.8526C180.39 -70.0545 190.541 -83.0762 197.315 -97.8803C197.717 -98.7542 199.041 -98.044 198.644 -97.1737L198.643 -97.169Z" fill="#C3937C"/>
<path d="M186.658 -104.68C172.475 -114.877 157.166 -123.419 141.031 -130.139C132.486 -133.69 123.562 -136.644 114.209 -134.984C105.959 -133.52 98.5277 -129.367 91.3043 -125.321C90.1041 -124.652 88.9548 -126.456 90.1607 -127.128C97.3773 -131.167 104.809 -135.3 113.013 -136.932C121.503 -138.619 129.679 -136.789 137.627 -133.779C155.587 -126.985 172.531 -117.387 188.096 -106.22C189.21 -105.419 187.738 -103.862 186.628 -104.657L186.658 -104.68Z" fill="#C3937C"/>
<path d="M90.9876 -126.614C107.251 -119.501 122.993 -110.863 139.867 -105.235C154.22 -100.449 172.371 -98.1437 185.45 -107.472C186.577 -108.276 187.705 -106.467 186.594 -105.664C174.037 -96.7081 156.644 -97.9604 142.581 -102.146C124.298 -107.584 107.402 -117.111 89.992 -124.727C88.7318 -125.279 89.7463 -127.162 91.0065 -126.61L90.9876 -126.614Z" fill="#C3937C"/>
<path d="M183.608 -105.726C157.679 -118.104 130.45 -123.734 101.775 -120.279C100.815 -120.165 100.753 -121.659 101.709 -121.779C130.63 -125.267 158.174 -119.536 184.316 -107.05C185.185 -106.636 184.478 -105.316 183.608 -105.726Z" fill="#C3937C"/>
<path d="M185.352 -105.797C167.537 -114.033 149.861 -123.035 130.909 -128.48C124.674 -130.319 118.13 -130.873 111.675 -130.109C105.309 -129.441 98.2006 -128.541 92.4166 -125.603C91.5626 -125.168 90.7531 -126.435 91.6165 -126.868C96.8498 -129.524 103.031 -130.496 108.8 -131.27C115.383 -132.151 121.768 -132.468 128.221 -130.77C148.425 -125.458 167.183 -115.84 186.055 -107.118C186.955 -106.706 186.219 -105.393 185.342 -105.794L185.352 -105.797Z" fill="#C3937C"/>
<path d="M182.392 -105.576C157.159 -106.969 131.262 -109.067 107.239 -117.421C106.318 -117.738 106.65 -119.197 107.571 -118.88C131.469 -110.569 157.223 -108.454 182.324 -107.071C183.304 -107.012 183.354 -105.527 182.39 -105.571L182.392 -105.576Z" fill="#C3937C"/>
<path d="M129.989 -89.1699C108.396 -96.8703 77.3499 -101.835 58.1801 -85.7297C57.1409 -84.8513 55.5631 -86.3218 56.6143 -87.1875C76.4415 -103.847 107.998 -99.2666 130.466 -91.2643C131.747 -90.8062 131.292 -88.7169 129.991 -89.1794L129.989 -89.1699Z" fill="#C3937C"/>
<path d="M58.5507 -87.2935C69.951 -82.7272 82.1981 -80.6408 94.4713 -81.174C106.745 -81.7071 118.761 -84.8476 129.714 -90.385C130.938 -91.0039 132.087 -89.2001 130.858 -88.5775C119.576 -82.8579 107.194 -79.6155 94.5453 -79.0691C81.897 -78.5227 69.277 -80.685 57.5362 -85.41C56.2581 -85.9268 57.2772 -87.8092 58.5507 -87.2935Z" fill="#C3937C"/>
<path d="M126.525 -88.3503C104.411 -93.1945 80.9342 -96.7388 60.0981 -85.4491C59.2493 -84.9929 58.4434 -86.2539 59.298 -86.7138C80.4974 -98.2033 104.336 -94.7406 126.857 -89.8093C127.051 -89.7654 127.22 -89.6464 127.326 -89.4785C127.432 -89.3106 127.467 -89.1077 127.423 -88.9142C127.379 -88.7207 127.26 -88.5527 127.091 -88.4469C126.923 -88.3412 126.719 -88.3064 126.525 -88.3503Z" fill="#C3937C"/>
<path d="M125.204 -87.6542C107.958 -87.1167 90.7972 -85.0215 73.9325 -81.394C72.9923 -81.1911 72.5364 -82.6154 73.4813 -82.8173C90.4678 -86.481 107.754 -88.5994 125.126 -89.1464C126.093 -89.1802 126.165 -87.6843 125.197 -87.6459L125.204 -87.6542Z" fill="#C3937C"/>
<path d="M125.067 -87.7298C115.521 -89.6518 105.619 -89.9669 95.9018 -89.8047C86.0552 -89.6421 74.6086 -89.6732 66.2356 -83.8478C65.4394 -83.2955 64.6451 -84.5638 65.4354 -85.1125C73.6983 -90.8688 84.8007 -91.0492 94.5341 -91.2819C104.791 -91.5248 115.297 -91.2217 125.379 -89.1883C126.329 -88.9981 126.003 -87.5627 125.048 -87.7341L125.067 -87.7298Z" fill="#C3937C"/>
<path d="M141.106 -89.0848C127.104 -83.1069 115.333 -72.9113 107.444 -59.9279C103.419 -53.2821 100.779 -46.1501 98.8589 -38.6472C96.903 -31.0088 95.1878 -23.3804 90.8758 -16.6511C90.1198 -15.5108 88.2341 -16.5015 88.985 -17.6628C94.2186 -25.8016 95.4788 -35.2946 98.2167 -44.384C100.345 -51.4501 103.544 -58.1506 107.703 -64.2537C115.818 -76.1508 127.191 -85.4751 140.471 -91.1186C141.741 -91.6577 142.375 -89.6191 141.12 -89.0815L141.106 -89.0848Z" fill="#C3937C"/>
<path d="M141.236 -88.6097C138.535 -72.9355 135.61 -56.4064 126.144 -43.178C117.461 -31.0541 105.021 -21.9328 91.1924 -16.4706C89.9089 -15.9593 89.2713 -18.0038 90.5479 -18.5067C104.306 -23.9452 116.969 -33.2785 125.252 -45.6314C133.859 -58.4701 136.572 -74.1516 139.148 -89.0821C139.382 -90.4394 141.469 -89.9623 141.236 -88.6097Z" fill="#C3937C"/>
<path d="M140.352 -87.0381C123.238 -66.8701 104.925 -45.0734 96.5129 -19.6413C96.2091 -18.7204 94.7447 -19.0516 95.0485 -19.9726C103.553 -45.6806 121.964 -67.6878 139.258 -88.0575C139.882 -88.7922 140.976 -87.7728 140.352 -87.0381Z" fill="#C3937C"/>
<path d="M139.933 -88.8206C130.417 -83.625 123.221 -73.3023 116.9 -64.7266C110.251 -55.7153 104.21 -46.2746 98.3848 -36.7157C97.8859 -35.8982 96.5602 -36.599 97.0565 -37.4269C102.951 -47.0939 109.074 -56.6347 115.801 -65.7472C122.214 -74.4408 129.442 -84.8004 139.129 -90.0911C139.969 -90.5494 140.775 -89.2884 139.928 -88.8217L139.933 -88.8206Z" fill="#C3937C"/>
<path d="M139.685 -84.715C130.428 -61.7701 112.079 -43.6827 101.287 -21.4809C100.867 -20.6159 99.5424 -21.3214 99.9579 -22.1874C110.75 -44.394 129.099 -62.4812 138.355 -85.4214C138.716 -86.3295 140.035 -85.6006 139.685 -84.715Z" fill="#C3937C"/>
<path d="M136.248 -69.3014C127.772 -56.5123 120.516 -42.9569 113.016 -29.5907C112.547 -28.7516 111.221 -29.4524 111.687 -30.2972C119.198 -43.666 126.442 -57.2187 134.919 -70.0078C135.448 -70.8037 136.769 -70.0842 136.248 -69.3014Z" fill="#C3937C"/>
<path d="M89.5138 -62.549C77.6978 -66.8302 64.6338 -68.4197 52.1076 -67.5915C39.5016 -66.7616 29.6425 -58.0709 20.9516 -49.7343C19.961 -48.7856 18.3894 -50.2397 19.3869 -51.1967C27.7924 -59.2613 37.3826 -67.8398 49.4078 -69.479C62.5973 -71.2804 77.5525 -69.1394 89.988 -64.6339C91.2674 -64.1663 90.8074 -62.0782 89.5138 -62.549Z" fill="#C3937C"/>
<path d="M90.5269 -62.3295C84.0965 -58.341 78.9382 -52.6296 72.2927 -48.9619C67.7308 -46.4717 62.776 -44.7745 57.6412 -43.9431C44.7344 -41.7908 31.6459 -44.6923 19.6174 -49.2839C18.3328 -49.7724 19.352 -51.6548 20.6272 -51.1684C32.5466 -46.6213 45.7173 -43.7754 58.4457 -46.2353C63.6574 -47.2171 68.6426 -49.1474 73.1514 -51.9296C78.9361 -55.5249 83.6187 -60.5423 89.4023 -64.1329C90.5611 -64.8604 91.7199 -63.0543 90.5458 -62.3253L90.5269 -62.3295Z" fill="#C3937C"/>
<path d="M60.1531 -25.7685C46.3553 -22.3628 31.5619 -18.7073 20.7672 -8.91678C9.2605 1.51434 4.99469 17.0375 2.11568 31.7263C1.85313 33.0772 -0.239535 32.6038 0.0230204 31.2529C2.97072 16.2184 7.44516 0.302027 19.1966 -10.3756C30.2952 -20.4536 45.311 -24.3012 59.5038 -27.8055C60.8407 -28.1365 61.4947 -26.0984 60.1531 -25.7685Z" fill="#C3937C"/>
<path d="M60.7969 -25.8258C48.0385 -0.76335 27.4687 20.6021 1.77187 32.539C0.534337 33.1102 -0.620794 31.31 0.623604 30.7304C26.0251 18.9346 46.2976 -2.06271 58.9177 -26.8447C59.5391 -28.0699 61.4499 -27.0587 60.8085 -25.8331L60.7969 -25.8258Z" fill="#C3937C"/>
<path d="M78.8972 -47.9729C68.131 -35.3158 61.3189 -15.826 64.3876 0.752627C65.4907 6.8215 68.1865 12.4392 70.1432 18.2706C72.6058 25.8059 73.7341 33.7099 73.4778 41.6293C73.44 42.9964 71.297 43.1153 71.3344 41.7283C71.5679 33.0084 70.1388 24.3229 67.1229 16.1324C64.8662 9.91642 62.3219 3.87297 61.7592 -2.78128C60.3737 -19.0731 66.7964 -37.0478 77.3372 -49.4343C78.2305 -50.4792 79.7963 -49.0215 78.9066 -47.9708L78.8972 -47.9729Z" fill="#C3937C"/>
<path d="M80.2792 -49.9218C83.0932 -46.4399 83.8507 -41.0133 84.6194 -36.7718C86.0976 -28.2817 86.8001 -19.6759 86.7184 -11.0601C86.6747 6.90766 84.4351 26.9963 73.9955 42.1916C73.2427 43.3178 71.324 42.3197 72.1047 41.18C82.3339 26.2983 84.5314 6.63555 84.5751 -10.961C84.642 -18.8885 84.0595 -26.8084 82.8337 -34.6421C82.1121 -39.0907 81.4317 -45.1184 78.474 -48.7763C77.61 -49.8476 79.4309 -50.9747 80.2876 -49.915L80.2792 -49.9218Z" fill="#C3937C"/>
<path d="M38.4907 24.2038C8.75381 40.1455 2.42271 75.7769 3.68225 106.49C3.73637 107.868 1.59408 107.962 1.53888 106.589C0.252031 75.1225 6.95422 38.6893 37.3472 22.3962C38.5583 21.7448 39.7076 23.5488 38.4907 24.2038Z" fill="#C3937C"/>
<path d="M38.7238 23.5938C36.4609 41.6879 32.2454 59.5234 27.4435 77.0976C23.921 90.0079 16.9223 103.265 3.3068 107.791C1.99577 108.226 1.35127 106.19 2.66232 105.754C17.8045 100.718 23.1724 85.2414 26.7295 71.3493C30.8099 55.4181 34.5847 39.4771 36.6322 23.1157C36.8039 21.7492 38.8944 22.232 38.7248 23.589L38.7238 23.5938Z" fill="#C3937C"/>
<path d="M45.5595 7.60275C68.2439 22.166 66.114 51.5776 62.0907 74.6821C61.8565 76.0394 59.7649 75.5613 60.0027 74.2098C63.8296 52.2089 66.3072 23.4747 44.5429 9.49565C43.3981 8.74184 44.3905 6.8682 45.5563 7.61687L45.5595 7.60275Z" fill="#C3937C"/>
<path d="M45.6493 8.73662C43.6521 23.8723 43.2855 40.0498 50.0706 54.1339C53.4691 61.1823 59.0293 67.1559 61.6687 74.5719C62.1277 75.8733 60.0856 76.5098 59.6256 75.2132C56.8166 67.2541 50.6393 60.8489 47.2668 53.1186C41.1247 39.0464 41.6019 23.1908 43.5582 8.27844C43.7383 6.91878 45.8241 7.4005 45.6461 8.75076L45.6493 8.73662Z" fill="#C3937C"/>
<path d="M35.7536 90.1111C31.3581 97.2075 26.8157 104.513 24.7683 112.685C23.3759 118.239 23.7671 122.939 24.8065 128.415C26.5999 137.891 29.1913 147.221 30.606 156.789C30.7937 158.148 28.6629 158.235 28.4626 156.888C26.9246 146.53 23.9645 136.419 22.2251 126.094C19.9187 112.409 26.8755 100.385 33.8628 89.0995C34.5796 87.9355 36.4783 88.9341 35.7536 90.1111Z" fill="#C3937C"/>
<path d="M36.4919 90.2933C41.4763 112.567 39.5125 135.823 30.8632 156.947C30.3415 158.214 28.4517 157.198 28.9724 155.935C37.3861 135.329 39.2964 112.655 34.4487 90.9345C34.1511 89.6004 36.1917 88.9487 36.4919 90.2933Z" fill="#C3937C"/>
<path d="M35.3301 72.9086C49.6029 80.6701 72.7354 90.3369 71.2836 110.238C71.1833 111.596 69.0414 111.71 69.1402 110.337C70.5305 91.3178 48.0008 82.2326 34.3156 74.7921C33.1095 74.1333 34.1145 72.2476 35.3301 72.9086Z" fill="#C3937C"/>
<path d="M35.5714 73.8786C40.7274 89.9496 53.9232 103.866 70.1045 109.154C71.404 109.577 70.944 111.665 69.6303 111.239C52.715 105.705 38.9316 91.3594 33.5282 74.5199C33.1066 73.2072 35.1497 72.5659 35.5714 73.8786Z" fill="#C3937C"/>
<path d="M44.995 120.081C59.6441 123.433 72.9321 131.128 83.1075 142.153C84.0358 143.159 82.5808 144.73 81.6393 143.716C71.7422 132.952 58.797 125.439 44.5198 122.171C43.1735 121.866 43.6487 119.777 44.9939 120.086L44.995 120.081Z" fill="#C3937C"/>
<path d="M45.8112 122.018C51.3879 136.981 66.4571 145.368 82.1871 142.618C83.5472 142.381 83.6276 144.517 82.2875 144.753C74.2862 146.194 66.0301 144.768 58.9799 140.728C51.9297 136.688 46.5397 130.294 43.7636 122.678C43.2836 121.382 45.3305 120.746 45.808 122.032L45.8112 122.018Z" fill="#C3937C"/>
<path d="M52.9324 145.629C47.4629 158.54 48.053 174.092 54.7923 186.434C55.4523 187.637 53.6424 188.782 52.9786 187.573C45.8462 174.514 45.2386 158.274 51.0417 144.618C51.5776 143.353 53.4673 144.37 52.9324 145.629Z" fill="#C3937C"/>
<path d="M53.8883 145.336C57.0031 151.832 58.7124 158.908 58.9051 166.104C59.0978 173.3 57.7697 180.456 55.007 187.106C54.4853 188.373 52.5956 187.357 53.1163 186.094C55.7227 179.784 56.9764 172.999 56.7971 166.176C56.6177 159.354 55.0092 152.643 52.0747 146.474C51.4904 145.243 53.3014 144.094 53.8883 145.336Z" fill="#C3937C"/>
<path d="M67.9963 163.605C79.8421 165.156 91.6695 170.108 98.6943 180.125C99.4855 181.254 97.6867 182.371 96.8807 181.263C90.1823 171.712 78.7751 167.162 67.5221 165.69C66.1574 165.51 66.6363 163.426 67.9963 163.605Z" fill="#C3937C"/>
<path d="M68.5424 164.327C74.7516 173.649 85.6343 180.134 97.0264 179.619C98.4068 179.555 98.5024 181.69 97.1278 181.75C84.9658 182.309 73.3619 175.413 66.7277 165.471C65.9639 164.308 67.7733 163.188 68.5413 164.332L68.5424 164.327Z" fill="#C3937C"/>
<path d="M87.8882 -62.5209C65.8976 -59.3859 44.0894 -55.0941 22.5548 -49.6636C21.6223 -49.4291 21.1665 -50.8534 22.1036 -51.0868C43.7636 -56.5393 65.6982 -60.8471 87.8156 -63.9921C88.7702 -64.1275 88.8328 -62.6338 87.8818 -62.4926L87.8882 -62.5209Z" fill="#C3937C"/>
<path d="M88.5119 -62.9045C77.788 -62.772 67.0273 -62.8706 56.317 -62.3393C46.345 -61.8438 32.9315 -61.3945 25.4948 -53.8331C24.8405 -53.1399 23.7178 -54.1659 24.3958 -54.8537C31.1925 -61.7631 42.4755 -62.8033 51.6515 -63.5333C63.8593 -64.5126 76.2044 -64.2387 88.4435 -64.3945C89.4103 -64.4084 89.4823 -62.9126 88.5097 -62.895L88.5119 -62.9045Z" fill="#C3937C"/>
<path d="M83.8439 -63.0399C68.682 -67.6129 52.7167 -64.6134 37.31 -63.175C36.3461 -63.0863 36.2788 -64.5811 37.239 -64.6756C52.7934 -66.1301 68.8812 -69.1217 84.1769 -64.5036C85.1066 -64.224 84.7748 -62.765 83.8461 -63.0493L83.8439 -63.0399Z" fill="#C3937C"/>
<path d="M87.3621 -61.3431C67.9355 -53.9313 47.6273 -49.0548 26.9428 -46.8348C25.9852 -46.7298 25.919 -48.2293 26.8766 -48.3343C47.425 -50.551 67.5982 -55.4065 86.8942 -62.7801C87.7972 -63.1251 88.2473 -61.6971 87.3443 -61.3521L87.3621 -61.3431Z" fill="#C3937C"/>
<path d="M83.4753 -58.7986C71.7223 -51.4336 58.6658 -46.3709 45.0063 -43.8822C44.0689 -43.7133 43.6083 -45.1386 44.5563 -45.3102C58.0923 -47.7664 71.0322 -52.7749 82.681 -60.0669C82.7646 -60.1192 82.8578 -60.1546 82.9551 -60.1709C83.0525 -60.1873 83.1521 -60.1844 83.2483 -60.1623C83.3446 -60.1404 83.4355 -60.0996 83.516 -60.0426C83.5965 -59.9856 83.6649 -59.9134 83.7173 -59.8301C83.7698 -59.7467 83.8053 -59.6539 83.8217 -59.5569C83.8382 -59.4599 83.8354 -59.3606 83.8133 -59.2647C83.7913 -59.1689 83.7505 -59.0782 83.6933 -58.9981C83.6361 -58.9179 83.5636 -58.8498 83.48 -58.7976L83.4753 -58.7986Z" fill="#C3937C"/>
<path d="M59.1191 -23.6026C49.0214 -15.807 38.8841 -8.05499 28.8314 -0.194738C19.2499 7.29707 7.26148 15.4568 2.79643 27.2483C2.4548 28.1607 1.1355 27.4317 1.46813 26.537C5.70106 15.3512 16.4696 7.66283 25.5412 0.491137C36.3677 -8.0848 47.3849 -16.4295 58.3106 -24.8741C59.0754 -25.4632 59.8686 -24.1902 59.1143 -23.6037L59.1191 -23.6026Z" fill="#C3937C"/>
<path d="M54.43 -19.6704C46.6658 -13.8547 38.332 -8.83502 29.5552 -4.68739C20.4721 -0.413129 10.3721 3.94281 6.37065 13.9142C6.01012 14.8224 4.6908 14.0935 5.04232 13.2031C8.60412 4.33469 17.1345 -0.544673 25.3926 -4.40185C35.3941 -9.06711 44.7989 -14.3622 53.6252 -20.9362C54.3973 -21.5137 55.1963 -20.2442 54.4253 -19.6714L54.43 -19.6704Z" fill="#C3937C"/>
<path d="M57.6246 -22.7974L33.2236 -12.9328C25.8497 -9.94942 18.2152 -7.1091 13.1593 -0.647109C12.5688 0.114967 11.4708 -0.910227 12.065 -1.66652C16.5758 -7.43532 23.1423 -10.4282 29.7786 -13.1381C38.8951 -16.8604 48.0377 -20.5226 57.1678 -24.2171C58.0645 -24.5784 58.5098 -23.1514 57.6225 -22.788L57.6246 -22.7974Z" fill="#C3937C"/>
<path d="M55.7109 -19.4498C39.5718 -0.902207 20.723 14.9492 1.88938 30.6902C1.15919 31.3019 0.0565103 30.2756 0.796152 29.666C19.625 13.9239 38.4633 -1.92483 54.613 -20.475C55.2454 -21.2029 56.3434 -20.1777 55.7109 -19.4498Z" fill="#C3937C"/>
<path d="M80.1356 -47.9151C76.5192 -35.7931 76.1987 -22.9848 77.5801 -10.4745C78.8507 0.907286 81.5996 12.0346 81.6991 23.5423C81.7087 24.5045 80.2074 24.5756 80.1942 23.6077C80.0866 11.633 77.108 0.0527508 75.923 -11.8144C74.7236 -24.0114 75.1298 -36.4538 78.6476 -48.2517C78.9231 -49.179 80.3875 -48.8478 80.112 -47.9204L80.1356 -47.9151Z" fill="#C3937C"/>
<path d="M79.2026 -47.9184C74.1957 -32.8054 73.6565 -16.5678 74.441 -0.778076C75.1051 12.7675 77.0488 26.6273 73.618 39.9641C73.3756 40.8989 71.9112 40.5676 72.1537 39.6328C75.7896 25.4814 73.2883 10.7977 72.8199 -3.56464C72.3253 -18.5762 72.9908 -33.8845 77.7477 -48.2475C78.0516 -49.1684 79.5159 -48.8372 79.2121 -47.9162L79.2026 -47.9184Z" fill="#C3937C"/>
<path d="M77.4394 -45.8875C70.5452 -25.9709 69.802 -5.05883 69.1179 15.8122C69.084 16.7695 67.5816 16.8452 67.6119 15.8822C68.2992 -5.11188 69.0319 -26.1747 75.9703 -46.2198C76.2836 -47.1386 77.748 -46.8073 77.4347 -45.8885L77.4394 -45.8875Z" fill="#C3937C"/>
<path d="M73.0835 -40.9744C69.2176 -25.3311 66.0661 -9.57573 65.7815 6.59068C65.7675 7.54752 64.2652 7.62336 64.2766 6.65605C64.5654 -9.63806 67.7184 -25.5317 71.6144 -41.3067C71.8284 -42.248 73.3071 -41.9135 73.0788 -40.9754L73.0835 -40.9744Z" fill="#C3937C"/>
<path d="M80.7694 -47.3165C80.1969 -31.042 80.6609 -15.2407 84.7313 0.624335C84.9717 1.5546 83.5424 2.00817 83.302 1.07792C79.2032 -14.9024 78.6925 -30.8479 79.2681 -47.2454C79.302 -48.2026 80.7997 -48.2796 80.7741 -47.3155L80.7694 -47.3165Z" fill="#C3937C"/>
<path d="M46.3045 10.2454C53.5893 28.0037 57.4947 46.9562 57.8211 66.1351C57.8355 67.0983 56.34 67.1658 56.3162 66.2005C55.9901 47.1523 52.1092 28.3295 44.8716 10.6932C44.5039 9.79845 45.9405 9.35641 46.2998 10.2443L46.3045 10.2454Z" fill="#C3937C"/>
<path d="M46.4491 10.09C48.9815 24.4072 50.0919 38.9376 49.7645 53.4705C49.7494 54.4321 48.2481 54.5032 48.2585 53.5406C48.5888 39.1353 47.5013 24.7317 45.0114 10.5366C44.8414 9.60252 46.2718 9.14434 46.4397 10.0879L46.4491 10.09Z" fill="#C3937C"/>
<path d="M45.3889 11.3447C47.7611 22.4907 47.3796 34.3005 46.7097 45.6095C46.6522 46.5614 45.1545 46.6383 45.2037 45.6796C45.8651 34.5171 46.2966 22.7929 43.9701 11.7957C43.7707 10.8599 45.2 10.4063 45.4031 11.3479L45.3889 11.3447Z" fill="#C3937C"/>
<path d="M47.1414 9.25193C55.3586 24.9664 61.2109 42.0162 63.4987 59.6256C63.6245 60.5794 62.1206 60.6401 61.9938 59.691C59.7237 42.3528 53.9341 25.5298 45.8489 10.0432C45.4058 9.19577 46.6712 8.3934 47.1178 9.24659L47.1414 9.25193Z" fill="#C3937C"/>
<path d="M37.8473 26.3992C30.5612 39.1508 22.278 51.3948 16.0921 64.7467C10.0679 77.759 6.81387 91.8038 3.99346 105.798C3.77938 106.739 2.36221 106.419 2.53378 105.468C5.27114 91.8606 8.41696 78.1823 14.1152 65.4673C20.3576 51.5394 28.9751 38.8959 36.5179 25.6926C36.9963 24.8557 38.3221 25.5565 37.8473 26.3992Z" fill="#C3937C"/>
<path d="M36.5998 27.8438C30.8005 37.4431 23.1051 45.6832 16.9947 55.0786C10.5796 64.9022 6.20665 75.9084 4.1343 87.4466C3.96746 88.3985 2.50308 88.0673 2.66993 87.1153C4.67948 75.9505 8.81432 65.2726 14.8514 55.6576C21.0818 45.7352 29.1978 37.1745 35.2447 27.1413C35.7388 26.3228 37.0703 27.0199 36.5741 27.8478L36.5998 27.8438Z" fill="#C3937C"/>
<path d="M37.9593 25.5137C31.8375 31.2192 26.102 37.3226 20.7905 43.7839C15.0914 50.6497 9.77778 57.8303 7.18516 66.4775C6.90494 67.4038 5.44053 67.0726 5.72075 66.1463C8.11565 58.1718 12.7111 51.3978 17.8945 44.9646C23.7092 37.6881 30.0499 30.845 36.866 24.4896C37.5696 23.8422 38.6744 24.859 37.964 25.5148L37.9593 25.5137Z" fill="#C3937C"/>
<path d="M22.8736 51.5494C15.746 69.0076 10.3 87.102 6.60908 105.588C6.39499 106.53 4.97785 106.209 5.1447 105.257C8.87992 86.6418 14.3793 68.4224 21.5689 50.8436C21.9342 49.9365 23.2535 50.6654 22.8973 51.5547L22.8736 51.5494Z" fill="#C3937C"/>
<path d="M30.4329 39.0375C27.5681 51.3493 24.1999 63.5373 20.5584 75.6388C17.545 85.6556 14.8909 96.1892 8.43546 104.655C7.85437 105.42 6.7612 104.395 7.3423 103.631C14.2225 94.6079 16.835 82.9467 20.0041 72.2674C23.2942 61.1651 26.3429 49.9884 28.9686 38.7062C29.0126 38.5127 29.1319 38.3447 29.3003 38.2389C29.4688 38.1332 29.6725 38.0984 29.8667 38.1424C30.0609 38.1863 30.2296 38.3053 30.3358 38.4732C30.442 38.641 30.477 38.844 30.4329 39.0375Z" fill="#C3937C"/>
<path d="M35.3517 31.8024C29.7007 54.9445 25.9168 78.9839 14.6054 100.262C14.5588 100.348 14.4956 100.425 14.4192 100.488C14.3428 100.551 14.2548 100.598 14.1602 100.626C14.0656 100.655 13.9662 100.665 13.8677 100.655C13.7693 100.646 13.6737 100.617 13.5864 100.57C13.4991 100.524 13.4219 100.461 13.359 100.385C13.2962 100.309 13.249 100.221 13.2202 100.127C13.1913 100.032 13.1814 99.9335 13.191 99.8354C13.2006 99.7373 13.2294 99.6421 13.276 99.5551C24.5443 78.4013 28.2616 54.4804 33.8816 31.4748C34.0956 30.5335 35.5742 30.868 35.3459 31.806L35.3517 31.8024Z" fill="#C3937C"/>
<path d="M35.7144 92.161C31.787 110.695 29.3113 129.31 28.9115 148.276C28.8864 149.26 27.3905 149.308 27.4055 148.346C27.8085 129.257 30.2927 110.496 34.2453 91.8287C34.4594 90.8874 35.9096 91.2155 35.7097 92.1599L35.7144 92.161Z" fill="#C3937C"/>
<path d="M34.7613 93.8406C28.3281 107.275 27.1342 121.543 26.3037 136.201C26.2408 137.176 24.7485 137.23 24.7988 136.266C25.6435 121.35 26.8854 106.805 33.4366 93.1351C33.8532 92.2644 35.1721 92.9735 34.766 93.8417L34.7613 93.8406Z" fill="#C3937C"/>
<path d="M35.583 93.591C36.466 114.079 34.9504 134.653 29.9674 154.596C29.7533 155.538 28.27 155.202 28.503 154.265C33.4582 134.444 34.9563 114.035 34.0796 93.6715C34.0708 93.4727 34.1416 93.2786 34.2765 93.1318C34.4114 92.9851 34.5993 92.8978 34.7989 92.8891C34.9984 92.8805 35.1933 92.9512 35.3407 93.0856C35.488 93.2201 35.5757 93.4074 35.5845 93.6063L35.583 93.591Z" fill="#C3937C"/>
<path d="M33.2693 97.7141C28.7992 105.947 25.2814 115.102 24.2566 124.455C24.1465 125.42 22.6821 125.089 22.7923 124.124C23.83 114.67 27.4295 105.33 31.9421 96.9981C31.9889 96.9113 32.0524 96.8345 32.1291 96.7721C32.2057 96.7097 32.294 96.663 32.3887 96.6346C32.5802 96.5772 32.7866 96.5979 32.9628 96.6922C33.1389 96.7865 33.2703 96.9467 33.328 97.1375C33.3857 97.3282 33.365 97.5339 33.2704 97.7094L33.2693 97.7141Z" fill="#C3937C"/>
<path d="M37.0029 75.5336C40.0213 81.917 46.3764 87.6054 51.1268 92.7723C55.717 97.7694 61.0839 105.248 67.4675 107.929C68.3748 108.308 67.6437 109.622 66.759 109.254C60.1132 106.459 54.8559 99.0443 50.1019 93.8716C45.224 88.5669 38.8602 82.9161 35.713 76.3353C35.3036 75.4708 36.5878 74.6727 36.9829 75.534L37.0029 75.5336Z" fill="#C3937C"/>
<path d="M37.196 75.449C48.8973 85.4098 66.2688 92.9124 69.7405 109.597C69.9352 110.532 68.5058 110.985 68.3122 110.046C64.8892 93.6494 47.6987 86.3561 36.1664 76.5473C35.4345 75.9216 36.4583 74.8269 37.1949 75.4537L37.196 75.449Z" fill="#C3937C"/>
<path d="M37.8716 77.7194C43.5624 82.3766 49.1274 87.1935 54.352 92.3935C59.3154 97.3661 63.1865 102.839 67.042 108.664C67.5782 109.474 66.3055 110.264 65.773 109.461C61.6997 103.349 57.5877 97.6681 52.3288 92.5098C47.4016 87.6838 42.1689 83.1747 36.829 78.8096C36.0845 78.1959 37.1119 77.1071 37.8575 77.7162L37.8716 77.7194Z" fill="#C3937C"/>
<path d="M52.7466 146.621C55.0084 158.514 56.5553 170.275 56.0231 182.442C55.9797 183.397 54.4784 183.468 54.5182 182.507C55.0687 170.478 53.5769 158.868 51.3372 147.074C51.1578 146.138 52.5882 145.68 52.7655 146.626L52.7466 146.621Z" fill="#C3937C"/>
<path d="M52.8529 148.709C52.381 160.926 52.8426 173.16 54.2339 185.308C54.3444 186.263 52.8405 186.324 52.7289 185.373C51.34 173.226 50.8784 160.991 51.348 148.774C51.382 147.817 52.8832 147.746 52.8529 148.709Z" fill="#C3937C"/>
<path d="M46.5631 122.49C56.8229 130.245 67.7186 137.128 79.135 143.065C79.9884 143.506 79.2811 144.825 78.4218 144.388C66.8964 138.387 55.898 131.429 45.5429 123.59C44.7757 123.011 45.8032 121.922 46.5704 122.501L46.5631 122.49Z" fill="#C3937C"/>
<path d="M47.7355 124.541C54.1602 132.195 62.1029 137.193 70.6625 142.143C71.4958 142.629 70.7931 143.949 69.954 143.468C61.2586 138.437 53.2404 133.422 46.6917 125.636C46.0785 124.904 47.1081 123.806 47.7155 124.542L47.7355 124.541Z" fill="#C3937C"/>
<path d="M47.2687 122.728C58.6847 128.201 71.9458 133.531 81.5968 141.959C82.3164 142.617 81.298 143.688 80.5683 143.053C76.7245 139.709 72.0636 137.141 67.5667 134.703C60.6623 130.949 53.6234 127.437 46.5377 124.042C45.6411 123.617 46.3758 122.309 47.2462 122.718L47.2687 122.728Z" fill="#C3937C"/>
<path d="M70.7473 164.722C79.0896 170.256 87.9324 174.944 96.6916 179.78C97.5339 180.248 96.8264 181.568 95.9783 181.104C87.2238 176.268 78.3763 171.579 70.0387 166.046C69.2408 165.514 69.9635 164.193 70.7473 164.722Z" fill="#C3937C"/>
<path d="M69.7466 165.431C76.1797 170.449 83.3978 174.353 89.8299 179.376C90.5892 179.968 89.5617 181.057 88.8024 180.465C82.3692 175.447 75.1512 171.543 68.7191 166.52C67.9598 165.927 68.9883 164.834 69.7476 165.426L69.7466 165.431Z" fill="#C3937C"/>
<path d="M79.3242 167.019C83.8115 170.874 88.6462 174.076 94.4313 175.523C95.3707 175.761 95.0389 177.22 94.0995 176.982C88.0636 175.459 82.9699 172.129 78.3015 168.109C77.5707 167.478 78.5934 166.388 79.3242 167.019Z" fill="#C3937C"/>
</g>
</svg>
