<svg width="169" height="322" viewBox="0 0 169 322" fill="none" xmlns="http://www.w3.org/2000/svg">
<g opacity="0.1">
<path d="M61.3046 206.528C108.634 269.56 193.415 288.307 262.141 255.26L260.63 253.247C193.019 285.498 109.793 266.982 63.2828 205.042C32.0994 163.513 24.2525 111.574 37.4767 64.9816C44.7588 32.314 70.469 -0.0018156 70.469 -0.0018156C19.595 56.8209 13.9692 143.489 61.3046 206.528Z" fill="#C3937C"/>
<path d="M253.788 254.992C241 261.959 221.581 260.302 209.06 253.444C201.285 249.182 195.199 242.373 189.499 235.721C183.947 229.208 178.779 222.379 174.018 215.267C173.28 214.167 171.636 215.408 172.372 216.505C177.872 224.73 183.924 232.573 190.487 239.978C196.02 246.198 202.046 252.268 209.574 256.031C222.434 262.408 241.639 263.935 254.525 256.912C255.675 256.286 254.942 254.363 253.773 255.003L253.788 254.992Z" fill="#C3937C"/>
<path d="M255.074 254.229C245.21 239.689 232.338 226.643 216.287 219.035C202.809 212.641 187.741 211.285 173.18 214.306C171.892 214.577 172.115 216.621 173.417 216.352C187.676 213.379 202.29 214.674 215.488 220.936C231.213 228.389 243.766 241.227 253.427 255.466C254.169 256.563 255.817 255.32 255.074 254.229Z" fill="#C3937C"/>
<path d="M253.048 254.729C227.199 257.927 201.521 246.873 183.56 228.626C182.919 227.975 181.747 228.827 182.405 229.494C200.729 248.107 226.814 259.424 253.214 256.161C253.404 256.138 253.578 256.041 253.697 255.89C253.816 255.74 253.87 255.549 253.848 255.359C253.826 255.169 253.729 254.996 253.579 254.878C253.429 254.76 253.238 254.706 253.048 254.729Z" fill="#C3937C"/>
<path d="M253.597 253.55L213.807 238.471C207.378 236.032 200.904 233.649 194.517 231.143C187.406 228.355 180.17 224.873 176.605 217.703C176.181 216.859 174.85 217.407 175.258 218.238C181.262 230.307 197.174 233.711 208.735 238.096L253.036 254.883C253.899 255.21 254.466 253.885 253.593 253.553L253.597 253.55Z" fill="#C3937C"/>
<path d="M252.352 253.173C244.006 237.626 226.509 227.782 210.079 222.881C203.937 221.05 197.544 219.948 191.29 218.549C185.41 217.23 179.341 215.426 173.309 214.952C172.389 214.883 172.177 216.308 173.107 216.382C178.492 216.801 183.918 218.363 189.157 219.542C194.842 220.811 200.607 221.885 206.249 223.314C223.398 227.658 242.364 237.606 251.009 253.706C251.441 254.513 252.789 253.988 252.356 253.17L252.352 253.173Z" fill="#C3937C"/>
<path d="M253.067 252.038C242.277 242.596 229.126 235.015 215.297 231.057C201.468 227.098 185.652 225.724 174.363 215.827C173.653 215.2 172.781 216.36 173.474 216.972C183.907 226.101 198.235 228.14 211.233 231.457C226.4 235.409 240.422 242.849 252.181 253.186C252.877 253.795 253.76 252.65 253.07 252.042L253.067 252.038Z" fill="#C3937C"/>
<path d="M245.5 263.357C237.06 277.9 226.982 291.434 215.462 303.692C209.359 310.177 202.689 316.287 193.83 318.513C186.015 320.477 177.863 319.756 169.935 319.046C168.62 318.931 168.32 320.969 169.642 321.084C177.56 321.789 185.705 322.493 193.545 320.696C201.657 318.833 208.114 314.005 213.905 308.231C226.996 295.188 238.095 280.083 247.367 264.143C248.03 263.001 246.127 262.212 245.465 263.349L245.5 263.357Z" fill="#C3937C"/>
<path d="M170.166 320.307C181.642 307.653 192.063 293.864 204.659 282.274C215.374 272.416 230.397 263.242 245.537 266.285C246.841 266.547 247.121 264.514 245.83 264.247C231.294 261.325 216.524 269.275 205.828 278.492C191.921 290.469 180.837 305.494 168.55 319.041C167.662 320.022 169.292 321.277 170.18 320.296L170.166 320.307Z" fill="#C3937C"/>
<path d="M243.234 265.477C225.344 286.562 203.662 302.233 177.143 310.493C176.256 310.771 176.788 312.108 177.674 311.836C204.422 303.509 226.341 287.626 244.376 266.361C244.976 265.655 243.837 264.774 243.234 265.477Z" fill="#C3937C"/>
<path d="M244.793 264.852C232.395 279.104 220.42 293.974 205.929 306.222C201.18 310.293 195.656 313.357 189.691 315.229C183.843 317.149 177.251 319.158 171.022 318.856C170.102 318.81 169.889 320.242 170.817 320.282C176.452 320.554 182.258 318.973 187.624 317.381C193.746 315.562 199.474 313.325 204.47 309.293C220.112 296.668 232.794 280.831 245.928 265.735C246.556 265.02 245.395 264.156 244.783 264.854L244.793 264.852Z" fill="#C3937C"/>
<path d="M242.108 265.824C220.514 276.987 198.613 289.03 180.815 305.83C180.132 306.471 180.996 307.622 181.679 306.981C199.385 290.267 221.154 278.265 242.636 267.164C243.473 266.726 242.933 265.402 242.106 265.82L242.108 265.824Z" fill="#C3937C"/>
<path d="M189.682 272.052C173.759 287.322 148.466 303.911 125.32 297.314C124.063 296.952 123.256 298.865 124.518 299.212C148.459 306.036 174.35 289.584 190.923 273.705C191.868 272.797 190.647 271.141 189.688 272.06L189.682 272.052Z" fill="#C3937C"/>
<path d="M126.259 298.542C134.469 290.041 144.396 283.384 155.375 279.018C166.354 274.652 178.132 272.678 189.918 273.228C191.235 273.29 191.535 271.253 190.212 271.19C178.066 270.609 165.927 272.638 154.614 277.14C143.3 281.642 133.076 288.512 124.629 297.287C123.71 298.245 125.344 299.497 126.259 298.542Z" fill="#C3937C"/>
<path d="M186.32 272.697C168.819 285.662 149.61 298.023 126.892 296.312C125.968 296.246 125.757 297.671 126.687 297.739C149.802 299.482 169.36 287.05 187.185 273.848C187.338 273.733 187.439 273.562 187.466 273.373C187.494 273.183 187.445 272.991 187.33 272.839C187.215 272.686 187.045 272.585 186.855 272.559C186.666 272.532 186.473 272.582 186.32 272.697Z" fill="#C3937C"/>
<path d="M184.888 272.606C169.544 278.926 153.662 283.845 137.439 287.301C136.534 287.493 136.694 288.924 137.602 288.729C153.947 285.257 169.947 280.309 185.406 273.947C186.267 273.596 185.743 272.254 184.879 272.601L184.888 272.606Z" fill="#C3937C"/>
<path d="M184.798 272.726C177.176 278.174 168.611 282.351 160.02 286.036C151.316 289.772 141.284 294.308 131.649 292.488C130.733 292.317 130.535 293.744 131.444 293.915C140.955 295.717 150.768 291.502 159.4 287.873C168.496 284.046 177.596 279.642 185.644 273.884C186.403 273.343 185.553 272.211 184.783 272.737L184.798 272.726Z" fill="#C3937C"/>
<path d="M199.403 267.599C184.769 267.863 170.436 263.543 158.414 255.245C152.272 250.992 147.154 245.767 142.523 239.933C137.806 233.993 133.305 227.968 126.878 223.755C125.767 223.051 124.502 224.664 125.617 225.388C133.406 230.476 138.24 238.319 144.212 245.225C148.855 250.594 154.294 255.22 160.34 258.943C172.133 266.198 185.775 269.909 199.645 269.636C200.971 269.609 200.727 267.569 199.415 267.591L199.403 267.599Z" fill="#C3937C"/>
<path d="M199.331 267.13C190.805 254.425 181.747 241.057 168.245 233.165C155.864 225.935 141.365 222.823 127.085 223.471C125.758 223.528 126.002 225.575 127.319 225.514C141.528 224.872 156.305 228.083 168.425 235.672C181.021 243.56 189.56 256.267 197.685 268.368C198.423 269.468 200.067 268.227 199.331 267.13Z" fill="#C3937C"/>
<path d="M197.938 266.098C175 255.122 150.369 243.188 132.999 224.161C132.371 223.472 131.216 224.339 131.844 225.029C149.404 244.262 174.203 256.342 197.378 267.425C198.215 267.824 198.775 266.498 197.938 266.098Z" fill="#C3937C"/>
<path d="M198.271 267.829C187.88 267.013 177.511 260.779 168.596 255.736C159.223 250.439 150.213 244.525 141.348 238.423C140.589 237.901 139.701 239.039 140.462 239.571C149.43 245.741 158.551 251.71 168.033 257.065C177.074 262.176 187.486 268.429 198.064 269.261C198.981 269.334 199.193 267.908 198.267 267.832L198.271 267.829Z" fill="#C3937C"/>
<path d="M196.44 264.32C179.306 247.81 156.101 239.149 137.911 223.896C137.203 223.302 136.317 224.444 137.022 225.041C155.214 240.297 178.419 248.958 195.551 265.464C196.224 266.12 197.096 264.96 196.44 264.32Z" fill="#C3937C"/>
<path d="M187.371 252.134C174.91 244.238 163.219 235.188 151.388 226.401C150.647 225.848 149.759 226.986 150.499 227.545C162.341 236.33 174.021 245.382 186.482 253.278C187.259 253.769 188.136 252.616 187.371 252.134Z" fill="#C3937C"/>
<path d="M143.71 264.61C135.023 273.025 124.184 279.567 112.867 283.773C101.48 288.009 89.4149 284.258 78.5145 280.358C77.2727 279.915 76.4647 281.811 77.7159 282.259C88.259 286.033 100.044 289.791 111.239 286.494C123.521 282.882 135.803 275.11 144.945 266.254C145.884 265.34 144.66 263.687 143.71 264.61Z" fill="#C3937C"/>
<path d="M144.513 264.018C137.304 263.047 130.534 260.062 123.262 259.457C118.281 259.067 113.267 259.527 108.435 260.82C96.2637 264.013 85.9183 271.717 77.1668 280.488C76.2315 281.423 77.8652 282.675 78.7931 281.746C87.4663 273.056 97.9056 265.369 110.041 262.516C115 261.326 120.132 261.058 125.181 261.726C131.669 262.606 137.749 265.169 144.234 266.045C145.537 266.228 145.844 264.185 144.528 264.007L144.513 264.018Z" fill="#C3937C"/>
<path d="M103.5 243.865C90.0555 246.308 75.6387 248.923 62.3212 244.575C48.1273 239.944 38.2872 227.988 29.9918 216.219C29.2308 215.135 27.5805 216.375 28.3414 217.459C36.8329 229.505 47.0105 241.724 61.516 246.475C75.2131 250.956 89.9005 248.422 103.731 245.91C105.034 245.674 104.807 243.626 103.5 243.865Z" fill="#C3937C"/>
<path d="M104.088 243.662C83.0491 226.671 56.6079 216.004 29.3709 215.64C28.0607 215.626 27.7541 217.662 29.0737 217.681C55.9961 218.038 82.0319 228.498 102.839 245.297C103.866 246.128 105.145 244.487 104.101 243.663L104.088 243.662Z" fill="#C3937C"/>
<path d="M128.669 255.987C114.251 249.109 100.618 234.672 96.7998 218.9C95.3841 213.134 95.5433 207.137 94.9699 201.244C94.1712 193.655 92.057 186.267 88.7216 179.411C88.1515 178.225 86.2244 178.965 86.8019 180.169C90.4317 187.736 92.589 195.929 93.1594 204.312C93.6206 210.661 93.7616 216.972 95.8814 223.039C101.064 237.896 113.76 251.156 127.874 257.885C129.069 258.451 129.87 256.554 128.677 255.982L128.669 255.987Z" fill="#C3937C"/>
<path d="M130.647 257.155C131.749 252.988 130.282 247.922 129.291 243.894C127.254 235.854 124.49 228.017 121.034 220.481C113.939 204.714 104.084 187.95 88.9551 178.713C87.8521 178.021 86.5605 179.653 87.6932 180.347C102.514 189.39 112.165 205.798 119.115 221.238C122.287 228.175 124.887 235.362 126.888 242.726C128.002 246.918 129.772 252.481 128.613 256.86C128.276 258.141 130.317 258.414 130.652 257.146L130.647 257.155Z" fill="#C3937C"/>
<path d="M64.8649 208.499C32.51 206.208 12.9599 177.402 2.00242 149.926C1.50869 148.694 -0.40818 149.455 0.082759 150.683C11.3122 178.831 31.5028 208.196 64.5715 210.538C65.89 210.633 66.19 208.595 64.8649 208.499Z" fill="#C3937C"/>
<path d="M65.309 208.943C56.2168 193.94 45.5126 179.933 34.3966 166.386C26.2351 156.433 14.8869 147.544 1.16199 148.931C-0.15959 149.065 0.0745841 151.107 1.39616 150.974C16.6613 149.434 27.4502 160.915 36.0278 171.717C45.8655 184.105 55.4387 196.621 63.6615 210.187C64.3489 211.32 65.9937 210.072 65.3118 208.947L65.309 208.943Z" fill="#C3937C"/>
<path d="M77.588 220.298C91.7734 198.57 78.3527 173.573 65.7478 154.861C65.0092 153.761 63.3616 155.005 64.1011 156.099C76.1003 173.918 89.5599 198.183 75.9524 219.036C75.244 220.149 76.8507 221.404 77.5796 220.287L77.588 220.298Z" fill="#C3937C"/>
<path d="M77.2214 219.267C69.5242 206.757 62.8487 192.691 63.2708 177.646C63.4847 170.116 66.0174 162.679 65.4208 155.124C65.3124 153.8 63.2705 154.046 63.3761 155.366C64.0372 163.464 61.1325 171.524 61.2092 179.643C61.3467 194.423 67.9928 208.164 75.5665 220.493C76.2585 221.616 77.8995 220.372 77.2131 219.256L77.2214 219.267Z" fill="#C3937C"/>
<path d="M36.5774 151.681C29.9333 147.179 23.078 142.551 18.0719 136.179C14.6688 131.848 13.166 127.565 11.9274 122.346C9.77927 113.315 8.38869 104.099 5.87191 95.1358C5.50292 93.8683 3.59906 94.6312 3.95225 95.8931C6.67108 105.598 8.04484 115.646 10.5738 125.401C13.9247 138.331 24.7519 146.154 35.3156 153.315C36.4017 154.055 37.6756 152.43 36.5774 151.681Z" fill="#C3937C"/>
<path d="M37.1537 151.231C32.7795 129.702 21.9222 110.046 6.03578 94.8963C5.08013 93.9883 3.82109 95.6254 4.77397 96.5297C20.25 111.317 30.8317 130.482 35.109 151.472C35.3719 152.761 37.4184 152.53 37.1537 151.231Z" fill="#C3937C"/>
<path d="M42.9622 166.96C52.438 154.52 68.9398 136.917 59.8497 120.007C59.2284 118.854 57.304 119.597 57.9299 120.764C66.6198 136.924 50.4185 153.778 41.3323 165.705C40.5327 166.759 42.1552 168.019 42.9622 166.96Z" fill="#C3937C"/>
<path d="M42.793 166.013C41.0053 149.864 47.1187 132.442 59.2405 121.423C60.2148 120.54 58.9911 118.887 58.0055 119.778C45.336 131.302 38.8758 149.333 40.7483 166.254C40.8939 167.573 42.9386 167.332 42.793 166.013Z" fill="#C3937C"/>
<path d="M32.9157 121.715C44.4537 113 53.0913 101.007 57.69 87.3143C58.1092 86.0643 56.2154 85.2573 55.7878 86.5194C51.3307 99.8728 42.9225 111.572 31.6779 120.066C30.6162 120.864 31.8539 122.512 32.9129 121.711L32.9157 121.715Z" fill="#C3937C"/>
<path d="M32.8712 119.692C31.8875 104.351 41.8165 91.0477 56.6998 87.2684C57.9862 86.9405 57.2178 85.0324 55.9491 85.3528C48.3622 87.2388 41.6776 91.7432 37.0779 98.0691C32.4782 104.395 30.2598 112.134 30.8153 119.919C30.9032 121.246 32.9489 120.998 32.8629 119.681L32.8712 119.692Z" fill="#C3937C"/>
<path d="M29.8463 96.1455C19.9763 86.9589 14.3856 73.0643 15.4518 59.5683C15.5584 58.2513 13.5207 57.9589 13.4132 59.2824C12.2837 73.5635 18.1288 88.0685 28.5846 97.779C29.5514 98.6785 30.8104 97.0413 29.8463 96.1455Z" fill="#C3937C"/>
<path d="M30.8004 96.027C30.982 89.0933 29.7027 82.2042 27.0455 75.807C24.3883 69.4097 20.4126 63.6473 15.3764 58.8935C14.4208 57.9856 13.1617 59.6227 14.1146 60.5269C18.8803 65.0439 22.645 70.5097 25.1674 76.5738C27.6898 82.638 28.9141 89.1667 28.7619 95.7412C28.7325 97.0525 30.773 97.3485 30.8004 96.027Z" fill="#C3937C"/>
<path d="M36.0045 74.4216C45.7897 68.3928 54.2232 59.3843 56.4534 47.8187C56.7042 46.5152 54.687 46.2424 54.4148 47.5329C52.2885 58.5617 44.0659 67.0517 34.7696 72.7769C33.6428 73.4726 34.8815 75.1145 36.0045 74.4216Z" fill="#C3937C"/>
<path d="M36.2 73.572C37.9872 62.9374 44.9895 52.9542 55.1885 48.9201C56.4249 48.4324 55.6704 46.5196 54.4405 47.0082C43.5489 51.3073 36.0749 61.9351 34.1586 73.2824C33.945 74.6043 35.9725 74.8754 36.1972 73.5682L36.2 73.572Z" fill="#C3937C"/>
<path d="M142.273 265.225C121.745 271.133 100.923 275.953 79.8935 279.664C78.9832 279.826 79.1426 281.256 80.0566 281.092C101.204 277.351 122.144 272.495 142.787 266.546C143.678 266.289 143.146 264.953 142.256 265.203L142.273 265.225Z" fill="#C3937C"/>
<path d="M142.97 265.317C133.508 269.424 124.105 273.749 114.498 277.501C105.553 280.994 93.6064 285.882 84.111 282.169C83.2645 281.818 82.6824 283.161 83.5475 283.499C92.2252 286.891 102.534 283.361 110.873 280.388C121.97 276.439 132.695 271.336 143.496 266.653C144.349 266.284 143.825 264.942 142.965 265.309L142.97 265.317Z" fill="#C3937C"/>
<path d="M138.928 267.274C127.419 277.263 112.232 280.917 98.1478 285.722C97.2671 286.023 97.7951 287.363 98.6749 287.068C112.895 282.219 128.187 278.51 139.795 268.429C140.501 267.817 139.636 266.666 138.933 267.282L138.928 267.274Z" fill="#C3937C"/>
<path d="M141.348 264.398C121.391 265.539 101.655 269.254 82.6329 275.451C81.7513 275.736 82.2822 277.079 83.1638 276.794C102.065 270.648 121.674 266.968 141.502 265.845C142.43 265.792 142.264 264.36 141.336 264.413L141.348 264.398Z" fill="#C3937C"/>
<path d="M136.938 263.694C123.733 261.853 110.287 262.549 97.3238 265.743C96.4348 265.963 96.5905 267.397 97.4897 267.174C110.332 264 123.654 263.303 136.74 265.121C136.833 265.134 136.929 265.128 137.021 265.104C137.113 265.08 137.199 265.038 137.275 264.981C137.351 264.924 137.414 264.852 137.463 264.77C137.511 264.689 137.543 264.598 137.556 264.505C137.569 264.411 137.564 264.315 137.54 264.223C137.517 264.132 137.475 264.046 137.418 263.97C137.361 263.895 137.29 263.831 137.208 263.783C137.126 263.735 137.036 263.704 136.942 263.691L136.938 263.694Z" fill="#C3937C"/>
<path d="M101.742 242.369C89.8201 239.499 77.8801 236.682 65.9717 233.737C54.6216 230.929 40.8972 228.484 32.3479 219.884C31.6898 219.217 30.8185 220.377 31.4617 221.032C39.5694 229.191 52.0384 231.703 62.8153 234.43C75.6837 237.699 88.6286 240.69 101.532 243.805C102.435 244.021 102.631 242.59 101.739 242.372L101.742 242.369Z" fill="#C3937C"/>
<path d="M96.0835 240.762C86.9863 238.712 77.702 237.585 68.3715 237.398C58.7224 237.221 48.1489 237.373 40.7213 230.189C40.0483 229.534 39.1769 230.694 39.835 231.337C46.4436 237.725 55.8453 238.651 64.6067 238.787C75.2152 238.946 85.5474 239.893 95.8745 242.191C96.7788 242.394 96.9813 240.964 96.0797 240.765L96.0835 240.762Z" fill="#C3937C"/>
<path d="M100.115 242.251L74.8289 243.196C67.1866 243.48 59.3719 243.992 52.3974 240.307C51.5799 239.87 51.0191 241.203 51.8376 241.633C58.0615 244.924 64.999 244.967 71.8865 244.734C81.3482 244.413 90.809 244.029 100.272 243.678C101.2 243.642 101.031 242.213 100.109 242.243L100.115 242.251Z" fill="#C3937C"/>
<path d="M97.1209 240.064C75.6742 230.128 52.9088 223.627 30.2002 217.218C29.3192 216.968 28.7547 218.304 29.6431 218.548C52.3481 224.96 75.1031 231.463 96.5601 241.397C97.4009 241.787 97.9617 240.454 97.1209 240.064Z" fill="#C3937C"/>
<path d="M129.733 255.449C121.799 246.225 116.487 235.099 112.786 223.566C109.43 213.067 107.472 202.21 103.04 192.061C102.67 191.212 101.325 191.741 101.693 192.597C106.302 203.158 108.237 214.504 111.858 225.395C115.596 236.582 120.839 247.352 128.56 256.33C129.166 257.037 130.321 256.169 129.715 255.463L129.733 255.449Z" fill="#C3937C"/>
<path d="M128.916 255.819C118.587 244.515 111.736 230.464 106.223 216.284C101.485 204.124 97.7473 191.183 89.4987 180.819C88.9188 180.093 87.764 180.961 88.3438 181.687C97.0924 192.686 100.665 206.57 105.895 219.371C111.357 232.752 117.953 245.938 127.768 256.681C128.397 257.37 129.552 256.503 128.923 255.813L128.916 255.819Z" fill="#C3937C"/>
<path d="M126.571 254.729C112.699 239.949 103.833 221.872 95.0358 203.807C94.63 202.98 93.282 203.505 93.6868 204.339C102.536 222.511 111.451 240.724 125.412 255.6C126.048 256.284 127.203 255.416 126.567 254.732L126.571 254.729Z" fill="#C3937C"/>
<path d="M120.819 252.129C111.283 239.91 102.329 227.311 95.73 213.222C95.3419 212.387 93.9938 212.912 94.3838 213.757C101.037 227.957 110.046 240.677 119.66 253C120.218 253.742 121.384 252.866 120.815 252.132L120.819 252.129Z" fill="#C3937C"/>
<path d="M130.054 254.673C123.16 240.602 117.361 226.539 114.702 210.999C114.547 210.087 113.115 210.252 113.269 211.164C115.949 226.816 121.764 241.024 128.709 255.202C129.115 256.03 130.459 255.507 130.058 254.67L130.054 254.673Z" fill="#C3937C"/>
<path d="M77.2038 217.683C76.6213 199.214 72.6045 181.027 65.3582 164.051C64.9925 163.199 63.6537 163.729 64.012 164.587C71.2072 181.448 75.1946 199.511 75.7705 217.854C75.7993 218.785 77.2335 218.608 77.2001 217.686L77.2038 217.683Z" fill="#C3937C"/>
<path d="M77.3917 217.763C73.9906 204.188 69.258 190.987 63.2627 178.35C62.8719 177.511 61.5266 178.04 61.9137 178.881C67.8614 191.405 72.5643 204.486 75.9547 217.937C76.1724 218.824 77.6075 218.663 77.3842 217.768L77.3917 217.763Z" fill="#C3937C"/>
<path d="M75.9685 217.078C73.6724 206.353 68.6992 196.129 63.6697 186.458C63.2453 185.645 61.901 186.167 62.3207 186.99C67.2852 196.535 72.2687 206.664 74.5464 217.241C74.739 218.141 76.1714 217.977 75.9797 217.07L75.9685 217.078Z" fill="#C3937C"/>
<path d="M78.3283 218.226C79.3668 201.185 77.8056 183.903 72.8969 167.533C72.6326 166.646 71.2892 167.185 71.5507 168.068C76.3684 184.193 77.8955 201.252 76.8833 218.04C76.8274 218.959 78.2529 219.166 78.3097 218.24L78.3283 218.226Z" fill="#C3937C"/>
<path d="M63.4381 206.824C52.0363 198.492 39.9589 190.999 29.2868 181.707C18.89 172.649 10.5184 161.593 2.54705 150.411C1.98951 149.668 0.871883 150.508 1.39589 151.276C9.14235 162.151 17.275 172.928 27.2691 181.853C38.2171 191.629 50.7447 199.341 62.5491 207.968C63.2976 208.515 64.1857 207.377 63.4381 206.824Z" fill="#C3937C"/>
<path d="M61.7761 206.047C52.9171 199.898 42.9281 195.691 33.8761 189.844C24.3886 183.742 16.2286 175.796 9.87842 166.476C9.35814 165.706 8.20327 166.574 8.72356 167.344C14.872 176.36 22.6941 184.112 31.768 190.18C41.1322 196.442 51.6161 200.766 60.8629 207.197C61.6179 207.722 62.5125 206.585 61.7519 206.053L61.7761 206.047Z" fill="#C3937C"/>
<path d="M63.8841 207.558C56.2715 204.957 48.8415 201.855 41.6429 198.271C33.9455 194.485 26.4626 190.27 20.7913 183.695C20.1816 182.991 19.0267 183.859 19.6364 184.563C24.87 190.624 31.5629 194.765 38.638 198.374C46.5983 202.476 54.8499 205.99 63.327 208.888C64.1987 209.18 64.7688 207.851 63.8879 207.555L63.8841 207.558Z" fill="#C3937C"/>
<path d="M40.4209 190.629C27.3097 178.1 15.4241 164.35 4.92463 149.565C4.36709 148.822 3.24948 149.662 3.76976 150.433C14.3587 165.314 26.3402 179.153 39.5533 191.763C40.23 192.416 41.1015 191.256 40.4396 190.615L40.4209 190.629Z" fill="#C3937C"/>
<path d="M51.9683 198.643C44.6188 188.956 36.8763 179.576 28.928 170.38C22.3496 162.767 15.8834 154.56 6.8937 149.665C6.08365 149.223 5.52669 150.553 6.33675 150.995C15.918 156.212 22.7905 165.427 29.7657 173.56C37.0132 182.016 44.0782 190.634 50.8134 199.51C50.928 199.663 51.0987 199.764 51.2881 199.79C51.4774 199.817 51.6698 199.767 51.823 199.652C51.9761 199.537 52.0774 199.366 52.1047 199.176C52.1319 198.987 52.0829 198.795 51.9683 198.643Z" fill="#C3937C"/>
<path d="M59.1261 203.061C45.0782 184.958 32.3161 165.331 14.0335 151.095C13.9585 151.037 13.8727 150.994 13.7811 150.969C13.6895 150.944 13.5938 150.938 13.4995 150.95C13.4053 150.962 13.3142 150.992 13.2316 151.039C13.1489 151.087 13.0764 151.15 13.018 151.225C12.9596 151.3 12.9166 151.386 12.8914 151.477C12.8661 151.569 12.8592 151.665 12.8709 151.759C12.8826 151.853 12.9128 151.944 12.9597 152.026C13.0067 152.109 13.0694 152.181 13.1444 152.239C31.3406 166.383 43.9976 185.932 57.9647 203.928C58.5223 204.67 59.6883 203.794 59.1196 203.06L59.1261 203.061Z" fill="#C3937C"/>
<path d="M35.738 149.896C25.0122 135.162 15.5286 119.785 7.72876 103.282C7.32024 102.427 5.98886 102.975 6.37973 103.813C14.2307 120.423 23.7793 135.926 34.5794 150.767C35.1369 151.509 36.2806 150.65 35.7342 149.899L35.738 149.896Z" fill="#C3937C"/>
<path d="M34.2419 148.796C23.3204 139.529 16.6686 127.465 10.1831 114.916C9.74476 114.084 8.41435 114.625 8.83686 115.452C15.4366 128.222 22.2389 140.51 33.3566 149.938C34.0641 150.538 34.9429 149.396 34.2456 148.793L34.2419 148.796Z" fill="#C3937C"/>
<path d="M35.0609 148.692C27.7888 130.346 18.3783 112.87 6.17288 97.3138C5.61534 96.5713 4.44553 97.4503 5.01797 98.1817C17.1509 113.641 26.4816 130.98 33.7101 149.213C33.7805 149.391 33.9189 149.534 34.0949 149.61C34.2709 149.686 34.4701 149.688 34.6486 149.617C34.8271 149.546 34.9704 149.407 35.0468 149.231C35.1233 149.055 35.1267 148.856 35.0563 148.678L35.0609 148.692Z" fill="#C3937C"/>
<path d="M31.4113 145.981C24.2555 140.51 17.5728 133.853 13 126.041C12.5244 125.236 11.3696 126.104 11.8451 126.908C16.469 134.805 23.2958 141.591 30.5279 147.133C30.6031 147.191 30.689 147.233 30.7808 147.258C30.8725 147.282 30.9683 147.289 31.0627 147.276C31.2532 147.251 31.4262 147.152 31.5438 147C31.6613 146.847 31.7137 146.655 31.6893 146.465C31.665 146.274 31.566 146.102 31.4141 145.985L31.4113 145.981Z" fill="#C3937C"/>
<path d="M43.3992 163.995C43.5406 157.199 46.883 149.699 49.022 143.289C51.0872 137.091 52.8592 128.407 57.4077 123.538C58.0552 122.848 56.8975 121.981 56.2659 122.654C51.532 127.726 49.8308 136.31 47.6909 142.727C45.4941 149.308 42.1293 156.778 41.9523 163.799C41.9327 164.719 43.373 164.915 43.3815 164.002L43.3992 163.995Z" fill="#C3937C"/>
<path d="M43.6018 163.993C49.9573 150.634 62.2539 137.201 58.7472 121.178C58.5509 120.28 57.1185 120.444 57.3176 121.346C60.7538 137.097 48.5339 150.275 42.2669 163.434C41.8705 164.272 43.1988 164.83 43.599 163.989L43.6018 163.993Z" fill="#C3937C"/>
<path d="M43.303 161.733C46.4673 155.4 49.4587 148.977 52.0009 142.351C54.4031 136.028 55.6505 129.696 56.7456 123.06C56.8983 122.138 55.4709 121.944 55.3192 122.86C54.1455 129.833 52.7686 136.443 50.1799 143.046C47.7518 149.226 44.9311 155.248 41.9598 161.186C41.5476 162.018 42.8768 162.57 43.2918 161.741L43.303 161.733Z" fill="#C3937C"/>
<path d="M29.2936 95.3474C26.6073 84.0091 23.3453 73.0684 18.0999 62.5904C17.6867 61.7685 16.3414 62.2973 16.7536 63.1258C21.9611 73.4755 25.212 84.2619 27.8789 95.5044C28.0892 96.3976 29.5244 96.2367 29.3085 95.3362L29.2936 95.3474Z" fill="#C3937C"/>
<path d="M28.567 93.4715C23.3547 82.9259 18.9544 71.9963 15.4041 60.7774C15.1259 59.8947 13.7824 60.4337 14.0579 61.3127C17.6102 72.5309 22.0106 83.4604 27.2208 94.007C27.6266 94.8345 28.9718 94.3055 28.567 93.4715Z" fill="#C3937C"/>
<path d="M33.3457 118.981C39.3024 108.127 46.16 97.7896 53.8458 88.0774C54.4217 87.3543 53.2827 86.4738 52.7003 87.1959C44.9442 97.0078 38.0258 107.452 32.0183 118.417C31.5726 119.228 32.9019 119.779 33.3476 118.968L33.3457 118.981Z" fill="#C3937C"/>
<path d="M33.5686 116.717C36.2001 107.463 41.2065 99.9439 46.7734 92.2243C47.3139 91.4696 46.1786 90.5863 45.6315 91.3401C39.9771 99.1837 34.9111 106.748 32.2226 116.166C31.9722 117.051 33.307 117.61 33.5509 116.725L33.5686 116.717Z" fill="#C3937C"/>
<path d="M33.8711 118.494C41.7391 109.19 51.2819 99.2841 56.4403 88.0791C56.8135 87.218 55.4992 86.6783 55.1084 87.5237C53.0487 91.9749 49.9678 96.0671 46.9791 99.9795C42.395 105.997 37.5979 111.855 32.7135 117.627C32.0939 118.354 33.2524 119.214 33.8553 118.511L33.8711 118.494Z" fill="#C3937C"/>
<path d="M37.9797 72.3567C43.1264 64.2094 49.0448 56.6088 54.8312 48.91C55.3867 48.1674 54.2476 47.2869 53.6857 48.0286C47.903 55.7246 41.9808 63.3281 36.8379 71.4725C36.3466 72.254 37.4996 73.1298 37.9797 72.3567Z" fill="#C3937C"/>
<path d="M36.8233 72.1283C40.4974 65.1862 45.2977 58.9136 48.969 51.9679C49.4026 51.1484 48.0733 50.5966 47.6397 51.4161C43.9656 58.3581 39.1653 64.6307 35.494 71.5764C35.0604 72.3959 36.3924 72.9514 36.8261 72.132L36.8233 72.1283Z" fill="#C3937C"/>
<path d="M44.6038 66.9609C47.0271 61.8066 50.012 57.0898 54.5199 53.5398C55.251 52.9614 54.3868 51.8104 53.6557 52.3889C48.9577 56.1048 45.7959 61.0361 43.2784 66.4064C42.8847 67.248 44.2102 67.8026 44.6038 66.9609Z" fill="#C3937C"/>
</g>
<g opacity="0.1">
<path d="M61.3046 206.528C108.634 269.56 193.415 288.307 262.141 255.26L260.63 253.247C193.019 285.498 109.793 266.982 63.2828 205.042C32.0994 163.513 24.2525 111.574 37.4767 64.9816C44.7588 32.314 70.469 -0.0018156 70.469 -0.0018156C19.595 56.8209 13.9692 143.489 61.3046 206.528Z" fill="#C3937C"/>
<path d="M253.788 254.992C241 261.959 221.581 260.302 209.06 253.444C201.285 249.182 195.199 242.373 189.499 235.721C183.947 229.208 178.779 222.379 174.018 215.267C173.28 214.167 171.636 215.408 172.372 216.505C177.872 224.73 183.924 232.573 190.487 239.978C196.02 246.198 202.046 252.268 209.574 256.031C222.434 262.408 241.639 263.935 254.525 256.912C255.675 256.286 254.942 254.363 253.773 255.003L253.788 254.992Z" fill="#C3937C"/>
<path d="M255.074 254.229C245.21 239.689 232.338 226.643 216.287 219.035C202.809 212.641 187.741 211.285 173.18 214.306C171.892 214.577 172.115 216.621 173.417 216.352C187.676 213.379 202.29 214.674 215.488 220.936C231.213 228.389 243.766 241.227 253.427 255.466C254.169 256.563 255.817 255.32 255.074 254.229Z" fill="#C3937C"/>
<path d="M253.048 254.729C227.199 257.927 201.521 246.873 183.56 228.626C182.919 227.975 181.747 228.827 182.405 229.494C200.729 248.107 226.814 259.424 253.214 256.161C253.404 256.138 253.578 256.041 253.697 255.89C253.816 255.74 253.87 255.549 253.848 255.359C253.826 255.169 253.729 254.996 253.579 254.878C253.429 254.76 253.238 254.706 253.048 254.729Z" fill="#C3937C"/>
<path d="M253.597 253.55L213.807 238.471C207.378 236.032 200.904 233.649 194.517 231.143C187.406 228.355 180.17 224.873 176.605 217.703C176.181 216.859 174.85 217.407 175.258 218.238C181.262 230.307 197.174 233.711 208.735 238.096L253.036 254.883C253.899 255.21 254.466 253.885 253.593 253.553L253.597 253.55Z" fill="#C3937C"/>
<path d="M252.352 253.173C244.006 237.626 226.509 227.782 210.079 222.881C203.937 221.05 197.544 219.948 191.29 218.549C185.41 217.23 179.341 215.426 173.309 214.952C172.389 214.883 172.177 216.308 173.107 216.382C178.492 216.801 183.918 218.363 189.157 219.542C194.842 220.811 200.607 221.885 206.249 223.314C223.398 227.658 242.364 237.606 251.009 253.706C251.441 254.513 252.789 253.988 252.356 253.17L252.352 253.173Z" fill="#C3937C"/>
<path d="M253.067 252.038C242.277 242.596 229.126 235.015 215.297 231.057C201.468 227.098 185.652 225.724 174.363 215.827C173.653 215.2 172.781 216.36 173.474 216.972C183.907 226.101 198.235 228.14 211.233 231.457C226.4 235.409 240.422 242.849 252.181 253.186C252.877 253.795 253.76 252.65 253.07 252.042L253.067 252.038Z" fill="#C3937C"/>
<path d="M245.5 263.357C237.06 277.9 226.982 291.434 215.462 303.692C209.359 310.177 202.689 316.287 193.83 318.513C186.015 320.477 177.863 319.756 169.935 319.046C168.62 318.931 168.32 320.969 169.642 321.084C177.56 321.789 185.705 322.493 193.545 320.696C201.657 318.833 208.114 314.005 213.905 308.231C226.996 295.188 238.095 280.083 247.367 264.143C248.03 263.001 246.127 262.212 245.465 263.349L245.5 263.357Z" fill="#C3937C"/>
<path d="M170.166 320.307C181.642 307.653 192.063 293.864 204.659 282.274C215.374 272.416 230.397 263.242 245.537 266.285C246.841 266.547 247.121 264.514 245.83 264.247C231.294 261.325 216.524 269.275 205.828 278.492C191.921 290.469 180.837 305.494 168.55 319.041C167.662 320.022 169.292 321.277 170.18 320.296L170.166 320.307Z" fill="#C3937C"/>
<path d="M243.234 265.477C225.344 286.562 203.662 302.233 177.143 310.493C176.256 310.771 176.788 312.108 177.674 311.836C204.422 303.509 226.341 287.626 244.376 266.361C244.976 265.655 243.837 264.774 243.234 265.477Z" fill="#C3937C"/>
<path d="M244.793 264.852C232.395 279.104 220.42 293.974 205.929 306.222C201.18 310.293 195.656 313.357 189.691 315.229C183.843 317.149 177.251 319.158 171.022 318.856C170.102 318.81 169.889 320.242 170.817 320.282C176.452 320.554 182.258 318.973 187.624 317.381C193.746 315.562 199.474 313.325 204.47 309.293C220.112 296.668 232.794 280.831 245.928 265.735C246.556 265.02 245.395 264.156 244.783 264.854L244.793 264.852Z" fill="#C3937C"/>
<path d="M242.108 265.824C220.514 276.987 198.613 289.03 180.815 305.83C180.132 306.471 180.996 307.622 181.679 306.981C199.385 290.267 221.154 278.265 242.636 267.164C243.473 266.726 242.933 265.402 242.106 265.82L242.108 265.824Z" fill="#C3937C"/>
<path d="M189.682 272.052C173.759 287.322 148.466 303.911 125.32 297.314C124.063 296.952 123.256 298.865 124.518 299.212C148.459 306.036 174.35 289.584 190.923 273.705C191.868 272.797 190.647 271.141 189.688 272.06L189.682 272.052Z" fill="#C3937C"/>
<path d="M126.259 298.542C134.469 290.041 144.396 283.384 155.375 279.018C166.354 274.652 178.132 272.678 189.918 273.228C191.235 273.29 191.535 271.253 190.212 271.19C178.066 270.609 165.927 272.638 154.614 277.14C143.3 281.642 133.076 288.512 124.629 297.287C123.71 298.245 125.344 299.497 126.259 298.542Z" fill="#C3937C"/>
<path d="M186.32 272.697C168.819 285.662 149.61 298.023 126.892 296.312C125.968 296.246 125.757 297.671 126.687 297.739C149.802 299.482 169.36 287.05 187.185 273.848C187.338 273.733 187.439 273.562 187.466 273.373C187.494 273.183 187.445 272.991 187.33 272.839C187.215 272.686 187.045 272.585 186.855 272.559C186.666 272.532 186.473 272.582 186.32 272.697Z" fill="#C3937C"/>
<path d="M184.888 272.606C169.544 278.926 153.662 283.845 137.439 287.301C136.534 287.493 136.694 288.924 137.602 288.729C153.947 285.257 169.947 280.309 185.406 273.947C186.267 273.596 185.743 272.254 184.879 272.601L184.888 272.606Z" fill="#C3937C"/>
<path d="M184.798 272.726C177.176 278.174 168.611 282.351 160.02 286.036C151.316 289.772 141.284 294.308 131.649 292.488C130.733 292.317 130.535 293.744 131.444 293.915C140.955 295.717 150.768 291.502 159.4 287.873C168.496 284.046 177.596 279.642 185.644 273.884C186.403 273.343 185.553 272.211 184.783 272.737L184.798 272.726Z" fill="#C3937C"/>
<path d="M199.403 267.599C184.769 267.863 170.436 263.543 158.414 255.245C152.272 250.992 147.154 245.767 142.523 239.933C137.806 233.993 133.305 227.968 126.878 223.755C125.767 223.051 124.502 224.664 125.617 225.388C133.406 230.476 138.24 238.319 144.212 245.225C148.855 250.594 154.294 255.22 160.34 258.943C172.133 266.198 185.775 269.909 199.645 269.636C200.971 269.609 200.727 267.569 199.415 267.591L199.403 267.599Z" fill="#C3937C"/>
<path d="M199.331 267.13C190.805 254.425 181.747 241.057 168.245 233.165C155.864 225.935 141.365 222.823 127.085 223.471C125.758 223.528 126.002 225.575 127.319 225.514C141.528 224.872 156.305 228.083 168.425 235.672C181.021 243.56 189.56 256.267 197.685 268.368C198.423 269.468 200.067 268.227 199.331 267.13Z" fill="#C3937C"/>
<path d="M197.938 266.098C175 255.122 150.369 243.188 132.999 224.161C132.371 223.472 131.216 224.339 131.844 225.029C149.404 244.262 174.203 256.342 197.378 267.425C198.215 267.824 198.775 266.498 197.938 266.098Z" fill="#C3937C"/>
<path d="M198.271 267.829C187.88 267.013 177.511 260.779 168.596 255.736C159.223 250.439 150.213 244.525 141.348 238.423C140.589 237.901 139.701 239.039 140.462 239.571C149.43 245.741 158.551 251.71 168.033 257.065C177.074 262.176 187.486 268.429 198.064 269.261C198.981 269.334 199.193 267.908 198.267 267.832L198.271 267.829Z" fill="#C3937C"/>
<path d="M196.44 264.32C179.306 247.81 156.101 239.149 137.911 223.896C137.203 223.302 136.317 224.444 137.022 225.041C155.214 240.297 178.419 248.958 195.551 265.464C196.224 266.12 197.096 264.96 196.44 264.32Z" fill="#C3937C"/>
<path d="M187.371 252.134C174.91 244.238 163.219 235.188 151.388 226.401C150.647 225.848 149.759 226.986 150.499 227.545C162.341 236.33 174.021 245.382 186.482 253.278C187.259 253.769 188.136 252.616 187.371 252.134Z" fill="#C3937C"/>
<path d="M143.71 264.61C135.023 273.025 124.184 279.567 112.867 283.773C101.48 288.009 89.4149 284.258 78.5145 280.358C77.2727 279.915 76.4647 281.811 77.7159 282.259C88.259 286.033 100.044 289.791 111.239 286.494C123.521 282.882 135.803 275.11 144.945 266.254C145.884 265.34 144.66 263.687 143.71 264.61Z" fill="#C3937C"/>
<path d="M144.513 264.018C137.304 263.047 130.534 260.062 123.262 259.457C118.281 259.067 113.267 259.527 108.435 260.82C96.2637 264.013 85.9183 271.717 77.1668 280.488C76.2315 281.423 77.8652 282.675 78.7931 281.746C87.4663 273.056 97.9056 265.369 110.041 262.516C115 261.326 120.132 261.058 125.181 261.726C131.669 262.606 137.749 265.169 144.234 266.045C145.537 266.228 145.844 264.185 144.528 264.007L144.513 264.018Z" fill="#C3937C"/>
<path d="M103.5 243.865C90.0555 246.308 75.6387 248.923 62.3212 244.575C48.1273 239.944 38.2872 227.988 29.9918 216.219C29.2308 215.135 27.5805 216.375 28.3414 217.459C36.8329 229.505 47.0105 241.724 61.516 246.475C75.2131 250.956 89.9005 248.422 103.731 245.91C105.034 245.674 104.807 243.626 103.5 243.865Z" fill="#C3937C"/>
<path d="M104.088 243.662C83.0491 226.671 56.6079 216.004 29.3709 215.64C28.0607 215.626 27.7541 217.662 29.0737 217.681C55.9961 218.038 82.0319 228.498 102.839 245.297C103.866 246.128 105.145 244.487 104.101 243.663L104.088 243.662Z" fill="#C3937C"/>
<path d="M128.669 255.987C114.251 249.109 100.618 234.672 96.7998 218.9C95.3841 213.134 95.5433 207.137 94.9699 201.244C94.1712 193.655 92.057 186.267 88.7216 179.411C88.1515 178.225 86.2244 178.965 86.8019 180.169C90.4317 187.736 92.589 195.929 93.1594 204.312C93.6206 210.661 93.7616 216.972 95.8814 223.039C101.064 237.896 113.76 251.156 127.874 257.885C129.069 258.451 129.87 256.554 128.677 255.982L128.669 255.987Z" fill="#C3937C"/>
<path d="M130.647 257.155C131.749 252.988 130.282 247.922 129.291 243.894C127.254 235.854 124.49 228.017 121.034 220.481C113.939 204.714 104.084 187.95 88.9551 178.713C87.8521 178.021 86.5605 179.653 87.6932 180.347C102.514 189.39 112.165 205.798 119.115 221.238C122.287 228.175 124.887 235.362 126.888 242.726C128.002 246.918 129.772 252.481 128.613 256.86C128.276 258.141 130.317 258.414 130.652 257.146L130.647 257.155Z" fill="#C3937C"/>
<path d="M64.8649 208.499C32.51 206.208 12.9599 177.402 2.00242 149.926C1.50869 148.694 -0.40818 149.455 0.082759 150.683C11.3122 178.831 31.5028 208.196 64.5715 210.538C65.89 210.633 66.19 208.595 64.8649 208.499Z" fill="#C3937C"/>
<path d="M65.309 208.943C56.2168 193.94 45.5126 179.933 34.3966 166.386C26.2351 156.433 14.8869 147.544 1.16199 148.931C-0.15959 149.065 0.0745841 151.107 1.39616 150.974C16.6613 149.434 27.4502 160.915 36.0278 171.717C45.8655 184.105 55.4387 196.621 63.6615 210.187C64.3489 211.32 65.9937 210.072 65.3118 208.947L65.309 208.943Z" fill="#C3937C"/>
<path d="M77.588 220.298C91.7734 198.57 78.3527 173.573 65.7478 154.861C65.0092 153.761 63.3616 155.005 64.1011 156.099C76.1003 173.918 89.5599 198.183 75.9524 219.036C75.244 220.149 76.8507 221.404 77.5796 220.287L77.588 220.298Z" fill="#C3937C"/>
<path d="M77.2214 219.267C69.5242 206.757 62.8487 192.691 63.2708 177.646C63.4847 170.116 66.0174 162.679 65.4208 155.124C65.3124 153.8 63.2705 154.046 63.3761 155.366C64.0372 163.464 61.1325 171.524 61.2092 179.643C61.3467 194.423 67.9928 208.164 75.5665 220.493C76.2585 221.616 77.8995 220.372 77.2131 219.256L77.2214 219.267Z" fill="#C3937C"/>
<path d="M36.5774 151.681C29.9333 147.179 23.078 142.551 18.0719 136.179C14.6688 131.848 13.166 127.565 11.9274 122.346C9.77927 113.315 8.38869 104.099 5.87191 95.1358C5.50292 93.8683 3.59906 94.6312 3.95225 95.8931C6.67108 105.598 8.04484 115.646 10.5738 125.401C13.9247 138.331 24.7519 146.154 35.3156 153.315C36.4017 154.055 37.6756 152.43 36.5774 151.681Z" fill="#C3937C"/>
<path d="M37.1537 151.231C32.7795 129.702 21.9222 110.046 6.03578 94.8963C5.08013 93.9883 3.82109 95.6254 4.77397 96.5297C20.25 111.317 30.8317 130.482 35.109 151.472C35.3719 152.761 37.4184 152.53 37.1537 151.231Z" fill="#C3937C"/>
<path d="M42.9622 166.96C52.438 154.52 68.9398 136.917 59.8497 120.007C59.2284 118.854 57.304 119.597 57.9299 120.764C66.6198 136.924 50.4185 153.778 41.3323 165.705C40.5327 166.759 42.1552 168.019 42.9622 166.96Z" fill="#C3937C"/>
<path d="M42.793 166.013C41.0053 149.864 47.1187 132.442 59.2405 121.423C60.2148 120.54 58.9911 118.887 58.0055 119.778C45.336 131.302 38.8758 149.333 40.7483 166.254C40.8939 167.573 42.9386 167.332 42.793 166.013Z" fill="#C3937C"/>
<path d="M32.9157 121.715C44.4537 113 53.0913 101.007 57.69 87.3143C58.1092 86.0643 56.2154 85.2573 55.7878 86.5194C51.3307 99.8728 42.9225 111.572 31.6779 120.066C30.6162 120.864 31.8539 122.512 32.9129 121.711L32.9157 121.715Z" fill="#C3937C"/>
<path d="M32.8712 119.692C31.8875 104.351 41.8165 91.0477 56.6998 87.2684C57.9862 86.9405 57.2178 85.0324 55.9491 85.3528C48.3622 87.2388 41.6776 91.7432 37.0779 98.0691C32.4782 104.395 30.2598 112.134 30.8153 119.919C30.9032 121.246 32.9489 120.998 32.8629 119.681L32.8712 119.692Z" fill="#C3937C"/>
<path d="M29.8463 96.1455C19.9763 86.9589 14.3856 73.0643 15.4518 59.5683C15.5584 58.2513 13.5207 57.9589 13.4132 59.2824C12.2837 73.5635 18.1288 88.0685 28.5846 97.779C29.5514 98.6785 30.8104 97.0413 29.8463 96.1455Z" fill="#C3937C"/>
<path d="M30.8004 96.027C30.982 89.0933 29.7027 82.2042 27.0455 75.807C24.3883 69.4097 20.4126 63.6473 15.3764 58.8935C14.4208 57.9856 13.1617 59.6227 14.1146 60.5269C18.8803 65.0439 22.645 70.5097 25.1674 76.5738C27.6898 82.638 28.9141 89.1667 28.7619 95.7412C28.7325 97.0525 30.773 97.3485 30.8004 96.027Z" fill="#C3937C"/>
<path d="M36.0045 74.4216C45.7897 68.3928 54.2232 59.3843 56.4534 47.8187C56.7042 46.5152 54.687 46.2424 54.4148 47.5329C52.2885 58.5617 44.0659 67.0517 34.7696 72.7769C33.6428 73.4726 34.8815 75.1145 36.0045 74.4216Z" fill="#C3937C"/>
<path d="M36.2 73.572C37.9872 62.9374 44.9895 52.9542 55.1885 48.9201C56.4249 48.4324 55.6704 46.5196 54.4405 47.0082C43.5489 51.3073 36.0749 61.9351 34.1586 73.2824C33.945 74.6043 35.9725 74.8754 36.1972 73.5682L36.2 73.572Z" fill="#C3937C"/>
<path d="M142.273 265.225C121.745 271.133 100.923 275.953 79.8935 279.664C78.9832 279.826 79.1426 281.256 80.0566 281.092C101.204 277.351 122.144 272.495 142.787 266.546C143.678 266.289 143.146 264.953 142.256 265.203L142.273 265.225Z" fill="#C3937C"/>
<path d="M142.97 265.317C133.508 269.424 124.105 273.749 114.498 277.501C105.553 280.994 93.6064 285.882 84.111 282.169C83.2645 281.818 82.6824 283.161 83.5475 283.499C92.2252 286.891 102.534 283.361 110.873 280.388C121.97 276.439 132.695 271.336 143.496 266.653C144.349 266.284 143.825 264.942 142.965 265.309L142.97 265.317Z" fill="#C3937C"/>
<path d="M138.928 267.274C127.419 277.263 112.232 280.917 98.1478 285.722C97.2671 286.023 97.7951 287.363 98.6749 287.068C112.895 282.219 128.187 278.51 139.795 268.429C140.501 267.817 139.636 266.666 138.933 267.282L138.928 267.274Z" fill="#C3937C"/>
<path d="M141.348 264.398C121.391 265.539 101.655 269.254 82.6329 275.451C81.7513 275.736 82.2822 277.079 83.1638 276.794C102.065 270.648 121.674 266.968 141.502 265.845C142.43 265.792 142.264 264.36 141.336 264.413L141.348 264.398Z" fill="#C3937C"/>
<path d="M136.938 263.694C123.733 261.853 110.287 262.549 97.3238 265.743C96.4348 265.963 96.5905 267.397 97.4897 267.174C110.332 264 123.654 263.303 136.74 265.121C136.833 265.134 136.929 265.128 137.021 265.104C137.113 265.08 137.199 265.038 137.275 264.981C137.351 264.924 137.414 264.852 137.463 264.77C137.511 264.689 137.543 264.598 137.556 264.505C137.569 264.411 137.564 264.315 137.54 264.223C137.517 264.132 137.475 264.046 137.418 263.97C137.361 263.895 137.29 263.831 137.208 263.783C137.126 263.735 137.036 263.704 136.942 263.691L136.938 263.694Z" fill="#C3937C"/>
<path d="M101.742 242.369C89.8201 239.499 77.8801 236.682 65.9717 233.737C54.6216 230.929 40.8972 228.484 32.3479 219.884C31.6898 219.217 30.8185 220.377 31.4617 221.032C39.5694 229.191 52.0384 231.703 62.8153 234.43C75.6837 237.699 88.6286 240.69 101.532 243.805C102.435 244.021 102.631 242.59 101.739 242.372L101.742 242.369Z" fill="#C3937C"/>
<path d="M96.0835 240.762C86.9863 238.712 77.702 237.585 68.3715 237.398C58.7224 237.221 48.1489 237.373 40.7213 230.189C40.0483 229.534 39.1769 230.694 39.835 231.337C46.4436 237.725 55.8453 238.651 64.6067 238.787C75.2152 238.946 85.5474 239.893 95.8745 242.191C96.7788 242.394 96.9813 240.964 96.0797 240.765L96.0835 240.762Z" fill="#C3937C"/>
<path d="M100.115 242.251L74.8289 243.196C67.1866 243.48 59.3719 243.992 52.3974 240.307C51.5799 239.87 51.0191 241.203 51.8376 241.633C58.0615 244.924 64.999 244.967 71.8865 244.734C81.3482 244.413 90.809 244.029 100.272 243.678C101.2 243.642 101.031 242.213 100.109 242.243L100.115 242.251Z" fill="#C3937C"/>
<path d="M97.1209 240.064C75.6742 230.128 52.9088 223.627 30.2002 217.218C29.3192 216.968 28.7547 218.304 29.6431 218.548C52.3481 224.96 75.1031 231.463 96.5601 241.397C97.4009 241.787 97.9617 240.454 97.1209 240.064Z" fill="#C3937C"/>
<path d="M129.733 255.449C121.799 246.225 116.487 235.099 112.786 223.566C109.43 213.067 107.472 202.21 103.04 192.061C102.67 191.212 101.325 191.741 101.693 192.597C106.302 203.158 108.237 214.504 111.858 225.395C115.596 236.582 120.839 247.352 128.56 256.33C129.166 257.037 130.321 256.169 129.715 255.463L129.733 255.449Z" fill="#C3937C"/>
<path d="M128.916 255.819C118.587 244.515 111.736 230.464 106.223 216.284C101.485 204.124 97.7473 191.183 89.4987 180.819C88.9188 180.093 87.764 180.961 88.3438 181.687C97.0924 192.686 100.665 206.57 105.895 219.371C111.357 232.752 117.953 245.938 127.768 256.681C128.397 257.37 129.552 256.503 128.923 255.813L128.916 255.819Z" fill="#C3937C"/>
<path d="M126.571 254.729C112.699 239.949 103.833 221.872 95.0358 203.807C94.63 202.98 93.282 203.505 93.6868 204.339C102.536 222.511 111.451 240.724 125.412 255.6C126.048 256.284 127.203 255.416 126.567 254.732L126.571 254.729Z" fill="#C3937C"/>
<path d="M120.819 252.129C111.283 239.91 102.329 227.311 95.73 213.222C95.3419 212.387 93.9938 212.912 94.3838 213.757C101.037 227.957 110.046 240.677 119.66 253C120.218 253.742 121.384 252.866 120.815 252.132L120.819 252.129Z" fill="#C3937C"/>
<path d="M130.054 254.673C123.16 240.602 117.361 226.539 114.702 210.999C114.547 210.087 113.115 210.252 113.269 211.164C115.949 226.816 121.764 241.024 128.709 255.202C129.115 256.03 130.459 255.507 130.058 254.67L130.054 254.673Z" fill="#C3937C"/>
<path d="M77.2038 217.683C76.6213 199.214 72.6045 181.027 65.3582 164.051C64.9925 163.199 63.6537 163.729 64.012 164.587C71.2072 181.448 75.1946 199.511 75.7705 217.854C75.7993 218.785 77.2335 218.608 77.2001 217.686L77.2038 217.683Z" fill="#C3937C"/>
<path d="M77.3917 217.763C73.9906 204.188 69.258 190.987 63.2627 178.35C62.8719 177.511 61.5266 178.04 61.9137 178.881C67.8614 191.405 72.5643 204.486 75.9547 217.937C76.1724 218.824 77.6075 218.663 77.3842 217.768L77.3917 217.763Z" fill="#C3937C"/>
<path d="M75.9685 217.078C73.6724 206.353 68.6992 196.129 63.6697 186.458C63.2453 185.645 61.901 186.167 62.3207 186.99C67.2852 196.535 72.2687 206.664 74.5464 217.241C74.739 218.141 76.1714 217.977 75.9797 217.07L75.9685 217.078Z" fill="#C3937C"/>
<path d="M78.3283 218.226C79.3668 201.185 77.8056 183.903 72.8969 167.533C72.6326 166.646 71.2892 167.185 71.5507 168.068C76.3684 184.193 77.8955 201.252 76.8833 218.04C76.8274 218.959 78.2529 219.166 78.3097 218.24L78.3283 218.226Z" fill="#C3937C"/>
<path d="M63.4381 206.824C52.0363 198.492 39.9589 190.999 29.2868 181.707C18.89 172.649 10.5184 161.593 2.54705 150.411C1.98951 149.668 0.871883 150.508 1.39589 151.276C9.14235 162.151 17.275 172.928 27.2691 181.853C38.2171 191.629 50.7447 199.341 62.5491 207.968C63.2976 208.515 64.1857 207.377 63.4381 206.824Z" fill="#C3937C"/>
<path d="M61.7761 206.047C52.9171 199.898 42.9281 195.691 33.8761 189.844C24.3886 183.742 16.2286 175.796 9.87842 166.476C9.35814 165.706 8.20327 166.574 8.72356 167.344C14.872 176.36 22.6941 184.112 31.768 190.18C41.1322 196.442 51.6161 200.766 60.8629 207.197C61.6179 207.722 62.5125 206.585 61.7519 206.053L61.7761 206.047Z" fill="#C3937C"/>
<path d="M63.8841 207.558C56.2715 204.957 48.8415 201.855 41.6429 198.271C33.9455 194.485 26.4626 190.27 20.7913 183.695C20.1816 182.991 19.0267 183.859 19.6364 184.563C24.87 190.624 31.5629 194.765 38.638 198.374C46.5983 202.476 54.8499 205.99 63.327 208.888C64.1987 209.18 64.7688 207.851 63.8879 207.555L63.8841 207.558Z" fill="#C3937C"/>
<path d="M40.4209 190.629C27.3097 178.1 15.4241 164.35 4.92463 149.565C4.36709 148.822 3.24948 149.662 3.76976 150.433C14.3587 165.314 26.3402 179.153 39.5533 191.763C40.23 192.416 41.1015 191.256 40.4396 190.615L40.4209 190.629Z" fill="#C3937C"/>
<path d="M51.9683 198.643C44.6188 188.956 36.8763 179.576 28.928 170.38C22.3496 162.767 15.8834 154.56 6.8937 149.665C6.08365 149.223 5.52669 150.553 6.33675 150.995C15.918 156.212 22.7905 165.427 29.7657 173.56C37.0132 182.016 44.0782 190.634 50.8134 199.51C50.928 199.663 51.0987 199.764 51.2881 199.79C51.4774 199.817 51.6698 199.767 51.823 199.652C51.9761 199.537 52.0774 199.366 52.1047 199.176C52.1319 198.987 52.0829 198.795 51.9683 198.643Z" fill="#C3937C"/>
<path d="M59.1261 203.061C45.0782 184.958 32.3161 165.331 14.0335 151.095C13.9585 151.037 13.8727 150.994 13.7811 150.969C13.6895 150.944 13.5938 150.938 13.4995 150.95C13.4053 150.962 13.3142 150.992 13.2316 151.039C13.1489 151.087 13.0764 151.15 13.018 151.225C12.9596 151.3 12.9166 151.386 12.8914 151.477C12.8661 151.569 12.8592 151.665 12.8709 151.759C12.8826 151.853 12.9128 151.944 12.9597 152.026C13.0067 152.109 13.0694 152.181 13.1444 152.239C31.3406 166.383 43.9976 185.932 57.9647 203.928C58.5223 204.67 59.6883 203.794 59.1196 203.06L59.1261 203.061Z" fill="#C3937C"/>
<path d="M35.738 149.896C25.0122 135.162 15.5286 119.785 7.72876 103.282C7.32024 102.427 5.98886 102.975 6.37973 103.813C14.2307 120.423 23.7793 135.926 34.5794 150.767C35.1369 151.509 36.2806 150.65 35.7342 149.899L35.738 149.896Z" fill="#C3937C"/>
<path d="M34.2419 148.796C23.3204 139.529 16.6686 127.465 10.1831 114.916C9.74476 114.084 8.41435 114.625 8.83686 115.452C15.4366 128.222 22.2389 140.51 33.3566 149.938C34.0641 150.538 34.9429 149.396 34.2456 148.793L34.2419 148.796Z" fill="#C3937C"/>
<path d="M35.0609 148.692C27.7888 130.346 18.3783 112.87 6.17288 97.3138C5.61534 96.5713 4.44553 97.4503 5.01797 98.1817C17.1509 113.641 26.4816 130.98 33.7101 149.213C33.7805 149.391 33.9189 149.534 34.0949 149.61C34.2709 149.686 34.4701 149.688 34.6486 149.617C34.8271 149.546 34.9704 149.407 35.0468 149.231C35.1233 149.055 35.1267 148.856 35.0563 148.678L35.0609 148.692Z" fill="#C3937C"/>
<path d="M31.4113 145.981C24.2555 140.51 17.5728 133.853 13 126.041C12.5244 125.236 11.3696 126.104 11.8451 126.908C16.469 134.805 23.2958 141.591 30.5279 147.133C30.6031 147.191 30.689 147.233 30.7808 147.258C30.8725 147.282 30.9683 147.289 31.0627 147.276C31.2532 147.251 31.4262 147.152 31.5438 147C31.6613 146.847 31.7137 146.655 31.6893 146.465C31.665 146.274 31.566 146.102 31.4141 145.985L31.4113 145.981Z" fill="#C3937C"/>
<path d="M43.3992 163.995C43.5406 157.199 46.883 149.699 49.022 143.289C51.0872 137.091 52.8592 128.407 57.4077 123.538C58.0552 122.848 56.8975 121.981 56.2659 122.654C51.532 127.726 49.8308 136.31 47.6909 142.727C45.4941 149.308 42.1293 156.778 41.9523 163.799C41.9327 164.719 43.373 164.915 43.3815 164.002L43.3992 163.995Z" fill="#C3937C"/>
<path d="M43.6018 163.993C49.9573 150.634 62.2539 137.201 58.7472 121.178C58.5509 120.28 57.1185 120.444 57.3176 121.346C60.7538 137.097 48.5339 150.275 42.2669 163.434C41.8705 164.272 43.1988 164.83 43.599 163.989L43.6018 163.993Z" fill="#C3937C"/>
<path d="M43.303 161.733C46.4673 155.4 49.4587 148.977 52.0009 142.351C54.4031 136.028 55.6505 129.696 56.7456 123.06C56.8983 122.138 55.4709 121.944 55.3192 122.86C54.1455 129.833 52.7686 136.443 50.1799 143.046C47.7518 149.226 44.9311 155.248 41.9598 161.186C41.5476 162.018 42.8768 162.57 43.2918 161.741L43.303 161.733Z" fill="#C3937C"/>
<path d="M29.2936 95.3474C26.6073 84.0091 23.3453 73.0684 18.0999 62.5904C17.6867 61.7685 16.3414 62.2973 16.7536 63.1258C21.9611 73.4755 25.212 84.2619 27.8789 95.5044C28.0892 96.3976 29.5244 96.2367 29.3085 95.3362L29.2936 95.3474Z" fill="#C3937C"/>
<path d="M28.567 93.4715C23.3547 82.9259 18.9544 71.9963 15.4041 60.7774C15.1259 59.8947 13.7824 60.4337 14.0579 61.3127C17.6102 72.5309 22.0106 83.4604 27.2208 94.007C27.6266 94.8345 28.9718 94.3055 28.567 93.4715Z" fill="#C3937C"/>
<path d="M33.3457 118.981C39.3024 108.127 46.16 97.7896 53.8458 88.0774C54.4217 87.3543 53.2827 86.4738 52.7003 87.1959C44.9442 97.0078 38.0258 107.452 32.0183 118.417C31.5726 119.228 32.9019 119.779 33.3476 118.968L33.3457 118.981Z" fill="#C3937C"/>
<path d="M33.5686 116.717C36.2001 107.463 41.2065 99.9439 46.7734 92.2243C47.3139 91.4696 46.1786 90.5863 45.6315 91.3401C39.9771 99.1837 34.9111 106.748 32.2226 116.166C31.9722 117.051 33.307 117.61 33.5509 116.725L33.5686 116.717Z" fill="#C3937C"/>
<path d="M33.8711 118.494C41.7391 109.19 51.2819 99.2841 56.4403 88.0791C56.8135 87.218 55.4992 86.6783 55.1084 87.5237C53.0487 91.9749 49.9678 96.0671 46.9791 99.9795C42.395 105.997 37.5979 111.855 32.7135 117.627C32.0939 118.354 33.2524 119.214 33.8553 118.511L33.8711 118.494Z" fill="#C3937C"/>
<path d="M37.9797 72.3567C43.1264 64.2094 49.0448 56.6088 54.8312 48.91C55.3867 48.1674 54.2476 47.2869 53.6857 48.0286C47.903 55.7246 41.9808 63.3281 36.8379 71.4725C36.3466 72.254 37.4996 73.1298 37.9797 72.3567Z" fill="#C3937C"/>
<path d="M36.8233 72.1283C40.4974 65.1862 45.2977 58.9136 48.969 51.9679C49.4026 51.1484 48.0733 50.5966 47.6397 51.4161C43.9656 58.3581 39.1653 64.6307 35.494 71.5764C35.0604 72.3959 36.3924 72.9514 36.8261 72.132L36.8233 72.1283Z" fill="#C3937C"/>
<path d="M44.6038 66.9609C47.0271 61.8066 50.012 57.0898 54.5199 53.5398C55.251 52.9614 54.3868 51.8104 53.6557 52.3889C48.9577 56.1048 45.7959 61.0361 43.2784 66.4064C42.8847 67.248 44.2102 67.8026 44.6038 66.9609Z" fill="#C3937C"/>
</g>
</svg>
