<svg width="18" height="18" viewBox="0 0 18 18" fill="none" xmlns="http://www.w3.org/2000/svg">
<path fill-rule="evenodd" clip-rule="evenodd" d="M6.94673 2.13241C7.1469 1.90885 7.39196 1.73002 7.66593 1.60759C7.93989 1.48516 8.23659 1.42188 8.53667 1.42188C8.83674 1.42188 9.13345 1.48516 9.40741 1.60759C9.68137 1.73002 9.92643 1.90885 10.1266 2.13241L10.6246 2.68871C10.6957 2.76832 10.7839 2.83088 10.8826 2.87177C10.9812 2.91265 11.0878 2.93081 11.1944 2.92489L11.9413 2.88363C12.2409 2.86718 12.5405 2.91406 12.8207 3.02121C13.1009 3.12836 13.3553 3.29338 13.5674 3.50549C13.7796 3.71761 13.9446 3.97206 14.0517 4.25225C14.1589 4.53244 14.2058 4.83207 14.1893 5.13159L14.148 5.87855C14.1422 5.98504 14.1604 6.09149 14.2013 6.19C14.2422 6.28851 14.3047 6.37656 14.3842 6.44765L14.9412 6.94562C15.1649 7.14579 15.3438 7.3909 15.4663 7.66493C15.5889 7.93896 15.6522 8.23575 15.6522 8.53591C15.6522 8.83608 15.5889 9.13287 15.4663 9.4069C15.3438 9.68093 15.1649 9.92603 14.9412 10.1262L14.3842 10.6242C14.3046 10.6953 14.2421 10.7835 14.2012 10.8822C14.1603 10.9808 14.1421 11.0874 14.148 11.194L14.1893 11.9409C14.2058 12.2405 14.1589 12.5401 14.0517 12.8203C13.9446 13.1005 13.7796 13.3549 13.5674 13.567C13.3553 13.7792 13.1009 13.9442 12.8207 14.0513C12.5405 14.1585 12.2409 14.2054 11.9413 14.1889L11.1944 14.1477C11.0879 14.1418 10.9815 14.16 10.8829 14.2009C10.7844 14.2418 10.6964 14.3043 10.6253 14.3838L10.1273 14.9408C9.92714 15.1645 9.68204 15.3434 9.40801 15.466C9.13398 15.5885 8.83719 15.6518 8.53702 15.6518C8.23686 15.6518 7.94007 15.5885 7.66604 15.466C7.39201 15.3434 7.1469 15.1645 6.94673 14.9408L6.44876 14.3838C6.3776 14.3042 6.28942 14.2417 6.19078 14.2008C6.09214 14.1599 5.98556 14.1417 5.87894 14.1477L5.13199 14.1889C4.83247 14.2054 4.53284 14.1585 4.25265 14.0513C3.97246 13.9442 3.71801 13.7792 3.50589 13.567C3.29377 13.3549 3.12876 13.1005 3.02161 12.8203C2.91445 12.5401 2.86757 12.2405 2.88402 11.9409L2.92528 11.194C2.9311 11.0875 2.91289 10.9811 2.87201 10.8825C2.83113 10.784 2.76862 10.696 2.68911 10.6249L2.13281 10.1269C1.90913 9.92675 1.7302 9.68164 1.6077 9.40761C1.48519 9.13358 1.42187 8.83679 1.42188 8.53662C1.42188 8.23646 1.48519 7.93967 1.6077 7.66564C1.7302 7.39161 1.90913 7.1465 2.13281 6.94633L2.68911 6.44836C2.76871 6.3772 2.83128 6.28903 2.87217 6.19038C2.91305 6.09174 2.93121 5.98516 2.92528 5.87855L2.88402 5.13159C2.86757 4.83207 2.91445 4.53244 3.02161 4.25225C3.12876 3.97206 3.29377 3.71761 3.50589 3.50549C3.71801 3.29338 3.97246 3.12836 4.25265 3.02121C4.53284 2.91406 4.83247 2.86718 5.13199 2.88363L5.87894 2.92489C5.98544 2.9307 6.09188 2.91249 6.19039 2.87161C6.2889 2.83073 6.37696 2.76822 6.44805 2.68871L6.94602 2.13241H6.94673ZM11.1738 5.89918C11.3071 6.03258 11.382 6.21349 11.382 6.40212C11.382 6.59076 11.3071 6.77167 11.1738 6.90507L6.90547 11.1734C6.7713 11.3029 6.5916 11.3747 6.40508 11.373C6.21856 11.3714 6.04013 11.2966 5.90824 11.1647C5.77634 11.0328 5.70153 10.8544 5.69991 10.6679C5.69829 10.4813 5.76999 10.3016 5.89957 10.1675L10.1679 5.89918C10.3013 5.76581 10.4822 5.69089 10.6708 5.69089C10.8594 5.69089 11.0404 5.76581 11.1738 5.89918ZM6.75821 5.69074C6.47521 5.69074 6.20379 5.80316 6.00368 6.00328C5.80356 6.20339 5.69114 6.47481 5.69114 6.75781V6.76493C5.69114 7.04793 5.80356 7.31935 6.00368 7.51946C6.20379 7.71958 6.47521 7.832 6.75821 7.832H6.76533C7.04833 7.832 7.31974 7.71958 7.51986 7.51946C7.71997 7.31935 7.8324 7.04793 7.8324 6.76493V6.75781C7.8324 6.47481 7.71997 6.20339 7.51986 6.00328C7.31974 5.80316 7.04833 5.69074 6.76533 5.69074H6.75821ZM10.3151 9.24765C10.0321 9.24765 9.7607 9.36007 9.56059 9.56019C9.36047 9.7603 9.24805 10.0317 9.24805 10.3147V10.3218C9.24805 10.6048 9.36047 10.8763 9.56059 11.0764C9.7607 11.2765 10.0321 11.3889 10.3151 11.3889H10.3222C10.6052 11.3889 10.8767 11.2765 11.0768 11.0764C11.2769 10.8763 11.3893 10.6048 11.3893 10.3218V10.3147C11.3893 10.0317 11.2769 9.7603 11.0768 9.56019C10.8767 9.36007 10.6052 9.24765 10.3222 9.24765H10.3151Z" fill="white"/>
</svg>
