<svg width="16" height="16" viewBox="0 0 16 16" fill="none" xmlns="http://www.w3.org/2000/svg">
<path d="M11.5259 1.28125H3.84299C3.50338 1.28125 3.17768 1.41616 2.93755 1.6563C2.69741 1.89643 2.5625 2.22213 2.5625 2.56174V12.8056C2.5625 13.1452 2.69741 13.4709 2.93755 13.7111C3.17768 13.9512 3.50338 14.0861 3.84299 14.0861H11.5259C11.8655 14.0861 12.1912 13.9512 12.4314 13.7111C12.6715 13.4709 12.8064 13.1452 12.8064 12.8056V2.56174C12.8064 2.22213 12.6715 1.89643 12.4314 1.6563C12.1912 1.41616 11.8655 1.28125 11.5259 1.28125Z" stroke="#FF6A00" stroke-width="1.42276" stroke-linecap="round" stroke-linejoin="round"/>
<path d="M5.76524 10.2466L5.98805 10.0929C6.92601 9.44434 8.44659 9.44434 9.3839 10.0929L9.60671 10.2466M5.125 4.48438H5.1314M10.247 4.48438H10.2534M7.68598 4.48438H7.69238M7.68598 7.04535H7.69238M10.247 7.04535H10.2534M5.125 7.04535H5.1314M6.40549 14.088V9.92645M8.96646 9.92645V14.088" stroke="#FF6A00" stroke-width="1.42276" stroke-linecap="round" stroke-linejoin="round"/>
</svg>
