<svg width="16" height="16" viewBox="0 0 16 16" fill="none" xmlns="http://www.w3.org/2000/svg">
<path d="M3.20236 7.04383L4.16273 4.16273H11.2054L12.1658 7.04383M11.2054 10.245C10.9507 10.245 10.7064 10.1439 10.5263 9.96376C10.3462 9.78366 10.245 9.53938 10.245 9.28468C10.245 9.02997 10.3462 8.7857 10.5263 8.6056C10.7064 8.42549 10.9507 8.32431 11.2054 8.32431C11.4601 8.32431 11.7044 8.42549 11.8845 8.6056C12.0646 8.7857 12.1658 9.02997 12.1658 9.28468C12.1658 9.53938 12.0646 9.78366 11.8845 9.96376C11.7044 10.1439 11.4601 10.245 11.2054 10.245ZM4.16273 10.245C3.90802 10.245 3.66375 10.1439 3.48365 9.96376C3.30354 9.78366 3.20236 9.53938 3.20236 9.28468C3.20236 9.02997 3.30354 8.7857 3.48365 8.6056C3.66375 8.42549 3.90802 8.32431 4.16273 8.32431C4.41743 8.32431 4.66171 8.42549 4.84181 8.6056C5.02191 8.7857 5.12309 9.02997 5.12309 9.28468C5.12309 9.53938 5.02191 9.78366 4.84181 9.96376C4.66171 10.1439 4.41743 10.245 4.16273 10.245ZM12.1146 3.84261C11.9865 3.47127 11.628 3.20236 11.2054 3.20236H9.6048V1.92188H5.76334V3.20236H4.16273C3.74017 3.20236 3.38163 3.47127 3.25358 3.84261L1.92188 7.68407V12.806C1.92188 12.9758 1.98933 13.1387 2.1094 13.2587C2.22947 13.3788 2.39232 13.4463 2.56212 13.4463H3.20236C3.37217 13.4463 3.53501 13.3788 3.65508 13.2587C3.77515 13.1387 3.84261 12.9758 3.84261 12.806V12.1658H11.5255V12.806C11.5255 12.9758 11.593 13.1387 11.7131 13.2587C11.8331 13.3788 11.996 13.4463 12.1658 13.4463H12.806C12.9758 13.4463 13.1387 13.3788 13.2587 13.2587C13.3788 13.1387 13.4463 12.9758 13.4463 12.806V7.68407L12.1146 3.84261Z" fill="#FF6A00"/>
</svg>
