<svg width="16" height="16" viewBox="0 0 16 16" fill="none" xmlns="http://www.w3.org/2000/svg">
<path d="M4.48438 13.4463L5.76486 10.8853M8.32584 13.4463V10.8853L6.40511 8.96456L7.04535 5.12309L8.96608 7.68407L10.8868 8.96456M7.04535 2.56212C7.04535 2.73192 7.1128 2.89477 7.23287 3.01484C7.35294 3.13491 7.51579 3.20236 7.68559 3.20236C7.8554 3.20236 8.01825 3.13491 8.13832 3.01484C8.25838 2.89477 8.32584 2.73192 8.32584 2.56212C8.32584 2.39232 8.25838 2.22947 8.13832 2.1094C8.01825 1.98933 7.8554 1.92188 7.68559 1.92188C7.51579 1.92188 7.35294 1.98933 7.23287 2.1094C7.1128 2.22947 7.04535 2.39232 7.04535 2.56212Z" stroke="#FF6A00" stroke-width="1.42276" stroke-linecap="round" stroke-linejoin="round"/>
<path d="M6.40417 8.96608L5.23444 8.18626C5.01458 8.03974 4.84543 7.8288 4.75017 7.58236C4.65492 7.33591 4.63823 7.06604 4.7024 6.80974L4.88167 6.09459C4.95088 5.81768 5.11064 5.57183 5.33556 5.39609C5.56048 5.22035 5.83767 5.1248 6.1231 5.12462H7.04441L9.60539 5.76486L11.5261 4.48438M10.8859 7.68559V13.4478M10.2456 12.8075H11.5261" stroke="#FF6A00" stroke-width="1.42276" stroke-linecap="round" stroke-linejoin="round"/>
</svg>
