<svg width="72" height="72" viewBox="0 0 72 72" fill="none" xmlns="http://www.w3.org/2000/svg">
<circle cx="36" cy="36" r="36" fill="white"/>
<circle cx="35.9987" cy="35.9987" r="33.0612" fill="#FF6A00"/>
<path d="M36.0022 51.1853C31.9293 47.7195 28.8875 44.5006 26.8769 41.5287C24.8662 38.5567 23.8604 35.8053 23.8594 33.2746C23.8594 29.4799 25.0802 26.4568 27.522 24.2054C29.9637 21.9539 32.7904 20.8281 36.0022 20.8281C39.215 20.8281 42.0423 21.9539 44.484 24.2054C46.9257 26.4568 48.1461 29.4799 48.1451 33.2746L51.3326 30.0871L53.4576 32.2121L46.6272 39.0424L39.7969 32.2121L41.9219 30.0871L45.1094 33.2746C45.1094 30.5171 44.23 28.2596 42.4713 26.5019C40.7126 24.7442 38.5563 23.8649 36.0022 23.8638C33.4472 23.8638 31.2903 24.7432 29.5316 26.5019C27.7729 28.2606 26.8941 30.5181 26.8951 33.2746C26.8951 35.0707 27.6414 37.1264 29.1339 39.4416C30.6265 41.7568 32.9159 44.3306 36.0022 47.1629C36.5082 46.7076 36.9762 46.2649 37.4062 45.8348L38.6964 44.5446C38.5699 44.2917 38.4687 44.02 38.3929 43.7295C38.317 43.4391 38.279 43.1416 38.279 42.8371C38.279 41.7746 38.6458 40.8765 39.3795 40.1429C40.1131 39.4092 41.0112 39.0424 42.0737 39.0424C43.1362 39.0424 44.0342 39.4092 44.7679 40.1429C45.5015 40.8765 45.8683 41.7746 45.8683 42.8371C45.8683 43.8996 45.5015 44.7976 44.7679 45.5312C44.0342 46.2649 43.1362 46.6317 42.0737 46.6317C41.8713 46.6317 41.6876 46.619 41.5227 46.5937C41.3577 46.5684 41.1872 46.5305 41.0112 46.4799C40.2775 47.2388 39.4994 48.0104 38.6767 48.7946C37.854 49.5789 36.9625 50.3757 36.0022 51.1853Z" fill="white"/>
</svg>
