<svg width="428" height="428" viewBox="0 0 428 428" fill="none" xmlns="http://www.w3.org/2000/svg">
<path d="M92.1106 273.579H123.954C131.915 273.579 138.335 268.357 138.335 261.937C138.335 255.945 132.856 251.066 125.666 250.381C125.837 249.611 125.923 248.841 125.923 247.985C125.923 241.222 119.16 235.744 110.771 235.744C108.546 235.744 106.32 236.172 104.266 236.942C104.266 236.771 104.266 236.685 104.266 236.514C104.266 229.752 97.5034 224.273 89.1146 224.273C82.9514 224.273 77.6442 227.269 75.2474 231.635C73.621 231.378 71.909 231.207 70.2826 231.207C56.929 231.207 46.0578 239.681 45.2018 250.296C37.3266 250.381 30.9922 255.603 30.9922 261.937C30.9922 268.272 37.4122 273.579 45.373 273.579" fill="white"/>
<path d="M123.952 274.176H92.1086C91.7662 274.176 91.5094 273.919 91.5094 273.577C91.5094 273.234 91.7662 272.977 92.1086 272.977H123.952C131.57 272.977 137.733 268.013 137.733 261.849C137.733 256.285 132.512 251.577 125.664 250.807C125.493 250.807 125.321 250.721 125.236 250.55C125.15 250.379 125.065 250.208 125.15 250.037C125.321 249.266 125.407 248.581 125.407 247.811C125.407 241.391 118.901 236.169 110.855 236.169C108.715 236.169 106.575 236.597 104.521 237.368C104.349 237.453 104.093 237.453 103.921 237.282C103.75 237.197 103.665 236.94 103.665 236.769V236.597C103.665 236.512 103.665 236.512 103.665 236.426C103.665 230.006 97.159 224.785 89.1126 224.785C83.2918 224.785 78.0702 227.524 75.759 231.804C75.6734 232.061 75.4166 232.146 75.1598 232.146C73.5334 231.889 71.907 231.718 70.2806 231.718C57.355 231.718 46.5694 239.85 45.799 250.208C45.799 250.465 45.6278 250.721 45.2854 250.807C37.7526 250.893 31.675 255.857 31.675 261.935C31.675 268.013 37.8382 273.063 45.4566 273.063C45.799 273.063 46.0558 273.32 46.0558 273.662C46.0558 274.005 45.799 274.261 45.4566 274.261C37.1534 274.261 30.4766 268.783 30.4766 261.935C30.4766 255.429 36.811 249.951 44.7718 249.694C45.9702 238.909 57.0982 230.605 70.3662 230.605C71.907 230.605 73.5334 230.691 75.0742 230.948C77.6422 226.497 83.2062 223.672 89.2838 223.672C97.7582 223.672 104.692 229.236 104.949 236.084C106.832 235.485 108.886 235.142 110.855 235.142C119.501 235.142 126.605 240.963 126.605 247.982C126.605 248.581 126.52 249.266 126.434 249.865C133.625 250.807 138.932 255.943 138.932 261.935C138.932 268.697 132.255 274.176 123.952 274.176Z" fill="#D1D3D4"/>
<g opacity="0.1">
<path d="M225.212 345.135C293.998 345.135 349.76 289.373 349.76 220.587C349.76 151.801 293.998 96.0391 225.212 96.0391C156.426 96.0391 100.664 151.801 100.664 220.587C100.664 289.373 156.426 345.135 225.212 345.135Z" fill="white"/>
<path d="M225.215 95.9565C294.038 95.9565 349.763 151.768 349.763 220.505C349.763 289.241 293.952 345.053 225.215 345.053C156.479 345.053 100.667 289.327 100.667 220.59C100.667 151.768 156.393 95.9565 225.215 95.9565ZM225.215 94.8438C155.879 94.8438 99.5547 151.254 99.5547 220.505C99.5547 289.755 155.965 346.165 225.215 346.165C294.466 346.165 350.876 289.755 350.876 220.505C350.876 151.254 294.551 94.8438 225.215 94.8438Z" fill="#231F20"/>
<path d="M318.605 138.157C317.664 138.5 316.722 138.585 315.695 138.328L317.321 136.788C315.096 134.305 312.699 131.908 310.302 129.597C310.302 131.309 311.329 132.764 313.127 134.048C310.473 134.22 308.419 132.593 306.108 131.908C303.368 131.224 300.544 130.71 297.804 130.368L301.913 133.364C301.143 133.706 300.372 133.877 299.516 134.134C298.746 132.508 297.719 133.792 296.863 133.792C294.808 133.706 292.583 136.017 291.042 133.62C290.272 133.706 289.587 133.877 288.902 134.048C287.019 134.819 284.964 135.418 283.509 136.616C281.626 138.157 281.027 138.328 279.572 136.103L281.455 135.418L281.54 134.648L277.688 133.792C277.517 134.733 277.517 135.589 277.517 136.531C277.688 137.13 277.945 137.644 278.288 138.157C277.175 138.243 275.976 138.414 274.864 138.671C273.751 139.013 272.724 139.527 271.696 139.955L272.638 141.838L267.502 140.982C267.416 141.153 267.416 141.324 267.331 141.496L269.3 142.78C266.304 143.636 264.506 142.095 264.506 139.099L261.938 137.729C262.88 137.644 263.736 137.729 264.592 138.072C267.416 138.671 270.241 139.356 272.98 137.986C274.35 137.216 274.35 136.274 272.98 135.589C271.354 134.648 269.556 133.963 267.759 133.364C264.592 132.508 261.339 131.823 258.086 131.138L258.6 130.282C257.144 129.854 255.604 129.512 254.063 129.34C253.207 129.255 252.351 129.854 251.409 130.196L252.18 128.484C250.639 129.169 249.44 130.282 248.584 130.111C246.616 129.683 245.075 131.224 243.02 130.796C241.822 130.539 240.281 132.336 239.425 132.85C238.484 132.936 237.542 133.192 236.6 133.449C235.744 133.963 234.974 134.562 234.204 135.247L237.371 134.476C235.916 136.274 234.375 138.328 232.663 140.212C231.464 141.496 230.18 143.208 228.64 143.636C226.5 144.235 224.616 145.348 222.99 146.888C222.391 147.573 222.048 148.515 222.134 149.371C222.305 150.655 222.733 152.024 223.247 153.223C223.846 154.592 225.387 155.363 226.842 154.849C228.04 154.25 229.667 152.709 230.352 153.052C231.464 153.565 231.978 155.363 232.834 156.647C233.005 156.904 233.091 157.16 233.262 157.417C233.947 158.872 233.861 162.382 236.686 158.787C238.912 159.3 238.912 157.417 239.083 156.219C239.168 154.935 239.939 153.822 241.052 153.223C242.592 152.367 242.592 150.997 241.223 150.056C239.511 148.857 239.34 147.659 240.795 146.118C241.565 145.262 242.764 144.834 243.62 144.064C244.476 143.293 244.989 142.18 245.845 141.496C246.872 140.64 247.985 140.04 249.184 139.612C249.868 139.441 250.81 140.04 251.837 140.383C249.783 142.009 248.242 143.208 246.787 144.406C245.931 145.091 244.989 149.2 245.76 149.628C247.129 150.484 248.756 150.997 250.382 151.168C251.837 151.254 253.292 150.484 254.748 150.227C255.518 150.227 256.203 150.398 256.888 150.655V151.596C255.604 151.682 254.32 151.853 253.036 151.939C252.008 152.024 250.981 152.11 250.04 152.281C248.67 152.624 248.499 153.48 249.44 154.421C250.724 155.62 250.296 156.39 249.269 157.332C246.701 155.192 246.102 155.448 245.503 158.701C245.417 159.472 245.417 160.242 245.503 161.012C244.476 161.44 243.106 162.553 242.507 162.211C239.768 160.927 237.97 163.324 235.573 163.495C234.803 161.612 233.519 162.724 232.235 162.81C231.379 162.724 230.608 162.382 230.009 161.783C229.667 161.526 229.41 160.499 229.667 160.242C230.78 159.044 230.951 157.674 230.352 156.048C227.099 157.845 227.099 157.845 227.869 161.184C227.955 161.868 228.04 162.553 228.04 163.238L223.161 165.292C221.62 166.833 220.508 167.946 219.395 169.059C218.967 169.401 218.368 169.658 218.196 170.172C217.169 172.14 215.372 172.911 213.317 172.055C213.403 172.74 213.488 173.339 213.574 174.109L209.294 173.938C210.492 175.736 212.033 176.934 213.317 178.389C215.029 180.358 213.66 182.498 213.403 184.467C209.808 184.724 206.127 183.097 202.617 185.237C204.586 189.26 201.248 193.455 203.644 197.478L206.041 197.221L207.411 199.104C211.006 198.248 214.516 197.735 215.628 194.568C215.628 193.369 215.372 192.513 215.714 192C216.656 190.887 217.597 189.86 218.624 188.832C219.224 188.148 220.336 187.292 220.251 186.521C220.165 184.21 221.535 184.296 222.819 184.809C223.932 185.408 225.301 185.152 226.157 184.21C226.928 183.611 227.784 183.012 228.725 182.498C229.324 183.268 229.924 184.124 230.608 184.895C231.636 186.35 232.92 187.634 234.204 188.747C236.515 190.459 239.34 191.743 238.312 195.509C238.912 194.653 239.596 193.797 239.939 193.198L239.168 190.459L241.908 191.657C241.822 191.229 241.822 190.887 241.736 190.801C240.11 189.774 239.168 187.891 237.114 187.377C236.515 187.292 236.001 186.607 235.659 186.093C235.06 185.323 234.632 184.296 234.032 183.525C232.406 181.642 232.748 180.529 234.888 180.016C235.06 180.529 235.316 180.957 235.659 181.385C235.916 181.642 236.686 181.642 236.686 181.813C237.285 184.039 239.083 184.638 240.795 185.665C241.822 186.264 243.192 187.548 243.192 188.49C243.192 192.856 246.359 195.595 247.9 199.019C248.584 198.077 249.184 196.964 249.697 195.937C249.868 195.252 249.783 194.482 249.526 193.883C249.012 192.856 248.413 191.914 247.814 191.058C248.756 191.144 249.697 191.486 250.04 191.144C251.752 189.603 251.666 189.517 253.121 190.373C253.036 192 252.864 193.369 252.779 194.568C253.464 195.509 253.977 197.05 254.919 197.478C256.117 197.992 257.059 200.046 259.113 198.248C259.798 197.649 261.852 198.848 263.393 199.19C263.479 199.19 263.564 199.19 263.564 199.104L267.245 197.392C266.475 200.731 265.876 203.47 265.276 206.124C264.848 207.836 264.249 209.12 262.024 209.205C261.168 209.205 260.397 210.147 259.969 210.404L263.393 213.913L261.767 215.197C261.852 215.368 261.938 215.625 262.024 215.882L265.276 214.94C265.704 215.711 266.389 216.738 266.903 217.765C267.759 219.563 268.615 221.36 269.385 223.072C269.984 224.528 270.584 225.983 271.183 227.524C271.525 228.636 271.868 229.749 272.296 230.776C272.895 231.975 273.665 233.088 274.436 234.115C276.661 237.368 276.576 241.134 277.26 244.815C277.517 246.099 278.031 246.612 279.229 246.013C281.369 244.986 283.424 243.959 285.478 242.675C287.618 241.305 289.416 239.422 291.556 238.138C293.524 236.94 295.408 235.827 296.777 233.944C297.12 233.43 297.462 232.831 297.804 232.232C298.147 231.632 298.489 231.119 298.832 230.52C301.314 227.78 300.8 225.298 297.462 223.672C296.777 223.244 296.264 222.644 296.007 221.874C295.75 220.932 295.664 219.905 295.664 218.964C294.723 219.991 293.867 221.018 293.096 222.216C292.155 224.1 290.614 222.987 289.33 223.244C289.159 222.473 289.073 221.617 288.902 220.847C288.816 220.333 288.645 219.82 288.388 218.707L287.532 220.761C286.248 218.108 284.964 215.368 283.68 212.544C285.735 210.232 286.163 210.318 287.618 213.057C287.789 213.485 287.96 213.913 288.132 214.256C289.159 217.252 292.326 218.792 295.322 217.765C295.579 217.68 295.836 217.594 296.092 217.423C297.12 220.076 297.376 220.419 300.372 220.59C303.368 220.761 306.621 220.59 309.36 220.59C311.072 222.559 312.784 224.528 314.411 226.411L312.956 227.01L316.294 229.92L318.006 227.78C318.776 231.975 319.461 236.854 320.66 241.648C321.858 246.441 322.971 251.064 325.196 255.686C328.107 252.262 329.562 247.896 329.22 243.445C329.134 242.332 329.048 241.048 329.648 240.192C330.76 238.566 332.472 237.453 333.5 235.912C335.126 233.43 338.208 232.146 338.807 228.893C338.892 228.465 339.748 228.037 340.348 227.952C341.974 227.524 343.6 227.267 345.312 226.924C345.569 227.866 345.74 229.407 346.511 230.434C347.538 231.718 348.394 233.173 348.993 234.714C349.507 230.006 349.764 225.298 349.764 220.59C349.849 190.031 338.721 160.841 318.605 138.157Z" fill="#FF6A00"/>
<path d="M145.946 316.631C146.289 315.861 146.546 315.005 146.631 314.149C146.802 312.009 147.487 310.639 149.199 309.783C151.254 308.842 153.394 308.243 155.534 307.472C155.962 307.301 156.561 307.044 156.818 306.702C157.759 304.904 158.958 303.107 159.386 301.223C159.899 298.57 160.156 295.831 160.327 293.091C160.327 292.835 160.413 292.492 160.498 292.235C161.611 290.866 162.81 289.582 163.751 288.041C164.778 286.415 166.319 284.617 166.405 282.819C166.661 280.679 165.121 278.796 163.066 278.539C162.981 278.539 162.895 278.539 162.81 278.539C162.467 278.454 162.125 278.197 161.954 277.855C159.471 274.602 156.047 275.287 152.623 275.287C152.88 273.917 152.195 273.403 150.74 273.061C147.316 272.291 144.577 270.664 143.55 266.812C142.522 262.703 140.468 261.591 136.188 261.334C134.99 261.248 133.791 260.392 132.678 259.622C131.822 258.937 131.138 258.252 130.453 257.396C130.11 256.968 129.768 256.54 129.34 256.198C128.142 255.342 127.286 253.63 125.745 253.972C124.033 254.315 122.406 254.743 120.78 253.972C119.239 253.287 117.784 252.603 115.986 251.747L114.36 256.283C113.247 254.486 114.36 252.774 114.617 250.891C111.278 252.945 107.512 254.058 106.742 258.595L106.57 258.509C113.846 281.279 127.542 301.48 145.946 316.631Z" fill="#FF6A00"/>
<path d="M120.952 180.018C125.147 180.96 128.228 178.82 131.567 177.279C132.166 176.937 132.594 176.338 132.679 175.653C132.594 174.797 132.166 174.112 131.481 173.598C130.539 173.17 129.512 172.999 128.571 172.828L129.855 171.972C128.228 171.03 126.431 170.26 125.061 168.976C124.291 168.291 124.547 166.75 124.034 165.723C123.092 164.097 121.808 162.642 120.695 160.93C119.583 162.556 119.24 165.381 116.501 164.696C115.645 164.525 114.96 164.011 114.447 163.326C106.743 178.221 102.206 194.485 100.922 211.177C101.35 210.749 101.863 210.321 102.377 209.978C105.801 208.01 105.972 207.41 105.116 203.473C105.031 202.189 105.031 200.905 105.116 199.621C105.459 200.99 105.715 201.932 105.972 202.874C106.828 201.418 107.941 200.306 108.027 199.022C108.198 196.796 109.311 196.282 111.279 196.282C112.05 196.197 112.735 196.026 113.505 195.769L112.906 195.512C112.991 194.399 112.735 192.687 113.334 192.259C115.731 190.804 118.213 189.52 120.695 188.407L119.069 191.831L119.583 191.917L127.372 187.722L127.03 187.123L126.088 187.637C126.259 187.038 126.431 186.438 126.602 185.839C126.259 185.839 125.917 186.01 125.746 186.353C124.291 188.493 123.606 188.578 121.466 187.123C119.925 186.01 119.326 184.726 120.952 183.1C121.123 182.929 120.695 181.816 120.524 181.816C119.668 181.73 118.727 181.816 117.871 181.987C116.758 182.415 115.645 182.843 114.532 183.357C116.501 181.816 118.299 179.419 120.952 180.018Z" fill="#FF6A00"/>
<path d="M228.728 264.761C229.327 265.702 229.499 266.901 229.327 268.014C228.386 271.352 228.3 274.091 231.039 276.83C233.351 279.313 234.463 282.566 234.207 285.904C234.207 286.332 234.292 286.846 234.549 287.188C235.662 288.643 234.977 289.756 234.207 291.211C232.58 294.55 231.039 297.888 233.351 301.826C234.72 304.137 236.175 306.362 236.261 309.444C236.347 312.183 236.946 315.008 239.171 317.319C240.37 318.603 241.568 320.743 241.397 322.37C241.14 324.595 242.082 325.537 243.537 326.478C244.222 326.136 244.907 325.965 245.677 325.794C247.731 325.537 249.871 325.708 251.755 325.109C256.805 323.654 259.287 319.288 261.941 315.179C262.369 314.409 262.112 313.21 262.198 311.755C262.54 311.584 263.225 311.156 263.91 310.814C265.964 309.872 266.563 308.502 265.964 306.277C265.707 305.506 265.365 304.736 265.194 303.966C265.108 303.538 265.023 302.767 265.279 302.596C266.991 301.055 268.789 299.686 270.501 298.145C271.614 297.118 272.983 296.005 273.24 294.721C273.497 292.752 273.411 290.698 272.898 288.814C272.727 287.445 271.785 286.246 271.528 284.962C271.271 283.507 272.213 281.795 270.672 280.511C270.501 280.34 270.587 279.57 270.758 279.227C273.326 275.718 275.295 271.609 278.547 268.955C282.827 265.446 284.967 260.909 287.364 256.372C288.049 255.088 287.963 253.462 288.22 252.092C284.967 252.948 282.057 253.718 279.147 254.403C278.547 254.403 277.863 254.146 277.52 253.633C277.007 252.777 277.092 251.578 276.493 250.894C275.466 249.61 274.011 248.582 272.812 247.298C272.127 246.699 271.614 245.929 271.271 245.073C270.33 242.077 268.104 239.766 267.762 236.342C267.591 234.287 265.622 232.404 264.68 230.35C263.482 227.782 262.455 225.214 261.513 222.56C260.828 220.591 259.801 220.762 258.175 221.19C257.062 221.533 255.778 221.704 254.665 221.447C252.354 220.762 250.043 219.992 247.817 219.05C245.763 218.28 244.222 219.136 243.965 221.19C243.879 222.646 243.195 223.416 241.825 222.389C240.455 221.362 237.631 221.875 237.117 219.307C237.117 219.222 236.603 219.307 236.347 219.222C234.207 218.28 231.296 219.478 230.098 217.167L231.724 212.459C230.783 212.202 229.755 212.117 228.728 212.031C226.16 212.117 223.592 212.288 221.024 212.545C219.227 212.802 217.429 213.23 215.717 213.914C212.978 215.027 210.41 216.054 207.927 214.086C206.729 215.37 205.787 216.91 204.418 217.681C202.791 218.451 201.85 220.078 201.85 221.875C201.85 224.614 200.395 225.556 198.255 226.241C197.741 226.412 197.227 226.754 196.885 227.182C195.601 229.237 194.317 231.377 193.204 233.602C192.434 235.143 190.979 236.427 192.434 238.738C193.204 240.022 193.119 242.334 192.605 243.96C191.92 246.186 191.749 248.497 192.006 250.808C192.091 251.322 192.519 251.75 192.862 252.178C193.204 252.606 193.718 252.777 193.975 253.205C195.259 255.088 196.371 257.142 197.912 258.854C199.453 260.566 201.422 261.765 203.134 263.22C204.247 264.162 205.188 264.076 206.643 263.734C208.441 263.22 210.41 263.391 212.293 263.22C213.063 263.22 213.748 263.049 214.433 262.878C215.888 262.364 217.343 261.594 218.799 261.337C220.254 261.08 222.308 260.053 223.079 262.364C223.678 264.418 224.876 264.333 226.503 264.162C227.273 263.819 228.129 264.162 228.728 264.761Z" fill="#FF6A00"/>
<path d="M134.482 135.25C134.91 135.079 135.338 134.908 135.766 134.651L139.446 137.219L134.738 136.534C134.738 136.791 134.653 137.048 134.653 137.219L139.104 138.931V141.157L133.797 143.896L136.279 145.865C136.194 146.55 136.194 147.149 136.279 147.834C137.991 151.343 139.703 154.767 141.501 158.191C142.014 159.047 142.785 159.818 143.641 160.246C144.925 160.93 146.209 161.53 147.578 162.043C148.606 162.471 149.547 162.985 149.804 161.273C150.061 159.561 150.574 157.934 150.917 156.308C151.002 156.051 151.088 155.623 151.345 155.452C153.228 154.51 153.57 152.97 153.485 151.001C153.485 150.402 154.598 149.203 155.026 149.203C158.621 149.546 160.932 147.662 162.901 145.009C163.414 144.238 164.356 143.297 165.126 143.297C169.92 143.04 173.858 140.9 178.138 138.418L172.488 137.818L174.029 135.935L178.566 137.818C178.908 135.422 178.052 134.394 176.34 133.71C174.371 132.939 174.2 131.912 175.227 130.542H180.449L178.908 128.83L182.246 128.317C181.562 127.632 181.134 127.204 180.791 126.776C183.445 124.978 180.021 124.122 180.192 122.753L183.445 122.582C182.846 121.64 182.503 120.613 181.818 120.27C180.877 119.842 179.764 120.099 178.566 120.014C181.562 115.562 186.698 114.107 191.32 111.796C188.752 110.426 185.756 110.255 183.102 111.282C180.706 111.967 178.223 112.481 175.741 112.738L176.854 110.94C175.912 111.026 174.97 111.197 173.943 111.282C173.43 111.282 172.916 111.282 172.317 111.282C172.317 110.94 172.231 110.683 172.231 110.341L178.138 109.314C176.169 108.8 174.2 108.03 172.317 107.602C158.022 114.45 145.182 123.78 134.482 135.25Z" fill="#FF6A00"/>
<path d="M118.646 156.133C118.389 156.561 118.132 156.903 117.961 157.331C118.475 157.502 118.903 157.674 119.416 157.845C119.074 157.16 118.817 156.561 118.646 156.133Z" fill="#FF6A00"/>
<path d="M125.409 146.203C124.981 146.717 124.639 147.145 124.211 147.658L125.409 146.203Z" fill="#FF6A00"/>
<path d="M120.782 155.451C120.954 154.595 120.868 153.739 120.611 152.883C120.098 153.653 119.584 154.509 119.07 155.28L120.782 155.451Z" fill="#FF6A00"/>
<path d="M277.519 304.734C276.749 306.446 276.92 309.699 278.289 310.897C279.402 311.839 281.029 311.668 281.885 310.64C282.056 310.384 282.227 310.127 282.313 309.87C283.597 305.59 284.795 301.224 285.908 296.944C285.993 296.602 285.908 296.174 286.165 295.917C287.277 294.291 286.935 292.151 285.48 290.781C282.997 292.664 282.741 296.773 278.204 296.602C278.204 298.057 278.289 299.427 278.204 300.796C278.204 302.08 277.947 303.45 277.519 304.734Z" fill="#FF6A00"/>
<path d="M217.339 167.431C217.51 166.918 218.109 166.062 217.852 165.805C217.51 165.548 217.082 165.291 216.654 165.291L211.775 158.529C213.059 156.218 213.059 155.276 211.261 154.163C210.148 153.479 207.666 154.42 206.553 156.047C206.04 156.817 206.81 158.187 208.779 159.984C208.693 160.412 208.608 160.926 208.522 161.354C208.864 161.354 209.207 161.354 209.378 161.439C210.063 161.953 211.09 162.381 211.347 163.151C211.604 163.922 210.919 164.692 209.72 164.179C209.464 164.35 209.207 164.692 209.121 165.035C209.036 165.891 209.121 166.661 209.121 167.688L211.004 168.202L207.666 170.77L216.568 169.229C216.996 168.373 217.168 167.859 217.339 167.431Z" fill="#FF6A00"/>
<path d="M293.526 122.489C291.985 124.372 290.016 125.828 288.133 127.625C290.53 129.936 293.526 130.279 297.292 130.108C296.265 129.423 295.409 129.08 295.066 128.481C294.724 127.882 294.382 126.684 294.724 126.256C296.35 124.287 298.405 122.66 300.802 121.548C300.031 120.948 299.261 120.349 298.405 119.75C296.436 120.092 294.81 121.034 293.526 122.489Z" fill="#FF6A00"/>
<path d="M180.96 155.446C181.816 155.703 182.757 155.703 183.613 155.446C184.983 155.103 186.353 154.504 187.465 153.648C188.321 152.963 190.29 152.364 189.349 150.738C188.664 149.539 187.209 148.683 186.096 147.656L185.925 148.427L179.077 150.053L177.45 147.827L177.707 148.598L174.711 150.31L175.053 150.652H178.221L175.31 152.193L178.563 153.135C177.621 153.819 177.193 154.162 176.937 154.333C178.392 154.675 179.676 155.189 180.96 155.446Z" fill="#FF6A00"/>
<path d="M239.429 117.87C240.884 116.672 242.082 115.644 243.366 114.788C243.88 114.532 244.393 114.532 244.907 114.788C245.249 115.045 245.335 115.73 245.677 116.329H250.043C250.043 116.072 250.129 115.816 250.129 115.559L237.888 110.68C238.401 111.878 238.573 112.22 238.658 112.306L231.382 111.707L231.211 112.477C232.238 113.248 233.18 114.275 234.378 114.617C235.577 114.96 236.775 114.36 237.973 114.104L238.059 114.703L235.32 115.73L235.405 116.072L237.631 116.244L236.176 117.014L239.429 117.87Z" fill="#FF6A00"/>
<path d="M207.069 163.327C208.096 162.728 208.267 161.786 207.24 161.273C206.213 160.759 205.014 159.817 203.816 161.187C203.217 161.957 202.446 162.557 201.505 163.327V166.837L200.734 167.179C201.162 167.521 201.59 168.121 201.933 168.035C203.559 167.607 205.1 167.093 206.641 166.323C206.983 166.152 206.726 164.697 206.812 163.926C206.812 163.841 206.812 163.413 207.069 163.327Z" fill="#FF6A00"/>
<path d="M102.379 234.46C102.037 234.288 101.78 234.203 101.438 234.117L101.609 235.658C102.55 236 103.406 236.343 104.262 236.771C105.118 237.199 105.717 238.312 106.659 239.424L110.768 238.996C107.686 237.284 105.033 235.829 102.379 234.46Z" fill="#FF6A00"/>
<path d="M118.561 241.989C118.732 239.934 115.137 238.736 111.884 239.592L113.596 241.561L110.172 241.218C112.911 243.102 115.821 241.732 118.561 241.989Z" fill="#FF6A00"/>
<path d="M253.634 110.766H242.164C243.705 111.536 245.246 112.05 246.958 112.392C249.183 112.392 251.409 112.306 253.634 112.05V110.766Z" fill="#FF6A00"/>
<path d="M330.244 261.164C330.928 260.907 331.784 259.623 331.613 259.195C331.014 257.74 330.244 256.37 329.302 255.086L328.617 255.428C328.617 256.798 328.617 258.168 328.617 259.537C328.617 260.821 329.045 261.677 330.244 261.164Z" fill="#FF6A00"/>
<path d="M229.065 189L227.609 189.599V193.451C230.177 193.366 228.979 191.226 229.493 190.113C229.578 189.942 229.236 189.428 229.065 189Z" fill="#FF6A00"/>
<path d="M237.289 195.25H233.265L233.18 195.764L236.861 197.989C237.032 196.962 237.203 196.106 237.289 195.25Z" fill="#FF6A00"/>
</g>
<path d="M392.822 111.625C392.993 111.112 392.993 110.512 392.993 109.999C392.993 105.376 388.371 101.61 382.636 101.61C381.095 101.61 379.554 101.867 378.185 102.466C378.185 102.38 378.185 102.295 378.185 102.209C378.185 97.5867 373.562 93.8203 367.827 93.8203C363.547 93.8203 359.952 95.8747 358.326 98.8707C357.213 98.6995 356.014 98.6139 354.902 98.6139C345.742 98.6139 338.295 104.435 337.696 111.711C332.303 111.796 327.938 115.306 327.938 119.757C327.938 124.208 332.389 127.804 337.781 127.804H366.201" fill="white"/>
<path d="M366.198 128.143H337.779C331.958 128.143 327.336 124.291 327.336 119.498C327.336 114.961 331.702 111.194 337.18 110.938C338.122 103.576 345.74 97.8408 354.899 97.8408C355.926 97.8408 356.954 97.9264 357.981 98.0976C359.864 95.016 363.63 93.1328 367.825 93.1328C373.646 93.1328 378.439 96.8992 378.782 101.607C380.066 101.179 381.35 101.008 382.634 101.008C388.711 101.008 393.59 105.031 393.59 109.996C393.59 110.595 393.505 111.194 393.334 111.794C393.248 112.136 392.906 112.307 392.649 112.222C392.306 112.136 392.135 111.794 392.221 111.537C392.306 111.023 392.392 110.51 392.392 110.082C392.392 105.802 388.026 102.292 382.634 102.292C381.178 102.292 379.723 102.549 378.354 103.062C378.182 103.148 377.926 103.148 377.754 102.977C377.583 102.891 377.498 102.634 377.498 102.463V102.292C377.498 97.8408 373.132 94.3312 367.739 94.3312C363.887 94.3312 360.292 96.2144 358.751 99.0392C358.666 99.296 358.409 99.3816 358.152 99.3816C357.039 99.2104 355.926 99.1248 354.814 99.1248C346.082 99.1248 338.721 104.603 338.207 111.708C338.207 112.05 337.95 112.222 337.608 112.222C332.558 112.307 328.449 115.56 328.449 119.669C328.449 123.778 332.643 127.116 337.779 127.116H366.198C366.541 127.116 366.798 127.373 366.798 127.715C366.798 128.058 366.455 128.229 366.198 128.143C366.113 128.229 366.113 128.229 366.198 128.143Z" fill="#D1D3D4"/>
<path d="M396.845 327.335C396.845 319.545 389.141 313.211 379.553 313.125C378.526 300.2 365.258 289.928 349.08 289.928C347.025 289.928 344.971 290.099 343.002 290.441C340.177 285.22 333.672 281.453 326.139 281.453C315.953 281.453 307.735 288.13 307.735 296.348C307.735 296.519 307.735 296.69 307.735 296.861C305.167 295.92 302.513 295.406 299.774 295.406C289.588 295.406 281.37 302.083 281.37 310.386C281.37 311.328 281.456 312.355 281.713 313.296C273.067 314.152 266.305 320.144 266.305 327.42C266.305 335.296 274.18 341.63 283.853 341.63" fill="white"/>
<path d="M283.85 342.141C273.835 342.141 265.703 335.464 265.703 327.332C265.703 320.056 272.209 313.808 280.94 312.695C280.769 311.924 280.683 311.154 280.683 310.298C280.683 301.738 289.243 294.804 299.686 294.804C302.169 294.804 304.651 295.232 306.962 296.003C307.219 287.614 315.608 280.852 325.966 280.852C333.327 280.852 340.004 284.361 343.171 289.754C345.054 289.497 347.023 289.326 348.906 289.326C365.085 289.326 378.61 299.512 379.979 312.524C389.566 312.866 397.356 319.372 397.356 327.332C397.356 327.675 397.099 327.932 396.757 327.932C396.414 327.932 396.158 327.675 396.158 327.332C396.158 319.971 388.625 313.808 379.466 313.722C379.123 313.722 378.866 313.465 378.866 313.208C377.839 300.454 364.742 290.524 348.906 290.524C346.938 290.524 344.883 290.696 342.914 291.038C342.658 291.038 342.401 290.952 342.315 290.696C339.49 285.474 333.07 282.05 325.966 282.05C316.122 282.05 308.161 288.47 308.161 296.345C308.161 296.431 308.161 296.516 308.161 296.602V296.859C308.161 297.03 308.075 297.287 307.904 297.372C307.733 297.458 307.562 297.544 307.305 297.458C304.822 296.516 302.254 296.003 299.601 296.003C289.757 296.003 281.796 302.423 281.796 310.384C281.796 311.325 281.882 312.267 282.138 313.123C282.138 313.294 282.138 313.465 282.053 313.636C281.967 313.808 281.796 313.893 281.625 313.893C273.15 314.749 266.73 320.57 266.73 327.418C266.73 334.951 274.349 341.028 283.679 341.028C284.022 341.028 284.278 341.285 284.278 341.628C284.45 341.884 284.193 342.141 283.85 342.141Z" fill="#D1D3D4"/>
<path d="M237.199 233.001H237.114C236.771 232.915 236.6 232.658 236.686 232.316C236.771 231.973 244.133 198.161 281.455 181.641C293.781 176.162 304.567 175.392 313.64 179.329C326.309 184.808 330.931 197.905 330.931 197.99C331.017 198.333 330.846 198.675 330.503 198.761C330.247 198.846 329.904 198.675 329.819 198.418C329.819 198.333 325.282 185.749 313.127 180.442C304.395 176.676 293.867 177.446 281.883 182.753C245.16 199.017 237.884 232.316 237.799 232.573C237.799 232.829 237.542 233.001 237.199 233.001Z" fill="#EEEEEE"/>
<path d="M147.403 274.433C147.317 274.433 147.232 274.433 147.146 274.347C146.889 274.176 146.718 273.833 146.889 273.577C172.312 224.528 215.198 240.706 215.54 240.877C215.883 240.963 215.968 241.305 215.883 241.648C215.797 241.99 215.455 242.076 215.112 241.99C214.684 241.819 172.826 226.069 147.916 274.176C147.831 274.261 147.574 274.433 147.403 274.433Z" fill="#EEEEEE"/>
<path d="M213.145 172.569C212.888 172.569 212.631 172.398 212.631 172.141C212.46 171.799 198.85 136.189 164.952 131.823C164.61 131.738 164.353 131.481 164.438 131.139C164.524 130.796 164.781 130.625 165.123 130.625C199.706 135.076 213.573 171.285 213.744 171.627C213.83 171.97 213.744 172.312 213.402 172.398C213.316 172.569 213.23 172.569 213.145 172.569Z" fill="#EEEEEE"/>
<path d="M222.817 241.392L218.537 232.832C214.001 223.758 209.549 214.599 205.013 205.526C203.215 202.273 202.359 198.678 202.273 194.997C202.53 183.612 211.946 174.71 223.331 174.966C232.49 175.223 240.365 181.386 242.677 190.203C243.961 194.997 243.361 200.047 241.136 204.413L229.837 227.268L223.16 240.707L222.817 241.392ZM222.817 205.526C228.467 205.526 233.089 200.903 233.089 195.254C233.089 189.604 228.467 184.982 222.817 184.982C217.168 184.982 212.545 189.604 212.545 195.254C212.545 200.903 217.168 205.44 222.817 205.526Z" fill="#EEEEEE"/>
<path d="M337.007 201.504C335.723 198.851 334.439 196.368 333.24 193.886C329.217 185.839 325.279 177.707 321.256 169.661C319.715 166.751 318.859 163.583 318.859 160.331C319.031 150.315 327.248 142.269 337.349 142.44C345.567 142.526 352.671 148.175 354.726 156.136C355.839 160.331 355.325 164.867 353.356 168.719L343.255 189.007C341.287 192.944 339.318 196.967 337.349 200.905C337.263 201.076 337.178 201.247 337.007 201.504ZM337.007 169.661C342.057 169.661 346.08 165.638 346.166 160.587C346.166 155.537 342.143 151.514 337.092 151.428C332.042 151.428 328.019 155.451 327.933 160.502C327.933 165.638 331.956 169.661 337.007 169.661Z" fill="#EEEEEE"/>
<path d="M156.135 131.308L152.968 124.974C149.629 118.211 146.291 111.449 142.867 104.687C141.583 102.29 140.898 99.5505 140.812 96.8113C140.984 88.4225 147.917 81.6601 156.306 81.8313C163.154 81.9169 169.146 86.6249 170.858 93.3017C171.8 96.8113 171.372 100.578 169.66 103.831L161.271 120.779C159.644 124.118 157.933 127.456 156.306 130.709L156.135 131.308ZM156.135 104.601C160.329 104.601 163.753 101.177 163.753 96.9825C163.753 92.7881 160.329 89.3641 156.135 89.3641C151.94 89.3641 148.516 92.7881 148.516 96.9825C148.602 101.177 151.94 104.601 156.135 104.601Z" fill="#EEEEEE"/>
<path d="M140.901 275.55C139.788 273.41 138.761 271.27 137.733 269.13C134.395 262.368 131.057 255.605 127.633 248.843C126.349 246.446 125.664 243.707 125.578 240.968C125.749 232.579 132.683 225.816 141.072 225.988C147.92 226.073 153.912 230.781 155.624 237.458C156.565 240.968 156.137 244.734 154.511 248.072C151.686 253.722 148.861 259.372 146.037 265.107C144.41 268.445 142.784 271.784 141.072 275.036C141.072 275.208 140.986 275.379 140.901 275.55ZM140.901 248.928C145.095 248.928 148.519 245.504 148.519 241.31C148.519 237.116 145.095 233.692 140.901 233.692C136.706 233.692 133.282 237.116 133.282 241.31C133.282 245.419 136.706 248.843 140.901 248.928Z" fill="#EEEEEE"/>
</svg>
