<svg width="112" height="137" viewBox="0 0 112 137" fill="none" xmlns="http://www.w3.org/2000/svg">
<path d="M64.1406 119.361L68.7775 125.75L73.466 121.165L69.7564 114.055L64.1406 119.361Z" fill="white"/>
<path d="M68.7788 126.06C68.6758 126.06 68.5728 126.008 68.5212 125.905L63.8843 119.516C63.7813 119.362 63.7813 119.207 63.9358 119.104L69.5517 113.849C69.6032 113.798 69.7062 113.746 69.8093 113.746C69.9123 113.746 70.0153 113.849 70.0669 113.901L73.7764 120.959C73.8279 121.114 73.8279 121.268 73.7249 121.371L69.0364 125.957C68.9849 126.06 68.8819 126.06 68.7788 126.06ZM64.5541 119.362L68.8304 125.235L73.0551 121.062L69.6547 114.57L64.5541 119.362Z" fill="#231F20"/>
<path d="M12.78 126.473L8.34913 131.882L3.35156 128.482L8.09152 120.496L12.78 126.473Z" fill="white"/>
<path d="M8.3432 132.189C8.29168 132.189 8.24016 132.189 8.18864 132.137L3.24259 128.788C3.08803 128.685 3.0365 128.479 3.13955 128.325L7.82798 120.287C7.87951 120.184 7.98255 120.133 8.08559 120.133C8.18863 120.133 8.29168 120.184 8.39472 120.236L13.0832 126.212C13.1862 126.315 13.1862 126.521 13.0832 126.624L8.65233 132.034C8.54929 132.137 8.44624 132.189 8.3432 132.189ZM3.80932 128.376L8.29168 131.416L12.3619 126.47L8.13712 121.06L3.80932 128.376Z" fill="#231F20"/>
<path d="M37.5059 65.2152C37.5059 65.2152 34.1055 99.0131 31.7355 104.887C28.026 114.057 12.7757 127.556 12.7757 127.556L5.82031 122.558C5.82031 122.558 11.6937 109.214 15.3002 100.507C16.1246 98.4979 15.3002 64.6484 15.3002 64.6484L37.5059 65.2152Z" fill="#231F20"/>
<path d="M15.3047 64.5928C15.3047 64.5928 23.1359 71.2906 25.815 75.4123C28.4941 79.534 63.4771 120.339 63.4771 120.339L71.669 115.444L42.4564 59.4922L15.3047 64.5928Z" fill="#231F20"/>
<path d="M36.3199 23.6838C34.5167 22.7565 39.6173 22.1897 43.2238 30.9999L49.6124 46.5593L69.7573 44.1893L74.6003 51.2993C74.6003 51.2993 46.2635 56.8636 45.5422 56.2453C36.0108 47.3836 36.3199 23.6838 36.3199 23.6838Z" fill="white"/>
<path d="M45.9032 56.5554C45.6972 56.5554 45.5426 56.5554 45.3365 56.4523C41.3178 52.7428 38.5357 46.0965 37.0416 36.6681C36.3718 32.4434 36.0627 28.1156 36.0111 23.8393C35.7535 23.6333 35.599 23.4272 35.6505 23.2211C35.6505 23.1181 35.7535 22.8604 36.1657 22.8089C37.4537 22.7059 40.9572 24.4576 43.5333 30.8462L49.8189 46.1996L69.7576 43.8296C69.8606 43.8296 70.0152 43.8811 70.0667 43.9842L74.9097 51.0941C74.9612 51.1972 74.9613 51.3002 74.9613 51.4032C74.9097 51.5063 74.8067 51.5578 74.7036 51.6093C62.8537 53.9278 48.8915 56.5554 45.9032 56.5554ZM45.7487 55.9371C47.1397 56.1432 63.1629 53.2065 74.0339 51.0426L69.603 44.4994L49.6128 46.8694C49.4582 46.8694 49.3036 46.8179 49.2521 46.6633L42.8635 31.1038C40.545 25.385 37.7114 23.8393 36.5779 23.5817C36.5779 23.6333 36.5779 23.6333 36.5779 23.6848C36.6809 23.8909 36.4748 47.2815 45.7487 55.9371Z" fill="#231F20"/>
<path d="M31.0701 2.86884C29.9881 1.78689 28.7001 0.807987 27.206 0.498859C25.9179 0.241252 25.1966 0.756467 24.0632 1.16864C23.5995 1.3232 23.548 1.99297 23.0843 2.14754C22.6206 2.3021 21.6932 1.78689 21.178 1.73537C17.9321 1.42624 14.8409 3.12645 13.2952 5.96012C12.1102 8.17554 11.595 10.7001 10.3585 12.864C8.96744 15.4916 6.7005 17.5524 5.20638 20.1285C3.45466 23.0652 2.78488 26.7232 3.81531 30.0206C5.82464 36.6668 11.8011 36.5123 17.5715 36.5638C21.7447 36.5638 25.8664 35.6879 29.679 33.9362C32.6672 32.5451 38.1285 29.6084 38.8498 26.0534C39.5711 22.7045 38.2831 17.4494 37.4072 14.2035C36.3768 9.87574 34.1614 6.01164 31.0701 2.86884Z" fill="white"/>
<path d="M17.6731 36.8758H17.2094C11.4906 36.8758 5.5656 36.8758 3.50475 30.075C2.52585 26.8806 3.09258 23.0681 4.94735 19.9253C5.66865 18.7403 6.54451 17.5553 7.42037 16.4733C8.4508 15.2883 9.32666 14.0003 10.0995 12.6608C10.6662 11.5788 11.1299 10.4453 11.5421 9.26035C11.9542 8.02384 12.4695 6.83886 13.0362 5.70539C14.6334 2.71715 17.8792 0.965426 21.2796 1.27455C21.5887 1.32607 21.8463 1.37759 22.1039 1.48064C22.4131 1.6352 22.7222 1.68673 23.0313 1.68673C23.1344 1.6352 23.2374 1.53216 23.3405 1.37759C23.495 1.11999 23.7011 0.913904 23.9587 0.75934C24.1648 0.707819 24.3709 0.604777 24.577 0.501734C25.4013 0.0380422 26.3802 -0.116523 27.3076 0.0895619C29.0593 0.450211 30.4504 1.68672 31.3263 2.56259C34.4175 5.75691 36.6329 9.72405 37.7149 14.0518C38.6938 17.6068 39.8788 22.7589 39.1575 26.0563C38.4362 29.5082 33.6962 32.3419 29.7806 34.1967C26.0711 35.9999 21.8979 36.8758 17.6731 36.8758ZM20.5068 1.99585C17.6216 1.94433 14.994 3.54149 13.6544 6.06604C13.0877 7.1995 12.624 8.33297 12.2119 9.51796C11.7997 10.703 11.336 11.8879 10.7693 13.0214C9.99644 14.4125 9.06905 15.752 7.98711 16.9886C7.11124 18.0705 6.2869 19.1524 5.56561 20.3374C3.76236 23.3257 3.24715 26.9322 4.17453 29.9204C6.08082 36.1545 11.4906 36.1545 17.2094 36.206H17.6216C21.7433 36.206 25.8135 35.3301 29.5745 33.5784C34.8297 31.1054 38.024 28.4263 38.5392 25.9533C39.209 22.8105 38.024 17.7614 37.0966 14.2579C36.0662 10.0332 33.9023 6.2206 30.8626 3.12932C29.523 1.78977 28.3895 1.06847 27.153 0.862381C26.3802 0.707818 25.5559 0.862383 24.8346 1.27455C24.6285 1.3776 24.4224 1.42912 24.2163 1.53216C24.1133 1.6352 24.0102 1.73824 23.9072 1.89281C23.7526 2.20194 23.495 2.40802 23.1859 2.51106C22.7222 2.56258 22.2585 2.51106 21.8463 2.30498C21.6403 2.20194 21.3826 2.15042 21.1766 2.0989C20.9705 2.04738 20.7129 1.99585 20.5068 1.99585Z" fill="#231F20"/>
<path d="M8.19004 29.7676C12.0026 21.8333 31.4777 16.0629 38.7422 22.1939C46.0067 28.325 49.201 63.4625 49.201 63.4625L13.3937 70.6755C13.3937 70.727 4.37746 37.7019 8.19004 29.7676Z" fill="#84AFBF"/>
<path d="M32.0498 28.2204C33.6985 35.5364 39.0567 66.7583 39.0567 66.7583L30.7103 67.9433L22.0547 28.1688C22.0547 28.1173 23.8064 26.6747 32.0498 28.2204Z" fill="#231F20"/>
<path d="M30.398 22.8614L31.8406 28.5802C31.8406 28.5802 31.7376 31.3624 27.7189 31.4654C23.7002 31.5685 22.4122 29.0954 22.4122 29.0954L20.0938 18.379C20.0938 18.379 25.1944 13.6391 22.7729 7.76562C22.7729 7.76562 26.3278 11.9904 31.7891 9.77495C31.7891 9.77495 33.2832 15.2362 33.5923 18.276C33.9015 21.3157 30.398 22.8614 30.398 22.8614Z" fill="white"/>
<path d="M27.5141 31.7741C23.4439 31.7741 22.1559 29.3011 22.1044 29.198L22.0528 29.095L19.7344 18.3785C19.7344 18.2755 19.7344 18.1209 19.8374 18.0179C19.8889 17.9664 24.7319 13.381 22.465 7.76516C22.4135 7.55907 22.465 7.35298 22.6711 7.30146C22.8257 7.24994 22.9802 7.30146 23.0833 7.4045C25.2472 9.826 28.6991 10.5473 31.6873 9.3108C31.8934 9.25928 32.0995 9.31079 32.151 9.51688V9.5684C32.2025 9.77449 33.6966 15.0812 34.0058 18.1209C34.3149 20.9031 31.6873 22.5518 30.8115 23.0155L32.2025 28.4252C32.2025 28.4767 32.2025 28.4767 32.2025 28.5282C32.2025 28.5798 32.048 31.671 27.7202 31.7741H27.5141ZM22.7741 28.8889C22.9287 29.198 24.1652 31.1043 27.7202 31.0528C31.1206 31.0013 31.4297 28.9404 31.4812 28.5798L30.0386 22.9124C29.9871 22.7579 30.0902 22.5518 30.2447 22.5002C30.2962 22.5002 33.5936 20.9546 33.2845 18.224C33.0269 15.6994 31.8934 11.4747 31.5843 10.1867C28.8536 11.1656 25.8139 10.7019 23.5469 8.89863C24.7319 13.7931 21.28 17.6572 20.5072 18.4816L22.7741 28.8889Z" fill="#231F20"/>
<path d="M21.8486 17.5043C20.2514 14.5676 15.4084 16.5769 17.8299 19.7197C18.9118 21.1623 20.9212 21.4714 22.3638 20.3895" fill="white"/>
<path d="M20.5039 21.4209C20.3493 21.4209 20.2463 21.4209 20.0917 21.3693C19.1128 21.2663 18.1854 20.7511 17.5672 19.9267C16.5367 18.6387 16.7944 17.6083 17.0004 17.1446C17.4641 16.2687 18.3915 15.702 19.3704 15.702C20.5039 15.6505 21.5858 16.3203 22.1526 17.2992C22.2556 17.4537 22.2041 17.7113 21.998 17.7628C21.8434 17.8659 21.6374 17.8144 21.4828 17.6598V17.6083C21.0706 16.8355 20.2463 16.3718 19.4219 16.3718C18.7006 16.3718 18.0309 16.7839 17.6702 17.4022C17.4126 17.9689 17.5672 18.6902 18.1339 19.4631C18.6491 20.1328 19.3704 20.545 20.1948 20.648C20.9161 20.6996 21.6374 20.4935 22.1526 20.0298C22.3071 19.9267 22.5132 19.9267 22.6678 20.0813C22.7708 20.2359 22.7708 20.442 22.6163 20.5965C21.998 21.1633 21.2767 21.4209 20.5039 21.4209Z" fill="#231F20"/>
<path d="M28.0312 13.9492C28.0312 13.9492 30.8649 16.3192 30.5558 16.9374C30.2467 17.5557 28.8556 17.6588 28.8556 17.6588" fill="white"/>
<path d="M28.8491 18.0214C28.643 18.0214 28.4884 17.8669 28.4884 17.6608C28.4884 17.4547 28.643 17.3001 28.8491 17.3001C29.3128 17.3001 30.1371 17.0941 30.2917 16.7849C30.2917 16.4758 29.1582 15.2908 27.8186 14.2089C27.6641 14.0543 27.6641 13.8482 27.7671 13.6936C27.8702 13.5391 28.1278 13.5391 28.2823 13.6421C29.6734 14.7756 31.2706 16.3212 30.9099 17.0941C30.5493 17.8669 29.0552 18.0214 28.8491 18.0214Z" fill="#231F20"/>
<path d="M25.1609 13.542C25.4316 13.4544 25.5517 13.0761 25.429 12.6971C25.3063 12.3181 24.9875 12.0819 24.7167 12.1695C24.446 12.2571 24.326 12.6354 24.4486 13.0144C24.5713 13.3934 24.8902 13.6296 25.1609 13.542Z" fill="#231F20"/>
<path d="M29.6375 13.2451C29.9082 13.1575 30.0282 12.7792 29.9056 12.4002C29.7829 12.0212 29.464 11.785 29.1933 11.8726C28.9226 11.9602 28.8026 12.3385 28.9252 12.7175C29.0479 13.0965 29.3668 13.3327 29.6375 13.2451Z" fill="#231F20"/>
<path d="M28.749 20.5945C28.5429 20.5945 28.3368 20.5945 28.1823 20.543C27.0488 20.2854 26.1214 19.5641 25.6062 18.5337C25.5032 18.3791 25.5547 18.1215 25.7608 18.0185C25.9153 17.9154 26.1214 17.9669 26.2245 18.1215C26.6366 18.9458 27.4095 19.5641 28.2853 19.7702C29.1612 19.8732 29.9855 19.6156 30.7068 19.1004C30.8614 18.9974 31.119 18.9974 31.222 19.1519C31.3251 19.3065 31.3251 19.5641 31.1705 19.6671C30.4492 20.2854 29.6249 20.543 28.749 20.5945Z" fill="#231F20"/>
<path d="M30.4011 22.8633C30.4011 22.8633 27.4128 23.5331 25.8672 23.0694C25.8672 23.0694 27.7735 26.2122 31.2254 26.3152L30.4011 22.8633Z" fill="#231F20"/>
<path d="M31.2244 26.6231C27.618 26.5201 25.6601 23.3258 25.5571 23.2227C25.4541 23.0681 25.5571 22.8105 25.7117 22.759C25.8147 22.7075 25.8662 22.7075 25.9693 22.7075C27.4119 23.1712 30.2971 22.5014 30.2971 22.5014C30.5031 22.4499 30.7092 22.5529 30.7092 22.759L31.5336 26.2109C31.5851 26.314 31.5336 26.417 31.4821 26.5201C31.4305 26.6231 31.3275 26.6231 31.2244 26.6231ZM26.6906 23.5318C27.721 24.7683 29.1636 25.5927 30.7608 25.8503L30.1425 23.2227C29.009 23.4803 27.824 23.5834 26.6906 23.5318Z" fill="#231F20"/>
<path d="M35.3404 30.7953C34.5161 30.7438 33.7433 30.6408 32.9705 30.3831C32.8159 30.3316 32.6613 30.1771 32.7128 30.0225C32.7644 29.8679 32.9189 29.7134 33.0735 29.7649H33.125C33.6918 29.9195 35.4435 30.3316 36.2163 29.971C36.3193 29.5073 34.2585 26.7767 32.2492 24.5612C32.1461 24.4067 32.1461 24.2006 32.2492 24.0975C32.3522 23.9945 32.5583 23.943 32.7128 24.0975C33.7433 25.231 37.0406 28.9921 36.8346 30.1255C36.783 30.3316 36.68 30.4862 36.4739 30.5377C36.1133 30.6923 35.7526 30.7953 35.3404 30.7953Z" fill="#231F20"/>
<path d="M19.4227 31.1586C18.8044 31.2101 18.1862 31.0555 17.6194 30.6949C16.6921 30.0251 17.8255 28.1188 19.1651 26.1095C19.3712 25.8519 19.5257 25.5943 19.6803 25.3367C19.7318 25.1821 19.9379 25.0791 20.0925 25.1306C20.247 25.1821 20.3501 25.3882 20.2985 25.5428C20.144 25.8519 19.9379 26.161 19.7318 26.4701C17.877 29.2008 17.774 29.9736 17.9801 30.1797C18.7014 30.6949 20.247 30.4888 20.7622 30.3342C20.9168 30.2827 21.1229 30.3858 21.1744 30.5918C21.2259 30.7464 21.1229 30.9525 20.9168 31.004C20.4531 31.1071 19.9379 31.1586 19.4227 31.1586Z" fill="#231F20"/>
<path d="M78.1484 71.4766C96.65 71.4766 111.648 56.4781 111.648 37.9766C111.648 19.475 96.65 4.47656 78.1484 4.47656C59.6469 4.47656 44.6484 19.475 44.6484 37.9766C44.6484 56.4781 59.6469 71.4766 78.1484 71.4766Z" fill="#231F20"/>
<path d="M76.1484 68.4766C94.65 68.4766 109.648 53.4781 109.648 34.9766C109.648 16.475 94.65 1.47656 76.1484 1.47656C57.6469 1.47656 42.6484 16.475 42.6484 34.9766C42.6484 53.4781 57.6469 68.4766 76.1484 68.4766Z" fill="white"/>
<path d="M76.2098 69.4765C57.7101 69.518 42.6484 54.3146 42.6484 35.5388C42.6484 16.763 57.5874 1.47656 76.087 1.47656C94.5867 1.47656 109.648 16.6384 109.648 35.4142C109.648 37.1173 109.526 38.8204 109.28 40.482C106.865 57.0978 92.7859 69.4349 76.2098 69.4765ZM76.128 1.97504C57.9148 1.97504 43.1396 16.9707 43.1396 35.4558C43.1396 53.9408 57.9148 68.9365 76.128 68.9365C92.4585 68.9365 106.333 56.807 108.748 40.3989C111.408 22.0801 98.9661 5.04895 80.9166 2.34889C79.3613 2.09965 77.7242 1.97504 76.128 1.97504Z" fill="#231F20"/>
<path d="M76.1484 61.4764C61.4994 61.4764 49.6484 49.6255 49.6484 34.9765C49.6484 20.3275 61.4994 8.47656 76.1484 8.47656C90.7975 8.47656 102.648 20.3275 102.648 34.9765C102.648 36.2933 102.566 37.61 102.36 38.8856C100.468 51.8887 89.275 61.5176 76.1484 61.4764ZM76.0661 9.05265C61.7051 9.05265 50.0599 20.6978 50.0599 35.0588C50.0599 49.4198 61.7051 61.0649 76.0661 61.0649C90.4272 61.0649 102.072 49.4198 102.072 35.0588C102.072 22.1792 92.6492 11.2747 79.9341 9.34069C78.6585 9.17609 77.3829 9.05265 76.0661 9.05265Z" fill="#D1D3D4"/>
<path d="M75.1484 21.4766L79.635 30.3917L89.6484 31.7926L82.3659 38.67L84.1215 48.4766L75.1484 43.828L66.1753 48.4766L67.9309 38.67L60.6484 31.7926L70.6619 30.3917L75.1484 21.4766Z" fill="#84AFBF"/>
<path d="M15.8723 31.5185C23.8581 35.5371 28.8041 41.4621 32.8743 40.7923C36.9445 40.1225 51.7311 32.4459 51.7311 32.4459C51.7311 32.4459 53.4828 27.7059 54.7193 27.0876C55.9558 26.4694 55.183 29.4061 54.9769 31.57C54.9769 31.57 62.0353 27.8605 62.5506 30.5396C63.2203 33.7854 60.4382 34.5582 57.2439 36.5676C54.0495 38.5769 34.7291 52.8483 30.4013 51.6118C26.0735 50.3753 12.0597 42.0803 11.6475 41.8227C6.8045 38.9891 7.88645 27.4998 15.8723 31.5185Z" fill="white"/>
<path d="M31.0179 51.9707C30.7603 51.9707 30.5542 51.9192 30.2966 51.8677C26.4841 50.7342 14.9948 44.1395 11.5944 42.1817L11.4398 42.0786C8.40008 40.3269 7.62726 35.3809 9.12138 32.5472C9.73964 31.4137 11.5944 29.0438 15.9737 31.2077C18.8589 32.7533 21.6926 34.505 24.3202 36.4628C27.7721 38.8843 30.4512 40.8421 32.7697 40.43C36.5307 39.8117 50.0808 32.8563 51.4719 32.135C51.781 31.2592 53.3267 27.3436 54.5632 26.7253C54.8208 26.5707 55.1299 26.5707 55.3875 26.7253C55.9027 27.0859 55.7997 28.1164 55.4906 29.8681C55.439 30.2287 55.3875 30.5894 55.336 30.8985C56.7786 30.1772 60.4366 28.5285 62.0853 29.3014C62.4975 29.5074 62.8066 29.8681 62.8581 30.3318C63.4248 33.217 61.5185 34.2989 59.097 35.69C58.5818 35.9991 58.0151 36.3083 57.3968 36.7204C56.7786 37.1326 55.7482 37.8539 54.3571 38.7813C44.465 45.7367 34.882 51.9707 31.0179 51.9707ZM12.7794 31.0016C11.4914 31.0016 10.3064 31.7229 9.73964 32.8563C8.34856 35.4324 9.01834 39.8632 11.8005 41.4604L11.9551 41.5634C15.3555 43.5728 26.7417 50.116 30.5027 51.1979C33.9031 52.1768 47.9684 42.4393 53.9964 38.3176C55.3875 37.3387 56.4695 36.5659 57.0877 36.2052C57.706 35.8446 58.2727 35.4839 58.7879 35.1748C61.1579 33.8352 62.7035 32.9079 62.2398 30.4864C62.1883 30.2287 62.0338 30.0227 61.8277 29.9196C60.4366 29.2498 56.521 31.0016 55.1299 31.7744C55.0269 31.8259 54.8723 31.8259 54.8208 31.7744C54.7177 31.7229 54.6662 31.5683 54.6662 31.4653C54.7177 30.9501 54.8208 30.3318 54.8723 29.7651C54.9753 28.8892 55.1814 27.4981 55.0269 27.2405C55.0269 27.2405 54.9753 27.2405 54.8723 27.292C54.048 27.7042 52.7084 30.6924 52.0386 32.4442C51.9871 32.4957 51.9356 32.5987 51.8841 32.6502C51.2658 32.9594 36.9429 40.43 32.8727 41.0997C30.2966 41.5119 27.5145 39.5026 23.9595 37.0296C21.3319 35.0717 18.6013 33.32 15.7161 31.8259C14.8402 31.3107 13.8098 31.0531 12.7794 31.0016Z" fill="#231F20"/>
<path d="M10.6149 43.6769L25.8652 52.2295L30.6052 38.0096C30.6052 38.0096 12.9849 28.0145 10.5634 28.8903C8.14188 29.7662 4.793 37.4428 10.6149 43.6769Z" fill="#84AFBF"/>
<path d="M25.86 52.5401C25.8085 52.5401 25.757 52.5401 25.7054 52.4885L10.4551 43.9875C10.3006 43.8845 10.249 43.6784 10.3006 43.5238C10.4036 43.3693 10.6097 43.3178 10.7643 43.4208L26.0146 51.9733C26.1691 52.0764 26.2207 52.2825 26.1691 52.437C26.0661 52.4885 25.963 52.5401 25.86 52.5401Z" fill="#231F20"/>
<path d="M30.602 38.3196C30.5505 38.3196 30.4989 38.3196 30.4474 38.2681L14.9395 30.5399C14.7849 30.4369 14.7334 30.2823 14.7849 30.0762C14.888 29.9217 15.0426 29.8701 15.2486 29.9217L30.7565 37.6499C30.9111 37.7014 31.0142 37.9075 30.9111 38.1135C30.8596 38.2681 30.7566 38.3196 30.602 38.3196Z" fill="#231F20"/>
<path d="M3.34888 126.883L0 132.962C2.88519 134.714 6.07951 135.796 9.37687 136.157C10.3043 136.26 17.0536 136.466 16.7959 135.229C16.5383 133.993 9.4284 131.262 9.4284 131.262L11.3862 129.304L3.34888 126.883Z" fill="#231F20"/>
<path d="M73.4664 119.156L66.5625 124.257C66.5625 124.257 70.7357 131.212 71.1994 131.058C71.6631 130.903 84.4919 122.608 83.4615 121.99C80.6793 120.238 75.5272 122.763 75.5272 122.763L73.4664 119.156Z" fill="#231F20"/>
</svg>
