<svg width="139" height="76" viewBox="0 0 139 76" fill="none" xmlns="http://www.w3.org/2000/svg">
<path d="M96.9321 33.4375C98.8634 34.3325 100.324 35.9341 101.077 37.9126C102.962 42.8116 105.411 55.9071 105.411 55.9071C110.923 56.4724 116.481 57.0848 121.993 57.7914C124.583 58.1211 127.174 58.4509 129.765 58.9219C130.801 59.1574 131.838 59.2988 132.921 59.3459C134.005 59.2988 135.418 58.9219 136.454 59.3459C136.595 59.393 136.69 59.4872 136.737 59.5814C136.737 59.7227 136.737 59.8169 136.643 59.9112C136.407 60.288 136.171 60.6649 135.983 60.9946C136.454 61.183 136.925 61.4185 137.396 61.7012C138.291 62.4078 138.48 63.6796 137.773 64.5747C137.585 64.8102 137.349 64.9986 137.114 65.1399C136.407 65.5168 135.653 65.3755 134.9 65.4226C134.005 65.4697 133.11 65.5639 132.215 65.5168C130.377 65.4697 128.587 65.3284 126.75 65.2341C123.688 65.0928 120.626 64.9515 117.612 64.7631C110.875 64.3391 103.998 64.0094 97.356 62.6904C96.1784 62.4549 93.9644 62.2193 93.1636 61.1359C90.9025 58.1682 96.9321 33.4375 96.9321 33.4375Z" fill="white"/>
<path d="M132.359 65.8913H132.077C130.946 65.8913 129.769 65.7971 128.685 65.7029C127.979 65.6558 127.319 65.6086 126.613 65.5615C123.174 65.4202 120.206 65.2318 117.427 65.0905L115.825 64.9963C109.654 64.6194 103.248 64.2426 97.1241 63.0178L96.5588 62.9236C95.2398 62.6881 93.4969 62.4054 92.7432 61.3691C90.5763 58.3072 95.9935 35.8847 96.6059 33.3409C96.6059 33.2467 96.7001 33.1525 96.7943 33.1525C96.8885 33.1054 96.9828 33.1054 97.077 33.1525C99.1025 34.0475 100.657 35.7434 101.364 37.816C103.107 42.3382 105.321 53.7379 105.65 55.6221C111.303 56.1874 116.814 56.8469 121.949 57.5064C124.399 57.8361 127.084 58.1659 129.722 58.6369C130.004 58.684 130.24 58.7312 130.522 58.7783C131.276 58.9667 132.03 59.0609 132.831 59.0609C133.113 59.0609 133.49 59.0138 133.82 58.9667C134.715 58.8725 135.704 58.7783 136.505 59.0609C136.74 59.108 136.929 59.2964 136.976 59.532C137.023 59.7204 136.976 59.9559 136.835 60.1443L136.363 60.9451L136.505 60.9923C136.835 61.1336 137.164 61.2749 137.447 61.5104C138.483 62.2641 138.719 63.7715 137.918 64.8078C137.682 65.0905 137.4 65.326 137.117 65.5144C136.552 65.75 135.94 65.8913 135.374 65.8442C135.186 65.8442 134.997 65.8442 134.809 65.8442C133.914 65.8442 133.16 65.8913 132.359 65.8913ZM97.1712 33.9062C95.4754 41.0192 91.6598 58.6369 93.3085 60.9923C93.8738 61.7931 95.5696 62.0757 96.653 62.3112L97.2654 62.4054C103.342 63.6302 109.749 64.007 115.872 64.3839L117.474 64.4781C120.206 64.6665 123.221 64.8078 126.613 64.9492C127.319 64.9963 127.979 65.0434 128.685 65.0905C129.816 65.1376 130.946 65.2318 132.077 65.2318C132.925 65.2318 133.773 65.1847 134.715 65.1376C134.903 65.1376 135.139 65.1376 135.327 65.1376C135.845 65.1847 136.316 65.0905 136.787 64.9021C137.306 64.6194 137.635 64.1013 137.682 63.536C137.73 62.9707 137.494 62.4054 137.023 62.0286C136.787 61.8402 136.505 61.6988 136.222 61.6046C136.034 61.5104 135.845 61.4633 135.704 61.3691C135.563 61.2749 135.468 61.0865 135.563 60.9451V60.898L136.222 59.8617L136.269 59.8146H136.222C135.563 59.532 134.715 59.6262 133.867 59.7204C133.49 59.7675 133.16 59.8146 132.831 59.8146C132.03 59.8146 131.182 59.7204 130.381 59.532C130.145 59.4849 129.863 59.4377 129.58 59.3906C126.942 58.9667 124.304 58.5898 121.855 58.2601C116.626 57.6006 111.02 56.9411 105.321 56.3758C105.179 56.3758 105.038 56.2345 105.038 56.0932C105.038 55.9519 102.541 42.9506 100.704 38.1929C100.045 36.4499 98.7728 34.9425 97.1241 34.0475L97.1712 33.9062Z" fill="#231F20"/>
<path d="M113.851 51.5876C112.189 54.3276 114.031 60.4365 114.031 60.4365L116.501 62.2332C120.229 64.3443 124.946 63.0866 127.102 59.3584C129.168 55.765 128.045 51.1384 124.497 48.9374L121.757 47.5898C121.802 47.5898 115.513 48.8026 113.851 51.5876Z" fill="#84AFBF"/>
<path d="M120.502 63.6217C119.065 63.6217 117.627 63.2174 116.37 62.4538L113.899 60.6571C113.854 60.6122 113.809 60.5673 113.764 60.4774C113.674 60.2079 111.878 54.1889 113.585 51.359C115.291 48.5292 121.445 47.2715 121.715 47.2266C121.76 47.2266 121.85 47.2266 121.894 47.2715L124.634 48.619C128.453 50.9099 129.71 55.8509 127.419 59.6689C125.982 62.1394 123.377 63.6217 120.502 63.6217ZM114.348 60.2528L116.729 61.9597C120.322 63.9811 124.859 62.7233 126.88 59.1299C128.812 55.6712 127.734 51.3141 124.365 49.203L121.76 47.9452C120.951 48.1249 115.606 49.3377 114.169 51.7633C112.731 54.1889 114.124 59.4443 114.348 60.2528Z" fill="#231F20"/>
<path d="M118.841 62.323C123.133 62.323 126.612 58.8438 126.612 54.5521C126.612 50.2604 123.133 46.7812 118.841 46.7812C114.549 46.7812 111.07 50.2604 111.07 54.5521C111.07 58.8438 114.549 62.323 118.841 62.323Z" fill="#84AFBF"/>
<path d="M118.835 62.5924C114.388 62.5924 110.75 58.9541 110.75 54.5072C110.75 50.0603 114.388 46.4219 118.835 46.4219C123.282 46.4219 126.921 50.0603 126.921 54.5072C126.921 55.9895 126.516 57.4268 125.753 58.6846C124.27 61.1551 121.665 62.6374 118.835 62.5924ZM118.835 47.0956C114.748 47.0956 111.379 50.4196 111.379 54.5072C111.379 58.5947 114.703 61.9636 118.79 61.9636C122.878 61.9636 126.247 58.6396 126.247 54.5521C126.247 51.9468 124.899 49.5212 122.653 48.1737C121.485 47.455 120.183 47.0956 118.835 47.0956Z" fill="#231F20"/>
<path d="M98.7578 61.4219V65.4196C98.7578 66.9468 102.441 68.1596 107.023 68.1596C111.604 68.1596 115.288 66.9468 115.288 65.4196V61.4219H98.7578Z" fill="#84AFBF"/>
<path d="M106.98 68.4291C102.847 68.4291 98.4453 67.3511 98.4453 65.3747V61.3769C98.4453 61.1973 98.5801 61.0625 98.7597 61.0625H115.245C115.424 61.0625 115.559 61.1973 115.559 61.3769V65.3747C115.559 67.3511 111.157 68.4291 106.98 68.4291ZM99.0742 61.6914V65.3747C99.0742 66.4976 102.308 67.8002 106.98 67.8002C111.651 67.8002 114.885 66.5425 114.885 65.3747V61.6914H99.0742Z" fill="#231F20"/>
<path d="M106.976 64.1597C111.54 64.1597 115.241 62.933 115.241 61.4197C115.241 59.9064 111.54 58.6797 106.976 58.6797C102.411 58.6797 98.7109 59.9064 98.7109 61.4197C98.7109 62.933 102.411 64.1597 106.976 64.1597Z" fill="#231F20"/>
<path d="M106.98 64.4292C102.847 64.4292 98.4453 63.3512 98.4453 61.3748C98.4453 59.3984 102.847 58.3203 106.98 58.3203C111.112 58.3203 115.514 59.3984 115.514 61.3748C115.514 63.3512 111.157 64.4292 106.98 64.4292ZM106.98 58.9941C102.308 58.9941 99.0742 60.2518 99.0742 61.4197C99.0742 62.5875 102.308 63.8453 106.98 63.8453C111.651 63.8453 114.885 62.5875 114.885 61.4197C114.885 60.2518 111.651 58.9941 106.98 58.9941Z" fill="#231F20"/>
<path d="M100.688 55.9453V59.943C100.688 61.4703 104.371 62.683 108.952 62.683C113.534 62.683 117.217 61.4703 117.217 59.943V55.9453H100.688Z" fill="#84AFBF"/>
<path d="M108.956 62.9916C104.824 62.9916 100.422 61.9135 100.422 59.9371V55.9394C100.422 55.7598 100.557 55.625 100.736 55.625H117.221C117.401 55.625 117.536 55.7598 117.536 55.9394V59.9371C117.491 61.9135 113.089 62.9916 108.956 62.9916ZM101.006 56.2539V59.9371C101.006 61.105 104.24 62.3627 108.911 62.3627C113.583 62.3627 116.817 61.105 116.817 59.9371V56.2539H101.006Z" fill="#231F20"/>
<path d="M108.952 58.6832C113.517 58.6832 117.217 57.4564 117.217 55.9431C117.217 54.4299 113.517 53.2031 108.952 53.2031C104.388 53.2031 100.688 54.4299 100.688 55.9431C100.688 57.4564 104.388 58.6832 108.952 58.6832Z" fill="#231F20"/>
<path d="M108.956 58.9917C104.824 58.9917 100.422 57.9137 100.422 55.9373C100.422 53.9609 104.824 52.8828 108.956 52.8828C113.089 52.8828 117.491 53.9609 117.491 55.9373C117.491 57.9137 113.089 58.9917 108.956 58.9917ZM108.956 53.5117C104.285 53.5117 101.051 54.7694 101.051 55.9373C101.051 57.1051 104.285 58.3628 108.956 58.3628C113.628 58.3628 116.862 57.1051 116.862 55.9373C116.862 54.7694 113.628 53.5117 108.956 53.5117Z" fill="#231F20"/>
<path d="M99.0312 49.832V53.8298C99.0312 55.357 102.715 56.5698 107.296 56.5698C111.878 56.5698 115.561 55.357 115.561 53.8298V49.832H99.0312Z" fill="#84AFBF"/>
<path d="M107.245 56.8861C103.113 56.8861 98.7109 55.8081 98.7109 53.8317V49.834C98.7109 49.6543 98.8457 49.5195 99.0254 49.5195H115.51C115.69 49.5195 115.825 49.6543 115.825 49.834V53.8317C115.825 55.8081 111.423 56.8861 107.245 56.8861ZM99.3398 50.1484V53.8317C99.3398 54.9996 102.574 56.2573 107.245 56.2573C111.917 56.2573 115.151 54.9996 115.151 53.8317V50.1484H99.3398Z" fill="#231F20"/>
<path d="M107.249 52.5738C111.814 52.5738 115.514 51.347 115.514 49.8338C115.514 48.3205 111.814 47.0938 107.249 47.0938C102.685 47.0938 98.9844 48.3205 98.9844 49.8338C98.9844 51.347 102.685 52.5738 107.249 52.5738Z" fill="#231F20"/>
<path d="M107.245 52.8901C103.113 52.8901 98.7109 51.8121 98.7109 49.8357C98.7109 47.8593 103.113 46.7812 107.245 46.7812C111.378 46.7812 115.78 47.8593 115.78 49.8357C115.78 51.8121 111.423 52.8901 107.245 52.8901ZM107.245 47.4101C102.574 47.4101 99.3398 48.6678 99.3398 49.8357C99.3398 51.0036 102.574 52.2613 107.245 52.2613C111.917 52.2613 115.151 51.0036 115.151 49.8357C115.151 48.6678 111.917 47.4101 107.245 47.4101Z" fill="#231F20"/>
<path d="M120.453 60.6992V64.6969C120.453 66.2242 124.136 67.437 128.718 67.437C133.3 67.437 136.983 66.2242 136.983 64.6969V60.6992H120.453Z" fill="#84AFBF"/>
<path d="M128.675 67.7572C124.543 67.7572 120.141 66.6792 120.141 64.7028V60.7051C120.141 60.5254 120.275 60.3906 120.455 60.3906H136.94C137.12 60.3906 137.254 60.5254 137.254 60.7051V64.7028C137.254 66.6792 132.852 67.7572 128.675 67.7572ZM120.769 61.0195V64.7028C120.769 65.8257 124.004 67.1284 128.675 67.1284C133.347 67.1284 136.581 65.8707 136.581 64.7028V61.0195H120.769Z" fill="#231F20"/>
<path d="M128.679 63.441C133.244 63.441 136.944 62.2142 136.944 60.701C136.944 59.1877 133.244 57.9609 128.679 57.9609C124.114 57.9609 120.414 59.1877 120.414 60.701C120.414 62.2142 124.114 63.441 128.679 63.441Z" fill="#231F20"/>
<path d="M128.675 63.7573C124.543 63.7573 120.141 62.6793 120.141 60.7029C120.141 58.7265 124.543 57.6484 128.675 57.6484C132.808 57.6484 137.21 58.7265 137.21 60.7029C137.21 62.6793 132.852 63.7573 128.675 63.7573ZM128.675 58.2773C124.004 58.2773 120.769 59.535 120.769 60.7029C120.769 61.8708 124.004 63.1285 128.675 63.1285C133.347 63.1285 136.581 61.8708 136.581 60.7029C136.581 59.535 133.347 58.2773 128.675 58.2773Z" fill="#231F20"/>
<path d="M119.375 55.9883V59.986C119.375 61.5132 123.058 62.726 127.64 62.726C132.222 62.726 135.905 61.5132 135.905 59.986V55.9883H119.375Z" fill="#84AFBF"/>
<path d="M127.597 63.0385C123.464 63.0385 119.062 61.9604 119.062 59.984V55.9863C119.062 55.8066 119.197 55.6719 119.377 55.6719H135.862C136.042 55.6719 136.176 55.8066 136.176 55.9863V59.984C136.176 61.9604 131.774 63.0385 127.597 63.0385ZM119.691 56.3007V59.984C119.691 61.1519 122.925 62.4096 127.597 62.4096C132.268 62.4096 135.503 61.1519 135.503 59.984V56.3007H119.691Z" fill="#231F20"/>
<path d="M127.601 58.73C132.165 58.73 135.866 57.5033 135.866 55.99C135.866 54.4767 132.165 53.25 127.601 53.25C123.036 53.25 119.336 54.4767 119.336 55.99C119.336 57.5033 123.036 58.73 127.601 58.73Z" fill="#231F20"/>
<path d="M127.597 59.0425C123.464 59.0425 119.062 57.9644 119.062 55.988C119.062 54.0116 123.464 52.9336 127.597 52.9336C131.729 52.9336 136.131 54.0116 136.131 55.988C136.131 57.9644 131.774 59.0425 127.597 59.0425ZM127.597 53.5624C122.925 53.5624 119.691 54.8202 119.691 55.988C119.691 57.1559 122.925 58.4136 127.597 58.4136C132.268 58.4136 135.503 57.1559 135.503 55.988C135.503 54.8202 132.313 53.5624 127.597 53.5624Z" fill="#231F20"/>
<path d="M120.727 50.2344V54.2321C120.727 55.7593 124.41 56.9721 128.992 56.9721C133.573 56.9721 137.256 55.7593 137.256 54.2321V50.2344H120.727Z" fill="#84AFBF"/>
<path d="M128.949 57.2416C124.816 57.2416 120.414 56.1636 120.414 54.1872V50.1894C120.414 50.0098 120.549 49.875 120.728 49.875H137.213C137.393 49.875 137.528 50.0098 137.528 50.1894V54.1872C137.483 56.2085 133.081 57.2416 128.949 57.2416ZM121.043 50.5039V54.1872C121.043 55.355 124.277 56.6127 128.949 56.6127C133.62 56.6127 136.854 55.355 136.854 54.1872V50.5039H121.043Z" fill="#231F20"/>
<path d="M128.945 52.9761C133.509 52.9761 137.21 51.7494 137.21 50.2361C137.21 48.7228 133.509 47.4961 128.945 47.4961C124.38 47.4961 120.68 48.7228 120.68 50.2361C120.68 51.7494 124.38 52.9761 128.945 52.9761Z" fill="#231F20"/>
<path d="M128.949 53.2925C124.816 53.2925 120.414 52.2144 120.414 50.238C120.414 48.2616 124.816 47.1836 128.949 47.1836C133.081 47.1836 137.483 48.2616 137.483 50.238C137.483 52.2144 133.081 53.2925 128.949 53.2925ZM128.949 47.8124C124.277 47.8124 121.043 49.0702 121.043 50.238C121.043 51.4059 124.277 52.6636 128.949 52.6636C133.62 52.6636 136.854 51.4059 136.854 50.238C136.854 49.0702 133.62 47.8124 128.949 47.8124Z" fill="#231F20"/>
<path d="M119.375 44.4414V48.4391C119.375 49.9664 123.058 51.1791 127.64 51.1791C132.222 51.1791 135.905 49.9664 135.905 48.4391V44.4414H119.375Z" fill="#84AFBF"/>
<path d="M127.597 51.4955C123.464 51.4955 119.062 50.4175 119.062 48.4411V44.4433C119.062 44.2637 119.197 44.1289 119.377 44.1289H135.862C136.042 44.1289 136.176 44.2637 136.176 44.4433V48.4411C136.176 50.4175 131.774 51.4955 127.597 51.4955ZM119.691 44.7578V48.4411C119.691 49.6089 122.925 50.8666 127.597 50.8666C132.268 50.8666 135.503 49.6089 135.503 48.4411V44.7578H119.691Z" fill="#231F20"/>
<path d="M127.601 47.1831C132.165 47.1831 135.866 45.9564 135.866 44.4431C135.866 42.9299 132.165 41.7031 127.601 41.7031C123.036 41.7031 119.336 42.9299 119.336 44.4431C119.336 45.9564 123.036 47.1831 127.601 47.1831Z" fill="#231F20"/>
<path d="M127.597 47.4995C123.464 47.4995 119.062 46.4215 119.062 44.4451C119.062 42.4687 123.464 41.3906 127.597 41.3906C131.729 41.3906 136.131 42.4687 136.131 44.4451C136.131 46.4215 131.774 47.4995 127.597 47.4995ZM127.597 42.0195C122.925 42.0195 119.691 43.2772 119.691 44.4451C119.691 45.6129 122.925 46.8706 127.597 46.8706C132.268 46.8706 135.503 45.6129 135.503 44.4451C135.503 43.2772 132.313 42.0195 127.597 42.0195Z" fill="#231F20"/>
<path d="M122.031 39.7266V43.7243C122.031 45.2515 125.715 46.4643 130.296 46.4643C134.878 46.4643 138.561 45.2515 138.561 43.7243V39.7266H122.031Z" fill="#84AFBF"/>
<path d="M130.292 46.7338C126.16 46.7338 121.758 45.6557 121.758 43.6793V39.6816C121.758 39.5019 121.893 39.3672 122.072 39.3672H138.512C138.692 39.3672 138.827 39.5019 138.827 39.6816V43.6793C138.827 45.6557 134.425 46.7338 130.292 46.7338ZM122.387 39.996V43.6793C122.387 44.8472 125.621 46.1049 130.292 46.1049C134.964 46.1049 138.198 44.8472 138.198 43.6793V39.996H122.387Z" fill="#231F20"/>
<path d="M130.296 42.4644C134.861 42.4644 138.561 41.2376 138.561 39.7244C138.561 38.2111 134.861 36.9844 130.296 36.9844C125.732 36.9844 122.031 38.2111 122.031 39.7244C122.031 41.2376 125.732 42.4644 130.296 42.4644Z" fill="#231F20"/>
<path d="M130.292 42.7807C126.16 42.7807 121.758 41.7027 121.758 39.7263C121.758 37.7499 126.16 36.6719 130.292 36.6719C134.425 36.6719 138.827 37.7499 138.827 39.7263C138.827 41.7027 134.425 42.7807 130.292 42.7807ZM130.292 37.3007C125.621 37.3007 122.387 38.5584 122.387 39.7263C122.387 40.8942 125.621 42.1519 130.292 42.1519C134.964 42.1519 138.198 40.8942 138.198 39.7263C138.198 38.5584 134.964 37.3007 130.292 37.3007Z" fill="#231F20"/>
<path d="M120.234 34.9688V38.9665C120.234 40.4937 123.918 41.7065 128.499 41.7065C133.081 41.7065 136.764 40.4937 136.764 38.9665V34.9688H120.234Z" fill="#84AFBF"/>
<path d="M128.449 42.015C124.316 42.015 119.914 40.937 119.914 38.9606V34.9629C119.914 34.7832 120.049 34.6484 120.228 34.6484H136.713C136.893 34.6484 137.028 34.7832 137.028 34.9629V38.9606C137.028 40.937 132.626 42.015 128.449 42.015ZM120.543 35.2773V38.9606C120.543 40.1285 123.777 41.3862 128.449 41.3862C133.12 41.3862 136.354 40.1285 136.354 38.9606V35.2773H120.543Z" fill="#231F20"/>
<path d="M128.452 37.7027C133.017 37.7027 136.717 36.4759 136.717 34.9627C136.717 33.4494 133.017 32.2227 128.452 32.2227C123.888 32.2227 120.188 33.4494 120.188 34.9627C120.188 36.4759 123.888 37.7027 128.452 37.7027Z" fill="#84AFBF"/>
<path d="M128.449 38.019C124.316 38.019 119.914 36.941 119.914 34.9646C119.914 32.9882 124.316 31.9102 128.449 31.9102C132.581 31.9102 137.028 32.9882 137.028 34.9646C137.028 36.941 132.626 38.019 128.449 38.019ZM128.449 32.5839C123.777 32.5839 120.543 33.8416 120.543 35.0095C120.543 36.1774 123.777 37.4351 128.449 37.4351C133.12 37.4351 136.354 36.1774 136.354 35.0095C136.354 33.8416 133.12 32.5839 128.449 32.5839Z" fill="#231F20"/>
<path d="M111.156 65.7324L111.336 68.697C111.381 70.6734 115.154 72.2455 119.825 72.1557C124.497 72.0659 128.225 70.359 128.18 68.3826L128.001 65.418L111.156 65.7324Z" fill="#84AFBF"/>
<path d="M119.47 72.4721C117.539 72.517 115.562 72.1576 113.765 71.4839C112.014 70.7652 111.07 69.777 111.07 68.6989L110.891 65.7343C110.891 65.6445 110.936 65.5546 110.98 65.5097C111.025 65.4648 111.115 65.4199 111.205 65.4199L128.049 65.1055C128.229 65.1055 128.364 65.1953 128.364 65.375C128.364 65.375 128.364 65.375 128.364 65.4199L128.543 68.3845C128.543 69.5075 127.645 70.5406 125.938 71.3042C124.007 72.1127 121.941 72.517 119.874 72.517L119.47 72.4721ZM111.475 66.0488L111.654 68.6989C111.654 69.5524 112.508 70.316 113.99 70.9448C117.808 72.2475 121.941 72.1576 125.669 70.7202C127.106 70.0914 127.915 69.2379 127.915 68.4294L127.735 65.7792L111.475 66.0488Z" fill="#231F20"/>
<path d="M119.616 69.145C124.279 69.0579 128.029 67.3788 127.992 65.3945C127.955 63.4103 124.145 61.8724 119.482 61.9595C114.819 62.0466 111.069 63.7257 111.106 65.7099C111.143 67.6941 114.953 69.2321 119.616 69.145Z" fill="#84AFBF"/>
<path d="M119.29 69.5048C117.359 69.5497 115.382 69.1904 113.586 68.5166C111.834 67.7979 110.891 66.8097 110.891 65.7317C110.891 64.6536 111.789 63.6205 113.496 62.8569C115.427 62.0484 117.494 61.6441 119.56 61.6441C124.456 61.5543 128.319 63.2162 128.364 65.4172C128.409 67.6182 124.591 69.415 119.695 69.5048H119.29ZM119.874 62.273H119.515C117.539 62.273 115.562 62.6772 113.676 63.3959C112.238 64.0248 111.43 64.8782 111.43 65.6867C111.43 66.4953 112.283 67.3038 113.765 67.9327C115.652 68.6064 117.628 68.9209 119.605 68.831C124.007 68.7412 127.69 67.169 127.645 65.3723C127.645 63.6654 124.052 62.273 119.874 62.273Z" fill="#231F20"/>
<path d="M98.8906 45.1152L99.0703 48.0798C99.1152 50.0562 102.888 51.6284 107.56 51.5385C112.231 51.4487 115.96 49.7867 115.915 47.7654L115.735 44.8008L98.8906 45.1152Z" fill="#84AFBF"/>
<path d="M107.202 51.851C102.486 51.851 98.8027 50.2339 98.7578 48.0778L98.5781 45.1132C98.5781 45.0234 98.623 44.9336 98.668 44.8886C98.7129 44.8437 98.8027 44.7988 98.8926 44.7988L115.737 44.4844C115.917 44.4844 116.051 44.6191 116.051 44.7539L116.231 47.7185C116.231 48.8414 115.333 49.8746 113.626 50.6382C111.694 51.4467 109.628 51.851 107.562 51.851H107.202ZM99.2519 45.4277L99.4316 48.0778C99.4765 49.8746 103.205 51.3119 107.607 51.2221C109.583 51.2221 111.559 50.8178 113.446 50.0992C114.883 49.4703 115.692 48.6168 115.692 47.8083L115.512 45.1581L99.2519 45.4277Z" fill="#231F20"/>
<path d="M107.405 48.5747C112.068 48.4876 115.818 46.8084 115.781 44.8242C115.744 42.84 111.934 41.3021 107.271 41.3892C102.608 41.4763 98.8582 43.1554 98.8952 45.1396C98.9323 47.1238 102.742 48.6618 107.405 48.5747Z" fill="#84AFBF"/>
<path d="M107.023 48.8895C102.306 48.8895 98.623 47.2724 98.5781 45.1164C98.5781 44.0383 99.4765 43.0052 101.183 42.2416C105.091 40.7144 109.403 40.6245 113.356 42.017C115.108 42.7357 116.051 43.7239 116.051 44.8019C116.051 45.88 115.153 46.9131 113.446 47.6767C111.515 48.4852 109.448 48.8895 107.382 48.8895H107.023ZM107.652 41.6577H107.292C105.316 41.6577 103.339 42.0619 101.453 42.7806C100.016 43.4095 99.207 44.2629 99.207 45.0715C99.2519 46.8682 102.98 48.3056 107.382 48.2157C109.403 48.2157 111.38 47.8564 113.221 47.0928C114.659 46.4639 115.467 45.6105 115.467 44.8019C115.467 43.9934 114.614 43.1849 113.132 42.6009C111.38 41.9272 109.538 41.6127 107.652 41.6577Z" fill="#231F20"/>
<path d="M20.1064 52.3503C20.1064 52.3503 21.1395 25.6689 21.8582 23.7374C22.5769 21.806 25.1372 19.6499 24.1939 17.6286C23.2507 15.6072 19.9267 11.0256 19.2979 9.49836C18.669 7.97114 17.8605 3.34456 14.806 2.08685C11.7516 0.829141 12.8745 4.06325 13.5034 6.12949C14.1323 8.19573 14.6264 19.1558 14.3119 24.8604C13.9975 30.565 7.30469 56.4379 7.30469 56.4379" fill="white"/>
<path d="M7.26337 56.7475C7.21845 56.7475 7.21846 56.7475 7.17354 56.7475C6.99386 56.7025 6.90403 56.5229 6.94895 56.3432C7.03878 56.0737 13.6418 30.4254 13.9562 24.8106C14.2706 18.9712 13.7316 8.0561 13.1477 6.16954L13.0578 5.85511C12.5637 4.23805 12.0247 2.44133 12.8332 1.72263C13.2375 1.36329 13.9113 1.36329 14.8995 1.72263C17.5047 2.80067 18.5828 6.16954 19.1667 8.19086C19.3015 8.64004 19.4362 9.0443 19.526 9.31381C20.1998 10.6164 20.9185 11.8742 21.772 13.0869C22.7152 14.4794 23.6136 15.9617 24.4221 17.4889C25.0959 19.0161 24.1077 20.4984 23.1644 21.8909C22.7152 22.4748 22.3559 23.1486 22.0864 23.8224C21.5474 25.3047 20.7388 43.1372 20.3795 52.3455C20.3795 52.5251 20.2447 52.6599 20.0651 52.6599C19.8854 52.6599 19.7506 52.5251 19.7506 52.3455C19.7956 51.2674 20.7838 25.5742 21.5024 23.6427C21.8169 22.924 22.2211 22.2503 22.6703 21.5765C23.5238 20.2739 24.4221 18.9712 23.8382 17.7584C23.0746 16.2761 22.2211 14.8388 21.2329 13.4463C20.3795 12.2335 19.6159 10.9309 18.9421 9.58332C18.8074 9.2689 18.7175 8.90955 18.5378 8.41545C17.9539 6.52888 16.9657 3.29477 14.63 2.35149C13.9562 2.08198 13.4621 2.03706 13.2375 2.21673C12.7434 2.66592 13.2824 4.5974 13.6418 5.72035L13.7316 6.03478C14.3605 8.19086 14.8546 19.2857 14.5401 24.9004C14.2257 30.5152 7.75747 55.4897 7.48796 56.5229C7.53288 56.6576 7.39813 56.7475 7.26337 56.7475Z" fill="#231F20"/>
<path d="M22.4444 38.921C22.6241 38.5168 22.8038 38.1125 22.9385 37.7082C25.6785 31.24 28.2389 27.916 30.35 25.5803C32.4612 23.2445 36.2343 20.1901 36.6835 18.2586C37.1327 16.3271 35.7851 13.4524 35.9199 12.0599C36.0547 10.6674 36.2793 0.875278 34.5274 0.381178C31.0238 -0.607023 29.811 12.5091 28.4186 14.7999C27.0261 17.0908 22.4444 25.8498 18.0425 31.1951C16.5602 32.9469 14.1795 35.7318 11.6641 38.8761L22.4444 38.921Z" fill="white"/>
<path d="M22.4407 39.1871H11.7053C11.5705 39.1871 11.4807 39.0972 11.4358 39.0074C11.3908 38.9176 11.3908 38.7828 11.4807 38.693C13.3672 36.3123 15.164 34.1562 16.6463 32.4494L17.8591 30.967C21.4076 26.7447 25.0909 20.1867 27.0673 16.6381C27.5614 15.7398 27.9657 15.066 28.2352 14.6168C28.6394 13.8981 29.0886 11.9666 29.5827 9.94533C30.526 5.90269 31.5591 1.32102 33.4008 0.242987C33.805 0.0183963 34.2542 -0.0714408 34.7034 0.0633139C36.9493 0.692169 36.3205 11.9666 36.3205 12.1014C36.3205 12.865 36.4552 13.6286 36.6798 14.3473C36.9942 15.6499 37.3536 17.1322 37.0841 18.3001C36.7247 19.7824 34.7034 21.7588 32.6821 23.7352C31.9634 24.4539 31.2447 25.1277 30.6608 25.8015C28.7293 27.9126 26.124 31.1467 23.2942 37.8395L22.8001 39.0523C22.7102 39.1422 22.5755 39.1871 22.4407 39.1871ZM12.3341 38.6031H22.2161L22.6653 37.57C25.5401 30.7874 28.1453 27.5083 30.1217 25.3523C30.7057 24.7234 31.4244 24.0047 32.188 23.286C34.0296 21.4893 36.0959 19.468 36.4103 18.1654C36.6798 17.1322 36.3205 15.7398 36.006 14.4821C35.7365 13.6735 35.6467 12.865 35.6467 12.0116C35.8713 9.9004 35.7814 1.0066 34.4788 0.647252C34.2093 0.557416 33.8949 0.602332 33.6254 0.782005C32.0083 1.72529 30.8853 6.57645 30.1217 10.0801C29.6276 12.2811 29.1784 14.1676 28.7293 14.9312C28.4598 15.3804 28.0555 16.0991 27.5614 16.9526C25.585 20.5011 21.8568 27.0592 18.3082 31.3713L17.0955 32.8536C15.7479 34.4258 14.1308 36.4022 12.3341 38.6031Z" fill="#231F20"/>
<path d="M54.198 42.4212C54.198 42.4212 49.1672 39.9956 39.3301 43.095C29.493 46.1943 19.3864 50.1921 19.3864 50.1921L25.3605 34.1562H15.2539C15.2539 34.1562 -2.89301 48.0809 0.790281 57.1544C4.47358 66.2279 54.198 64.6108 54.198 64.6108V42.4212Z" fill="#231F20"/>
<path d="M45.3063 65.017C30.7528 65.017 3.30781 64.0737 0.522877 57.2461C-1.04926 53.3832 0.92714 48.2176 6.40716 42.0189C9.05734 39.0543 11.977 36.3592 15.0764 33.8887C15.1213 33.8437 15.2111 33.8438 15.2561 33.8438H25.3627C25.4525 33.8438 25.5423 33.8887 25.6322 33.9785C25.6771 34.0683 25.722 34.1582 25.6771 34.248L19.9276 49.61C22.3531 48.6668 30.9325 45.3428 39.2424 42.7376C49.0795 39.6382 54.1103 41.974 54.3349 42.0638C54.4247 42.1087 54.5146 42.2435 54.5146 42.3333V64.5229C54.5146 64.7026 54.3798 64.8373 54.2002 64.8373C53.7061 64.9272 50.2474 65.017 45.3063 65.017ZM15.3908 34.4726C14.0882 35.5057 -2.30697 48.5769 1.10682 57.0215C2.58912 60.615 12.2016 62.9957 28.9112 63.939C40.545 64.6127 51.9093 64.3432 53.8857 64.2534V42.5579C52.8975 42.1985 48.0014 40.6264 39.467 43.3215C29.7646 46.3759 19.658 50.3737 19.5233 50.4186C19.3436 50.4635 19.1639 50.4186 19.119 50.2389C19.0741 50.1491 19.0741 50.0592 19.119 50.0143L24.9584 34.3828L15.3908 34.4726Z" fill="#231F20"/>
<path d="M85.601 32.6719C85.601 32.6719 69.5652 48.0339 66.331 48.6628C63.5461 49.2018 61.3451 43.9014 54.2031 42.4191V64.6087C60.9858 64.5638 74.1019 64.2943 81.3786 63.3959C91.5302 62.1832 100.065 60.7458 102.984 48.6178C105.904 36.4899 93.2371 32.7617 85.601 32.6719Z" fill="#84AFBF"/>
<path d="M54.1972 64.927C54.1074 64.927 54.0176 64.8821 53.9727 64.8372C53.9277 64.7923 53.8828 64.7024 53.8828 64.6126V42.423C53.8828 42.3332 53.9277 42.2433 54.0176 42.1984C54.1074 42.1535 54.1972 42.1086 54.2871 42.1535C58.3297 43.0069 60.8451 45.0283 62.6868 46.5555C64.1691 47.7234 65.2022 48.6217 66.3252 48.3971C68.7957 47.903 79.8905 37.7964 85.4154 32.4961C85.4603 32.4512 85.5502 32.4062 85.64 32.4062C90.7607 32.4961 98.0374 34.203 101.586 38.7846C103.697 41.4797 104.281 44.8486 103.338 48.8014C100.283 61.5582 90.7157 62.6811 81.4626 63.8041C74.1858 64.5677 61.2494 64.8372 54.1972 64.927ZM54.5117 42.7824V64.2533C61.6088 64.1634 74.2308 63.9388 81.3728 63.0854C92.4676 61.7378 99.9689 60.031 102.709 48.5768C103.607 44.8486 103.068 41.6594 101.092 39.0991C97.6781 34.742 90.7607 33.08 85.7298 32.9902C84.2924 34.3826 69.5593 48.3522 66.415 48.9811C65.0225 49.2506 63.8097 48.2624 62.2825 47.0047C60.4409 45.4775 58.15 43.6358 54.5117 42.7824Z" fill="#231F20"/>
<path d="M107.476 15.1575C107.117 12.7768 106.713 10.5758 104.826 8.68923C102.985 6.98234 100.604 5.9043 98.0884 5.67971C94.1356 5.27545 90.1379 6.53316 87.1733 9.18333C84.4333 11.6538 82.5468 15.427 82.5468 19.1552C82.5917 23.1529 81.6933 27.2405 81.6035 31.328C81.5585 33.4841 81.3789 36.269 83.3104 37.7513C83.8494 38.1556 83.2205 37.2123 83.8943 37.2572C86.23 37.4369 88.7455 37.7064 91.0812 37.4369C93.2822 37.1674 95.2586 36.1792 97.3698 35.8648C98.8071 35.6402 100.065 36.0444 101.412 36.4038C101.682 36.4936 101.951 36.5385 102.221 36.6284C104.287 37.1225 106.533 37.1225 108.42 36.2241C110.306 35.3257 111.789 33.3493 111.789 31.2382C111.744 29.4864 110.755 27.9142 109.992 26.3421C108.509 23.2427 108.24 19.7391 107.701 16.3702C107.611 15.9211 107.521 15.5617 107.476 15.1575Z" fill="white"/>
<path d="M83.4889 38.1536C83.3542 38.1536 83.2194 38.0638 83.0846 37.974C81.1082 36.4468 81.1981 33.7517 81.243 31.5507V31.2812C81.2879 29.3946 81.5125 27.508 81.7371 25.6215C82.0515 23.4654 82.1863 21.3093 82.2312 19.1083C82.1863 15.47 83.983 11.5621 86.9476 8.91189C90.0021 6.2168 94.0447 4.91417 98.1322 5.31843C100.738 5.54303 103.163 6.66598 105.05 8.41779C107.071 10.3942 107.43 12.7749 107.79 15.0657L107.835 15.2454C107.88 15.5598 107.924 15.9191 108.014 16.2336C108.149 16.9073 108.239 17.626 108.329 18.2998C108.733 20.95 109.137 23.69 110.305 26.1156C110.44 26.43 110.575 26.6995 110.754 26.969C111.428 28.2716 112.102 29.6192 112.147 31.1464C112.192 33.2576 110.754 35.3687 108.598 36.4018C106.307 37.4799 103.837 37.2553 102.175 36.851C101.905 36.8061 101.636 36.7163 101.366 36.6264L101.187 36.5815C99.929 36.2222 98.7611 35.9077 97.4585 36.1323C96.4703 36.312 95.4821 36.5366 94.5388 36.8959C93.4158 37.2553 92.2929 37.5697 91.125 37.7045C89.1037 37.8841 87.0375 37.8392 85.0161 37.6146L83.8932 37.5248V37.6146C83.9381 37.7943 83.8483 37.974 83.6686 38.0638C83.6237 38.1536 83.5787 38.1536 83.4889 38.1536ZM96.605 5.90237C93.1912 5.90237 89.9122 7.16008 87.3519 9.45091C84.522 11.9663 82.8151 15.6945 82.8601 19.1532C82.8151 21.3542 82.6804 23.5552 82.366 25.7113C82.1414 27.5529 81.9168 29.4395 81.8719 31.2812V31.5507C81.8269 33.5271 81.7371 35.9527 83.2643 37.3002C83.3092 37.2104 83.3542 37.1654 83.3991 37.0756C83.5338 36.9409 83.7135 36.8959 83.8932 36.8959L85.0161 36.9858C86.9925 37.2104 89.0139 37.2104 91.0352 37.0756C92.1581 36.8959 93.2362 36.6264 94.3142 36.2671C95.3024 35.9527 96.2906 35.6831 97.3237 35.5035C98.7611 35.2789 100.064 35.6382 101.321 35.9976L101.501 36.0425L102.31 36.2671C103.882 36.6713 106.173 36.8959 108.284 35.8628C110.215 34.9195 111.473 33.033 111.473 31.1913C111.473 29.8438 110.799 28.5412 110.17 27.2834C110.036 27.0139 109.856 26.6995 109.721 26.43C108.508 23.9146 108.104 21.1296 107.7 18.4346C107.61 17.7159 107.475 17.0421 107.385 16.3683C107.34 16.009 107.296 15.6945 107.206 15.3801L107.161 15.2004C106.801 12.9995 106.487 10.7535 104.6 8.91189C102.804 7.24992 100.468 6.2168 98.0424 5.99221C97.5483 5.94729 97.0991 5.90237 96.605 5.90237Z" fill="#231F20"/>
<path d="M105.225 17.1307C105.225 17.1307 106.977 23.015 105.764 27.3272C105.135 29.7977 103.069 31.6842 100.554 32.0885L100.149 39.8593C100.149 39.8593 99.9698 43.8122 95.1636 42.9587C92.3337 42.4646 89.953 40.4882 88.875 37.7931L89.0547 23.5091C89.0547 23.5091 94.7144 20.6343 94.5347 15.4688C94.5347 15.4688 100.913 18.9724 105.225 17.1307Z" fill="white"/>
<path d="M96.4701 43.4103C96.0209 43.4103 95.5717 43.3654 95.1225 43.2756C92.1579 42.7365 89.6874 40.7152 88.6094 37.9303C88.6094 37.8854 88.6094 37.8404 88.6094 37.8404L88.789 23.5565C88.789 23.4217 88.834 23.3319 88.9687 23.2869C89.0136 23.242 94.4487 20.4122 94.2691 15.561C94.2691 15.4263 94.314 15.3364 94.4038 15.2915C94.4937 15.2466 94.6284 15.2466 94.7182 15.2915C94.7632 15.3364 101.007 18.7053 105.139 16.9535C105.229 16.9086 105.319 16.9086 105.409 16.9535C105.499 16.9984 105.544 17.0433 105.588 17.1332C105.678 17.3577 107.385 23.1522 106.127 27.5093C105.454 30.0247 103.477 31.9112 100.917 32.4503L100.513 39.9516C100.423 40.9847 99.9288 41.9729 99.1202 42.6467C98.3566 43.1408 97.4133 43.4552 96.4701 43.4103ZM89.1933 37.7506C90.2264 40.3109 92.5173 42.1526 95.2123 42.6467C96.7396 42.9162 97.9074 42.7365 98.716 42.0628C99.3897 41.4788 99.794 40.6703 99.8389 39.8169L100.243 32.046C100.243 31.9112 100.378 31.7765 100.513 31.7316C102.938 31.3722 104.87 29.5755 105.454 27.1948C106.487 23.5565 105.364 18.7951 105.005 17.4925C101.276 18.84 96.3802 16.684 94.853 15.9204C94.7182 20.4571 90.3163 23.1073 89.373 23.6014L89.1933 37.7506Z" fill="#231F20"/>
<path d="M91.7938 22.6567C91.7938 22.6567 89.6827 17.1318 86.8079 20.4108C83.9331 23.6898 87.6613 27.5977 90.0869 27.418" fill="white"/>
<path d="M89.9125 27.6869C88.4751 27.6869 86.7682 26.4741 85.9148 24.8571C85.1063 23.3298 85.3309 21.4433 86.5437 20.1856C87.3073 19.2872 88.1158 18.9279 88.9692 19.0626C90.8558 19.422 92.0237 22.3866 92.0686 22.5213C92.1135 22.701 92.0686 22.8807 91.8889 22.9256C91.7092 22.9705 91.5296 22.9256 91.4847 22.7459C91.4847 22.701 90.4066 19.961 88.8345 19.6915C88.2505 19.6016 87.6217 19.8711 86.9928 20.5898C85.9597 21.6679 85.7351 23.2849 86.4538 24.5875C87.1725 26.0699 88.7896 27.1479 90.0473 27.0581C90.2269 27.0581 90.3617 27.1928 90.3617 27.3725C90.3617 27.5072 90.2719 27.642 90.0922 27.6869H89.9125Z" fill="#231F20"/>
<path d="M100.013 28.0912C99.4293 28.0912 98.8454 28.0014 98.3064 27.8217C98.1267 27.7768 98.0368 27.5971 98.0818 27.4175C98.1267 27.2378 98.3064 27.1479 98.486 27.1929H98.5309C98.9352 27.3276 100.148 27.5971 100.777 27.3276C100.912 27.0132 99.9683 25.1266 98.7555 23.285C98.6657 23.1502 98.7106 22.9256 98.8454 22.8358C98.9801 22.746 99.1598 22.7909 99.2496 22.9256C99.7887 23.7342 101.63 26.5191 101.316 27.5073C101.271 27.687 101.136 27.8217 101.001 27.9116C100.687 28.0463 100.328 28.0912 100.013 28.0912Z" fill="#231F20"/>
<path d="M100.552 32.0898C100.552 32.0898 96.3748 32.4042 94.0391 31.6406C94.0391 31.6406 96.3299 37.8843 100.283 38.0639L100.552 32.0898Z" fill="#231F20"/>
<path d="M100.29 38.3784C96.202 38.1987 93.8663 32 93.7764 31.7305C93.7315 31.6406 93.7764 31.5059 93.8213 31.4161C93.9112 31.3262 94.0459 31.2813 94.1358 31.3262C96.3817 32.0449 100.514 31.7305 100.559 31.7305C100.649 31.7305 100.739 31.7754 100.784 31.8203C100.829 31.8652 100.873 31.9551 100.873 32.0449L100.559 38.019C100.604 38.2436 100.469 38.3784 100.29 38.3784ZM94.5849 32.1347C95.2138 33.5721 97.1453 37.3453 99.9751 37.7495L100.245 32.4492C99.2564 32.4941 96.5613 32.5839 94.5849 32.1347Z" fill="#231F20"/>
<path d="M95.4392 22.7951C95.7865 22.7941 96.0668 22.3108 96.0652 21.7154C96.0637 21.12 95.7808 20.6381 95.4335 20.639C95.0862 20.6399 94.806 21.1233 94.8075 21.7187C94.8091 22.314 95.0919 22.796 95.4392 22.7951Z" fill="#231F20"/>
<path d="M101.236 22.5216C101.583 22.5207 101.864 22.0373 101.862 21.4419C101.861 20.8465 101.578 20.3646 101.23 20.3655C100.883 20.3665 100.603 20.8498 100.604 21.4452C100.606 22.0406 100.889 22.5225 101.236 22.5216Z" fill="#231F20"/>
<path d="M81.7327 28.496C81.4632 31.2809 81.1488 34.515 82.2717 37.2101C83.799 40.8036 88.2459 40.04 91.1656 38.6924C92.3783 38.1085 93.7259 37.3898 94.0403 36.0872C94.3098 35.0091 93.8157 33.8862 93.2318 32.898C91.9292 30.697 90.2672 28.7655 88.3357 27.1484" fill="white"/>
<path d="M86.5434 40.1299C85.8247 40.1299 85.106 40.0401 84.4322 39.7706C83.3092 39.3214 82.4109 38.4679 81.9617 37.345C80.8387 34.6948 81.1083 31.5954 81.3778 28.8554L81.4227 28.4961C81.4227 28.3164 81.6024 28.1817 81.782 28.2266C81.9617 28.2266 82.0965 28.4063 82.0515 28.5859L82.0066 28.9453C81.782 31.6404 81.5125 34.6499 82.5456 37.1653C82.905 38.1535 83.7135 38.9171 84.6568 39.2765C86.2738 39.9053 88.6096 39.5909 90.9903 38.5128C92.248 37.9289 93.4158 37.2551 93.6854 36.1322C93.9549 35.144 93.4158 34.021 92.9217 33.2125C91.6191 31.0564 90.0021 29.1699 88.0706 27.5528C87.9358 27.463 87.9358 27.2384 88.0257 27.1036C88.1155 26.9689 88.3401 26.9689 88.4748 27.0587C90.4512 28.7207 92.1581 30.6971 93.4608 32.8981C93.9998 33.8414 94.6286 35.0991 94.3142 36.3119C93.9549 37.7043 92.6073 38.4679 91.2598 39.0968C89.7775 39.6807 88.1604 40.085 86.5434 40.1299Z" fill="#231F20"/>
<path d="M96.0642 25.935C94.1327 25.935 92.5156 24.3628 92.5156 22.4313C92.5156 20.4999 94.0878 18.8828 96.0193 18.8828C97.9507 18.8828 99.5678 20.455 99.5678 22.3864C99.5678 24.1382 98.3101 25.6205 96.5583 25.8901C96.4235 25.8901 96.2438 25.935 96.0642 25.935ZM96.0642 19.5117C95.9294 19.5117 95.7497 19.5117 95.615 19.5566C94.0428 19.7812 92.9199 21.2635 93.1894 22.8805C93.4589 24.4976 94.8963 25.5756 96.5133 25.3061C98.1304 25.0366 99.2084 23.5992 98.9389 21.9822C98.7143 20.5448 97.5015 19.5117 96.0642 19.5117Z" fill="#231F20"/>
<path d="M102.263 25.9378C100.287 25.9378 98.6699 24.3657 98.625 22.3893C98.625 20.4129 100.197 18.7958 102.174 18.7509C104.15 18.706 105.767 20.3231 105.812 22.2995C105.812 24.0962 104.554 25.5785 102.802 25.8929C102.623 25.8929 102.443 25.9378 102.263 25.9378ZM102.263 19.5145C102.129 19.5145 101.949 19.5145 101.814 19.5594C100.242 19.784 99.1191 21.2663 99.3886 22.8834C99.6581 24.5004 101.096 25.5785 102.713 25.309C104.33 25.0395 105.408 23.6021 105.138 21.985C104.914 20.5476 103.701 19.5145 102.263 19.5145Z" fill="#231F20"/>
<path d="M97.4978 29.6189C96.6443 29.6638 95.7909 29.3943 95.1171 28.8553C94.623 28.4061 94.3086 27.7773 94.2188 27.1035C94.2188 26.9238 94.3535 26.7891 94.5332 26.7891C94.7128 26.7891 94.8476 26.8789 94.8476 27.0586C94.8925 27.5976 95.162 28.0468 95.5214 28.4061C96.1951 28.9002 97.0486 29.1248 97.902 28.9901C98.0817 28.9901 98.2165 29.1248 98.2614 29.2596C98.3063 29.3943 98.1266 29.574 97.9919 29.6189C97.8122 29.6189 97.6325 29.6189 97.4978 29.6189Z" fill="#231F20"/>
<path d="M92.8749 22.0292C92.83 22.0292 92.83 22.0292 92.7851 22.0292L90.9884 21.4902C90.8087 21.4452 90.7188 21.2656 90.8087 21.0859C90.8536 20.9511 91.0333 20.8613 91.168 20.9062L92.9648 21.4452C93.1444 21.4902 93.2343 21.6698 93.1893 21.8495C93.1444 21.9393 93.0097 22.0292 92.8749 22.0292Z" fill="#231F20"/>
<path d="M106.213 22.9257H105.314C105.135 22.9257 105 22.791 105 22.6113C105 22.4316 105.135 22.2969 105.314 22.2969H106.213C106.392 22.2969 106.527 22.4316 106.527 22.6113C106.527 22.791 106.392 22.9257 106.213 22.9257Z" fill="#231F20"/>
<path d="M81.9141 47.1363C81.9141 47.1363 86.4508 74.6712 91.5715 75.345C101.004 76.5578 119.6 64.6095 119.6 64.6095C119.6 64.6095 129.078 63.7561 129.123 62.9476C129.168 62.139 125.934 62.0043 125.934 62.0043C125.934 62.0043 131.639 61.7348 131.414 60.7915C131.189 59.8482 127.012 60.1177 127.012 60.1177C127.012 60.1177 132.672 59.6685 132.222 58.5905C131.773 57.5124 127.012 58.0964 127.012 58.0964C127.012 58.0964 131.908 57.1531 131.324 56.0751C130.74 54.997 121.622 57.737 121.622 57.737C121.622 57.737 125.036 55.7606 123.958 54.5478C122.879 53.335 118.298 58.5006 118.298 58.5006L96.8718 66.3164L94.042 47.3609C94.042 47.3609 92.8741 42.4648 87.5738 42.4648C82.2734 42.4648 81.9141 47.1813 81.9141 47.1363Z" fill="white"/>
<path d="M93.0108 75.7492C92.5167 75.7492 92.0226 75.7043 91.5285 75.6594C89.2826 75.3899 86.9019 70.4489 84.5212 61.0609C82.7694 54.1435 81.6016 47.2261 81.6016 47.1812C81.6016 47.1363 81.6016 47.1363 81.6016 47.0914C81.6016 47.0465 82.0957 42.0156 87.6206 42.0156C93.1455 42.0156 94.3583 47.0914 94.3583 47.1363L97.0983 65.7324L118.12 58.0963C118.704 57.4675 121.938 53.9639 123.51 53.9639C123.78 53.9639 124.004 54.0537 124.184 54.2783C124.409 54.5478 124.498 54.8622 124.454 55.2216C124.364 55.8055 123.825 56.3895 123.286 56.8836C126.744 55.9403 131.146 54.9521 131.64 55.8954C131.73 56.075 131.73 56.3445 131.64 56.5242C131.416 56.9285 130.742 57.3327 129.934 57.6022C131.146 57.6472 132.269 57.8268 132.539 58.4557C132.629 58.6354 132.584 58.86 132.494 59.0396C132.269 59.4439 131.506 59.7134 130.562 59.938C131.191 60.0727 131.64 60.3423 131.73 60.7465C131.775 60.9262 131.73 61.1059 131.596 61.2406C131.236 61.6898 129.889 62.0042 128.541 62.139C128.811 62.2288 129.035 62.3636 129.26 62.5433C129.395 62.678 129.439 62.8577 129.439 63.0374C129.439 63.3069 129.395 64.1154 119.692 65.0138C118.345 65.7774 102.489 75.7941 93.0108 75.7492ZM82.2304 47.1363C83.4881 54.7724 87.6206 74.5364 91.6183 75.0305C100.827 76.2433 119.243 64.4298 119.468 64.34C119.513 64.2951 119.557 64.2951 119.602 64.2951C123.645 63.9357 128.092 63.3069 128.811 62.8577C128.586 62.5882 127.283 62.3187 125.936 62.2737C125.756 62.2737 125.621 62.139 125.621 61.9593C125.621 61.7796 125.756 61.6449 125.936 61.6449C128.541 61.5101 130.922 61.1059 131.146 60.7465C131.057 60.4321 129.08 60.2524 127.104 60.3872C126.924 60.3872 126.789 60.2524 126.744 60.1177C126.744 59.938 126.879 59.8032 127.014 59.7583C129.484 59.5786 131.82 59.0396 131.955 58.6803C131.73 58.1862 129.26 58.0963 127.104 58.3659C126.924 58.4108 126.789 58.276 126.744 58.0963C126.699 57.9167 126.834 57.7819 127.014 57.737C128.586 57.4226 130.877 56.7488 131.101 56.2098C130.607 55.7157 125.846 56.7488 121.758 57.9616C121.624 58.0065 121.444 57.9167 121.399 57.7819C121.354 57.6472 121.399 57.4675 121.534 57.3777C122.163 57.0183 123.78 55.8954 123.915 55.0868C123.959 54.9521 123.915 54.7724 123.78 54.6826C123.735 54.6376 123.645 54.5927 123.555 54.5927C122.522 54.5927 119.962 57.0632 118.569 58.5904C118.524 58.6354 118.479 58.6803 118.435 58.6803L97.0085 66.4961C96.8288 66.541 96.6492 66.4511 96.6042 66.3164V66.2715L93.7744 47.316C93.7295 47.1363 92.6065 42.6894 87.6206 42.6894C82.6347 42.6894 82.2753 46.6871 82.2304 47.1363Z" fill="#231F20"/>
<path d="M13.5019 52.6606C13.3223 52.6606 13.1875 52.5258 13.1875 52.3461C13.1875 52.2114 13.2773 52.1215 13.3672 52.0317L16.9157 50.5943C17.0954 50.5494 17.2751 50.5943 17.32 50.774C17.3649 50.9537 17.32 51.1333 17.1403 51.1783L13.5918 52.6156C13.5918 52.6606 13.5468 52.6606 13.5019 52.6606Z" fill="#231F20"/>
<path d="M72.6625 52.0359C70.3716 52.0359 64.8018 49.0263 64.5772 48.8916C64.4424 48.8018 64.3526 48.6221 64.4424 48.4873C64.5322 48.3526 64.7119 48.2627 64.8467 48.3526C64.8467 48.3526 64.8467 48.3526 64.8916 48.3526C64.9365 48.3975 70.5513 51.407 72.7074 51.407C72.887 51.407 73.0218 51.5418 73.0218 51.7214C73.0218 51.9011 72.887 52.0359 72.6625 52.0359C72.7074 52.0359 72.7074 52.0359 72.6625 52.0359Z" fill="#231F20"/>
</svg>
