<svg width="120" height="114" viewBox="0 0 120 114" fill="none" xmlns="http://www.w3.org/2000/svg">
<path d="M119.03 7.87109H44.8047V111.257H119.03V7.87109Z" fill="white"/>
<path d="M104.552 105.311H59.0627C58.5912 105.317 58.1237 105.225 57.6897 105.041C57.2557 104.858 56.8645 104.587 56.5409 104.245C56.2172 103.904 55.9681 103.5 55.8092 103.058C55.6503 102.616 55.585 102.146 55.6175 101.677L56.1677 92.0297C56.2352 91.0603 56.6663 90.1517 57.3755 89.4841C58.0848 88.8165 59.0202 88.4388 59.9961 88.426H105.485C105.957 88.4207 106.424 88.5127 106.858 88.6961C107.292 88.8796 107.684 89.1505 108.007 89.4919C108.331 89.8333 108.58 90.2377 108.739 90.6797C108.898 91.1217 108.963 91.5916 108.931 92.0599L108.38 101.711C108.312 102.68 107.88 103.588 107.171 104.255C106.462 104.921 105.527 105.298 104.552 105.311ZM59.9961 88.9511C59.1554 88.9623 58.3497 89.2879 57.7389 89.8631C57.1281 90.4383 56.7569 91.2211 56.6989 92.0561L56.1487 101.708C56.1209 102.104 56.1759 102.501 56.3101 102.875C56.4444 103.25 56.6551 103.592 56.9289 103.881C57.2027 104.17 57.5337 104.399 57.9009 104.554C58.2682 104.709 58.6637 104.787 59.0627 104.782H104.552C105.393 104.772 106.199 104.447 106.81 103.871C107.421 103.296 107.792 102.513 107.849 101.677L108.418 92.0297C108.445 91.6325 108.389 91.234 108.255 90.8591C108.121 90.4841 107.91 90.1407 107.637 89.8501C107.363 89.5619 107.032 89.3332 106.665 89.1784C106.298 89.0237 105.903 88.9463 105.504 88.9511H59.9961Z" fill="#231F20"/>
<path d="M68.9109 99.7563L67.6269 97.5533H66.6707V99.7563H65.4141V93.4102H67.9638C68.5527 93.4102 69.0535 93.6157 69.4663 94.0266C69.8791 94.4376 70.0856 94.9332 70.0856 95.5134C70.0856 95.9063 69.9732 96.272 69.7486 96.6104C69.524 96.9428 69.2265 97.1937 68.8562 97.3629L70.2677 99.7563H68.9109ZM66.6707 94.5797V96.4563H67.9638C68.2006 96.4563 68.4039 96.3656 68.5739 96.1843C68.7439 95.997 68.8289 95.7733 68.8289 95.5134C68.8289 95.2536 68.7439 95.033 68.5739 94.8516C68.4039 94.6703 68.2006 94.5797 67.9638 94.5797H66.6707Z" fill="#16242A"/>
<path d="M72.8107 98.5596H75.497V99.7563H71.554V93.4102H75.4515V94.6069H72.8107V95.9577H75.2238V97.1362H72.8107V98.5596Z" fill="#16242A"/>
<path d="M79.4607 93.4102C80.3349 93.4102 81.0634 93.7154 81.6462 94.3258C82.2351 94.9363 82.5295 95.6887 82.5295 96.5832C82.5295 97.4777 82.2351 98.2302 81.6462 98.8406C81.0634 99.4511 80.3349 99.7563 79.4607 99.7563H76.9292V93.4102H79.4607ZM79.4607 98.5596C80.0131 98.5596 80.4624 98.3783 80.8084 98.0156C81.1545 97.647 81.3275 97.1695 81.3275 96.5832C81.3275 95.997 81.1545 95.5225 80.8084 95.1599C80.4624 94.7912 80.0131 94.6069 79.4607 94.6069H78.1858V98.5596H79.4607Z" fill="#16242A"/>
<path d="M85.2239 98.5596H87.9103V99.7563H83.9673V93.4102H87.8647V94.6069H85.2239V95.9577H87.6371V97.1362H85.2239V98.5596Z" fill="#16242A"/>
<path d="M90.5991 98.5596H93.2854V99.7563H89.3424V93.4102H93.2399V94.6069H90.5991V95.9577H93.0122V97.1362H90.5991V98.5596Z" fill="#16242A"/>
<path d="M100.955 93.4102V99.7563H99.7078V95.6404L97.9139 98.5868H97.7682L95.9743 95.6494V99.7563H94.7176V93.4102H96.0107L97.841 96.411L99.6623 93.4102H100.955Z" fill="#16242A"/>
<path d="M119.648 111.257H45.0699C44.9996 111.257 44.9321 111.221 44.8824 111.156C44.8326 111.092 44.8047 111.004 44.8047 110.912V7.33338C44.8047 7.24185 44.8326 7.15408 44.8824 7.08936C44.9321 7.02464 44.9996 6.98828 45.0699 6.98828H119.648C119.719 6.98828 119.786 7.02464 119.836 7.08936C119.886 7.15408 119.914 7.24185 119.914 7.33338V110.898C119.915 110.944 119.909 110.991 119.897 111.034C119.884 111.078 119.865 111.118 119.84 111.151C119.815 111.185 119.785 111.212 119.753 111.23C119.72 111.248 119.684 111.257 119.648 111.257ZM45.3466 110.567H119.383V7.67848H45.3466V110.567Z" fill="#231F20"/>
<path d="M114.631 12.2422H49.6016V70.5058H114.631V12.2422Z" fill="white"/>
<path d="M114.632 70.7616H49.6093C49.5389 70.7616 49.4713 70.7337 49.4215 70.6841C49.3717 70.6345 49.3438 70.5673 49.3438 70.4971V12.2449C49.3438 12.1748 49.3717 12.1075 49.4215 12.0579C49.4713 12.0083 49.5389 11.9805 49.6093 11.9805H114.632C114.702 11.9805 114.77 12.0083 114.819 12.0579C114.869 12.1075 114.897 12.1748 114.897 12.2449V70.5085C114.894 70.5766 114.865 70.641 114.815 70.6882C114.766 70.7353 114.7 70.7616 114.632 70.7616ZM49.8674 70.2327H114.37V12.5093H49.8674V70.2327Z" fill="#D1D3D4"/>
<path d="M102.528 62.2194H60.5696C60.543 62.2194 60.5167 62.2142 60.4921 62.2041C60.4676 62.194 60.4453 62.1791 60.4265 62.1604C60.4077 62.1417 60.3928 62.1195 60.3826 62.095C60.3724 62.0706 60.3672 62.0444 60.3672 62.0179C60.3672 61.9915 60.3724 61.9653 60.3826 61.9408C60.3928 61.9164 60.4077 61.8941 60.4265 61.8754C60.4453 61.8567 60.4676 61.8419 60.4921 61.8317C60.5167 61.8216 60.543 61.8164 60.5696 61.8164H102.528C102.555 61.8164 102.581 61.8216 102.606 61.8317C102.63 61.8419 102.652 61.8567 102.671 61.8754C102.69 61.8941 102.705 61.9164 102.715 61.9408C102.725 61.9653 102.73 61.9915 102.73 62.0179C102.73 62.0444 102.725 62.0706 102.715 62.095C102.705 62.1195 102.69 62.1417 102.671 62.1604C102.652 62.1791 102.63 62.194 102.606 62.2041C102.581 62.2142 102.555 62.2194 102.528 62.2194Z" fill="#D1D3D4"/>
<path d="M92.0891 65.3562H60.5696C60.5159 65.3562 60.4644 65.3349 60.4265 65.2971C60.3885 65.2594 60.3672 65.2081 60.3672 65.1546C60.3672 65.1012 60.3885 65.0499 60.4265 65.0121C60.4644 64.9744 60.5159 64.9531 60.5696 64.9531H92.0891C92.1427 64.9531 92.1942 64.9744 92.2322 65.0121C92.2701 65.0499 92.2915 65.1012 92.2915 65.1546C92.2915 65.2081 92.2701 65.2594 92.2322 65.2971C92.1942 65.3349 92.1427 65.3562 92.0891 65.3562Z" fill="#D1D3D4"/>
<path d="M52.6635 97.9054C54.3546 97.9054 55.7255 96.5406 55.7255 94.857C55.7255 93.1734 54.3546 91.8086 52.6635 91.8086C50.9725 91.8086 49.6016 93.1734 49.6016 94.857C49.6016 96.5406 50.9725 97.9054 52.6635 97.9054Z" fill="white"/>
<path d="M55.6688 65.3582C55.1673 65.3582 54.6769 65.2101 54.2599 64.9327C53.8428 64.6552 53.5178 64.2609 53.3259 63.7996C53.1339 63.3382 53.0837 62.8306 53.1815 62.3408C53.2794 61.8511 53.5209 61.4012 53.8756 61.0481C54.2303 60.695 54.6821 60.4545 55.1741 60.3571C55.666 60.2597 56.1759 60.3097 56.6393 60.5008C57.1027 60.6919 57.4988 61.0155 57.7774 61.4307C58.0561 61.8459 58.2048 62.334 58.2048 62.8334C58.2048 63.1649 58.1392 63.4933 58.0118 63.7996C57.8844 64.1059 57.6976 64.3842 57.4621 64.6187C57.2266 64.8531 56.947 65.0391 56.6393 65.166C56.3316 65.2929 56.0019 65.3582 55.6688 65.3582ZM55.6688 60.7116C55.2473 60.7116 54.8353 60.8361 54.4848 61.0692C54.1343 61.3024 53.8612 61.6337 53.6999 62.0214C53.5386 62.4091 53.4964 62.8357 53.5786 63.2473C53.6608 63.6589 53.8638 64.037 54.1619 64.3337C54.4599 64.6304 54.8396 64.8325 55.2531 64.9144C55.6665 64.9962 56.095 64.9542 56.4844 64.7936C56.8738 64.633 57.2067 64.3611 57.4408 64.0122C57.675 63.6632 57.8 63.253 57.8 62.8334C57.7992 62.2709 57.5745 61.7317 57.175 61.3339C56.7754 60.9362 56.2338 60.7124 55.6688 60.7116Z" fill="#D1D3D4"/>
<path d="M110.824 15.6041L53.0781 16.168L53.4895 57.9224L111.236 57.3585L110.824 15.6041Z" fill="white"/>
<path d="M111.252 57.4471L53.4935 58.0111C53.4431 58.0116 53.4049 57.9744 53.4044 57.9242L52.9931 16.1698C52.9926 16.1196 53.03 16.0817 53.0804 16.0812L110.827 15.5173C110.877 15.5168 110.915 15.554 110.916 15.6042L111.327 57.3586C111.34 57.4086 111.303 57.4466 111.252 57.4471ZM53.58 57.8347L111.162 57.2724L110.753 15.6936L53.1704 16.2559L53.58 57.8347Z" fill="#231F20"/>
<path d="M90.6217 18.7483C90.5839 18.7486 90.5584 18.7238 90.5456 18.6989C90.5199 18.6489 90.5446 18.5985 90.5949 18.5855L91.3858 18.2518C91.4234 18.2263 91.4867 18.2508 91.4996 18.2883C91.5252 18.3256 91.5006 18.3886 91.4629 18.4015C91.4629 18.4015 91.4629 18.4015 91.4503 18.4016L90.6594 18.7354C90.6469 18.748 90.6343 18.7482 90.6217 18.7483Z" fill="#D1D3D4"/>
<path d="M82.4808 39.0567C82.4304 39.0572 82.3921 39.0075 82.4042 38.9572C82.4039 38.9321 82.4163 38.9069 82.4414 38.8941L82.9682 38.6256C83.0058 38.6002 83.0691 38.6246 83.0821 38.6621C83.1076 38.6995 83.083 38.7624 83.0453 38.7754L82.5185 39.0438C82.506 39.0565 82.4934 39.0566 82.4808 39.0567Z" fill="#D1D3D4"/>
<path d="M75.8571 33.6143C75.8067 33.6148 75.7685 33.5776 75.768 33.5274C75.7677 33.5023 75.7802 33.4897 75.7926 33.4645L76.7287 32.5148C76.7662 32.4768 76.8166 32.4763 76.8548 32.5136C76.893 32.5508 76.8935 32.601 76.856 32.639L75.9199 33.5886C75.9074 33.6013 75.8823 33.6141 75.8571 33.6143Z" fill="#D1D3D4"/>
<path d="M55.6253 40.4846C55.5875 40.485 55.5494 40.4603 55.5363 40.4103C55.5232 40.3602 55.5607 40.3222 55.611 40.3092L56.6178 40.1364C56.6681 40.1233 56.7063 40.1606 56.7194 40.2106C56.7325 40.2606 56.695 40.2986 56.6447 40.3116L55.6505 40.4844L55.6253 40.4846Z" fill="#D1D3D4"/>
<path d="M58.5706 56.0808L58.558 56.0809C58.078 55.9853 57.5861 55.965 57.095 56.0199C57.0446 56.0204 57.0065 55.9957 56.9934 55.9457C56.9929 55.8955 57.0178 55.8577 57.0681 55.8447C57.5718 55.7896 58.0889 55.8096 58.5941 55.905C58.6446 55.917 58.6702 55.9544 58.6707 56.0046C58.6586 56.0548 58.621 56.0803 58.5706 56.0808Z" fill="#D1D3D4"/>
<path d="M67 54.9213C66.9495 54.9218 66.9113 54.8845 66.9109 54.8344C66.9105 54.7968 66.9354 54.7714 66.9605 54.7587L67.8517 54.3612C67.902 54.3482 67.9527 54.3728 67.9656 54.4103C67.9786 54.4478 67.9665 54.498 67.9289 54.5235L67.0378 54.9209C67.0252 54.9211 67.0126 54.9212 67 54.9213Z" fill="#D1D3D4"/>
<path d="M97.9908 33.0723C97.9655 33.0726 97.9402 33.0603 97.9275 33.0479C97.8893 33.0106 97.9014 32.9604 97.9389 32.9224C98.2139 32.694 98.5274 32.5153 98.8667 32.4117C98.917 32.3987 98.9677 32.4233 98.9808 32.4733C98.9939 32.5233 98.9692 32.5737 98.9189 32.5868C98.6047 32.6901 98.3038 32.8561 98.0538 33.0717C98.0284 33.0594 98.016 33.0721 97.9908 33.0723Z" fill="#D1D3D4"/>
<path d="M90.9278 33.228C90.9026 33.2283 90.8772 33.216 90.8518 33.1911C90.8262 33.1538 90.8256 33.0911 90.8757 33.0655L91.6768 32.4808C91.7144 32.4554 91.7774 32.4548 91.8031 32.5047C91.8287 32.5421 91.8293 32.6048 91.7791 32.6303L90.9781 33.215C90.9656 33.2277 90.953 33.2278 90.9278 33.228Z" fill="#D1D3D4"/>
<path d="M107.305 18.549C107.293 18.5491 107.28 18.5492 107.267 18.5368C107.229 18.5121 107.204 18.4622 107.228 18.4243C107.364 18.1346 107.576 17.8692 107.839 17.691C107.877 17.6656 107.927 17.6651 107.965 17.7023C107.991 17.7397 107.991 17.7899 107.954 17.8279C107.954 17.8279 107.941 17.828 107.941 17.8405C107.703 18.0059 107.504 18.2335 107.393 18.498C107.368 18.5358 107.343 18.5486 107.305 18.549Z" fill="#D1D3D4"/>
<path d="M72.4285 32.1288C72.4159 32.1289 72.3906 32.1292 72.3779 32.1168C72.3399 32.092 72.3268 32.042 72.3515 31.9916C72.4756 31.7898 72.7268 31.6995 72.9543 31.76C73.0049 31.772 73.0306 31.822 73.0183 31.8597C73.0062 31.91 72.956 31.9355 72.9181 31.9234C72.9181 31.9234 72.9181 31.9234 72.9055 31.9235C72.7539 31.8874 72.5905 31.9391 72.5036 32.0779C72.4914 32.1156 72.4663 32.1284 72.4285 32.1288Z" fill="#D1D3D4"/>
<path d="M55.3198 18.0912C55.2694 18.0916 55.2312 18.0544 55.2307 18.0042C55.2303 17.9666 55.2427 17.9414 55.2804 17.9285L55.9451 17.5834C55.9954 17.5704 56.046 17.5825 56.0591 17.6325C56.072 17.67 56.0599 17.7203 56.0224 17.7457L55.3576 18.0908C55.345 18.0909 55.3324 18.091 55.3198 18.0912Z" fill="#D1D3D4"/>
<path d="M64.6235 23.9764L54.8906 30.2734L69.0361 51.9065L78.769 45.6094L64.6235 23.9764Z" fill="white"/>
<path d="M64.6348 23.9804L78.7785 45.6118L69.0449 51.9017L54.8887 30.2704L64.6348 23.9804ZM64.6205 23.805C64.5827 23.8053 64.5576 23.8181 64.5199 23.831L54.7865 30.1334C54.7113 30.1843 54.6873 30.2974 54.7384 30.3721L68.8821 52.0036C68.9076 52.041 68.9457 52.0657 68.9962 52.0777L69.0341 52.0773C69.0719 52.077 69.097 52.0642 69.1347 52.0513L78.8681 45.7489C78.9558 45.6979 78.9673 45.5849 78.9161 45.5102L64.7725 23.8787C64.7469 23.8414 64.7089 23.8166 64.6583 23.8046L64.6205 23.805Z" fill="#231F20"/>
<path d="M60.3072 26.7723L59.2188 27.4766L73.3642 49.1096L74.4527 48.4054L60.3072 26.7723Z" fill="#D1D3D4"/>
<path d="M57.7213 28.4403L56.6328 29.1445L70.7783 50.7776L71.8668 50.0733L57.7213 28.4403Z" fill="#D1D3D4"/>
<path d="M62.9635 25.0536L61.875 25.7578L76.0205 47.3909L77.109 46.6866L62.9635 25.0536Z" fill="#D1D3D4"/>
<path d="M56.2217 19.8247C56.2217 19.8247 55.4748 23.3432 53.1229 25.197L63.2655 27.1546L56.2217 19.8247Z" fill="#84AFBF"/>
<path d="M63.2697 27.2444L63.2571 27.2445L53.1146 25.287C53.0766 25.2748 53.0512 25.25 53.0509 25.2249C53.0379 25.1874 53.0503 25.1622 53.0753 25.1369C55.377 23.3212 56.137 19.8402 56.1492 19.8024C56.1614 19.7647 56.1738 19.7395 56.2116 19.7391C56.2493 19.7262 56.2746 19.7385 56.3001 19.7633L63.3439 27.0932C63.3693 27.118 63.3824 27.168 63.3575 27.1934C63.3325 27.2187 63.3075 27.244 63.2697 27.2444ZM53.3275 25.147L63.0154 27.0211L56.2772 20.0018C56.0951 20.7058 55.2906 23.5101 53.3275 25.147Z" fill="#231F20"/>
<path d="M63.2705 27.1553L61.9531 17.5625C61.9531 17.5625 65.0085 19.3008 67.8671 18.9845L63.2705 27.1553Z" fill="#84AFBF"/>
<path d="M63.2667 27.2409L63.2541 27.2411C63.2161 27.2289 63.1907 27.2041 63.1777 27.1666L61.8603 17.5737C61.86 17.5361 61.8723 17.5109 61.8973 17.4856C61.9224 17.4728 61.9602 17.4724 61.9855 17.4847C62.0109 17.497 65.0532 19.1979 67.8491 18.9072C67.8869 18.9068 67.9123 18.9191 67.9377 18.944C67.9506 18.9689 67.9509 19.0065 67.9386 19.0317L63.3419 27.2026C63.3296 27.2278 63.2919 27.2407 63.2667 27.2409ZM62.0635 17.7222L63.3136 26.8894L67.6997 19.0968C65.2684 19.2835 62.7097 18.0545 62.0635 17.7222Z" fill="#231F20"/>
<path d="M63.2692 27.1531L72.0205 23.5314C72.0205 23.5314 71.0733 27.2023 72.4222 29.7599L63.2692 27.1531Z" fill="#84AFBF"/>
<path d="M72.4184 29.8365C72.4058 29.8366 72.4058 29.8366 72.3932 29.8368L63.2403 27.2426C63.2024 27.2304 63.1769 27.2056 63.1765 27.1679C63.1762 27.1303 63.201 27.0925 63.2261 27.0797L71.9772 23.4454C72.0023 23.4326 72.0401 23.4322 72.0656 23.4571C72.0911 23.4819 72.104 23.5194 72.0917 23.5446C72.0794 23.5823 71.1696 27.2028 72.4802 29.7105C72.493 29.7355 72.4934 29.7731 72.4686 29.8109C72.4688 29.836 72.4437 29.8488 72.4184 29.8365ZM63.5292 27.1394L72.2523 29.6124C71.1965 27.3781 71.7471 24.4007 71.9038 23.6718L63.5292 27.1394Z" fill="#231F20"/>
<path d="M63.2656 27.1523L63.7063 37.3306C63.7063 37.3306 67.3861 34.6361 69.482 34.9543L63.2656 27.1523Z" fill="#84AFBF"/>
<path d="M63.7104 37.4203C63.6978 37.4205 63.6852 37.4206 63.6724 37.4082C63.6471 37.3959 63.6215 37.3585 63.6213 37.3334L63.1806 27.1552C63.1802 27.1176 63.2051 27.0797 63.2428 27.0668C63.2805 27.0539 63.3184 27.0661 63.3439 27.0909L69.5602 34.8928C69.5857 34.9176 69.5862 34.9678 69.5612 34.9931C69.5489 35.0183 69.5113 35.0438 69.4734 35.0316C67.4533 34.7253 63.8106 37.3567 63.7731 37.3946C63.7482 37.42 63.723 37.4202 63.7104 37.4203ZM63.3724 27.4292L63.7963 37.1812C64.4598 36.7108 67.3653 34.7512 69.2827 34.8704L63.3724 27.4292Z" fill="#231F20"/>
<path d="M63.2695 27.1523L57.6822 35.8595C57.6822 35.8595 55.7406 32.0036 53.7045 31.3463L63.2695 27.1523Z" fill="#84AFBF"/>
<path d="M57.6784 35.9484C57.6406 35.9488 57.6151 35.924 57.6023 35.899C57.5767 35.8617 55.6484 32.0808 53.6754 31.4355C53.6375 31.4233 53.612 31.3985 53.6116 31.3609C53.6113 31.3233 53.6361 31.2854 53.6612 31.2726L63.2262 27.0786C63.2639 27.0657 63.3019 27.0779 63.3273 27.1027C63.3528 27.1275 63.3533 27.1777 63.3283 27.203L57.741 35.9102C57.7287 35.9354 57.691 35.9483 57.6658 35.9486L57.6784 35.9484ZM53.9266 31.3453C55.699 32.0929 57.3288 35.0114 57.6884 35.685L63.0273 27.3564L53.9266 31.3453Z" fill="#231F20"/>
<path d="M53.7025 31.3508C53.7025 31.3508 54.7769 27.804 53.125 25.1992L63.2676 27.1567L53.7025 31.3508Z" fill="white"/>
<path d="M53.702 31.4354C53.6768 31.4357 53.664 31.4232 53.6387 31.4109C53.6133 31.3861 53.6003 31.3486 53.6126 31.3234C53.6249 31.2857 54.6493 27.777 53.0359 25.2471C53.0104 25.2223 53.0101 25.1847 53.0349 25.1468C53.0599 25.1215 53.085 25.1087 53.1228 25.1083L63.2653 27.0659C63.3159 27.0779 63.3415 27.1153 63.3419 27.1654C63.3422 27.1905 63.3172 27.2158 63.2921 27.2286L53.7398 31.435C53.7272 31.4352 53.7146 31.4353 53.702 31.4354ZM53.3014 25.3198C54.6094 27.5642 54.0201 30.4542 53.8383 31.1958L62.9765 27.1815L53.3014 25.3198Z" fill="#231F20"/>
<path d="M56.2249 19.824C56.2249 19.824 59.1279 20.1719 61.9513 17.5611L63.2686 27.1539L56.2249 19.824Z" fill="white"/>
<path d="M63.2683 27.2423C63.2431 27.2425 63.2178 27.2302 63.205 27.2178L56.1613 19.888C56.1358 19.8631 56.1354 19.8255 56.1477 19.7878C56.1599 19.75 56.1976 19.7371 56.2354 19.7368C56.2606 19.7365 59.1254 20.0471 61.8864 17.4996C61.9114 17.4743 61.9492 17.4739 61.9745 17.4862C61.9999 17.4985 62.0253 17.5233 62.0257 17.5609L63.3431 27.1538C63.3435 27.1914 63.3312 27.2291 63.2935 27.242C63.2935 27.242 63.281 27.2547 63.2683 27.2423ZM56.4516 19.9227L63.1514 26.8923L61.8888 17.7378C60.8017 18.7266 59.4848 19.4166 58.051 19.7566C57.5227 19.8747 56.9811 19.9301 56.4516 19.9227Z" fill="#231F20"/>
<path d="M67.8642 18.9817C67.8642 18.9817 68.1716 22.0384 72.0187 23.5182L63.2676 27.1525L67.8642 18.9817Z" fill="white"/>
<path d="M63.2715 27.2449C63.221 27.2454 63.1829 27.2081 63.1824 27.158C63.1822 27.1454 63.1821 27.1329 63.1946 27.1202L67.7912 18.9494C67.8161 18.9115 67.8664 18.8985 67.917 18.9231C67.9424 18.9353 67.9552 18.9603 67.9555 18.9854C68.0496 19.5864 68.2696 20.1611 68.5898 20.6721C69.0898 21.5199 70.0974 22.7014 72.0588 23.4472C72.1094 23.4592 72.1226 23.5218 72.1104 23.5596C72.098 23.5848 72.0855 23.5974 72.0604 23.6102L63.3093 27.2445C63.2967 27.2446 63.2841 27.2447 63.2715 27.2449ZM67.832 19.2499L63.4706 26.9796L71.795 23.5376C68.757 22.2881 68.0033 20.0007 67.832 19.2499Z" fill="#231F20"/>
<path d="M72.4184 29.7496C70.7923 31.0446 69.7391 32.9108 69.482 34.9699L63.2656 27.168L72.4184 29.7496Z" fill="white"/>
<path d="M69.4846 35.0424C69.4594 35.0426 69.434 35.0303 69.4086 35.0055L63.1922 27.2036C63.1667 27.1787 63.1662 27.1286 63.1912 27.1033C63.2162 27.0779 63.2537 27.0525 63.2917 27.0647L72.4447 29.6714C72.4826 29.6836 72.4955 29.7085 72.5084 29.746C72.5088 29.7836 72.4965 29.8088 72.4715 29.8342C72.4464 29.8469 69.968 31.6518 69.5722 34.9788C69.5726 35.0164 69.5476 35.0418 69.5099 35.0547C69.4973 35.0548 69.4847 35.0549 69.4846 35.0424ZM63.5084 27.3134L69.4186 34.7421C69.8446 31.9164 71.7063 30.2178 72.2315 29.7863L63.5084 27.3134Z" fill="#231F20"/>
<path d="M63.7069 37.3338C63.7069 37.3338 61.0936 35.6789 57.679 35.8628L63.2663 27.1555L63.7069 37.3338Z" fill="white"/>
<path d="M63.7078 37.4192C63.6952 37.4193 63.67 37.4195 63.6573 37.4071C63.6319 37.3948 61.0315 35.7649 57.6799 35.9481C57.6421 35.9485 57.6167 35.9362 57.6037 35.8987C57.5909 35.8738 57.5905 35.8361 57.6029 35.8109L63.1902 27.1037C63.215 27.0659 63.2779 27.0527 63.316 27.0774C63.3413 27.0897 63.3542 27.1147 63.3544 27.1398L63.7951 37.318C63.7954 37.3556 63.7831 37.3808 63.7454 37.3937C63.7456 37.4188 63.7204 37.419 63.7078 37.4192ZM58.1318 35.7556C60.8798 35.7288 63.0466 36.8488 63.6171 37.1692L63.1934 27.4297L57.8545 35.7583L58.1318 35.7556Z" fill="#231F20"/>
<path d="M91.3523 29.1256L81.6063 35.4282L71.1105 19.3665L70.6881 18.7185L69.5234 16.9492L83.2888 16.8148L91.3523 29.1256Z" fill="white"/>
<path d="M83.2826 16.8128L91.3336 29.1238L81.6002 35.4262L71.1044 19.3645L70.6692 18.7041L69.5172 16.9347L83.2826 16.8128ZM83.2935 16.6371L69.5156 16.7717C69.4525 16.7723 69.3899 16.8105 69.3652 16.8609C69.3278 16.9115 69.3286 16.9867 69.3669 17.0365L70.5189 18.8059L70.9541 19.4663L81.4499 35.5279C81.4755 35.5653 81.5135 35.59 81.5641 35.6021L81.6019 35.6017C81.6397 35.6013 81.6648 35.5885 81.7025 35.5756L91.4359 29.2733C91.5237 29.2222 91.5352 29.1093 91.484 29.0345L83.4456 16.7234C83.3946 16.6612 83.3439 16.6366 83.2935 16.6371Z" fill="#231F20"/>
<path d="M87.1761 31.8118L86.0863 32.5246L75.8594 16.8867L77.4099 16.8716L87.1761 31.8118Z" fill="#D1D3D4"/>
<path d="M84.5949 33.4792L83.5051 34.192L72.2031 16.9219L73.7536 16.9067L84.5949 33.4792Z" fill="#D1D3D4"/>
<path d="M89.8331 30.0905L88.7433 30.8034L79.6172 16.8477L81.1551 16.8326L89.8331 30.0905Z" fill="#D1D3D4"/>
<path d="M82.0395 18.3823C79.9436 18.0642 76.2638 20.7586 76.2638 20.7586L76.0859 16.7852L80.7248 16.7399L82.0395 18.3823Z" fill="#84AFBF"/>
<path d="M76.2756 20.8435C76.263 20.8436 76.2504 20.8437 76.2377 20.8313C76.2123 20.819 76.1867 20.7816 76.1865 20.7566L76.0087 16.7831C76.0084 16.758 76.0208 16.7328 76.0333 16.7201C76.0458 16.7075 76.0708 16.6947 76.0961 16.6945L80.7349 16.6492C80.7601 16.6489 80.7855 16.6612 80.8109 16.686L82.1256 18.3285C82.1511 18.3533 82.1515 18.4035 82.1266 18.4288C82.1142 18.454 82.0767 18.4794 82.0387 18.4673C80.006 18.1611 76.376 20.7923 76.3384 20.8178C76.3007 20.8307 76.2882 20.8433 76.2756 20.8435ZM76.186 16.8691L76.3488 20.5919C77.0123 20.1215 79.9178 18.1619 81.8352 18.2812L80.6862 16.8252L76.186 16.8691Z" fill="#231F20"/>
<path d="M71.8245 16.8251L70.6823 18.6169L70.2477 19.2858C69.7981 18.4374 69.2858 17.6273 68.7109 16.8555L71.8245 16.8251Z" fill="#84AFBF"/>
<path d="M70.2522 19.3744C70.2144 19.3748 70.1889 19.35 70.1761 19.325C69.7265 18.4767 69.2142 17.6666 68.6394 16.9073C68.614 16.8824 68.6136 16.8448 68.626 16.8196C68.6383 16.7944 68.6759 16.769 68.7011 16.7687L71.8147 16.7383C71.8525 16.7379 71.8778 16.7502 71.8908 16.7877C71.9037 16.8127 71.904 16.8503 71.8917 16.8755L70.3149 19.3362C70.3151 19.3613 70.29 19.3741 70.2522 19.3744ZM68.8793 16.9425C69.3903 17.6272 69.8514 18.3626 70.2622 19.111L71.6651 16.9153L68.8793 16.9425Z" fill="#231F20"/>
<path d="M82.4409 16.7215C82.2445 17.2627 82.1113 17.8157 82.0412 18.3807L80.7266 16.7383L82.4409 16.7215Z" fill="white"/>
<path d="M82.0457 18.4694C82.0205 18.4696 81.9952 18.4573 81.9697 18.4325L80.6551 16.7901C80.6296 16.7652 80.6292 16.7276 80.6416 16.7024C80.6539 16.6772 80.6915 16.6518 80.7167 16.6515L82.4185 16.6349C82.4437 16.6347 82.469 16.647 82.4945 16.6718C82.5073 16.6967 82.5202 16.7217 82.5078 16.7469C82.3113 17.2755 82.1907 17.8284 82.1206 18.3934C82.121 18.431 82.096 18.4564 82.0584 18.4693C82.0584 18.4693 82.0583 18.4693 82.0457 18.4694ZM80.9201 16.8251L81.9924 18.169C82.0634 17.7043 82.1724 17.2518 82.3194 16.8114L80.9201 16.8251Z" fill="#231F20"/>
<path d="M76.2738 20.7561C74.7017 19.856 72.9317 19.3466 71.1156 19.2766C70.8382 19.2667 70.5483 19.2696 70.2585 19.2849L70.6805 18.6162L71.8227 16.8243L76.096 16.7826L76.2738 20.7561Z" fill="white"/>
<path d="M76.2795 20.8447C76.2669 20.8448 76.2417 20.8451 76.2289 20.8327C74.6695 19.945 72.9122 19.4355 71.1087 19.3653C70.8313 19.3555 70.5413 19.3583 70.2515 19.3737C70.2137 19.3741 70.1884 19.3618 70.1755 19.3368C70.1627 19.3119 70.1623 19.2742 70.1747 19.249L71.7514 16.7758C71.7637 16.7506 71.8014 16.7377 71.8266 16.7374L76.0999 16.6957C76.1503 16.6952 76.1885 16.7325 76.189 16.7826L76.3668 20.7561C76.3672 20.7937 76.3549 20.8189 76.3172 20.8318C76.3047 20.8445 76.2921 20.8446 76.2795 20.8447ZM70.7035 19.1812C70.8421 19.1798 70.9808 19.1785 71.1196 19.1897C72.8978 19.2601 74.6297 19.7448 76.1889 20.6073L76.0261 16.8845L71.8789 16.925L70.4137 19.1966C70.5144 19.183 70.6026 19.1822 70.7035 19.1812Z" fill="#231F20"/>
<path d="M71.1401 58.1355C71.1148 58.1357 71.1021 58.1233 71.0894 58.1109C71.0513 58.0862 71.0507 58.0235 71.0755 57.9856C71.8105 57.0881 72.3545 56.0044 72.9359 54.8701C73.5914 53.5846 74.2591 52.2614 75.2196 51.2237C76.7288 49.5788 78.8891 48.7551 80.5856 48.2118C80.8244 48.1343 81.0758 48.0566 81.3147 47.9915C82.7601 47.5511 84.2559 47.0976 85.4188 46.1332C86.6443 45.118 87.6266 43.7415 88.5843 42.4155C88.9201 41.9482 89.2682 41.4557 89.6167 41.0009L89.7785 40.7861C90.3013 40.1039 90.7864 39.447 91.6147 39.0627C92.5056 38.6402 93.5 38.48 94.3689 38.3838C94.5956 38.3565 94.8348 38.3291 95.0616 38.3143C96.1321 38.2035 97.253 38.0923 98.2449 37.6813C99.626 37.1035 100.76 35.8133 101.321 35.0931C101.656 34.6258 101.941 34.1214 102.151 33.5927C102.607 32.5851 103.026 31.6279 104.624 31.3239C105.166 31.2308 105.707 31.1879 106.262 31.1825C106.728 31.1779 107.182 31.1359 107.648 31.0812C108.466 30.9478 109.27 30.6891 110.01 30.3182C110.06 30.2927 110.111 30.3173 110.124 30.3673C110.137 30.4173 110.125 30.4676 110.075 30.4806C109.309 30.8518 108.505 31.123 107.662 31.2566C107.196 31.3113 106.73 31.3535 106.264 31.358C105.722 31.3633 105.18 31.4062 104.651 31.4992C103.154 31.7897 102.759 32.6588 102.315 33.6663C102.094 34.2077 101.809 34.7247 101.46 35.2046C100.888 35.9375 99.7283 37.253 98.3221 37.8436C97.3052 38.2673 96.1716 38.3787 95.0885 38.4896C94.8619 38.5169 94.6225 38.5318 94.3959 38.5591C93.5521 38.6551 92.5704 38.8152 91.7046 39.2249C90.9266 39.5962 90.4412 40.2279 89.9309 40.8975L89.7691 41.1123C89.4206 41.5671 89.0723 42.047 88.7365 42.5143C87.779 43.8529 86.784 45.2295 85.5461 46.2573C84.3582 47.247 82.8498 47.7007 81.3918 48.1413C81.153 48.2188 80.9015 48.284 80.6628 48.3616C78.9787 48.8922 76.8562 49.7154 75.3719 51.3225C74.4238 52.3475 73.7686 53.6581 73.113 54.9311C72.5565 56.0275 71.9752 57.1743 71.2278 58.0845C71.1904 58.1225 71.1653 58.1352 71.1401 58.1355Z" fill="#D1D3D4"/>
<path d="M110.608 31.1291L110.874 58.2005L72.087 58.5792C72.9372 57.8561 73.6472 56.9839 74.167 56.0007C76.3713 51.9789 76.2863 49.7476 82.3395 48.6602C88.3927 47.5728 89.0807 43.1896 91.4519 40.7462C93.8231 38.3029 96.6582 40.7205 100.186 37.9774C103.714 35.2343 102.761 31.9079 105.147 32.1981C106.498 32.373 108.713 32.0003 110.608 31.1291Z" fill="#84AFBF"/>
<path d="M110.876 58.2867L72.0882 58.6655C72.0503 58.6658 72.0123 58.6411 71.9993 58.6036C71.9863 58.5662 71.9986 58.5284 72.0235 58.5031C72.8612 57.7927 73.5712 56.9205 74.0911 55.9498C74.475 55.2438 74.7963 54.5886 75.0805 54.009C76.4521 51.1866 77.2799 49.4731 82.3263 48.5711C86.6429 47.8016 88.2319 45.3031 89.6222 43.1076C90.1808 42.2243 90.7146 41.3789 91.3886 40.6952C92.5743 39.4798 93.8724 39.442 95.2714 39.4033C96.7082 39.3642 98.3466 39.3105 100.136 37.9137C101.85 36.5802 102.503 35.0816 102.996 33.9858C103.514 32.8145 103.884 31.9581 105.172 32.1211C106.598 32.2953 108.812 31.8598 110.582 31.0525C110.62 31.0271 110.683 31.0516 110.696 31.0891C110.696 31.1016 110.709 31.114 110.709 31.1265L110.975 58.1854C110.963 58.2482 110.926 58.2862 110.876 58.2867ZM72.3259 58.4876L110.786 58.112L110.521 31.2663C108.751 32.0485 106.562 32.4712 105.136 32.297C103.987 32.1578 103.679 32.8756 103.148 34.0595C102.655 35.1679 101.989 36.6917 100.238 38.0506C98.3987 39.4856 96.735 39.5269 95.2731 39.5788C93.8616 39.6177 92.6517 39.6546 91.5159 40.8193C90.8545 41.503 90.3332 42.3357 89.7745 43.2064C88.3593 45.4398 86.7579 47.9635 82.3534 48.7589C77.395 49.6475 76.5795 51.3233 75.2327 54.0953C74.9484 54.6749 74.6272 55.3426 74.2434 56.0486C73.7608 56.9688 73.1133 57.7902 72.3259 58.4876Z" fill="#231F20"/>
<path d="M84.6232 57.4011C84.6106 57.4012 84.5854 57.4014 84.5727 57.389C84.5346 57.3643 84.5215 57.3143 84.5462 57.2639C85.4399 55.8381 86.8415 54.7836 88.4631 54.3163C88.9158 54.199 89.3688 54.1068 89.8344 54.0271C90.5643 53.8945 91.332 53.7616 91.997 53.4416C93.6281 52.6482 94.5058 50.884 95.158 49.26L95.1824 49.1845C95.4162 48.6054 95.6498 48.0012 96.0992 47.5454C96.4114 47.2414 96.7744 46.987 97.1762 46.8201C97.9543 46.4613 98.835 46.2772 99.6778 46.0934C100.974 45.8174 102.194 45.5547 103.131 44.7304C103.581 44.3498 103.929 43.8448 104.265 43.3776C104.452 43.1249 104.638 42.8598 104.837 42.607C105.797 41.4314 107.099 40.5911 108.57 40.188C108.621 40.1749 108.659 40.2122 108.672 40.2622C108.685 40.2997 108.66 40.3501 108.61 40.3631C107.177 40.7533 105.912 41.5808 104.965 42.7186C104.765 42.9589 104.579 43.224 104.392 43.4766C104.044 43.9691 103.696 44.4616 103.233 44.8674C102.246 45.7172 100.95 46.0057 99.6921 46.2688C98.8619 46.4525 97.9939 46.6365 97.2283 46.9826C96.8391 47.1494 96.501 47.3784 96.2013 47.6698C95.7895 48.1001 95.5558 48.6918 95.3218 49.2584L95.2974 49.3339C94.633 50.9957 93.7304 52.7977 92.0492 53.6167C91.3592 53.962 90.5915 54.0949 89.8364 54.2277C89.3832 54.2948 88.9303 54.387 88.4776 54.5043C86.8936 54.9587 85.5296 55.9877 84.6608 57.3756C84.686 57.3754 84.661 57.4007 84.6232 57.4011Z" fill="white"/>
<path d="M100.541 57.1978C100.528 57.1979 100.516 57.198 100.503 57.1856C100.452 57.161 100.439 57.111 100.452 57.0732C100.661 56.5947 101.164 56.4017 101.653 56.2088C101.779 56.1574 101.917 56.1059 102.043 56.0545C103.109 55.5675 103.767 54.5078 104.176 53.7514C104.312 53.4992 104.448 53.2346 104.571 52.9826C104.93 52.2768 105.289 51.546 105.812 50.9264C106.51 50.0794 107.449 49.4809 108.351 48.9077C108.389 48.8823 108.452 48.8942 108.478 48.9316C108.503 48.969 108.491 49.0318 108.454 49.0572C107.564 49.6302 106.637 50.2161 105.964 51.0378C105.466 51.6446 105.095 52.363 104.749 53.0561C104.625 53.3081 104.489 53.5727 104.353 53.8249C103.932 54.6065 103.237 55.7042 102.132 56.2041C102.007 56.268 101.869 56.3195 101.743 56.3709C101.291 56.5509 100.826 56.731 100.641 57.1341C100.616 57.1719 100.579 57.1848 100.541 57.1978Z" fill="white"/>
<path d="M59.2101 51.1096C59.608 50.5539 59.2462 49.6546 59.1631 48.903C59.0801 48.1514 58.9372 46.4473 58.6536 45.8106C58.37 45.1738 57.6241 44.9679 56.9825 45.0995C56.3408 45.2312 55.8545 45.7752 55.6983 46.5542C55.5421 47.3332 56.46 48.3651 56.5915 48.9155C56.723 49.466 56.9866 50.6297 57.1797 51.0416C57.4369 51.5532 58.8246 51.6526 59.2101 51.1096Z" fill="#84AFBF"/>
<path d="M58.2671 51.5562C58.2041 51.5569 58.1284 51.5576 58.0653 51.5457C57.6993 51.5116 57.2441 51.3656 57.1024 51.066C56.9094 50.6666 56.6594 49.6031 56.5277 49.0276L56.5013 48.915C56.4106 48.6651 56.2948 48.4279 56.1539 48.2036C55.8461 47.6674 55.4997 47.0563 55.6078 46.516C55.7763 45.6993 56.2875 45.13 56.967 44.9979C57.5961 44.8664 58.43 45.0589 58.7395 45.7581C58.9845 46.32 59.1235 47.6354 59.2077 48.4998C59.2217 48.6376 59.2355 48.7629 59.2492 48.8756C59.2764 49.076 59.3163 49.2888 59.3563 49.5016C59.4756 50.1023 59.5951 50.7156 59.2843 51.1576C59.073 51.4606 58.658 51.565 58.2671 51.5562ZM57.3215 45.145C57.208 45.1461 57.1073 45.1596 56.994 45.1732C56.39 45.292 55.9287 45.8106 55.7848 46.5644C55.6885 47.0294 56.0221 47.6155 56.3171 48.1268C56.4707 48.3635 56.5992 48.6131 56.6776 48.8882L56.7039 49.0008C56.8355 49.5638 57.0855 50.6273 57.2657 51.0017C57.3559 51.2015 57.6851 51.3487 58.0889 51.3824C58.5558 51.428 58.9705 51.2986 59.1447 51.0586C59.4057 50.6799 59.2992 50.1041 59.1801 49.5409C59.1402 49.3281 59.1003 49.1153 59.073 48.9024C59.0593 48.7897 59.0454 48.6644 59.0315 48.5266C58.9478 47.7123 58.8085 46.3719 58.5763 45.8349C58.3571 45.3355 57.8257 45.14 57.3215 45.145Z" fill="#231F20"/>
<path d="M57.3505 46.9372C57.2371 46.9383 57.1228 46.8516 57.0964 46.739L56.8871 45.9636C56.8479 45.826 56.9347 45.6747 57.073 45.6357C57.2112 45.5967 57.3634 45.683 57.4026 45.8206L57.6119 46.596C57.6511 46.7336 57.5643 46.8849 57.426 46.9239C57.3882 46.9243 57.3757 46.9369 57.3505 46.9372Z" fill="#231F20"/>
<path d="M56.9468 49.0248C56.7955 49.0262 56.6809 48.9145 56.6794 48.764C56.6777 48.5885 56.6755 47.0837 57.1362 46.5024C57.2235 46.4012 57.3745 46.3746 57.4886 46.4362C57.5393 46.4733 58.8207 47.2885 58.9321 48.3658C58.9587 48.5035 58.8466 48.6425 58.7082 48.669C58.5698 48.6954 58.43 48.5839 58.4034 48.4462C58.4033 48.4337 58.4033 48.4337 58.4032 48.4212C58.347 47.8323 57.7619 47.3113 57.4316 47.0512C57.2594 47.4918 57.2042 48.2824 57.2089 48.7589C57.2104 48.9093 57.098 49.0233 56.9468 49.0248Z" fill="#231F20"/>
<path d="M60.0231 53.5207C59.6143 52.9729 59.9584 52.0666 60.0266 51.3136C60.0948 50.5605 60.2041 48.854 60.4751 48.2118C60.7461 47.5696 61.4877 47.3492 62.1319 47.4683C62.776 47.5874 63.2729 48.1218 63.4444 48.8976C63.616 49.6734 62.7186 50.723 62.598 51.2759C62.4774 51.8289 62.2368 52.9974 62.0517 53.4131C61.8047 53.9296 60.4193 54.0686 60.0231 53.5207Z" fill="#84AFBF"/>
<path d="M60.9738 53.9646C60.5956 53.9683 60.1661 53.8722 59.9615 53.5858C59.6422 53.1625 59.7495 52.5345 59.857 51.9315C59.8927 51.718 59.9284 51.5044 59.9517 51.3036C59.9632 51.1906 59.9745 51.0651 59.9858 50.927C60.0528 50.0486 60.1658 48.7308 60.3999 48.1767C60.6955 47.4716 61.5129 47.263 62.157 47.3821C62.839 47.5008 63.3488 48.0601 63.5333 48.8734C63.6519 49.399 63.3176 50.0167 63.0205 50.5714C62.8841 50.7984 62.773 51.0378 62.6872 51.2894L62.6631 51.4025C62.5427 51.9805 62.3137 53.0486 62.1286 53.4517C61.9804 53.7667 61.5406 53.9089 61.1754 53.9501C61.1124 53.9507 61.0493 53.9513 60.9738 53.9646ZM60.0991 53.4716C60.2653 53.7082 60.6824 53.817 61.1484 53.7748C61.5514 53.7333 61.8777 53.5796 61.964 53.3781C62.1366 52.9877 62.3658 51.9321 62.4863 51.3666L62.5103 51.2535C62.596 50.9893 62.7069 50.7249 62.8558 50.4852C63.1406 49.9683 63.4626 49.3757 63.3572 48.9128C63.1859 48.162 62.7271 47.6649 62.1208 47.5454C61.5525 47.4381 60.8231 47.6208 60.5644 48.2378C60.3428 48.7792 60.2301 50.1346 60.1624 50.9378C60.1511 51.0759 60.1398 51.2014 60.1283 51.3144C60.105 51.5153 60.0694 51.7413 60.0337 51.9549C59.9258 52.5202 59.8181 53.0981 60.0991 53.4716Z" fill="#231F20"/>
<path d="M61.7975 49.3148C61.7723 49.315 61.747 49.3153 61.7343 49.3029C61.5953 49.2666 61.5057 49.1295 61.542 48.9787L61.736 48.1993C61.7599 48.0612 61.8976 47.9595 62.0365 47.9832C62.1754 48.0069 62.2776 48.1439 62.2537 48.2821C62.2539 48.2946 62.254 48.3071 62.2415 48.3198L62.0475 49.0992C62.0235 49.2248 61.9234 49.301 61.7975 49.3148Z" fill="#231F20"/>
<path d="M62.253 51.4073C62.1017 51.4088 61.9872 51.2971 61.9857 51.1466C61.981 50.6701 61.8977 49.8935 61.7294 49.4437C61.4042 49.7102 60.8297 50.255 60.7849 50.8323C60.7611 50.9705 60.6361 51.0845 60.4846 51.0609C60.3458 51.0498 60.2438 50.9253 60.255 50.7873C60.3452 49.708 61.6102 48.868 61.6603 48.8299C61.773 48.7535 61.9245 48.7771 62.0139 48.8891C62.486 49.4613 62.5134 50.9659 62.5151 51.1414C62.5165 51.2794 62.4043 51.4059 62.253 51.4073Z" fill="#231F20"/>
<path d="M103.285 25.6863C103.285 25.6863 103.078 25.1742 102.714 25.3408C102.35 25.5073 101.619 26.781 101.787 27.1681C101.955 27.5552 102.458 27.4249 102.458 27.4249C102.458 27.4249 103.157 29.3116 104.066 29.4658C104.975 29.6199 104.884 29.2822 104.884 29.2822C104.884 29.2822 105.768 29.4617 105.886 28.6329C105.886 28.6329 106.564 28.3629 106.379 27.5496C106.379 27.5496 106.869 27.3191 106.484 26.6583C106.484 26.6583 106.87 26.1654 106.285 25.657C106.285 25.657 106.458 25.3293 105.674 25.0485C104.89 24.7677 103.873 25.2291 103.285 25.6863Z" fill="white"/>
<path d="M104.506 29.5877C104.354 29.5892 104.203 29.5656 104.051 29.542C103.193 29.3873 102.535 27.8639 102.392 27.5141C102.178 27.5413 101.838 27.507 101.696 27.1949C101.631 27.045 101.654 26.8191 101.79 26.4917C101.987 26.0007 102.397 25.3697 102.673 25.2542C102.773 25.203 102.899 25.2018 103 25.251C103.14 25.3123 103.242 25.4242 103.319 25.5488C103.857 25.1674 104.886 24.6557 105.708 24.9612C106.075 25.0956 106.291 25.2565 106.368 25.4438C106.394 25.5063 106.395 25.569 106.395 25.6191C106.866 26.066 106.681 26.5067 106.595 26.6455C106.722 26.8323 106.762 27.0576 106.702 27.2839C106.665 27.4097 106.59 27.5108 106.49 27.587C106.596 28.0248 106.373 28.4785 105.972 28.683C105.949 28.8964 105.824 29.0983 105.649 29.2254C105.449 29.3528 105.21 29.4052 104.97 29.3825C104.958 29.4077 104.945 29.4455 104.92 29.4582C104.795 29.5598 104.644 29.6114 104.506 29.5877ZM102.454 27.3254C102.491 27.3251 102.529 27.3498 102.542 27.3873C102.543 27.3998 103.241 29.2238 104.088 29.3786C104.618 29.4737 104.756 29.3846 104.781 29.3593C104.793 29.3466 104.806 29.334 104.793 29.309C104.793 29.2839 104.792 29.2463 104.817 29.2335C104.842 29.2082 104.867 29.208 104.893 29.2077C105.107 29.2432 105.334 29.2034 105.534 29.0886C105.685 28.9742 105.771 28.8104 105.782 28.6222C105.782 28.5971 105.807 28.5592 105.832 28.5465C105.857 28.5337 106.434 28.2898 106.276 27.564C106.263 27.5265 106.288 27.4886 106.325 27.4632C106.413 27.4122 106.475 27.3363 106.512 27.2356C106.561 27.0847 106.509 26.9096 106.393 26.6976C106.368 26.6727 106.368 26.6351 106.392 26.5973C106.405 26.5846 106.716 26.1552 106.207 25.7213C106.182 25.6964 106.169 25.6464 106.194 25.6085C106.206 25.5708 106.205 25.5332 106.18 25.4958C106.141 25.421 106.026 25.2716 105.634 25.1249C104.938 24.8684 103.946 25.2668 103.333 25.7493C103.308 25.7621 103.283 25.7749 103.258 25.7626C103.232 25.7503 103.207 25.738 103.194 25.7131C103.142 25.5882 103.053 25.4762 102.926 25.4022C102.863 25.3777 102.8 25.3783 102.737 25.404C102.524 25.4939 102.138 26.0494 101.954 26.5528C101.856 26.8171 101.82 27.0181 101.859 27.1181C102.001 27.4302 102.403 27.3259 102.428 27.3257L102.454 27.3254Z" fill="#231F20"/>
<path d="M104.28 26.0656C104.23 26.0661 104.191 26.0289 104.191 25.9787C104.191 25.9536 104.203 25.9284 104.228 25.9031C104.854 25.4455 106.243 25.6702 106.306 25.6822C106.357 25.6942 106.382 25.7316 106.383 25.7817C106.383 25.8319 106.333 25.8575 106.282 25.858C106.27 25.8581 104.906 25.6331 104.343 26.0525C104.318 26.0527 104.293 26.0655 104.28 26.0656Z" fill="#231F20"/>
<path d="M106.487 26.8604C106.474 26.8605 106.462 26.8606 106.449 26.8482C106.437 26.8483 105.373 26.3822 104.582 26.6658C104.531 26.6789 104.481 26.6668 104.468 26.6168C104.454 26.5667 104.467 26.5165 104.517 26.5034C104.517 26.5034 104.517 26.5034 104.529 26.5033C105.396 26.1939 106.485 26.6723 106.536 26.6844C106.586 26.7089 106.6 26.759 106.587 26.7967C106.55 26.8347 106.525 26.86 106.487 26.8604Z" fill="#231F20"/>
<path d="M106.375 27.7498C106.363 27.75 106.35 27.7501 106.337 27.7377C106.325 27.7378 105.223 27.272 104.543 27.3163C104.493 27.3168 104.454 27.2795 104.454 27.2294C104.454 27.1792 104.491 27.1412 104.541 27.1407C105.272 27.1085 106.361 27.5619 106.411 27.5739C106.462 27.5985 106.475 27.6485 106.463 27.6863C106.451 27.724 106.413 27.7495 106.375 27.7498Z" fill="#231F20"/>
<path d="M105.888 28.8332C105.863 28.8334 105.85 28.821 105.825 28.8087C105.812 28.7963 104.833 27.9532 104.353 27.9077C104.303 27.9082 104.265 27.8584 104.277 27.8081C104.276 27.758 104.326 27.7198 104.377 27.7319C104.919 27.7768 105.899 28.645 105.949 28.6821C105.988 28.7194 105.988 28.7695 105.963 28.8074C105.938 28.8202 105.913 28.833 105.888 28.8332Z" fill="#231F20"/>
<path d="M104.886 29.4837C104.848 29.4841 104.823 29.4718 104.81 29.4343C104.81 29.4217 104.412 28.7234 103.931 28.4522C103.892 28.4275 103.879 28.3775 103.904 28.3271C103.929 28.2892 103.979 28.2762 104.03 28.3008C104.537 28.5968 104.948 29.3201 104.973 29.3449C104.999 29.3823 104.987 29.4451 104.936 29.4581C104.924 29.4833 104.899 29.4836 104.886 29.4837Z" fill="#231F20"/>
<path d="M99.6232 23.6387C99.6426 25.6073 98.0449 27.228 96.0658 27.2473C95.8137 27.2498 95.5613 27.2272 95.3213 27.1794C95.233 27.1677 95.1445 27.1435 95.0686 27.1191C93.1597 26.586 92.0561 24.6155 92.5921 22.7167C92.7386 22.2262 92.9735 21.7599 93.31 21.3679C93.3475 21.3299 93.3848 21.2794 93.4348 21.2413C93.9839 20.6716 94.6987 20.2884 95.4792 20.1679C95.605 20.1416 95.7435 20.1277 95.8696 20.1265L96.0082 20.1251C97.231 20.1132 98.3842 20.7164 99.0498 21.7382C99.1009 21.8129 99.1522 21.9002 99.1908 21.9751C99.4858 22.4863 99.63 23.0492 99.6232 23.6387Z" fill="white"/>
<path d="M96.0778 27.3359C95.8256 27.3383 95.5607 27.3158 95.3081 27.2681C95.2197 27.2565 95.1312 27.2322 95.0427 27.208C93.9682 26.905 93.078 26.1237 92.6393 25.0997C92.5617 24.8998 92.4967 24.6998 92.4441 24.4871C92.1935 23.361 92.4846 22.1919 93.2324 21.3193C93.2697 21.2688 93.3071 21.2308 93.3571 21.1802C93.9186 20.5978 94.6461 20.2145 95.4516 20.0813C95.59 20.0548 95.7159 20.0411 95.8546 20.0397C95.905 20.0392 95.9554 20.0387 95.9933 20.0384C97.2412 20.0262 98.4197 20.6417 99.0982 21.6884C99.1493 21.7631 99.2006 21.8504 99.2393 21.9378C100.215 23.709 99.5687 25.9349 97.788 26.9053C97.2865 27.1861 96.683 27.3425 96.0778 27.3359ZM96.0075 20.2012C95.957 20.2017 95.9192 20.2021 95.8688 20.2026C95.7428 20.2038 95.6168 20.2176 95.491 20.2439C94.7232 20.3643 94.0335 20.7347 93.4969 21.2917C93.4594 21.3296 93.4221 21.3802 93.3846 21.4182C92.1258 22.8851 92.2987 25.0779 93.7734 26.3301C94.1548 26.6524 94.6111 26.8987 95.104 27.0319C95.1799 27.0562 95.2684 27.0804 95.3568 27.0921C95.5968 27.1399 95.8365 27.1626 96.0886 27.1602C96.7441 27.1538 97.3852 26.9594 97.9491 26.6153C98.112 26.5134 98.2621 26.3991 98.3995 26.2724C99.5992 25.1947 99.8969 23.4237 99.114 22.0143C99.0754 21.9394 99.0242 21.8521 98.973 21.7774C98.3201 20.768 97.2049 20.177 96.0075 20.2012Z" fill="#231F20"/>
<path d="M95.5841 22.3109C95.5591 22.3237 95.3591 22.5012 95.0718 22.7674C94.2468 23.4902 93.4727 24.2502 92.7241 25.0475C92.6467 24.8602 92.5817 24.6602 92.5291 24.4475C92.4764 24.2097 92.4487 23.9592 92.4462 23.7084C92.4377 22.8433 92.7447 22.0126 93.3055 21.3551C93.3429 21.3171 93.3803 21.2665 93.4303 21.2284C94.062 21.3602 94.657 21.6177 95.1902 21.9887C95.3298 22.0877 95.4569 22.1868 95.5841 22.3109Z" fill="#84AFBF"/>
<path d="M92.7281 25.1363L92.7155 25.1365C92.6903 25.1367 92.6648 25.1119 92.652 25.0869C92.5744 24.887 92.5094 24.687 92.4568 24.4744C92.2062 23.3482 92.4973 22.1791 93.2451 21.3066C93.2824 21.256 93.3198 21.2181 93.3698 21.1674C93.3947 21.1421 93.4199 21.1418 93.4452 21.1416C94.0894 21.2732 94.6972 21.5432 95.2429 21.9141C95.3826 22.013 95.5224 22.1245 95.6496 22.2487C95.6624 22.2611 95.6752 22.286 95.6755 22.3111C95.6757 22.3362 95.6635 22.3739 95.6384 22.3867C95.601 22.4247 95.4009 22.5897 95.126 22.8432C94.3137 23.5659 93.527 24.326 92.791 25.1232C92.7785 25.1358 92.7534 25.1486 92.7281 25.1363ZM93.4596 21.3295L93.3722 21.4182C92.6619 22.2528 92.3829 23.3716 92.6203 24.4351C92.647 24.5854 92.6989 24.7353 92.7508 24.8853C93.4367 24.1262 94.4488 23.2009 94.9986 22.7065C95.1986 22.529 95.3611 22.3894 95.4486 22.3133C95.3469 22.2265 95.2452 22.1398 95.131 22.0656C94.6358 21.7068 94.0659 21.449 93.4596 21.3295Z" fill="#231F20"/>
<path d="M99.1808 21.9628C98.7519 21.9293 98.4183 22.6223 98.0277 22.6387C97.5361 22.6435 97.0323 22.6985 96.5542 22.791C96.2146 22.8695 95.6074 22.6623 95.6074 22.6623L95.5613 21.8226L95.4691 20.1431C95.5949 20.1168 95.7335 20.1029 95.8595 20.1017L95.9982 20.1003C97.2209 20.0884 98.3615 20.6917 99.0271 21.7135C99.091 21.8006 99.1422 21.8754 99.1808 21.9628Z" fill="#84AFBF"/>
<path d="M96.3865 22.893C96.1091 22.8832 95.8439 22.8356 95.5783 22.7505C95.5403 22.7383 95.5149 22.7135 95.5145 22.6758L95.3762 20.1566C95.3757 20.1065 95.4006 20.0686 95.451 20.0681C95.5894 20.0417 95.7153 20.0279 95.854 20.0266C95.9044 20.0261 95.9549 20.0256 95.9927 20.0252C97.2406 20.013 98.4191 20.6285 99.0976 21.6753C99.1488 21.75 99.2001 21.8373 99.2387 21.9247C99.2643 21.9621 99.2397 22.025 99.202 22.0379C99.1895 22.0506 99.1769 22.0507 99.1517 22.0509C98.9624 22.0277 98.775 22.2051 98.6003 22.3824C98.4255 22.5596 98.2255 22.7246 98.0113 22.7392C97.5197 22.744 97.0285 22.799 96.5504 22.8914C96.5126 22.8918 96.4497 22.905 96.3865 22.893ZM95.6903 22.5989C95.842 22.6476 96.2717 22.7562 96.5359 22.7035C97.0267 22.6109 97.5304 22.5558 98.0346 22.5509C98.1859 22.5494 98.3483 22.3974 98.5107 22.2453C98.6731 22.0932 98.848 21.9285 99.0493 21.8889C99.0237 21.8516 98.9981 21.8142 98.9725 21.7768C98.2942 20.7426 97.1159 20.1522 95.8685 20.2145C95.7676 20.2155 95.6669 20.229 95.5662 20.2426L95.6903 22.5989Z" fill="#231F20"/>
<path d="M99.6201 23.6383C99.6322 24.8671 99.0132 26.0143 97.9733 26.6765L95.8695 22.9852L95.5616 22.449L95.7125 22.4099C95.8257 22.3837 97.9999 21.6978 99.0338 21.7128C99.085 21.7876 99.1363 21.8748 99.1749 21.9497C99.47 22.4735 99.6143 23.0489 99.6201 23.6383Z" fill="#231F20"/>
<path d="M97.9771 26.7635C97.9645 26.7636 97.9645 26.7636 97.9519 26.7637C97.9267 26.764 97.9138 26.739 97.9011 26.7266L95.4894 22.4991C95.4767 22.4866 95.4765 22.4741 95.4764 22.4616C95.4759 22.4114 95.5134 22.3734 95.5638 22.3729L95.5764 22.3728L95.7022 22.3465L95.8405 22.3075C97.3614 21.8538 98.4436 21.6426 99.0487 21.6492C99.074 21.6489 99.0993 21.6612 99.1247 21.6861C99.1759 21.7608 99.2272 21.8481 99.2658 21.923C100.19 23.6068 99.6561 25.7188 98.0275 26.763C98.0149 26.7631 97.9897 26.7633 97.9771 26.7635ZM95.7038 22.5095L98.013 26.5625C98.1508 26.4733 98.2758 26.3718 98.3883 26.2704C99.5879 25.1928 99.8856 23.4217 99.1027 22.0123C99.0643 21.95 99.0259 21.8877 98.9873 21.8128L98.9621 21.8131C98.3696 21.8188 97.3381 22.0421 95.8924 22.4575C95.8044 22.4834 95.7541 22.4965 95.7415 22.4966L95.7038 22.5095Z" fill="#231F20"/>
<path d="M95.5836 22.3137C95.5837 22.3263 95.5716 22.3765 95.5597 22.4519C95.5357 22.5775 95.4999 22.7785 95.4521 23.0423C95.2982 24.0596 95.0769 25.9051 95.3164 27.1819C95.228 27.1702 95.1395 27.146 95.0636 27.1216C93.7869 26.7704 92.8186 25.7391 92.5287 24.4628C92.7891 24.0214 93.1509 23.6416 93.5894 23.3615C94.0278 23.0688 94.4916 22.8009 94.9683 22.558C95.1816 22.4556 95.3825 22.3784 95.5836 22.3137Z" fill="#231F20"/>
<path d="M95.3203 27.2659L95.3077 27.266C95.2193 27.2543 95.1308 27.2301 95.0423 27.2059C93.9678 26.9029 93.0776 26.1216 92.6389 25.0976C92.5613 24.8977 92.4963 24.6977 92.4437 24.485C92.4435 24.4599 92.4434 24.4474 92.4557 24.4222C92.7286 23.9681 93.1029 23.5757 93.554 23.2954C94.005 23.0026 94.4687 22.7222 94.9455 22.4918C95.1462 22.3895 95.3596 22.2996 95.5733 22.2349C95.5985 22.2346 95.6237 22.2344 95.6492 22.2592C95.6745 22.2715 95.6747 22.2966 95.675 22.3216C95.6752 22.3467 95.6631 22.397 95.6513 22.4724L95.6514 22.4849C95.6274 22.6105 95.5916 22.8115 95.5562 23.0627C95.4021 24.0548 95.1808 25.9004 95.4201 27.1646C95.4204 27.1897 95.4208 27.2273 95.3957 27.2401C95.3832 27.2527 95.3581 27.2655 95.3203 27.2659ZM92.6327 24.4706C92.6724 24.6583 92.7373 24.8458 92.8146 25.0206C93.2278 26.0072 94.067 26.7389 95.1036 27.0297L95.2301 27.0661C95.0158 25.7891 95.2377 24.0063 95.3921 23.0392C95.4273 22.7755 95.4632 22.5745 95.4997 22.4488C95.3993 22.4874 95.2611 22.5389 95.0478 22.6413C94.571 22.8716 94.1198 23.1394 93.6688 23.4322C93.2427 23.6872 92.8932 24.0417 92.6327 24.4706Z" fill="#231F20"/>
<path d="M98.4501 26.3241C97.6003 27.0848 96.4436 27.3971 95.3321 27.1822C95.2437 27.1706 95.1552 27.1463 95.0793 27.122C94.9965 26.3955 94.9768 25.6684 95.0073 24.9282C95.0513 24.2757 95.171 23.635 95.3539 23.0062C95.4272 22.7672 95.5006 22.5408 95.5993 22.3141C95.5993 22.3141 95.6501 22.3512 95.7264 22.4257C95.8028 22.5002 95.9553 22.6241 96.1207 22.773C96.7057 23.2939 97.2159 23.8909 97.6384 24.5514C97.9842 25.0998 98.2548 25.699 98.4501 26.3241Z" fill="#84AFBF"/>
<path d="M96.0775 27.3351C95.8254 27.3376 95.5604 27.3151 95.3078 27.2674C95.2194 27.2557 95.1309 27.2315 95.0424 27.2073C95.0045 27.1951 94.979 27.1703 94.9787 27.1327C94.8959 26.4062 94.876 25.6665 94.9065 24.9263C94.9505 24.2738 95.0701 23.6206 95.253 22.9918C95.3262 22.7403 95.412 22.4886 95.4984 22.2997C95.4982 22.2871 95.5107 22.2745 95.5106 22.2619C95.548 22.224 95.5985 22.2235 95.6365 22.2482C95.6365 22.2482 95.6873 22.2853 95.7637 22.3598C95.8401 22.4343 95.9671 22.5334 96.1579 22.7071C96.7556 23.2279 97.2659 23.8374 97.701 24.4978C98.047 25.0712 98.3177 25.6705 98.5131 26.3081C98.526 26.3456 98.5137 26.3708 98.4887 26.3962C98.3388 26.5356 98.1761 26.65 98.0133 26.7645C97.4369 27.1212 96.7708 27.3284 96.0775 27.3351ZM95.1543 27.0432C95.2174 27.0551 95.2807 27.0796 95.3439 27.0915C95.5839 27.1393 95.8236 27.1621 96.0757 27.1596C96.7312 27.1532 97.3723 26.9588 97.9362 26.6147C98.0866 26.5255 98.2243 26.4238 98.3492 26.3097C98.1668 25.7096 97.8964 25.1354 97.5758 24.5868C97.1534 23.9388 96.6432 23.3419 96.0709 22.8333C95.8801 22.6596 95.7403 22.5481 95.6768 22.4986L95.6388 22.4739C95.5896 22.5998 95.5159 22.8011 95.4427 23.0526C95.2597 23.6689 95.1526 24.3095 95.0958 24.9496C95.0521 25.6272 95.0717 26.3418 95.1543 27.0432Z" fill="#231F20"/>
<path d="M95.8684 20.1155C95.8363 20.6927 95.7663 21.2702 95.6712 21.848C95.6235 22.1243 95.5875 22.3128 95.5875 22.3128C95.4479 22.2138 95.2956 22.115 95.1436 22.0412C94.5732 21.7333 93.9532 21.5011 93.309 21.3694C93.3464 21.3314 93.3838 21.2809 93.4338 21.2428C93.9829 20.6731 94.6977 20.29 95.4781 20.1695C95.6039 20.1432 95.7424 20.1167 95.8684 20.1155Z" fill="#231F20"/>
<path d="M95.5889 22.4015C95.5763 22.4016 95.5511 22.4018 95.5384 22.3894C95.3987 22.2905 95.2466 22.2042 95.0945 22.1179C94.5241 21.8099 93.9168 21.5901 93.2852 21.4584C93.2599 21.4461 93.2345 21.4338 93.2216 21.3963C93.2087 21.3713 93.2209 21.3336 93.2333 21.3084C93.2706 21.2579 93.3081 21.2199 93.358 21.1692C93.9196 20.5869 94.647 20.2036 95.4525 20.0703C95.5909 20.0439 95.7169 20.0301 95.8555 20.0288C95.8807 20.0285 95.9061 20.0408 95.9188 20.0532C95.9315 20.0657 95.9444 20.0906 95.9446 20.1157C95.9125 20.6929 95.8427 21.2829 95.7474 21.8482C95.6997 22.1245 95.6637 22.313 95.6637 22.313C95.664 22.338 95.639 22.3634 95.6139 22.3761C95.614 22.3887 95.6015 22.4013 95.5889 22.4015ZM93.4854 21.3059C94.0792 21.4381 94.6613 21.6581 95.1937 21.9539C95.3078 22.0155 95.422 22.0896 95.5362 22.1637C95.548 22.0884 95.5721 21.9753 95.596 21.8371C95.6671 21.3724 95.7616 20.7319 95.7817 20.2176C95.681 20.2311 95.5928 20.232 95.5047 20.2454C94.7368 20.3658 94.0471 20.7362 93.5105 21.2932L93.4854 21.3059Z" fill="#231F20"/>
<path d="M95.5985 23.0626C95.9397 23.0593 96.2135 22.7815 96.2102 22.4422C96.2068 22.1029 95.9276 21.8305 95.5864 21.8338C95.2453 21.8371 94.9715 22.1149 94.9748 22.4542C94.9781 22.7936 95.2574 23.066 95.5985 23.0626Z" fill="white"/>
<path d="M95.5948 23.1396C95.204 23.1435 94.8857 22.8331 94.8819 22.4444C94.8781 22.0557 95.1901 21.7391 95.5809 21.7353C95.9717 21.7315 96.2899 22.0419 96.2937 22.4306C96.2976 22.8193 95.9855 23.1358 95.5948 23.1396ZM95.5828 21.9234C95.2928 21.9262 95.0557 22.1668 95.0585 22.4552C95.0614 22.7436 95.3032 22.9795 95.5931 22.9766C95.8831 22.9738 96.1202 22.7332 96.1174 22.4448C96.1145 22.1564 95.8727 21.9205 95.5828 21.9234Z" fill="#231F20"/>
<path d="M87.9379 44.7685C87.9379 44.7685 87.6591 44.6207 87.4243 45.0996C87.1895 45.5784 86.6863 46.9627 86.3475 47.129C86.0088 47.2954 84.1146 45.6962 83.7642 45.9629C83.4139 46.2297 83.6177 46.4409 84.0888 46.9128C84.5599 47.3847 85.4094 47.8781 85.4893 48.3162C85.5693 48.7543 84.1518 49.4704 83.7425 50.1515C83.3332 50.8327 83.7872 50.8533 84.1386 50.6869C84.4899 50.5204 85.7925 49.655 86.2718 49.6754C86.751 49.6958 87.2017 51.9361 87.6439 52.0321C88.0861 52.1281 88.211 52.014 88.1947 51.638C88.1784 51.2619 87.7315 49.4103 87.8552 49.1709C87.979 48.9314 90.4637 49.0576 90.6109 48.6424C90.7087 48.3279 90.5415 47.991 90.2253 47.8937C90.1874 47.8816 90.1495 47.8694 90.099 47.8699C89.809 47.8602 88.1585 47.9641 87.966 47.6148C87.7734 47.2656 88.595 44.9251 87.9379 44.7685Z" fill="white"/>
<path d="M87.9199 52.1657C87.819 52.1667 87.7307 52.155 87.6422 52.1308C87.4021 52.0704 87.2087 51.6334 86.937 50.9338C86.7431 50.4466 86.4843 49.772 86.2826 49.774C85.9548 49.7646 85.1149 50.2494 84.6135 50.5427C84.4255 50.6574 84.275 50.7341 84.1873 50.7851C83.9866 50.8874 83.7097 50.9402 83.5822 50.791C83.4547 50.6418 83.5031 50.4407 83.6891 50.1253C83.8751 49.81 84.2753 49.4801 84.6631 49.1753C85.0509 48.8706 85.451 48.5406 85.424 48.3528C85.3836 48.0898 84.9898 47.7927 84.6212 47.4828C84.418 47.3343 84.2272 47.1606 84.049 46.9868L84.0363 46.9744C83.7179 46.6515 83.5142 46.4528 83.5248 46.2395C83.5486 46.1013 83.6231 45.9878 83.736 45.924C83.9613 45.7587 84.4557 46.0423 85.2422 46.5362C85.6354 46.7832 86.2189 47.1412 86.3318 47.0899C86.5576 46.9748 86.9148 46.1186 87.1366 45.6023C87.2229 45.4008 87.2967 45.212 87.3585 45.086C87.4198 44.9099 87.5571 44.7706 87.7329 44.7062C87.8209 44.6802 87.9092 44.6794 87.9852 44.7162C88.4781 44.8494 88.3112 45.8166 88.1683 46.6707C88.0966 47.0727 88.0254 47.5248 88.0768 47.6246C88.2053 47.8616 89.3901 47.8375 89.8313 47.8332C89.9699 47.8319 90.0834 47.8308 90.1338 47.8303C90.3357 47.8534 90.5259 47.9644 90.6411 48.1388C90.7563 48.3133 90.7836 48.5262 90.7098 48.715C90.6116 48.9793 89.9693 49.0483 88.9867 49.1206C88.5835 49.1496 88.0167 49.1927 87.9416 49.2562C87.8798 49.3822 88.0658 50.3459 88.1593 50.8717C88.2258 51.2222 88.2919 51.535 88.2932 51.673C88.2946 51.8109 88.2966 52.0115 88.1715 52.1131C88.0961 52.1389 88.0081 52.1648 87.9199 52.1657ZM86.2682 49.586L86.2808 49.5859C86.5961 49.5953 86.8162 50.1826 87.0875 50.8571C87.2687 51.3318 87.5013 51.9064 87.6657 51.955C87.8552 52.0033 87.9813 52.002 88.0438 51.9513C88.1064 51.9005 88.1181 51.8126 88.1039 51.6497C88.1027 51.5243 88.0367 51.224 87.9702 50.8736C87.797 49.9347 87.6774 49.3089 87.7765 49.1324C87.8508 48.9937 88.1531 48.9657 88.9594 48.9076C89.5262 48.8645 90.4584 48.7927 90.5325 48.6289C90.5815 48.4905 90.5673 48.3276 90.4778 48.2031C90.3884 48.0786 90.2614 47.992 90.0973 47.9686C90.0469 47.9691 89.9335 47.9702 89.7948 47.9715C88.9124 47.9801 88.0551 47.976 87.8881 47.6641C87.811 47.5144 87.8581 47.1753 87.9533 46.5976C88.0602 45.9319 88.2392 44.9144 87.8982 44.8425C87.8856 44.8426 87.8855 44.8426 87.8854 44.8301C87.8728 44.8302 87.6829 44.7443 87.4849 45.1224C87.4231 45.2484 87.3492 45.4247 87.2629 45.6262C86.9179 46.4321 86.6341 47.0619 86.3833 47.1897C86.1952 47.2919 85.802 47.0575 85.1171 46.6378C84.6732 46.3662 83.9501 45.9093 83.8126 46.0235C83.675 46.1377 83.6754 46.1753 83.6758 46.213C83.6645 46.351 83.8682 46.5497 84.1356 46.8229L84.1484 46.8353C84.3266 47.0092 84.5173 47.1703 84.7078 47.319C85.1271 47.6534 85.521 47.9631 85.5746 48.2886C85.6279 48.5765 85.2277 48.9065 84.7523 49.2748C84.4021 49.5541 84.0019 49.884 83.8158 50.1868C83.6545 50.4517 83.6434 50.6023 83.6942 50.6394C83.745 50.6766 83.909 50.6875 84.0971 50.5853C84.1849 50.5469 84.3353 50.4576 84.5108 50.3556C85.2382 49.9723 85.9027 49.6021 86.2682 49.586Z" fill="#231F20"/>
<path d="M111.979 84.0694H64.4947C64.4646 84.0694 64.4348 84.0635 64.407 84.052C64.3792 84.0406 64.354 84.0238 64.3327 84.0026C64.3114 83.9814 64.2946 83.9563 64.2831 83.9286C64.2715 83.9009 64.2656 83.8713 64.2656 83.8413C64.2656 83.8114 64.2715 83.7817 64.2831 83.7541C64.2946 83.7264 64.3114 83.7013 64.3327 83.6801C64.354 83.6589 64.3792 83.6421 64.407 83.6306C64.4348 83.6192 64.4646 83.6133 64.4947 83.6133H111.979C112.009 83.6133 112.038 83.6192 112.066 83.6306C112.094 83.6421 112.119 83.6589 112.141 83.6801C112.162 83.7013 112.179 83.7264 112.19 83.7541C112.202 83.7817 112.208 83.8114 112.208 83.8413C112.208 83.8713 112.202 83.9009 112.19 83.9286C112.179 83.9563 112.162 83.9814 112.141 84.0026C112.119 84.0238 112.094 84.0406 112.066 84.052C112.038 84.0635 112.009 84.0694 111.979 84.0694Z" fill="#D1D3D4"/>
<path d="M111.979 92.0694H64.4947C64.4646 92.0694 64.4348 92.0635 64.407 92.052C64.3792 92.0406 64.354 92.0238 64.3327 92.0026C64.3114 91.9814 64.2946 91.9563 64.2831 91.9286C64.2715 91.9009 64.2656 91.8713 64.2656 91.8413C64.2656 91.8114 64.2715 91.7817 64.2831 91.7541C64.2946 91.7264 64.3114 91.7013 64.3327 91.6801C64.354 91.6589 64.3792 91.6421 64.407 91.6306C64.4348 91.6192 64.4646 91.6133 64.4947 91.6133H111.979C112.009 91.6133 112.038 91.6192 112.066 91.6306C112.094 91.6421 112.119 91.6589 112.141 91.6801C112.162 91.7013 112.179 91.7264 112.19 91.7541C112.202 91.7817 112.208 91.8114 112.208 91.8413C112.208 91.8713 112.202 91.9009 112.19 91.9286C112.179 91.9563 112.162 91.9814 112.141 92.0026C112.119 92.0238 112.094 92.0406 112.066 92.052C112.038 92.0635 112.009 92.0694 111.979 92.0694Z" fill="#D1D3D4"/>
<path d="M100.165 87.6202H64.4947C64.4339 87.6202 64.3757 87.5962 64.3327 87.5534C64.2898 87.5106 64.2656 87.4526 64.2656 87.3921C64.2656 87.3316 64.2898 87.2736 64.3327 87.2309C64.3757 87.1881 64.4339 87.1641 64.4947 87.1641H100.165C100.226 87.1641 100.284 87.1881 100.327 87.2309C100.37 87.2736 100.394 87.3316 100.394 87.3921C100.394 87.4526 100.37 87.5106 100.327 87.5534C100.284 87.5962 100.226 87.6202 100.165 87.6202Z" fill="#D1D3D4"/>
<path d="M58.9481 87.6208C58.3805 87.6208 57.8256 87.4532 57.3536 87.1393C56.8817 86.8253 56.5138 86.379 56.2966 85.8569C56.0794 85.3349 56.0225 84.7604 56.1333 84.2061C56.244 83.6518 56.5174 83.1427 56.9187 82.7431C57.3201 82.3435 57.8315 82.0714 58.3882 81.9612C58.9449 81.8509 59.522 81.9075 60.0464 82.1237C60.5708 82.34 61.019 82.7062 61.3344 83.1761C61.6498 83.646 61.8181 84.1984 61.8181 84.7635C61.8181 85.1387 61.7438 85.5103 61.5996 85.8569C61.4554 86.2036 61.244 86.5186 60.9775 86.7839C60.711 87.0492 60.3946 87.2597 60.0464 87.4033C59.6982 87.5469 59.325 87.6208 58.9481 87.6208ZM58.9481 82.3624C58.4711 82.3624 58.0048 82.5032 57.6082 82.767C57.2115 83.0309 56.9024 83.4059 56.7199 83.8446C56.5373 84.2834 56.4896 84.7662 56.5826 85.232C56.6757 85.6977 56.9054 86.1256 57.2427 86.4614C57.58 86.7972 58.0097 87.0259 58.4776 87.1185C58.9454 87.2112 59.4304 87.1636 59.8711 86.9819C60.3118 86.8002 60.6884 86.4924 60.9535 86.0975C61.2185 85.7027 61.3599 85.2384 61.3599 84.7635C61.3591 84.127 61.1047 83.5167 60.6526 83.0666C60.2004 82.6165 59.5875 82.3632 58.9481 82.3624Z" fill="#D1D3D4"/>
<path d="M18.5793 14.0926L24.5703 26.0078L23.2759 26.6586L17.2849 14.7434L18.5793 14.0926Z" fill="#231F20"/>
<path d="M23.3122 26.8978C23.3494 26.8978 23.3865 26.8978 23.4237 26.8606L24.6868 26.229C24.7982 26.1547 24.8725 26.0061 24.7982 25.8947L18.817 13.9694C18.7799 13.8951 18.7427 13.858 18.6684 13.8208C18.5941 13.7837 18.5198 13.7837 18.4827 13.8208L17.2195 14.4524C17.1081 14.5267 17.0338 14.6753 17.1081 14.7867L23.0893 26.712C23.1265 26.7863 23.1636 26.8235 23.2379 26.8235C23.2751 26.8978 23.2751 26.8978 23.3122 26.8978ZM24.241 25.8947L23.4237 26.3033L17.6654 14.8239L18.4827 14.4152L24.241 25.8947Z" fill="#231F20"/>
<path d="M28.0703 31.1345C27.9217 30.6887 24.8382 26.9365 24.7268 26.1192C24.6153 25.3019 25.284 21.9584 24.6153 21.5126C23.9466 21.0668 22.6835 24.1874 22.6835 24.1874C22.6835 24.1874 20.0087 19.2836 19.2285 19.6179C18.4484 19.9523 18.7084 22.6271 19.1171 24.2989C19.5257 25.9706 24.4296 34.0694 24.4296 34.0694L28.0703 31.1345Z" fill="white"/>
<path d="M24.4265 34.2941C24.5008 34.2941 24.5379 34.257 24.5751 34.2198L28.2158 31.3221C28.2901 31.2478 28.3273 31.1363 28.2901 31.0249C28.2158 30.8391 27.8815 30.3562 27.1013 29.2788C26.3211 28.2014 25.0209 26.4554 24.9466 26.0467C24.9466 25.5638 24.9466 25.0808 25.0209 24.635C25.1695 22.8889 25.2438 21.6258 24.7237 21.2543C24.5751 21.1429 24.4265 21.1429 24.2779 21.18C23.6835 21.3658 22.9776 22.7403 22.6061 23.5577C21.3801 21.3658 19.857 19.0253 19.0768 19.3225C17.9252 19.8055 18.5939 23.3719 18.8168 24.3007C19.2626 25.9724 23.9435 33.8111 24.1664 34.1455C24.2036 34.2198 24.2779 34.257 24.3522 34.257L24.4265 34.2941ZM27.7329 31.062L24.5008 33.6625C23.6835 32.288 19.7455 25.6381 19.374 24.2264C18.8539 22.2945 18.8539 20.0655 19.3369 19.8426C19.7455 19.8798 21.3058 22.1831 22.4575 24.3007C22.4947 24.375 22.6061 24.4493 22.7176 24.4493C22.829 24.4493 22.9033 24.375 22.9405 24.3007C23.5349 22.8518 24.2407 21.7373 24.5008 21.7373C24.8351 21.9602 24.6865 23.7063 24.5751 24.635C24.5008 25.1551 24.4636 25.6752 24.5008 26.1953C24.5751 26.7154 25.4667 27.9785 26.7298 29.6875C27.1013 30.1704 27.5471 30.7648 27.7329 31.062Z" fill="#231F20"/>
<path d="M14.727 98.9688C14.727 98.9688 10.9006 105.767 11.1606 105.804C11.4207 105.842 17.5505 107.662 17.5505 107.662C17.5505 107.662 21.1541 102.164 21.1169 102.015C21.0798 101.866 14.727 98.9688 14.727 98.9688Z" fill="white"/>
<path d="M17.5567 107.888C17.631 107.888 17.7425 107.851 17.7796 107.776C21.4575 102.166 21.4203 102.055 21.3832 101.906C21.346 101.758 21.3089 101.684 14.8447 98.7487C14.7333 98.6744 14.5847 98.7487 14.5104 98.8601C10.721 105.547 10.8325 105.77 10.9068 105.919C10.9439 105.993 11.0182 106.067 11.1297 106.067C11.3897 106.104 15.0676 107.182 17.4824 107.888H17.5567ZM20.7888 102.092C20.3801 102.835 18.6341 105.547 17.4453 107.33C16.0335 106.922 12.5043 105.882 11.464 105.621C11.8355 104.73 13.6188 101.498 14.8447 99.3431C16.9251 100.272 20.0086 101.684 20.7888 102.092Z" fill="#231F20"/>
<path d="M11.1277 105.805C11.1277 105.805 0.725582 105.248 0.205479 107.105C-0.314627 108.963 15.0656 113.681 15.0656 113.681L17.5547 107.662L11.1277 105.805Z" fill="#231F20"/>
<path d="M15.0649 113.904C15.1763 113.904 15.2506 113.83 15.2878 113.755L17.7768 107.737C17.814 107.663 17.814 107.589 17.7768 107.514C17.7397 107.44 17.7025 107.403 17.6282 107.366L11.2384 105.508H11.2012C9.418 105.397 0.576212 105.025 0.0189571 106.994C-0.538298 108.963 11.3498 112.752 15.0277 113.867C14.9906 113.904 15.0277 113.904 15.0649 113.904ZM17.1824 107.811L14.8791 113.347C7.67193 111.118 0.167561 108.146 0.427614 107.18C0.761967 106.065 6.81747 105.842 11.0526 106.065L17.1824 107.811Z" fill="#231F20"/>
<path d="M36.5015 100.237L39.1764 103.172L43.9688 98.0826L40.1051 94.0703L36.5015 100.237Z" fill="white"/>
<path d="M39.1726 103.427C39.2469 103.427 39.3212 103.389 39.3584 103.352L44.1508 98.2999C44.2622 98.1884 44.2622 98.0398 44.1508 97.9284L40.2872 93.879C40.2129 93.8047 40.1385 93.8047 40.0642 93.8047C39.9899 93.8047 39.9156 93.879 39.8785 93.9161L36.2749 100.083C36.2378 100.195 36.2378 100.306 36.3121 100.38L38.9497 103.315C39.024 103.352 39.0983 103.389 39.1726 103.427ZM43.6307 98.1141L39.1726 102.795L36.8322 100.195L40.1757 94.4734L43.6307 98.1141Z" fill="#231F20"/>
<path d="M39.1719 103.17C39.1719 103.17 35.7169 113.646 37.5373 113.497C39.3577 113.349 47.9766 102.464 47.9766 102.464L43.9643 98.1172L39.1719 103.17Z" fill="#231F20"/>
<path d="M37.4696 113.756H37.5068C39.3643 113.607 47.2402 103.725 48.1318 102.611C48.2061 102.499 48.2061 102.388 48.1318 102.276L44.1195 97.9298C44.0824 97.8926 44.0081 97.8555 43.9338 97.8555C43.8595 97.8555 43.7852 97.8926 43.748 97.9298L38.9556 102.982C38.9185 103.019 38.9185 103.057 38.8813 103.094C38.3612 104.617 35.9093 112.233 36.9495 113.533C37.0981 113.644 37.2839 113.756 37.4696 113.756ZM47.6117 102.462C44.2681 106.66 38.6956 113.161 37.4696 113.236C37.4325 113.236 37.3953 113.236 37.3582 113.199C36.7266 112.381 38.2498 106.697 39.3643 103.317L43.9338 98.487L47.6117 102.462Z" fill="#231F20"/>
<path d="M33.525 50.4141C33.525 50.4141 12.535 73.1501 12.2006 75.3791C11.5691 79.7257 36.1255 101.979 36.1255 101.979L41.7352 94.3258L27.0979 77.2366L46.3047 50.9713L33.525 50.4141Z" fill="#231F20"/>
<path d="M36.1315 102.239C36.2429 102.239 36.2801 102.202 36.3544 102.128L41.9641 94.4376C42.0384 94.3261 42.0384 94.2147 41.9641 94.1032L27.4754 77.1998L46.5707 51.0831C46.645 50.9716 46.6079 50.7859 46.4964 50.7116C46.4593 50.6744 46.4221 50.6744 46.3478 50.6744L33.5309 50.1172C33.4566 50.1172 33.3823 50.1543 33.3452 50.1915C31.1905 52.532 12.2809 73.039 11.9466 75.3051C11.6494 77.1998 15.6245 82.2894 23.7604 90.4625C29.7416 96.518 35.9086 102.091 35.9829 102.165C36.02 102.202 36.0572 102.239 36.1315 102.239ZM41.4068 94.3261L36.0572 101.608C29.1101 95.292 11.9094 78.8344 12.4295 75.4166C12.6524 73.8563 25.1721 59.8134 33.6052 50.6744L45.8277 51.1945L26.881 77.0883C26.8067 77.1998 26.8067 77.3112 26.881 77.4227L41.4068 94.3261Z" fill="#231F20"/>
<path d="M50.8047 55.4661L20.0814 105.619L11.4625 100.641L36.9105 50.7852L50.8047 55.4661Z" fill="#231F20"/>
<path d="M20.0791 105.881C20.1534 105.881 20.2649 105.844 20.302 105.77L51.0253 55.6166C51.0625 55.5423 51.0625 55.468 51.0625 55.3937C51.0253 55.3194 50.9882 55.2451 50.9139 55.2451L36.9825 50.5642C36.8711 50.527 36.7225 50.5642 36.6853 50.7128L11.2373 100.606C11.163 100.717 11.2373 100.866 11.3488 100.94L19.9676 105.844C20.0048 105.881 20.042 105.881 20.0791 105.881ZM50.4309 55.5795L20.0048 105.25L11.7946 100.531L37.0197 51.0843L50.4309 55.5795Z" fill="#231F20"/>
<path d="M19.4852 84.4808C19.5967 84.4808 19.671 84.4437 19.7081 84.3322L34.1596 56.7667C34.1968 56.6924 34.1968 56.5809 34.1596 56.5066L32.6365 53.7575C32.5622 53.646 32.4136 53.6089 32.265 53.6832C32.1535 53.7575 32.1164 53.9061 32.1535 54.0175L33.6024 56.6181L19.2252 84.0722C19.1509 84.1836 19.2252 84.3694 19.3366 84.4437C19.4109 84.4437 19.4481 84.4437 19.4852 84.4808Z" fill="white"/>
<path d="M48.9421 19.1367C50.2795 18.9138 51.6169 18.5795 52.9172 18.2451C53.8831 17.9851 54.8861 17.6136 55.4062 16.7962C54.5518 16.4247 54.1803 15.4217 53.8831 14.5301L51.9141 8.47456C51.3569 6.8028 50.8368 5.13103 49.8337 3.68217C49.1278 2.67911 46.1558 -0.292919 45.0413 1.5646C43.7782 0.598689 41.1405 -0.10717 39.6173 0.598687C37.9084 1.4903 36.6453 3.12491 36.2367 5.01958C35.9023 6.57989 36.1252 8.17736 36.4596 9.70052C36.4967 9.99773 36.6082 10.3321 36.7568 10.5921C37.0168 10.9636 37.3512 11.298 37.7598 11.5209C40.509 13.4899 42.7008 16.1275 44.1868 19.1367C44.2611 19.3596 44.4097 19.5082 44.5955 19.6197C44.7441 19.6568 44.8927 19.694 45.0784 19.6568C46.3787 19.5454 47.6418 19.3596 48.9421 19.1367Z" fill="white"/>
<path d="M44.8983 19.9143C44.9726 19.9143 45.0469 19.9143 45.1212 19.9143C46.4214 19.8028 47.7217 19.6171 48.9848 19.3942C50.3222 19.1713 51.6968 18.8369 52.9971 18.4654C54.0373 18.1682 55.1146 17.7967 55.6347 16.9051C55.6719 16.8308 55.6719 16.7565 55.6719 16.6822C55.6347 16.6079 55.5976 16.5708 55.5233 16.5336C54.7803 16.1993 54.4459 15.3076 54.1487 14.416L52.1797 8.36052C51.6225 6.68876 51.0652 4.97984 50.0622 3.49383C49.4678 2.63937 47.4988 0.6704 46.0499 0.6704H46.0128C45.6041 0.6704 45.2698 0.85615 45.0097 1.15335C43.6723 0.261745 41.1461 -0.444111 39.5486 0.336047C37.7654 1.26481 36.4651 2.93657 36.0193 4.94269C35.685 6.54016 35.9079 8.21192 36.2422 9.73509C36.2794 10.0694 36.3908 10.4038 36.5766 10.701C36.8366 11.0725 37.171 11.4069 37.5797 11.6669L37.654 11.7041C40.3659 13.6359 42.5207 16.2364 44.0067 19.2456C44.1181 19.5056 44.3039 19.7285 44.5268 19.8771C44.6382 19.8771 44.7497 19.9143 44.8983 19.9143ZM55.0403 16.8308C54.5202 17.4624 53.6286 17.7224 52.8484 17.9453C51.5482 18.3168 50.2108 18.614 48.8734 18.8369C47.6103 19.0598 46.31 19.2456 45.0469 19.357C44.9354 19.3942 44.824 19.3942 44.7125 19.357C44.6011 19.3199 44.5268 19.1341 44.4525 18.9855C42.9665 15.902 40.7003 13.2644 37.9512 11.2583L37.8769 11.2211C37.5425 10.9982 37.2453 10.7381 37.0224 10.4038C36.911 10.1437 36.7995 9.88369 36.7623 9.58649C36.4651 8.10047 36.2051 6.54016 36.5394 5.01699C36.9481 3.19662 38.1369 1.63631 39.7715 0.78185C41.1089 0.113143 43.6723 0.744699 44.8983 1.71061C44.9726 1.74776 45.0469 1.78491 45.1212 1.74776C45.1955 1.74776 45.2698 1.71061 45.3069 1.63631C45.4555 1.33911 45.7527 1.1905 46.0499 1.15335C47.2759 1.15335 49.1334 3.04802 49.6164 3.75388C50.5823 5.16559 51.1395 6.83736 51.6596 8.47198L53.6286 14.5275C53.9258 15.4191 54.2973 16.3478 55.0403 16.8308Z" fill="#231F20"/>
<path d="M36.4659 11.8906C36.4659 11.8906 34.8312 15.4571 35.3885 16.0515C35.9457 16.6459 37.3203 15.9772 37.3203 15.9772" fill="white"/>
<path d="M36.055 16.5704C36.5379 16.5332 36.9837 16.4218 37.4295 16.236C37.5781 16.1617 37.6153 16.0131 37.541 15.9017C37.4667 15.7531 37.3181 15.7159 37.2066 15.7902C36.8723 15.9388 35.9064 16.3103 35.572 15.9388C35.3491 15.6788 35.8692 13.8584 36.6865 12.0752C36.7608 11.9266 36.6865 11.778 36.5751 11.7408C36.4636 11.6665 36.2779 11.7408 36.2407 11.8523C35.7206 12.9668 34.6061 15.6416 35.2005 16.3103C35.4234 16.4961 35.7578 16.6075 36.055 16.5704Z" fill="#231F20"/>
<path d="M36.2399 7.54311C35.0511 8.88052 35.8312 11.1467 36.0913 12.6699C36.4628 14.8246 36.8715 16.9421 37.3173 19.0597C37.6145 20.3971 41.1437 19.877 41.701 19.3569L42.0725 23.8893C42.0725 23.8893 43.2985 26.2297 45.9361 24.4837C48.5738 22.7376 48.9453 20.8058 48.9453 20.8058L47.7194 14.6388C47.7194 14.6388 45.416 15.0103 43.5957 12.4841C41.7753 9.95788 41.1437 5.64844 41.1437 5.64844C41.1437 5.64844 37.3916 6.27999 36.2399 7.54311Z" fill="white"/>
<path d="M44.0764 25.4516C44.7822 25.4144 45.4881 25.1915 46.0825 24.7457C48.7573 22.9254 49.2031 20.9564 49.2031 20.8821C49.2031 20.8449 49.2031 20.8078 49.2031 20.7706L47.9772 14.6037C47.94 14.4551 47.8286 14.3808 47.68 14.3808C47.6057 14.3808 45.4881 14.7151 43.7792 12.3004C42.0331 9.84843 41.4016 5.65044 41.4016 5.61329C41.4016 5.53899 41.3644 5.50184 41.2901 5.42754C41.2158 5.39039 41.1787 5.35324 41.1044 5.39039C40.9558 5.42754 37.2779 5.9848 36.0519 7.32221C34.9745 8.51102 35.346 10.3685 35.6804 11.8546C35.7547 12.1518 35.7918 12.4118 35.829 12.6719C36.2005 14.7894 36.6091 16.9813 37.055 19.0989C37.1664 19.5447 37.5379 19.9162 37.9837 19.9905C38.9868 20.3248 40.6214 20.1019 41.4387 19.7676L41.8102 23.9284C41.8102 23.9656 41.8102 24.0027 41.8474 24.0399C42.2189 24.6714 42.7761 25.1544 43.482 25.3401C43.6677 25.4516 43.8906 25.4516 44.0764 25.4516ZM48.6459 20.8449C48.5716 21.1421 48.0515 22.7768 45.7481 24.3371C44.968 24.8572 44.225 25.0429 43.5934 24.8943C43.0362 24.7457 42.5904 24.3742 42.2932 23.8913L41.9217 19.3961C41.9217 19.2846 41.8474 19.2103 41.7731 19.1732C41.6616 19.136 41.5873 19.1732 41.513 19.2103C41.2158 19.4704 39.284 19.9162 38.1695 19.5447C37.8351 19.4332 37.6122 19.2475 37.5751 19.0246C37.1293 16.907 36.7206 14.7523 36.3491 12.6347C36.3119 12.3747 36.2377 12.0775 36.2005 11.7803C35.9033 10.4057 35.5689 8.69677 36.4606 7.69371C37.3893 6.6535 40.1013 6.09625 40.9186 5.94764C41.1044 6.91355 41.773 10.3685 43.3705 12.6347C44.968 14.9009 46.8255 14.9752 47.4942 14.938L48.6459 20.8449Z" fill="#231F20"/>
<path d="M37.0949 17.5012C37.0949 17.5012 38.9153 18.2442 39.5469 16.3867L37.0949 17.5012Z" fill="white"/>
<path d="M37.9141 17.9101C38.8057 17.9472 39.5858 17.3157 39.7716 16.4612C39.8087 16.3126 39.7344 16.164 39.623 16.1269C39.4744 16.0897 39.3258 16.164 39.2886 16.2755C39.1772 16.6841 38.9171 17.0185 38.5456 17.2414C38.0998 17.39 37.654 17.39 37.2082 17.2414C37.0968 17.1671 36.911 17.2414 36.8739 17.3528C36.7996 17.4643 36.8739 17.65 36.9853 17.6872H37.0225C37.3197 17.8358 37.6169 17.9101 37.9141 17.9101Z" fill="#231F20"/>
<path d="M40.811 12.6324C40.7739 12.0752 40.9225 11.5551 41.1825 11.0721C41.3311 10.6635 41.554 10.292 41.8141 9.95761C42.0741 9.62325 42.4828 9.4375 42.9286 9.4375C43.3001 9.47465 43.6344 9.6604 43.8573 9.95761C44.0802 10.2548 44.2288 10.6263 44.3031 10.9978C44.6375 12.6324 44.0802 14.3042 42.8171 15.4187L42.9286 15.2701" fill="white"/>
<path d="M42.7795 15.6419C42.8538 15.6419 42.891 15.6048 42.9653 15.5676C44.2655 14.416 44.8599 12.6328 44.5256 10.8867C44.4513 10.478 44.2655 10.1065 44.0426 9.77218C43.7826 9.40068 43.3739 9.17778 42.891 9.14062C42.3708 9.14062 41.8879 9.36353 41.5907 9.77218C41.2935 10.1065 41.0706 10.5152 40.922 10.9238C40.6248 11.4439 40.5133 12.0384 40.5505 12.6328C40.5876 12.7814 40.6991 12.8557 40.8477 12.8557C40.9963 12.8185 41.1077 12.7071 41.0706 12.5585C41.0706 12.0755 41.182 11.5554 41.4049 11.1467C41.5535 10.7752 41.7393 10.4409 41.9993 10.1065C42.2222 9.84648 42.5566 9.66073 42.891 9.66073C43.1882 9.69788 43.4482 9.84648 43.634 10.1065C43.8197 10.3666 43.9683 10.7009 44.0055 11.0353C44.3027 12.4842 43.8569 13.9702 42.8538 15.0104C42.7795 15.0104 42.7424 15.0475 42.668 15.1218L42.5566 15.2704C42.4823 15.3819 42.5194 15.5676 42.6309 15.6419C42.668 15.6419 42.7424 15.6791 42.7795 15.6419Z" fill="#231F20"/>
<path d="M41.662 19.397C41.662 19.397 43.4081 18.5425 44.0396 17.168C44.0396 17.168 44.4483 20.4743 41.8106 21.8489L41.662 19.397Z" fill="#231F20"/>
<path d="M41.8102 22.1067C41.8474 22.1067 41.8845 22.1067 41.9217 22.0695C44.7079 20.6207 44.2993 17.1657 44.2993 17.1285C44.2993 16.9799 44.1507 16.8685 44.0021 16.9056C43.9278 16.9056 43.8535 16.9799 43.7792 17.0542C43.1848 18.3545 41.513 19.1718 41.513 19.1718C41.4387 19.209 41.3644 19.3204 41.3644 19.4319L41.513 21.8838C41.513 21.9581 41.5502 22.0695 41.6616 22.1067C41.6988 22.0695 41.7731 22.1067 41.8102 22.1067ZM43.7792 18.0573C43.7049 18.9861 43.3705 20.5092 42.0331 21.4008L41.9217 19.5805C42.6275 19.1718 43.2591 18.6517 43.7792 18.0573Z" fill="#231F20"/>
<path d="M37.1719 10.3256C37.0342 9.91734 37.0487 9.54384 37.2042 9.4914C37.3598 9.43895 37.5975 9.72743 37.7351 10.1357C37.8728 10.544 37.8583 10.9175 37.7027 10.97C37.5472 11.0224 37.3095 10.7339 37.1719 10.3256Z" fill="#231F20"/>
<path d="M50.4719 19.6523C50.4719 19.6523 43.2647 20.5068 40.6642 24.5933C38.0637 28.6799 36.7634 43.6886 35.426 44.8031C34.0886 45.9176 30.4479 51.6759 30.5222 51.936C30.5965 52.1961 51.6236 57.2857 51.6236 57.2857C51.6236 57.2857 52.5152 52.419 54.3355 46.1034C56.1559 39.7878 56.4903 19.6523 50.4719 19.6523Z" fill="#84AFBF"/>
<path d="M45.0109 26.116C44.8623 26.3389 37.6552 39.9359 37.6552 39.9359L28.1075 29.0508L23.0922 33.2488C23.0922 33.2488 31.6368 47.5146 37.0607 48.8891C42.4847 50.2637 53.4441 30.314 53.1097 28.2335C52.7754 26.1531 47.1285 23.0325 45.0109 26.116Z" fill="#84AFBF"/>
<path d="M37.6157 40.196C37.7272 40.196 37.8015 40.1217 37.8386 40.0474L44.3771 27.7506C44.4514 27.602 44.3771 27.4534 44.2285 27.4163C44.1171 27.3791 43.9685 27.4163 43.8942 27.5277C43.8199 27.6763 38.5816 37.5212 37.5414 39.4901L33.6035 34.9578C33.5292 34.8463 33.3434 34.8092 33.232 34.9207C33.1205 34.995 33.0834 35.1807 33.1948 35.2922C33.1948 35.2922 33.1948 35.3293 33.232 35.3293L37.43 40.1217C37.4671 40.1589 37.5414 40.196 37.6157 40.196Z" fill="#231F20"/>
<path d="M37.0237 48.8912C40.553 48.8912 44.1937 45.7334 47.7973 39.4922C47.8716 39.3807 47.8344 39.195 47.723 39.1207C47.723 39.1207 47.723 39.1207 47.6858 39.1207C47.5744 39.0464 47.3886 39.0835 47.3515 39.195C43.5621 45.7335 39.8471 48.7798 36.2435 48.2968C32.6399 47.8139 28.702 41.0154 28.6648 40.9411C28.5905 40.8296 28.4048 40.7925 28.2933 40.8668C28.1819 40.9411 28.1447 41.0897 28.219 41.2011C28.4048 41.4983 32.3799 48.2968 36.1692 48.8169C36.4664 48.8541 36.7265 48.8912 37.0237 48.8912Z" fill="#231F20"/>
<path d="M42.2569 63.751C42.2941 63.751 42.3684 63.751 42.4055 63.7139C42.517 63.6396 42.5913 63.491 42.517 63.3795C42.517 63.3795 42.517 63.3424 42.4798 63.3424C40.065 59.3302 41.774 57.5841 41.8854 57.5098C41.9969 57.3983 41.9969 57.2497 41.8854 57.1383C41.774 57.0268 41.6254 57.0268 41.5139 57.1383C41.4396 57.2126 39.3963 59.2187 42.034 63.6024C42.0712 63.7139 42.1455 63.751 42.2569 63.751Z" fill="white"/>
<path d="M54.8523 19.2812C57.0442 19.2812 59.4961 19.7642 60.6849 21.6217C61.4279 22.8477 61.4279 24.3708 60.6849 25.5968C59.8676 26.7856 58.4559 27.38 57.007 27.12C55.9668 26.8971 55.0752 26.1912 54.1093 25.7826C52.6976 25.1882 51.1001 25.1882 49.6141 24.8167C49.1312 24.7424 48.6854 24.5566 48.3139 24.2222C47.9424 23.8507 47.7566 23.3678 47.7566 22.8477C47.5337 19.1698 52.4004 19.3184 54.8523 19.2812Z" fill="#84AFBF"/>
<path d="M54.7772 26.3769C54.8886 26.3769 55.0001 26.3026 55.0372 26.1912C55.0744 26.0426 55.0001 25.894 54.8886 25.8568C54.7028 25.7825 50.7649 24.3336 48.0158 24.5937C47.8672 24.5937 47.7557 24.7423 47.7929 24.8909C47.7929 25.0395 47.9415 25.151 48.0901 25.1138C50.7278 24.8909 54.7029 26.3398 54.74 26.3769C54.7029 26.3769 54.74 26.3769 54.7772 26.3769Z" fill="#231F20"/>
</svg>
