<svg width="110" height="126" viewBox="0 0 110 126" fill="none" xmlns="http://www.w3.org/2000/svg">
<path d="M45.4476 55.2013C45.4476 55.2013 27.4764 48.1741 21.4092 53.0125C15.342 57.8509 -2.93639 110.036 0.404408 118.792C3.74521 127.547 28.9356 123.131 28.9356 123.131C28.9356 123.131 99.63 127.316 106.811 124.628C117.524 120.596 93.7932 57.6589 90.222 54.2797C86.6508 50.9005 70.3308 56.6989 70.3308 56.6989" fill="#84AFBF"/>
<path d="M30.6272 108.691C30.5888 108.691 30.512 108.691 30.4736 108.653C22.064 102.893 11.2736 104.391 11.1584 104.391C11.0048 104.429 10.8896 104.314 10.8512 104.16C10.8128 104.007 10.928 103.891 11.0816 103.853C11.1968 103.853 22.2176 102.317 30.7808 108.192C30.896 108.269 30.9344 108.423 30.8576 108.576C30.7808 108.653 30.704 108.691 30.6272 108.691Z" fill="#231F20"/>
<path d="M82.698 108.693C82.6212 108.693 82.5444 108.654 82.4676 108.578C82.3908 108.462 82.3908 108.309 82.506 108.194C91.1076 102.318 102.09 103.816 102.205 103.854C102.359 103.893 102.474 104.008 102.436 104.162C102.397 104.315 102.282 104.43 102.128 104.392C102.013 104.392 91.2228 102.894 82.8132 108.654C82.8132 108.654 82.7748 108.693 82.698 108.693Z" fill="#231F20"/>
<path d="M25.175 100.935C25.0214 100.935 24.9062 100.781 24.9062 100.666L26.7879 68.679C26.7879 68.5254 26.9415 68.4102 27.0567 68.4102C27.2103 68.4102 27.3255 68.5638 27.3255 68.679L25.4439 100.666C25.4439 100.82 25.3286 100.935 25.175 100.935Z" fill="#231F20"/>
<path d="M82.6985 100.935C82.5449 100.935 82.4297 100.82 82.4297 100.666V70.0227C82.4297 69.8691 82.5449 69.7539 82.6985 69.7539C82.8521 69.7539 82.9673 69.8691 82.9673 70.0227V100.666C82.9673 100.82 82.8521 100.935 82.6985 100.935Z" fill="#231F20"/>
<path d="M39.2266 53.2031C39.2266 53.2031 45.3706 85.4207 56.9674 100.666C56.9674 100.666 72.673 72.5567 75.7066 55.0463C75.7066 55.0463 63.8026 57.3119 59.3866 57.3887C54.9706 57.4655 39.2266 53.2031 39.2266 53.2031Z" fill="#231F20"/>
<path d="M56.9316 100.934C56.8548 100.934 56.778 100.895 56.7012 100.818C45.258 85.6888 39.0372 53.548 38.9604 53.2408C38.922 53.164 38.9604 53.0488 39.0372 53.0104C39.114 52.9336 39.1908 52.9336 39.306 52.9336C39.4596 52.972 54.8964 57.1192 59.3124 57.1192H59.3892C63.7284 57.0808 75.5172 54.8152 75.6708 54.7768C75.7476 54.7768 75.8628 54.7768 75.9012 54.8536C75.978 54.9304 75.978 55.0072 75.978 55.084C72.9444 72.4408 57.354 100.511 57.2004 100.78C57.162 100.857 57.0468 100.934 56.9316 100.934ZM39.5748 53.548C40.3428 57.3496 46.41 85.9576 56.9316 100.166C58.7364 96.8248 72.4068 71.596 75.3636 55.3912C73.2516 55.7752 63.3828 57.6184 59.3892 57.6568H59.3124C55.2036 57.6568 42.1476 54.2392 39.5748 53.548Z" fill="#231F20"/>
<path d="M56.9293 100.933C56.8525 100.933 56.7373 100.894 56.6989 100.817L49.2493 88.1455C49.2109 88.0687 49.2109 87.9919 49.2109 87.9151L55.4317 69.4831L53.0125 65.2591C52.9357 65.1439 52.9741 65.0287 53.0509 64.9519L57.0829 60.8815C57.1213 60.8047 57.1981 60.8047 57.2749 60.8047C57.3517 60.8047 57.4285 60.8431 57.4669 60.8815L61.5757 64.9519C61.6525 65.0287 61.6909 65.1823 61.6141 65.2975L59.0797 69.5983L63.9949 87.3775C63.9949 87.4543 63.9949 87.5311 63.9949 87.5695L57.1597 100.817C57.1213 100.856 57.0445 100.933 56.9293 100.933ZM49.7869 87.9535L56.9293 100.088L63.4957 87.3391L58.5805 69.5599C58.5805 69.4831 58.5805 69.4063 58.6189 69.3679L61.1149 65.1439L57.3133 61.3807L53.5885 65.1439L55.9693 69.2911C56.0077 69.3679 56.0077 69.4447 56.0077 69.5215L49.7869 87.9535Z" fill="#231F20"/>
<path d="M44.5275 52.0156L68.1435 52.0924L67.7211 61.1164H51.0555L42.9531 57.238L44.5275 52.0156Z" fill="#231F20"/>
<path d="M67.7187 61.3806H51.0531C51.0147 61.3806 50.9763 61.3806 50.9379 61.3422L42.8355 57.4638C42.7203 57.387 42.6435 57.2718 42.6819 57.1566L44.2563 51.9342C44.2947 51.819 44.4099 51.7422 44.5251 51.7422L68.1411 51.819C68.2947 51.819 68.4099 51.9342 68.4099 52.0878L67.9875 61.1118C67.9875 61.2654 67.8723 61.3806 67.7187 61.3806ZM51.0915 60.843H67.4499L67.8339 52.3566L44.7171 52.2798L43.2579 57.0798L51.0915 60.843Z" fill="#231F20"/>
<path d="M74.2895 29.0877C75.5567 26.2845 75.9023 22.5597 76.4015 19.5645C76.6319 18.2205 77.3231 16.4541 77.1311 15.0717C76.9775 14.1117 76.3631 13.3437 76.2863 12.2685C76.2479 11.3085 76.2479 10.2717 75.7103 9.50374C75.1727 8.73574 73.8671 8.35174 73.2911 9.11974C74.0591 6.73894 74.5199 4.24294 74.6351 1.74694C72.5999 2.66854 70.3343 3.05254 68.1071 2.82214C68.9903 2.09254 69.7583 1.20934 70.3727 0.210938C68.4143 1.67014 65.6879 1.20934 63.2687 0.902136C57.7007 0.210936 51.8639 0.902137 47.0255 3.70534C45.4511 4.58854 43.9151 5.93254 43.7231 7.73734C42.5327 7.43014 41.1887 8.00614 40.3439 8.92774C39.5375 9.88774 38.9999 11.0397 38.7695 12.2685C37.1183 19.3725 39.8063 25.4781 40.5359 32.5053C45.7967 32.8125 51.0575 33.2733 56.3567 33.1965C60.5807 33.1197 72.0239 34.0797 74.2895 29.0877Z" fill="white"/>
<path d="M60.6953 33.504C59.8889 33.504 59.1209 33.504 58.4297 33.4656C57.6617 33.4656 56.9321 33.4656 56.3945 33.4656C52.0937 33.5424 47.7545 33.2352 43.5305 32.9664L40.5353 32.7744C40.4201 32.7744 40.3049 32.6592 40.3049 32.544C40.0745 30.2784 39.6521 28.0896 39.1913 25.9776C38.2697 21.408 37.4249 17.1072 38.5385 12.2304C38.8841 10.6944 39.4217 9.5808 40.1897 8.736C41.0345 7.776 42.2633 7.2768 43.5305 7.4304C43.7993 5.9712 44.9129 4.6656 46.9097 3.5136C51.4025 0.9024 57.2393 -0.0960006 63.3065 0.671999L63.8441 0.748801C66.1481 1.056 68.4905 1.3632 70.2185 0.0576C70.3337 -0.0192 70.4489 -0.0192 70.5641 0.0576C70.6793 0.1344 70.6793 0.288001 70.6025 0.403201C70.1033 1.248 69.4889 2.016 68.7977 2.6688C70.7561 2.784 72.7529 2.4 74.5193 1.5552C74.6729 1.4784 74.8265 1.5552 74.8649 1.7088C74.8649 1.7472 74.9033 1.7856 74.9033 1.824C74.7881 4.0896 74.4041 6.3552 73.7513 8.544C73.9049 8.5056 74.0969 8.4672 74.2505 8.4672C74.9033 8.5056 75.5177 8.8512 75.9017 9.3888C76.4393 10.1568 76.4777 11.1168 76.5161 12.0384V12.3072C76.5545 12.8064 76.7081 13.344 76.9385 13.8048C77.1305 14.2272 77.2841 14.6496 77.3609 15.1104C77.5145 16.0704 77.2073 17.184 76.9385 18.2976C76.8233 18.7968 76.7081 19.2576 76.6313 19.68C76.5545 20.2176 76.4393 20.832 76.3625 21.408C75.9785 24.0192 75.5561 26.976 74.5193 29.28C72.7913 33.0816 65.9177 33.504 60.6953 33.504ZM56.8553 32.928C57.3161 32.928 57.8153 32.928 58.3913 32.928C63.1913 33.0048 72.1385 33.12 74.0201 28.9728C75.0185 26.7456 75.4793 23.8272 75.8249 21.2544C75.9017 20.64 76.0169 20.064 76.0937 19.5264C76.1705 19.0656 76.2857 18.6048 76.4009 18.1056C76.6697 17.0688 76.9385 15.9936 76.7849 15.1488C76.7081 14.7648 76.5929 14.3808 76.4009 13.9968C76.1321 13.4592 75.9785 12.9216 75.9401 12.3456V12.0768C75.9017 11.232 75.8633 10.3872 75.4025 9.696C75.1337 9.2736 74.6729 9.0432 74.1737 9.0048C73.8665 8.9664 73.5977 9.0816 73.4057 9.312C73.3289 9.4272 73.1369 9.4656 73.0217 9.3504C72.9449 9.2736 72.9065 9.1584 72.9449 9.0432C73.6361 6.816 74.0969 4.512 74.2505 2.1696C72.2921 2.976 70.1417 3.3216 67.9913 3.0912C67.8377 3.0912 67.7225 2.9376 67.7609 2.784C67.7609 2.7072 67.7993 2.6688 67.8761 2.592C68.4521 2.1312 68.9513 1.5936 69.4121 0.979201C67.6841 1.7088 65.5721 1.44 63.6521 1.1712L63.1145 1.0944C57.1625 0.326399 51.4409 1.3248 47.0633 3.8592C45.1049 5.0112 44.0297 6.2784 43.9145 7.6608C43.9145 7.8144 43.7609 7.9296 43.6073 7.8912H43.5689C42.4169 7.6608 41.2265 8.0832 40.4585 8.9664C39.7673 9.7344 39.2681 10.7712 38.9609 12.192C37.8857 16.9152 38.7305 21.1776 39.6137 25.7088C40.0361 27.7824 40.4585 29.8944 40.6889 32.1216L43.4537 32.3136C47.6393 32.5824 51.9785 32.8896 56.2793 32.8128L56.8553 32.928Z" fill="#231F20"/>
<path d="M45.4453 58.5039C45.4453 58.5039 49.8229 60.7311 57.3109 60.9999C64.7989 61.2687 66.0661 59.2335 66.0661 59.2335L65.8741 55.2015L65.4517 45.8703L65.0677 37.1535L47.9413 36.5391L47.1349 43.6431L46.8661 45.9471L45.4453 58.5039Z" fill="white"/>
<path d="M58.5813 61.3063C58.1973 61.3063 57.7365 61.3063 57.3141 61.2679C49.8261 60.9991 45.3717 58.7719 45.3333 58.7335C45.2181 58.6951 45.1797 58.5799 45.1797 58.4647L47.6757 36.4999C47.6757 36.3463 47.8293 36.2695 47.9445 36.2695L65.0709 36.8455C65.2245 36.8455 65.3397 36.9607 65.3397 37.1143L66.3381 59.1943C66.3381 59.2327 66.3381 59.3095 66.2997 59.3479C66.2229 59.4631 65.0325 61.3063 58.5813 61.3063ZM45.7173 58.3495C46.5621 58.7335 50.7477 60.4999 57.3141 60.7303C63.7653 60.9607 65.4933 59.4631 65.8005 59.1175L64.8405 37.3831L48.2133 36.8071L45.7173 58.3495Z" fill="#231F20"/>
<path d="M46.8672 45.9844C48.096 48.0964 50.1696 49.8244 52.32 51.13C55.9296 53.2804 61.3824 55.7764 65.8752 55.2772L65.4528 45.946C62.1504 46.2532 58.848 46.138 55.584 45.6772C52.704 45.3316 49.7472 44.9476 47.136 43.7188L46.8672 45.9844Z" fill="#231F20"/>
<path d="M64.6118 55.5467C60.0038 55.5467 54.935 52.9355 52.2086 51.3227C49.6358 49.7483 47.7542 48.0203 46.679 46.1003C46.6406 46.0619 46.6406 45.9851 46.6406 45.9467L46.9094 43.6427C46.9094 43.5659 46.9862 43.4891 47.063 43.4507C47.1398 43.4123 47.2166 43.4123 47.2934 43.4507C49.943 44.6795 52.9766 45.0635 55.6646 45.3707C59.5814 45.8699 62.615 45.9467 65.495 45.6395C65.6486 45.6395 65.7638 45.7547 65.8022 45.9083L66.2246 55.2395C66.2246 55.3931 66.1094 55.5083 65.9942 55.5083C65.4566 55.5467 65.0342 55.5467 64.6118 55.5467ZM47.1398 45.9083C48.215 47.7131 49.9814 49.3643 52.4774 50.8619C55.3574 52.5899 60.887 55.4315 65.6102 54.9707L65.2262 46.1771C62.3846 46.4459 59.3894 46.3691 55.5878 45.8699C52.9766 45.5627 50.0198 45.1787 47.3702 44.0651L47.1398 45.9083Z" fill="#231F20"/>
<path d="M70.0968 17.5686C70.9416 17.6454 70.7112 20.0262 70.7112 21.2934V27.6294C70.7112 30.1254 70.788 32.6214 70.7112 35.1174C70.6728 36.0006 70.5576 36.8838 70.3656 37.767C68.9064 43.8342 63.3768 48.0198 57.156 47.7894L55.62 47.751C49.7832 47.559 44.7912 43.527 43.332 37.8822C43.0248 36.6534 42.9096 35.4246 42.948 34.1574C42.9864 32.6982 42.948 31.239 42.948 29.7798C42.948 27.9366 41.988 23.4438 44.1384 22.599C44.8296 22.3302 45.5976 22.3686 46.3272 22.2534C48.4776 21.9846 50.436 20.871 51.7416 19.143L51.396 21.1782C55.1592 21.5238 58.9224 20.9862 62.4552 19.6806C64.1832 19.0278 65.9496 18.0294 66.6792 16.3398L66.6024 20.103C67.4856 19.9878 68.1 19.1814 68.7144 18.4902C69.3288 17.799 69.7896 17.5302 70.0968 17.5686Z" fill="white"/>
<path d="M57.6169 48.0557H57.1561L55.6201 48.0173C49.6681 47.7869 44.5993 43.7165 43.1017 37.9565C42.7945 36.7277 42.6409 35.4605 42.6793 34.1549C42.7177 33.1949 42.6793 32.1965 42.6793 31.2365C42.6793 30.7373 42.6793 30.2765 42.6793 29.7773C42.6793 29.3933 42.6409 28.9325 42.6025 28.3565C42.4105 26.1293 42.1417 23.0573 44.0617 22.3277C44.5993 22.1357 45.1753 22.0589 45.7513 22.0205C45.9433 22.0205 46.1353 21.9821 46.3273 21.9821C48.4009 21.7517 50.2825 20.6765 51.5497 18.9869C51.6265 18.8717 51.7417 18.8717 51.8569 18.9101C51.9721 18.9485 52.0489 19.0637 52.0105 19.2173L51.7033 20.9453C55.3129 21.2141 58.9225 20.6765 62.3017 19.4093C64.5289 18.5645 65.7961 17.5661 66.3337 16.2221C66.3721 16.0685 66.5641 16.0301 66.6793 16.0685C66.7945 16.1069 66.8329 16.2221 66.8329 16.3373L66.7945 19.7165C67.3705 19.4861 67.8313 18.9869 68.2921 18.4493L68.4457 18.2573C69.1369 17.4893 69.6361 17.1437 70.0585 17.2205C71.0185 17.3357 70.9801 19.0253 70.9417 20.5229C70.9417 20.7533 70.9417 20.9837 70.9417 21.2141V27.5501C70.9417 28.3949 70.9417 29.2013 70.9801 30.0461C70.9801 31.6973 71.0185 33.3869 70.9801 35.0381C70.7881 42.3341 64.8361 48.0557 57.6169 48.0557ZM51.3577 20.1005C50.0521 21.4445 48.2857 22.3277 46.4041 22.5581C46.2121 22.5965 46.0201 22.5965 45.7897 22.5965C45.2521 22.5965 44.7529 22.7117 44.2537 22.8653C42.7177 23.4413 42.9481 26.2829 43.1401 28.3181C43.1785 28.8941 43.2169 29.3933 43.2169 29.7773C43.2169 30.2381 43.2169 30.7373 43.2169 31.2365C43.2169 32.1965 43.2553 33.1949 43.2169 34.1549C42.9481 41.2205 48.4777 47.2109 55.5433 47.4797C55.5817 47.4797 55.5817 47.4797 55.6201 47.4797L57.1561 47.5181C63.2617 47.7101 68.6761 43.6013 70.1353 37.6877C70.3273 36.8429 70.4425 35.9597 70.4809 35.1149C70.5193 33.4637 70.5193 31.7741 70.4809 30.1229C70.4809 29.2781 70.4809 28.4717 70.4425 27.6269V21.2525C70.4425 21.0605 70.4425 20.8301 70.4425 20.5613C70.4425 19.6781 70.5193 17.8349 70.0585 17.7965C69.9433 17.7965 69.6361 17.8349 68.9065 18.6797L68.7529 18.8333C68.1769 19.4861 67.5625 20.2157 66.6409 20.3309C66.4873 20.3309 66.3721 20.2541 66.3337 20.1005V20.0621L66.3721 17.3741C65.6041 18.4109 64.3753 19.2173 62.5321 19.9085C58.9993 21.2525 55.1593 21.7901 51.3961 21.4445C51.3193 21.4445 51.2425 21.4061 51.2041 21.3293C51.1657 21.2525 51.1273 21.2141 51.1657 21.1373L51.3577 20.1005Z" fill="#231F20"/>
<path d="M57.0085 25.9766C57.0085 25.9766 61.3093 35.4998 59.3893 35.6918C57.4693 35.8838 54.7812 34.4246 54.7812 34.4246" fill="white"/>
<path d="M59.0387 35.9608C57.1187 35.9608 54.7379 34.732 54.6227 34.6552C54.5075 34.5784 54.4307 34.4248 54.5075 34.3096C54.5843 34.1944 54.7379 34.1176 54.8531 34.1944C54.8915 34.1944 57.5027 35.5768 59.3075 35.4232C59.3843 35.4232 59.4227 35.3848 59.4611 35.3464C60.0371 34.348 58.0787 29.164 56.6963 26.1304C56.6195 25.9768 56.6963 25.8232 56.8499 25.7848C57.0035 25.708 57.1571 25.7848 57.1955 25.9C57.5795 26.7448 60.8435 34.0408 59.9603 35.6152C59.8451 35.8072 59.6147 35.9608 59.3843 35.9608C59.3075 35.9608 59.1923 35.9608 59.0387 35.9608Z" fill="#231F20"/>
<path d="M51.9763 30.5849C52.4853 30.5849 52.8979 29.8113 52.8979 28.8569C52.8979 27.9026 52.4853 27.1289 51.9763 27.1289C51.4673 27.1289 51.0547 27.9026 51.0547 28.8569C51.0547 29.8113 51.4673 30.5849 51.9763 30.5849Z" fill="#231F20"/>
<path d="M63.3825 30.5849C63.8915 30.5849 64.3041 29.8113 64.3041 28.8569C64.3041 27.9026 63.8915 27.1289 63.3825 27.1289C62.8735 27.1289 62.4609 27.9026 62.4609 28.8569C62.4609 29.8113 62.8735 30.5849 63.3825 30.5849Z" fill="#231F20"/>
<path d="M68.1393 52.0898C67.7937 52.0898 57.1953 60.9986 57.1953 60.9986L63.7617 68.6402L70.7505 55.277L68.1393 52.0898Z" fill="white"/>
<path d="M63.7649 68.9474C63.6881 68.9474 63.6113 68.909 63.5729 68.8706L57.0065 61.229C56.9681 61.1906 56.9297 61.1138 56.9297 61.037C56.9297 60.9602 56.9681 60.8834 57.0065 60.845C67.6817 51.8594 67.9889 51.8594 68.1041 51.8594C68.1809 51.8594 68.2577 51.8978 68.2961 51.9362L70.9457 55.1618C71.0225 55.2386 71.0225 55.3538 70.9841 55.469L63.9953 68.7938C63.9569 68.8706 63.8801 68.909 63.7649 68.9474ZM57.5825 61.037L63.7265 68.1794L70.4465 55.3154L68.0657 52.4354C67.0289 53.165 61.4225 57.8114 57.5825 61.037Z" fill="#231F20"/>
<path d="M44.5292 52.0156C44.8748 52.0156 57.3164 61.0012 57.3164 61.0012L49.7132 68.6428L42.1484 54.0508L44.5292 52.0156Z" fill="white"/>
<path d="M49.7088 68.9454H49.6704C49.5936 68.9454 49.5168 68.8686 49.4784 68.7918L41.9136 54.1998C41.8752 54.0846 41.8752 53.9694 41.9904 53.8542L44.3712 51.819C44.4096 51.7806 44.4864 51.7422 44.5632 51.7422C44.6784 51.7422 44.9856 51.7422 57.504 60.8046C57.5808 60.843 57.6192 60.9198 57.6192 60.9966C57.6192 61.0734 57.5808 61.1502 57.5424 61.227L49.9392 68.8686C49.8624 68.907 49.7856 68.9454 49.7088 68.9454ZM42.4896 54.123L49.7856 68.2158L56.8896 61.035C52.2816 57.7326 45.6384 52.9326 44.5632 52.3182L42.4896 54.123Z" fill="#231F20"/>
<path d="M57.1985 43.9484C57.0833 43.9484 56.9297 43.9484 56.8145 43.9484C51.7073 43.6028 50.6322 37.766 50.5938 37.6892C50.5938 37.6124 50.5937 37.5356 50.6321 37.4588C50.6705 37.382 50.7473 37.3436 50.8241 37.3436L64.4945 36.8828C64.5713 36.8828 64.6865 36.9212 64.7249 36.998C64.7633 37.0748 64.8017 37.1516 64.7633 37.2668C64.6481 37.5356 62.0369 43.9484 57.1985 43.9484ZM51.1697 37.8812C51.4769 39.0332 52.7825 43.1036 56.8145 43.4108C60.8465 43.718 63.4194 38.8796 64.0722 37.4588L51.1697 37.8812Z" fill="#231F20"/>
<path d="M38.9944 19.375H42.9496V36.5782H38.9944C37.0744 36.5782 35.5 35.0038 35.5 33.0838V22.9078C35.5 20.9494 37.036 19.375 38.9944 19.375Z" fill="white"/>
<path d="M42.9521 36.8424H40.3793C37.5377 36.8424 35.1953 34.5384 35.1953 31.6584V24.2856C35.1953 21.444 37.4993 19.1016 40.3793 19.1016H42.9521C43.1057 19.1016 43.2209 19.2168 43.2209 19.3704V36.5736C43.2209 36.7272 43.1057 36.8424 42.9521 36.8424ZM40.3793 19.6392C37.8065 19.6392 35.7329 21.7128 35.7329 24.2856V31.6584C35.7329 34.2312 37.8065 36.3048 40.3793 36.3048H42.6833V19.6392H40.3793Z" fill="#231F20"/>
<path d="M74.7443 36.1134H70.7891V18.9102H74.7443C76.6643 18.9102 78.2387 20.4846 78.2387 22.4046V32.619C78.2387 34.539 76.6643 36.1134 74.7443 36.1134Z" fill="white"/>
<path d="M73.326 36.3814H70.7532C70.5996 36.3814 70.4844 36.2662 70.4844 36.1126V18.9094C70.4844 18.7558 70.5996 18.6406 70.7532 18.6406H73.326C76.1676 18.6406 78.51 20.9446 78.51 23.8246V31.1974C78.51 34.0774 76.206 36.3814 73.326 36.3814ZM71.022 35.8438H73.326C75.8988 35.8438 77.9724 33.7702 77.9724 31.1974V23.8246C77.9724 21.2518 75.8988 19.1782 73.326 19.1782H71.022V35.8438Z" fill="#231F20"/>
<path d="M73.4828 23.6717C73.1756 23.6717 72.9452 23.4413 72.9452 23.1341C72.9452 14.1485 67.3388 6.85254 60.4268 6.85254H53.4764C46.5644 6.85254 40.958 14.1485 40.958 23.1341C40.958 23.4413 40.7276 23.6717 40.4204 23.6717C40.1132 23.6717 39.8828 23.4413 39.8828 23.1341C39.8828 13.5725 45.9884 5.77734 53.4764 5.77734H60.4268C67.9148 5.77734 74.0204 13.5725 74.0204 23.1341C74.0204 23.4413 73.79 23.6717 73.4828 23.6717Z" fill="#231F20"/>
<path d="M53.7069 31.1243H47.8701C45.9501 31.1243 44.4141 29.5499 44.4141 27.6299V24.5579C44.4141 24.4043 44.5293 24.2891 44.6829 24.2891H56.9709C57.1245 24.2891 57.2397 24.4043 57.2397 24.5579V27.6299C57.2397 29.5499 55.6653 31.1243 53.7069 31.1243C53.7453 31.1243 53.7453 31.1243 53.7069 31.1243ZM44.9517 24.8651V27.6299C44.9517 29.2427 46.2573 30.5867 47.8701 30.5867H53.7069C55.3197 30.5867 56.6637 29.2811 56.6637 27.6299V24.8651H44.9517Z" fill="#231F20"/>
<path d="M67.9874 31.1243H62.1507C60.2307 31.1243 58.6562 29.5499 58.6562 27.6299V24.5579C58.6562 24.4043 58.7714 24.2891 58.925 24.2891H71.213C71.3666 24.2891 71.4818 24.4043 71.4818 24.5579V27.6299C71.4818 29.5499 69.9074 31.1243 67.9874 31.1243ZM59.1938 24.8651V27.6299C59.1938 29.2427 60.4995 30.5867 62.1507 30.5867H67.9874C69.6002 30.5867 70.9443 29.2811 70.9443 27.6299V24.8651H59.1938Z" fill="#231F20"/>
<path d="M58.9299 26.2442C58.8915 26.2442 58.8147 26.2442 58.7763 26.2058C58.2387 25.8602 57.8163 25.7066 57.5091 25.8218C57.3939 25.8602 57.2787 25.9754 57.2403 26.0906C57.2019 26.2442 57.0483 26.321 56.8947 26.2442C56.7411 26.2058 56.6643 26.0522 56.7411 25.8986C56.8563 25.6298 57.0483 25.3994 57.3555 25.2842C57.8163 25.1306 58.3923 25.2842 59.0835 25.745C59.1987 25.8218 59.2371 26.0138 59.1603 26.129C59.1219 26.2442 59.0067 26.2826 58.9299 26.2442Z" fill="#231F20"/>
<path d="M44.6765 26.2446H42.9485C42.7949 26.2446 42.6797 26.1294 42.6797 25.9758C42.6797 25.8222 42.7949 25.707 42.9485 25.707H44.6765C44.8301 25.707 44.9453 25.8222 44.9453 25.9758C44.9453 26.1294 44.7917 26.2446 44.6765 26.2446Z" fill="#231F20"/>
<path d="M38.2252 29.1235H36.1516C35.998 29.1235 35.8828 29.0083 35.8828 28.8547C35.8828 28.7011 35.998 28.5859 36.1516 28.5859H38.2252C38.3788 28.5859 38.494 28.7011 38.494 28.8547C38.494 28.9699 38.3788 29.1235 38.2252 29.1235Z" fill="#D1D3D4"/>
<path d="M38.2252 31.1235H36.1516C35.998 31.1235 35.8828 31.0083 35.8828 30.8547C35.8828 30.7011 35.998 30.5859 36.1516 30.5859H38.2252C38.3788 30.5859 38.494 30.7011 38.494 30.8547C38.494 31.0083 38.3788 31.1235 38.2252 31.1235Z" fill="#D1D3D4"/>
</svg>
