<svg width="33" height="33" viewBox="0 0 33 33" fill="none" xmlns="http://www.w3.org/2000/svg">
<path d="M27.5 24.75C29.0125 24.75 30.2362 23.5125 30.2362 22L30.25 8.25C30.25 6.7375 29.0125 5.5 27.5 5.5H5.5C3.9875 5.5 2.75 6.7375 2.75 8.25V22C2.75 23.5125 3.9875 24.75 5.5 24.75H1.375C0.61875 24.75 0 25.3687 0 26.125C0 26.8813 0.61875 27.5 1.375 27.5H31.625C32.3812 27.5 33 26.8813 33 26.125C33 25.3687 32.3812 24.75 31.625 24.75H27.5ZM6.875 8.25H26.125C26.8813 8.25 27.5 8.86875 27.5 9.625V20.625C27.5 21.3813 26.8813 22 26.125 22H6.875C6.11875 22 5.5 21.3813 5.5 20.625V9.625C5.5 8.86875 6.11875 8.25 6.875 8.25Z" fill="#FF6A00"/>
</svg>
