<svg width="38" height="38" viewBox="0 0 38 38" fill="none" xmlns="http://www.w3.org/2000/svg">
<path d="M24.9375 7.12453C24.9374 6.00109 24.6186 4.90073 24.0181 3.95125C23.4176 3.00177 22.56 2.24214 21.545 1.7606C20.53 1.27905 19.3992 1.09535 18.284 1.23084C17.1687 1.36632 16.1148 1.81542 15.2446 2.52598C14.3744 3.23655 13.7237 4.1794 13.368 5.24505C13.0123 6.31069 12.9662 7.45538 13.2351 8.54617C13.504 9.63695 14.0768 10.6291 14.8871 11.4073C15.6973 12.1855 16.7118 12.7179 17.8125 12.9425V33.9591C17.8126 34.2746 17.8755 34.5869 17.9973 34.8779L18.7447 36.6591C18.7697 36.705 18.8067 36.7432 18.8516 36.7699C18.8965 36.7965 18.9478 36.8106 19 36.8106C19.0522 36.8106 19.1035 36.7965 19.1484 36.7699C19.1933 36.7432 19.2303 36.705 19.2553 36.6591L20.0027 34.8779C20.1245 34.5869 20.1874 34.2746 20.1875 33.9591V12.9425C21.5277 12.6671 22.7319 11.9381 23.5971 10.8783C24.4624 9.81844 24.9358 8.4927 24.9375 7.12453ZM20.7813 7.12453C20.429 7.12453 20.0846 7.02007 19.7916 6.82434C19.4987 6.62861 19.2704 6.35042 19.1356 6.02494C19.0008 5.69946 18.9655 5.34131 19.0342 4.99578C19.103 4.65025 19.2726 4.33286 19.5217 4.08375C19.7708 3.83464 20.0882 3.66499 20.4337 3.59626C20.7793 3.52753 21.1374 3.5628 21.4629 3.69762C21.7884 3.83244 22.0666 4.06075 22.2623 4.35367C22.458 4.6466 22.5625 4.99099 22.5625 5.34328C22.5625 5.8157 22.3748 6.26877 22.0408 6.60282C21.7067 6.93687 21.2537 7.12453 20.7813 7.12453Z" fill="#FF6A00"/>
</svg>
