<svg width="36" height="36" viewBox="0 0 36 36" fill="none" xmlns="http://www.w3.org/2000/svg">
<path d="M28.08 22.14C28.605 20.865 28.89 19.5 28.89 18C28.89 16.92 28.725 15.885 28.44 14.925C27.465 15.15 26.445 15.27 25.38 15.27C23.199 15.2724 21.0493 14.7503 19.1123 13.7479C17.1753 12.7454 15.5076 11.292 14.25 9.51004C12.9046 12.7653 10.3667 15.3837 7.155 16.83C7.095 17.205 7.095 17.61 7.095 18C7.095 19.4321 7.37707 20.8501 7.92509 22.1732C8.47312 23.4963 9.27638 24.6984 10.289 25.711C12.3341 27.7561 15.1078 28.905 18 28.905C19.575 28.905 21.09 28.56 22.455 27.945C23.31 29.58 23.7 30.39 23.67 30.39C21.21 31.215 19.305 31.62 18 31.62C14.37 31.62 10.905 30.195 8.355 27.63C6.804 26.0838 5.65106 24.1845 4.995 22.095H3V15.27H4.635C5.13036 12.8588 6.26924 10.6267 7.93078 8.81043C9.59233 6.9942 11.7146 5.66165 14.0723 4.95418C16.43 4.24671 18.9353 4.1907 21.3223 4.7921C23.7093 5.3935 25.8889 6.62988 27.63 8.37004C29.5203 10.2529 30.8097 12.6542 31.335 15.27H33V22.095H32.91L27.57 27L19.62 26.1V23.595H26.865L28.08 22.14ZM13.905 17.655C14.355 17.655 14.79 17.835 15.105 18.165C15.4216 18.4842 15.5992 18.9155 15.5992 19.365C15.5992 19.8146 15.4216 20.2459 15.105 20.565C14.79 20.88 14.355 21.06 13.905 21.06C12.96 21.06 12.195 20.31 12.195 19.365C12.195 18.42 12.96 17.655 13.905 17.655ZM22.08 17.655C23.025 17.655 23.775 18.42 23.775 19.365C23.775 20.31 23.025 21.06 22.08 21.06C21.135 21.06 20.37 20.31 20.37 19.365C20.37 18.9115 20.5502 18.4766 20.8708 18.1559C21.1915 17.8352 21.6265 17.655 22.08 17.655Z" fill="#FF6A00"/>
</svg>
