<svg width="32" height="32" viewBox="0 0 32 32" fill="none" xmlns="http://www.w3.org/2000/svg">
<path d="M14.6667 2.66602C12.8986 2.66602 11.2029 3.36839 9.95264 4.61864C8.7024 5.86888 8.00002 7.56457 8.00002 9.33268C8.00002 11.1008 8.7024 12.7965 9.95264 14.0467C11.2029 15.297 12.8986 15.9993 14.6667 15.9993C16.4348 15.9993 18.1305 15.297 19.3807 14.0467C20.631 12.7965 21.3334 11.1008 21.3334 9.33268C21.3334 7.56457 20.631 5.86888 19.3807 4.61864C18.1305 3.36839 16.4348 2.66602 14.6667 2.66602ZM14.6667 17.3327C11.4734 17.3327 8.56669 18.258 6.42935 19.5607C5.36269 20.214 4.45069 20.9807 3.79202 21.814C3.14402 22.6353 2.66669 23.6167 2.66669 24.666C2.66669 25.7927 3.21469 26.6807 4.00402 27.314C4.75069 27.914 5.73602 28.3113 6.78269 28.5887C8.88669 29.1447 11.6947 29.3327 14.6667 29.3327L15.58 29.326C15.8033 29.3229 16.0223 29.2638 16.2168 29.1541C16.4113 29.0444 16.5751 28.8876 16.6933 28.698C16.8114 28.5085 16.88 28.2924 16.8928 28.0694C16.9057 27.8464 16.8623 27.6238 16.7667 27.422C16.26 26.3523 15.998 25.183 16 23.9993C16 22.33 16.5107 20.7833 17.3827 19.502C17.5123 19.3116 17.5904 19.0909 17.6093 18.8613C17.6282 18.6317 17.5874 18.4012 17.4907 18.1921C17.394 17.983 17.2448 17.8026 17.0576 17.6683C16.8705 17.5341 16.6517 17.4506 16.4227 17.426C15.8494 17.3647 15.2627 17.3327 14.6667 17.3327ZM24.4214 18.734C24.1479 18.6429 23.8522 18.6429 23.5787 18.734L19.5787 20.0673C19.3131 20.1558 19.0821 20.3256 18.9184 20.5527C18.7547 20.7799 18.6666 21.0527 18.6667 21.3327V23.5607C18.6665 24.9868 19.1922 26.363 20.1433 27.4257C21.0944 28.4885 22.4039 29.1632 23.8214 29.3207C23.9414 29.334 24.06 29.334 24.1787 29.3207C25.5961 29.1632 26.9057 28.4885 27.8567 27.4257C28.8078 26.363 29.3335 24.9868 29.3334 23.5607V21.3327C29.3334 21.0527 29.2454 20.7799 29.0817 20.5527C28.918 20.3256 28.687 20.1558 28.4214 20.0673L24.4214 18.734Z" fill="#FF6A00"/>
</svg>
