<svg width="37" height="37" viewBox="0 0 37 37" fill="none" xmlns="http://www.w3.org/2000/svg">
<g clip-path="url(#clip0_1_11303)">
<path d="M0 0H36.9081V19.9737L35.0813 22.8353L36.9081 25.3821V37H0V18.1709L1.14178 16.8546L0 15.5955V0Z" fill="#016FD0"/>
<path d="M7.16406 25.7855V19.9766H13.2994L13.9577 20.8368L14.6377 19.9766H36.9075V25.3849C36.9075 25.3849 36.3251 25.7797 35.6515 25.7855H23.3203L22.5781 24.8698V25.7855H20.1461V24.2224C20.1461 24.2224 19.8139 24.4406 19.0957 24.4406H18.2679V25.7855H14.5856L13.9283 24.9068L13.2609 25.7855H7.16406Z" fill="white"/>
<path d="M0 15.5929L1.38355 12.3594H3.77624L4.56142 14.1707V12.3594H7.53577L8.00318 13.6685L8.45633 12.3594H21.808V13.0175C21.808 13.0175 22.5099 12.3594 23.6634 12.3594L27.9956 12.3746L28.7672 14.1622V12.3594H31.2563L31.9414 13.3862V12.3594H34.4533V18.1683H31.9414L31.2848 17.1382V18.1683H27.6278L27.2601 17.2526H26.2769L25.9152 18.1683H23.4351C22.4425 18.1683 21.808 17.5236 21.808 17.5236V18.1683H18.0687L17.3266 17.2526V18.1683H3.42178L3.05427 17.2526H2.07427L1.70936 18.1683H0V15.5929Z" fill="white"/>
<path d="M1.87391 13.0781L0.0078125 17.4277H1.22274L1.56706 16.5567H3.56875L3.91128 17.4277H5.15297L3.28865 13.0781H1.87391ZM2.56433 14.0904L3.17448 15.6124H1.95241L2.56433 14.0904Z" fill="#016FD0"/>
<path d="M5.28125 17.4277V13.0781L7.00773 13.0846L8.01191 15.8889L8.99204 13.0781H10.7047V17.4277H9.62002V14.2228L8.47023 17.4277H7.51895L6.36594 14.2228V17.4277H5.28125Z" fill="#016FD0"/>
<path d="M11.4453 17.4277V13.0781H14.9848V14.0511H12.5414V14.7951H14.9278V15.7108H12.5414V16.4834H14.9848V17.4277H11.4453Z" fill="#016FD0"/>
<path d="M15.6172 13.0781V17.4277H16.7019V15.8825H17.1586L18.4592 17.4277H19.7847L18.3575 15.8252C18.9432 15.7757 19.5474 15.2717 19.5474 14.4892C19.5474 13.5739 18.8308 13.0781 18.031 13.0781H15.6172ZM16.7019 14.0511H17.9418C18.2392 14.0511 18.4556 14.2843 18.4556 14.5089C18.4556 14.7979 18.1752 14.9668 17.9578 14.9668H16.7019V14.0511Z" fill="#016FD0"/>
<path d="M21.0997 17.4277H19.9922V13.0781H21.0997V17.4277Z" fill="#016FD0"/>
<path d="M23.7152 17.4277H23.4762C22.3195 17.4277 21.6172 16.5142 21.6172 15.2708C21.6172 13.9967 22.3116 13.0781 23.7723 13.0781H24.9712V14.1083H23.7285C23.1355 14.1083 22.7162 14.5722 22.7162 15.2815C22.7162 16.1239 23.1957 16.4777 23.8865 16.4777H24.1719L23.7152 17.4277Z" fill="#016FD0"/>
<path d="M26.077 13.0781L24.2109 17.4277H25.4259L25.7702 16.5567H27.7719L28.1144 17.4277H29.3561L27.4918 13.0781H26.077ZM26.7675 14.0904L27.3776 15.6124H26.1555L26.7675 14.0904Z" fill="#016FD0"/>
<path d="M29.4844 17.4277V13.0781H30.8634L32.6243 15.8109V13.0781H33.709V17.4277H32.3745L30.5691 14.6234V17.4277H29.4844Z" fill="#016FD0"/>
<path d="M7.90625 25.0371V20.6875H11.4458V21.6604H9.00236V22.4044H11.3887V23.3201H9.00236V24.0928H11.4458V25.0371H7.90625Z" fill="#016FD0"/>
<path d="M25.25 25.0371V20.6875H28.7895V21.6604H26.3461V22.4044H28.721V23.3201H26.3461V24.0928H28.7895V25.0371H25.25Z" fill="#016FD0"/>
<path d="M11.5801 25.0371L13.3035 22.8891L11.5391 20.6875H12.9056L13.9564 22.0485L15.0108 20.6875H16.3238L14.5826 22.8623L16.3092 25.0371H14.9428L13.9225 23.6975L12.927 25.0371H11.5801Z" fill="#016FD0"/>
<path d="M16.4453 20.6875V25.0371H17.5586V23.6635H18.7003C19.6664 23.6635 20.3987 23.1497 20.3987 22.1505C20.3987 21.3227 19.8244 20.6875 18.8413 20.6875H16.4453ZM17.5586 21.6712H18.761C19.0731 21.6712 19.2962 21.8629 19.2962 22.1719C19.2962 22.4622 19.0742 22.6727 18.7574 22.6727H17.5586V21.6712Z" fill="#016FD0"/>
<path d="M20.8672 20.6875V25.0371H21.9519V23.4918H22.4086L23.7092 25.0371H25.0347L23.6075 23.4346C24.1932 23.385 24.7974 22.8811 24.7974 22.0986C24.7974 21.1833 24.0808 20.6875 23.281 20.6875H20.8672ZM21.9519 21.6604H23.1918C23.4892 21.6604 23.7056 21.8937 23.7056 22.1183C23.7056 22.4073 23.4252 22.5761 23.2078 22.5761H21.9519V21.6604Z" fill="#016FD0"/>
<path d="M29.294 25.0371V24.0928H31.4648C31.786 24.0928 31.9251 23.9188 31.9251 23.7279C31.9251 23.5451 31.7864 23.3602 31.4648 23.3602H30.4838C29.6311 23.3602 29.1562 22.8394 29.1562 22.0575C29.1562 21.3601 29.5911 20.6875 30.8582 20.6875H32.9705L32.5138 21.6662H30.687C30.3377 21.6662 30.2302 21.8499 30.2302 22.0253C30.2302 22.2056 30.3631 22.4044 30.6299 22.4044H31.6575C32.608 22.4044 33.0205 22.945 33.0205 23.6528C33.0205 24.4138 32.5609 25.0371 31.6057 25.0371H29.294Z" fill="#016FD0"/>
<path d="M33.2705 25.0371V24.0928H35.4414C35.7626 24.0928 35.9016 23.9188 35.9016 23.7279C35.9016 23.5451 35.763 23.3602 35.4414 23.3602H34.4604C33.6077 23.3602 33.1328 22.8394 33.1328 22.0575C33.1328 21.3601 33.5677 20.6875 34.8348 20.6875H36.9471L36.4904 21.6662H34.6635C34.3143 21.6662 34.2068 21.8499 34.2068 22.0253C34.2068 22.2056 34.3396 22.4044 34.6064 22.4044H35.634C36.5846 22.4044 36.997 22.945 36.997 23.6528C36.997 24.4138 36.5374 25.0371 35.5823 25.0371H33.2705Z" fill="#016FD0"/>
</g>
<defs>
<clipPath id="clip0_1_11303">
<rect width="37" height="37" fill="white"/>
</clipPath>
</defs>
</svg>
