<svg width="101" height="30" viewBox="0 0 101 30" fill="none" xmlns="http://www.w3.org/2000/svg">
<path d="M12 25C9.31667 22.7167 7.31267 20.596 5.988 18.638C4.66333 16.68 4.00067 14.8673 4 13.2C4 10.7 4.80433 8.70833 6.413 7.225C8.02167 5.74167 9.884 5 12 5C14.1167 5 15.9793 5.74167 17.588 7.225C19.1967 8.70833 20.0007 10.7 20 13.2L22.1 11.1L23.5 12.5L19 17L14.5 12.5L15.9 11.1L18 13.2C18 11.3833 17.4207 9.896 16.262 8.738C15.1033 7.58 13.6827 7.00067 12 7C10.3167 7 8.89567 7.57933 7.737 8.738C6.57833 9.89667 5.99933 11.384 6 13.2C6 14.3833 6.49167 15.7377 7.475 17.263C8.45833 18.7883 9.96667 20.484 12 22.35C12.3333 22.05 12.6417 21.7583 12.925 21.475L13.775 20.625C13.6917 20.4583 13.625 20.2793 13.575 20.088C13.525 19.8967 13.5 19.7007 13.5 19.5C13.5 18.8 13.7417 18.2083 14.225 17.725C14.7083 17.2417 15.3 17 16 17C16.7 17 17.2917 17.2417 17.775 17.725C18.2583 18.2083 18.5 18.8 18.5 19.5C18.5 20.2 18.2583 20.7917 17.775 21.275C17.2917 21.7583 16.7 22 16 22C15.8667 22 15.7457 21.9917 15.637 21.975C15.5283 21.9583 15.416 21.9333 15.3 21.9C14.8167 22.4 14.304 22.9083 13.762 23.425C13.22 23.9417 12.6327 24.4667 12 25Z" fill="#16242A"/>
<path d="M38.0108 5.2H40.7708V22H38.0108V14.728H30.8108V22H28.0508V5.2H30.8108V12.088H38.0108V5.2ZM48.1849 22.312C46.4249 22.312 44.9289 21.704 43.6969 20.488C42.4649 19.272 41.8489 17.776 41.8489 16C41.8489 14.224 42.4649 12.728 43.6969 11.512C44.9289 10.296 46.4249 9.688 48.1849 9.688C49.9609 9.688 51.4569 10.296 52.6729 11.512C53.9049 12.728 54.5209 14.224 54.5209 16C54.5209 17.776 53.9049 19.272 52.6729 20.488C51.4569 21.704 49.9609 22.312 48.1849 22.312ZM45.5209 18.712C46.2409 19.432 47.1289 19.792 48.1849 19.792C49.2409 19.792 50.1289 19.432 50.8489 18.712C51.5689 17.992 51.9289 17.088 51.9289 16C51.9289 14.912 51.5689 14.008 50.8489 13.288C50.1289 12.568 49.2409 12.208 48.1849 12.208C47.1289 12.208 46.2409 12.568 45.5209 13.288C44.8009 14.008 44.4409 14.912 44.4409 16C44.4409 17.088 44.8009 17.992 45.5209 18.712ZM58.0167 12.016C58.6727 10.528 59.9047 9.784 61.7127 9.784V12.592C60.7207 12.528 59.8567 12.768 59.1207 13.312C58.3847 13.84 58.0167 14.72 58.0167 15.952V22H55.4247V10H58.0167V12.016ZM64.6358 7.72C64.3158 8.04 63.9318 8.2 63.4838 8.2C63.0358 8.2 62.6438 8.04 62.3078 7.72C61.9878 7.384 61.8278 6.992 61.8278 6.544C61.8278 6.096 61.9878 5.712 62.3078 5.392C62.6278 5.056 63.0198 4.888 63.4838 4.888C63.9478 4.888 64.3398 5.056 64.6598 5.392C64.9798 5.712 65.1398 6.096 65.1398 6.544C65.1398 6.992 64.9718 7.384 64.6358 7.72ZM62.1878 22V10H64.7798V22H62.1878ZM69.4453 19.552H75.2773V22H65.9173V20.272L71.5333 12.448H66.1573V10H75.0373V11.728L69.4453 19.552ZM81.1905 22.312C79.4305 22.312 77.9345 21.704 76.7025 20.488C75.4705 19.272 74.8545 17.776 74.8545 16C74.8545 14.224 75.4705 12.728 76.7025 11.512C77.9345 10.296 79.4305 9.688 81.1905 9.688C82.9665 9.688 84.4625 10.296 85.6785 11.512C86.9105 12.728 87.5265 14.224 87.5265 16C87.5265 17.776 86.9105 19.272 85.6785 20.488C84.4625 21.704 82.9665 22.312 81.1905 22.312ZM78.5265 18.712C79.2465 19.432 80.1345 19.792 81.1905 19.792C82.2465 19.792 83.1345 19.432 83.8545 18.712C84.5745 17.992 84.9345 17.088 84.9345 16C84.9345 14.912 84.5745 14.008 83.8545 13.288C83.1345 12.568 82.2465 12.208 81.1905 12.208C80.1345 12.208 79.2465 12.568 78.5265 13.288C77.8065 14.008 77.4465 14.912 77.4465 16C77.4465 17.088 77.8065 17.992 78.5265 18.712ZM94.7423 9.688C96.1183 9.688 97.2303 10.128 98.0783 11.008C98.9263 11.888 99.3503 13.096 99.3503 14.632V22H96.7583V14.896C96.7583 14 96.5183 13.312 96.0383 12.832C95.5583 12.352 94.9023 12.112 94.0703 12.112C93.1583 12.112 92.4223 12.4 91.8623 12.976C91.3023 13.536 91.0223 14.4 91.0223 15.568V22H88.4303V10H91.0223V11.536C91.8063 10.304 93.0463 9.688 94.7423 9.688Z" fill="#16242A"/>
</svg>
