<svg width="300" height="86" viewBox="0 0 300 86" fill="none" xmlns="http://www.w3.org/2000/svg">
<g clip-path="url(#clip0_76_1482)">
<path d="M286.223 38.5977H276.862L263.546 57.3998L250.231 38.5977H240.804L258.998 64.4175V85.4706H267.568V64.8147H267.765L286.223 38.5977Z" fill="#1C1C1C"/>
<path d="M33.0257 60.9087L32.3665 60.4452L32.8939 59.9156C35.1351 57.5322 36.3217 54.553 36.3217 51.5738C36.3217 44.4237 29.7297 38.5977 21.6875 38.5977H0V85.0734H23.0059C31.5096 85.0734 38.4311 78.9164 38.4311 71.369C38.4311 67.3967 36.4535 63.5569 33.0257 60.9087ZM8.10811 45.3505H21.7535C25.5109 45.3505 28.6091 48.0649 28.6091 51.5076C28.6091 54.884 25.5768 57.6646 21.7535 57.6646H8.10811V45.3505ZM23.0059 78.2543H8.10811V64.4837H23.0059C27.2248 64.4837 30.7844 67.5291 30.7844 71.369C30.7185 75.1427 27.2248 78.2543 23.0059 78.2543Z" fill="#1C1C1C"/>
<path d="M173.632 69.5153L160.185 38.5977H151.285L171.72 85.0072H175.412L195.913 38.5977H186.948L173.632 69.5153Z" fill="#1C1C1C"/>
<path d="M70.6657 37.6699C57.35 37.6699 46.6051 48.4613 46.6051 61.8347C46.6051 75.208 57.4159 85.9994 70.6657 85.9994C83.9815 85.9994 94.7264 75.208 94.7264 61.8347C94.7264 48.4613 84.0474 37.6699 70.6657 37.6699ZM70.6657 78.0548C61.7666 78.0548 54.5155 70.8385 54.5155 61.8347C54.5155 52.8308 61.7007 45.6145 70.6657 45.6145C79.6308 45.6145 86.816 52.8308 86.816 61.8347C86.882 70.7061 79.6308 78.0548 70.6657 78.0548Z" fill="#1C1C1C"/>
<path d="M134.806 68.5222L108.438 38.5977H104.483V85.0072H112.525V55.0826L138.827 85.0072H142.914V38.5977H134.806V68.5222Z" fill="#1C1C1C"/>
<path d="M239.486 78.2539H198.813V85.073H239.486V78.2539Z" fill="#FF9662"/>
<path d="M218.721 38.3984C209.822 38.3984 202.571 45.6148 202.571 54.6186C202.571 63.6225 209.756 70.8388 218.721 70.8388C227.686 70.8388 234.871 63.6225 234.871 54.6186C234.871 45.6148 227.686 38.3984 218.721 38.3984ZM218.721 63.9535C213.579 63.9535 209.426 59.7826 209.426 54.6186C209.426 49.4546 213.579 45.2837 218.721 45.2837C223.863 45.2837 228.016 49.4546 228.016 54.6186C228.148 59.7826 223.863 63.9535 218.721 63.9535Z" fill="#1C1C1C"/>
<path d="M43.8365 8.47333V24.2301H39.4858V0.992188H44.3639L51.4832 13.8359L58.6025 0.992188H63.4806V24.2301H59.1299V8.47333L52.9994 19.7281H49.9671L43.8365 8.47333Z" fill="#1C1C1C"/>
<path d="M227.884 1.19141V5.16369H234.74V24.4293H239.09V5.16369H245.946V1.19141H227.884Z" fill="#1C1C1C"/>
<path d="M202.901 1.19141V5.16369H209.756V24.4293H214.041V5.16369H220.831V1.19141H202.901Z" fill="#1C1C1C"/>
<path d="M164.601 1.05859H160.25V24.2965H164.601V1.05859Z" fill="#1C1C1C"/>
<path d="M106.46 14.829H109.954L116.414 24.2301H121.358L114.766 14.6966C118.457 14.1669 121.358 11.3201 121.358 7.87748C121.358 4.10381 117.864 0.992188 113.579 0.992188H102.043V24.2301H106.394C106.46 24.3625 106.46 14.829 106.46 14.829ZM106.46 4.69966H113.645C115.623 4.69966 117.271 6.15616 117.271 7.94369C117.271 9.73122 115.623 11.1877 113.645 11.1877H106.46V4.69966Z" fill="#1C1C1C"/>
<path d="M83.4541 8.73815L86.816 16.0869H80.0263L83.4541 8.73815ZM82.4653 0.992188L71.7205 24.2301H76.3348L78.3783 19.7943H88.5959L90.6394 24.2301H95.2537L84.5748 0.992188H82.4653Z" fill="#1C1C1C"/>
<path d="M142.914 0.992188H131.378V24.2301H135.728V14.829H139.222L145.682 24.2301H150.626L144.034 14.6966C147.726 14.1669 150.626 11.3201 150.626 7.87748C150.758 4.03761 147.198 0.992188 142.914 0.992188ZM146.605 7.87748C146.605 9.66501 144.957 11.1215 142.98 11.1215H135.794V4.69965H142.98C144.957 4.69965 146.605 6.15616 146.605 7.87748Z" fill="#1C1C1C"/>
<path d="M185.63 0C178.972 0 173.566 5.42879 173.566 12.0493C173.566 18.736 178.972 24.0985 185.63 24.0985C192.287 24.0985 197.693 18.6697 197.693 12.0493C197.693 5.42879 192.287 0 185.63 0ZM185.63 19.8614C181.411 19.8614 177.851 16.4188 177.851 12.0493C177.851 7.81216 181.279 4.23711 185.63 4.23711C189.848 4.23711 193.408 7.67975 193.408 12.0493C193.408 16.4188 189.848 19.8614 185.63 19.8614Z" fill="#1C1C1C"/>
<path d="M291.101 39.1931H289.189V38.4648H293.738V39.1931H291.892V44.3571H291.101V39.1931Z" fill="#1C1C1C"/>
<path d="M295.122 44.3571H294.397V38.4648H295.583L297.034 42.9006C297.1 43.0992 297.1 43.2316 297.231 43.364C297.231 43.1654 297.297 43.033 297.297 42.9006L298.813 38.4648H300V44.3571H299.209V39.3917C299.209 39.5903 299.143 39.7227 299.011 39.9213L297.495 44.3571H296.77L295.32 39.9213C295.254 39.7227 295.254 39.5903 295.254 39.3917V44.3571H295.122Z" fill="#1C1C1C"/>
</g>
<defs>
<clipPath id="clip0_76_1482">
<rect width="300" height="86" fill="white"/>
</clipPath>
</defs>
</svg>
