<svg width="46" height="35" viewBox="0 0 46 35" fill="none" xmlns="http://www.w3.org/2000/svg">
<g clip-path="url(#clip0_1_11323)">
<path d="M28.8144 3.05469H16.5469V25.4734H28.8144V3.05469Z" fill="#FF5F00"/>
<path d="M17.3257 14.2626C17.3257 9.90556 19.3119 5.74661 22.6611 3.05319C16.5858 -1.81872 7.78433 -0.749275 2.99416 5.46935C-1.79602 11.6484 -0.744517 20.6 5.36977 25.4719C10.4715 29.5517 17.5984 29.5517 22.7001 25.4719C19.3119 22.7785 17.3257 18.6196 17.3257 14.2626Z" fill="#EB001B"/>
<path d="M45.3688 14.2626C45.3688 22.1448 39.0988 28.5218 31.3488 28.5218C28.1943 28.5218 25.1566 27.4524 22.7031 25.4719C28.7785 20.6 29.83 11.6484 25.0398 5.42974C24.3388 4.55834 23.5599 3.72655 22.7031 3.05319C28.7785 -1.81872 37.6189 -0.749275 42.3701 5.46935C44.3173 7.96472 45.3688 11.0542 45.3688 14.2626Z" fill="#F79E1B"/>
<path d="M44.0382 23.0936V22.6183H44.233V22.5391H43.7656V22.6183H43.9603V23.0936H44.0382ZM44.934 23.0936V22.5391H44.7782L44.6224 22.9352L44.4666 22.5391H44.3108V23.0936H44.4277V22.6579L44.5835 23.0144H44.7003L44.8561 22.6579V23.0936H44.934Z" fill="#F79E1B"/>
</g>
<g clip-path="url(#clip1_1_11323)">
<path d="M6.37344 34.8732V32.6073C6.37344 31.7518 5.76727 31.1814 4.79163 31.171C4.27783 31.1658 3.74671 31.3058 3.37723 31.814C3.10013 31.4147 2.66137 31.171 2.04943 31.171C1.62223 31.171 1.20079 31.2851 0.87173 31.7051V31.2644H0V34.8732H0.883276V32.8718C0.883276 32.2444 1.27007 31.9125 1.86469 31.9125C2.442 31.9125 2.73642 32.2547 2.73642 32.8666V34.8732H3.6197V32.8718C3.6197 32.2444 4.02381 31.9125 4.60112 31.9125C5.19574 31.9125 5.48439 32.2547 5.48439 32.8666V34.8732H6.37344ZM19.4436 31.2644H18.0119V30.1651H17.1286V31.2644H16.3146V31.9799H17.1286V33.6288C17.1286 34.4688 17.4923 34.9666 18.5257 34.9666C18.9067 34.9666 19.3397 34.8629 19.6168 34.6866L19.3628 34.0125C19.103 34.1473 18.8144 34.2147 18.5892 34.2147C18.1505 34.2147 18.0119 33.971 18.0119 33.6081V31.9799H19.4436V31.2644ZM26.8966 31.171C26.3944 31.171 26.0653 31.3836 25.8344 31.6999V31.2644H24.9684V34.8732H25.8402V32.851C25.8402 32.2547 26.1288 31.9229 26.7003 31.9229C26.8793 31.9229 27.064 31.9436 27.2488 32.011L27.5201 31.2695C27.3296 31.2021 27.0756 31.171 26.8966 31.171ZM15.6219 31.5495C15.2004 31.3006 14.6231 31.171 13.9823 31.171C12.9663 31.171 12.3081 31.6066 12.3081 32.3273C12.3081 32.9184 12.7931 33.2814 13.6937 33.3903L14.1036 33.4421C14.5827 33.5044 14.8079 33.6132 14.8079 33.8206C14.8079 34.1006 14.4903 34.2562 13.8899 34.2562C13.2838 34.2562 12.845 34.0799 12.5506 33.8777L12.1407 34.4895C12.6199 34.8058 13.226 34.9562 13.8842 34.9562C15.0446 34.9562 15.72 34.4636 15.72 33.7792C15.72 33.1466 15.1889 32.8147 14.3172 32.7006L13.9073 32.6488C13.5262 32.6021 13.226 32.5347 13.226 32.2962C13.226 32.0318 13.5147 31.871 13.9939 31.871C14.5077 31.871 15.0041 32.0473 15.2466 32.1821L15.6219 31.5495ZM39.0489 31.171C38.5466 31.171 38.2176 31.3836 37.9866 31.6999V31.2644H37.1207V34.8732H37.9924V32.851C37.9924 32.2547 38.2811 31.9229 38.8526 31.9229C39.0316 31.9229 39.2163 31.9436 39.401 32.011L39.6724 31.2695C39.4761 31.2021 39.2278 31.171 39.0489 31.171ZM27.7799 33.0688C27.7799 34.1629 28.6285 34.9666 29.9217 34.9666C30.5279 34.9666 30.932 34.8473 31.3707 34.5362L30.9493 33.9036C30.6202 34.1162 30.2739 34.2303 29.8986 34.2303C29.2001 34.2251 28.6863 33.7688 28.6863 33.074C28.6863 32.3792 29.2001 31.9281 29.8986 31.9177C30.2796 31.9177 30.6202 32.0318 30.9493 32.2444L31.3707 31.6118C30.932 31.3006 30.5279 31.1814 29.9217 31.1814C28.6343 31.171 27.7799 31.9747 27.7799 33.0688ZM35.9718 33.0688V31.2644H35.1001V31.6999C34.823 31.3732 34.4016 31.171 33.83 31.171C32.7043 31.171 31.821 31.9644 31.821 33.0688C31.821 34.1732 32.7043 34.9666 33.83 34.9666C34.4016 34.9666 34.823 34.7644 35.1001 34.4377V34.8732H35.9718V33.0688ZM32.7159 33.0688C32.7159 32.4362 33.1777 31.9125 33.934 31.9125C34.6556 31.9125 35.1463 32.4103 35.1463 33.0688C35.1463 33.7273 34.6614 34.2251 33.934 34.2251C33.1777 34.2251 32.7159 33.7014 32.7159 33.0688ZM22.1627 31.171C20.985 31.171 20.1595 31.9436 20.1595 33.0688C20.1595 34.2147 21.0197 34.9666 22.2205 34.9666C22.8266 34.9666 23.3808 34.8318 23.8658 34.4584L23.4386 33.8777C23.1037 34.1214 22.6707 34.2562 22.2724 34.2562C21.7067 34.2562 21.1986 34.0229 21.0716 33.3747H24.0563C24.0621 33.2762 24.0736 33.1777 24.0736 33.074C24.0678 31.9436 23.2942 31.171 22.1627 31.171ZM22.1512 31.8762C22.7169 31.8762 23.0749 32.1925 23.1672 32.7525H21.0832C21.1755 32.2288 21.5277 31.8762 22.1512 31.8762ZM44.0888 33.0688V29.8125H43.217V31.6999C42.9399 31.3732 42.5185 31.171 41.9469 31.171C40.8212 31.171 39.9379 31.9644 39.9379 33.0688C39.9379 34.1732 40.8212 34.9666 41.9469 34.9666C42.5185 34.9666 42.9399 34.7644 43.217 34.4377V34.8732H44.0888V33.0688ZM45.1106 34.5414C45.1452 34.5414 45.1799 34.5466 45.2087 34.5569C45.2376 34.5673 45.2665 34.5829 45.2895 34.6036C45.3126 34.6244 45.33 34.6503 45.3473 34.6762C45.3588 34.7021 45.3704 34.7332 45.3704 34.7644C45.3704 34.7955 45.3646 34.8266 45.3473 34.8525C45.3357 34.8784 45.3126 34.9044 45.2895 34.9251C45.2665 34.9458 45.2376 34.9614 45.2087 34.9769C45.1799 34.9873 45.1452 34.9977 45.1106 34.9977C45.0759 34.9977 45.0413 34.9925 45.0067 34.9769C44.972 34.9666 44.9489 34.9458 44.9258 34.9251C44.9028 34.9044 44.8854 34.8784 44.8681 34.8525C44.8566 34.8266 44.845 34.7955 44.845 34.7644C44.845 34.7332 44.8508 34.7021 44.8681 34.6762C44.8797 34.6503 44.9028 34.6244 44.9258 34.6036C44.9489 34.5829 44.9778 34.5673 45.0067 34.5569C45.0355 34.5466 45.0702 34.5414 45.1106 34.5414ZM45.1106 34.9458C45.1394 34.9458 45.1625 34.9406 45.1856 34.9303C45.2087 34.9199 45.2318 34.9095 45.2491 34.894C45.2665 34.8784 45.2838 34.8577 45.2895 34.8369C45.3011 34.8162 45.3069 34.7903 45.3069 34.7695C45.3069 34.7436 45.3011 34.7229 45.2895 34.7021C45.278 34.6814 45.2665 34.6606 45.2491 34.6451C45.2318 34.6295 45.2087 34.614 45.1856 34.6088C45.1625 34.5984 45.1337 34.5932 45.1106 34.5932C45.0817 34.5932 45.0586 34.5984 45.0298 34.6088C45.0067 34.6192 44.9836 34.6295 44.9663 34.6451C44.9489 34.6606 44.9316 34.6814 44.9258 34.7021C44.9143 34.7229 44.9085 34.7488 44.9085 34.7695C44.9085 34.7955 44.9143 34.8162 44.9258 34.8369C44.9374 34.8577 44.9489 34.8784 44.9663 34.894C44.9836 34.9095 45.0067 34.9251 45.0298 34.9303C45.0528 34.9406 45.0817 34.9458 45.1106 34.9458ZM45.1221 34.6606C45.151 34.6606 45.1741 34.6658 45.1914 34.6814C45.2087 34.6918 45.2145 34.7125 45.2145 34.7332C45.2145 34.7488 45.2087 34.7644 45.1972 34.7747C45.1856 34.7851 45.1625 34.7955 45.1394 34.7955L45.2145 34.8732H45.151L45.0817 34.7955H45.0586V34.8732H45.0067V34.6606H45.1221ZM45.0644 34.7021V34.7592H45.1221C45.1337 34.7592 45.1452 34.7592 45.1568 34.754C45.1625 34.7488 45.1683 34.7436 45.1683 34.7332C45.1683 34.7229 45.1625 34.7177 45.1568 34.7125C45.151 34.7073 45.1394 34.7073 45.1221 34.7073H45.0644V34.7021ZM40.8328 33.0688C40.8328 32.4362 41.2946 31.9125 42.0509 31.9125C42.7725 31.9125 43.2632 32.4103 43.2632 33.0688C43.2632 33.7273 42.7783 34.2251 42.0509 34.2251C41.2946 34.2251 40.8328 33.7014 40.8328 33.0688ZM11.3036 33.0688V31.2644H10.4319V31.6999C10.1548 31.3732 9.73336 31.171 9.16182 31.171C8.03608 31.171 7.1528 31.9644 7.1528 33.0688C7.1528 34.1732 8.03608 34.9666 9.16182 34.9666C9.73336 34.9666 10.1548 34.7644 10.4319 34.4377V34.8732H11.3036V33.0688ZM8.04763 33.0688C8.04763 32.4362 8.50947 31.9125 9.26574 31.9125C9.98737 31.9125 10.4781 32.4103 10.4781 33.0688C10.4781 33.7273 9.99314 34.2251 9.26574 34.2251C8.50947 34.2251 8.04763 33.7014 8.04763 33.0688Z" fill="#141414"/>
</g>
<defs>
<clipPath id="clip0_1_11323">
<rect width="45.3704" height="28.5185" fill="white"/>
</clipPath>
<clipPath id="clip1_1_11323">
<rect width="45.3704" height="5.18518" fill="white" transform="translate(0 29.8125)"/>
</clipPath>
</defs>
</svg>
