<svg width="136" height="127" viewBox="0 0 136 127" fill="none" xmlns="http://www.w3.org/2000/svg">
<g clip-path="url(#clip0_76_1470)">
<path d="M110.411 17.2569L114.72 14.6953V0L97.889 9.84183M113.104 4.98832V14.1561L109.199 7.28026L113.104 4.98832ZM110.815 15.5043L103.006 10.9204L106.91 8.62845L110.815 15.5043Z" fill="#8C734C"/>
<path d="M109.065 19.5498L96.5426 12.2695V32.088L109.065 24.8077M99.9088 16.1793L107.718 20.7632H99.9088V16.1793ZM99.9088 28.0434V23.4596H107.718L99.9088 28.0434Z" fill="#8C734C"/>
<path d="M117.413 29.5264V44.2217L134.379 34.3799L121.856 26.9648M119.164 39.2334V30.0657L123.068 36.9415L119.164 39.2334ZM125.357 35.5933L121.453 28.7175L129.262 33.3014L125.357 35.5933Z" fill="#8C734C"/>
<path d="M123.203 19.5498V24.6729L135.725 31.9532V12.2695M132.224 28.0434L124.415 23.4596H132.224V28.0434ZM132.224 20.7632H124.415L132.224 16.1793V20.7632Z" fill="#8C734C"/>
<path d="M134.379 9.84183L117.413 0V14.6953L121.722 17.2569M119.164 4.98832L123.068 7.28026L119.164 14.1561V4.98832ZM125.357 8.62845L129.262 10.9204L121.453 15.5043L125.357 8.62845Z" fill="#8C734C"/>
<path d="M97.889 34.3799L114.855 44.2217V29.5264L110.411 26.9648M113.104 39.2334L109.199 36.9415L113.104 30.0657V39.2334ZM106.91 35.5933L103.006 33.3014L110.815 28.7175L106.91 35.5933Z" fill="#8C734C"/>
<path d="M21.6783 84.5324C21.6783 91.543 21.6783 97.6099 21.2744 100.846C21.0051 103.003 20.6011 104.755 18.9854 105.025C18.3121 105.16 17.3696 105.295 16.2924 105.295C15.3499 105.295 15.0806 105.564 15.0806 105.969C15.0806 106.508 15.6192 106.778 16.5617 106.778C19.6586 106.778 24.5059 106.508 26.2564 106.508C28.4107 106.508 33.2581 106.778 38.3747 106.778C39.1826 106.778 39.8558 106.508 39.8558 105.969C39.8558 105.564 39.4519 105.295 38.644 105.295C37.4321 105.295 35.8164 105.16 34.7392 105.025C32.4502 104.755 32.0462 103.003 31.7769 100.846C31.373 97.475 31.373 91.543 31.373 84.3975V52.9846L41.0676 53.2542C47.9347 53.389 49.9544 55.5462 50.0891 57.5684L50.2237 58.3774C50.3584 59.5907 50.493 59.8604 51.0316 59.8604C51.4355 59.8604 51.7048 59.4559 51.7048 58.647C51.7048 56.6247 51.9741 51.3667 51.9741 49.7489C51.9741 48.5355 51.8395 48.1311 51.3009 48.1311C50.6277 48.1311 48.8772 48.94 43.8952 48.94H13.4648C10.9065 48.94 8.07888 48.8052 5.78987 48.5355C3.90479 48.4007 3.0969 47.5918 2.42366 47.5918C2.01972 47.5918 1.75042 47.9963 1.48113 49.0748C1.48113 49.7489 0 56.7595 0 57.9729C0 58.7818 0.134648 59.1863 0.67324 59.1863C1.07718 59.1863 1.34648 58.9166 1.48113 58.2425C1.61578 57.5684 2.01972 56.7595 2.82761 55.5462C4.03944 53.9283 5.78986 53.5239 10.2332 53.389L21.6783 53.1194" fill="#8C734C"/>
<path d="M79.8463 86.8245L80.5195 87.3638L86.5787 103.677C86.9827 104.621 86.4441 105.295 85.9055 105.43C85.0976 105.564 84.8283 105.699 84.8283 106.104C84.8283 106.643 85.7708 106.643 87.1173 106.778C93.1764 106.913 98.5624 106.913 101.255 106.913C104.083 106.913 104.756 106.778 104.756 106.104C104.756 105.564 104.352 105.43 103.814 105.43C102.871 105.43 101.794 105.295 100.717 105.16C99.101 104.755 96.9466 103.677 94.119 96.8011C89.2717 85.0718 77.288 53.7937 75.5376 49.4795C74.7297 47.7268 74.3257 47.0527 73.6525 47.0527C72.8446 47.0527 72.4407 47.8617 71.4981 50.1536L52.6474 98.419C51.1663 102.329 49.6852 104.89 46.319 105.295C45.7804 105.43 44.7032 105.43 44.0299 105.43C43.4913 105.43 43.0874 105.564 43.0874 106.104C43.0874 106.778 43.4913 106.913 44.5685 106.913C48.4733 106.913 52.6474 106.643 53.4553 106.643C55.7443 106.643 58.9759 106.913 61.3995 106.913C62.2074 106.913 62.6114 106.778 62.6114 106.104C62.6114 105.699 62.3421 105.43 61.5342 105.43H60.457C58.168 105.43 57.4947 104.486 57.4947 103.003C57.4947 102.059 57.8987 100.306 58.5719 98.2842L62.6114 87.2289C62.746 86.8245 62.8807 86.5549 63.2846 86.5549M64.6311 82.9147L64.3618 82.3754L71.2288 63.5007L71.6328 62.8266L72.0367 63.5007L78.7691 82.5103L78.3652 82.9147H64.6311Z" fill="#8C734C"/>
<path d="M112.431 93.4299C112.431 108.53 112.566 116.214 106.911 122.146C105.429 123.629 104.352 124.573 103.41 125.112C102.198 125.787 101.794 126.056 101.794 126.461L102.333 127.135C102.736 127.135 103.275 127 103.814 126.73C105.295 125.921 106.507 125.382 107.449 124.708C114.451 120.124 118.356 114.866 119.971 110.147C121.453 105.833 121.722 100.845 121.722 96.5307C121.722 92.7557 121.453 88.9808 121.453 85.7451V71.3194C121.453 59.5901 121.453 57.433 121.587 55.0063C121.722 52.3099 122.26 50.9617 124.28 50.692C125.223 50.5572 125.627 50.4224 126.435 50.4224C127.377 50.4224 127.781 50.2876 127.781 49.7483C127.781 49.209 127.242 49.0742 126.165 49.0742C123.338 49.0742 118.625 49.3439 116.875 49.3439C114.989 49.3439 110.277 49.0742 106.507 49.0742C105.429 49.0742 104.891 49.209 104.891 49.7483C104.891 50.2876 105.295 50.4224 106.103 50.4224C107.18 50.4224 108.392 50.5572 108.93 50.692C111.354 51.2313 111.893 52.4447 112.027 55.0063C112.162 57.433 112.162 59.5901 112.162 71.3194" fill="#8C734C"/>
</g>
<defs>
<clipPath id="clip0_76_1470">
<rect width="135.725" height="127" fill="white"/>
</clipPath>
</defs>
</svg>
