<svg width="79" height="25" viewBox="0 0 79 25" fill="none" xmlns="http://www.w3.org/2000/svg">
<path d="M51.472 0C45.87 0 40.8403 2.85294 40.8403 8.08824C40.8403 14.1176 49.7251 14.5294 49.7251 17.5294C49.7251 18.7941 48.2192 19.9412 45.6893 19.9412C42.0751 19.9412 39.3645 18.3529 39.3645 18.3529L38.22 23.6471C38.22 23.6471 41.3222 25 45.4785 25C51.6226 25 56.4415 22.0294 56.4415 16.6765C56.4415 10.3235 47.5265 9.91177 47.5265 7.11765C47.5265 6.11765 48.7613 5.02941 51.2913 5.02941C54.1525 5.02941 56.5017 6.17647 56.5017 6.17647L57.6462 1.05882C57.6161 1.05882 55.056 0 51.472 0ZM0.150591 0.382353L0 1.14706C0 1.14706 2.34922 1.55882 4.48761 2.41176C7.22836 3.38235 7.40907 3.94118 7.89096 5.67647L12.9207 24.5882H19.6672L29.9977 0.382353H23.2814L16.6252 16.8529L13.9146 2.88235C13.6737 1.29412 12.4087 0.382353 10.8425 0.382353H0.150591ZM32.7083 0.382353L27.4377 24.5882H33.8528L39.0934 0.382353H32.7083ZM68.4285 0.382353C66.8925 0.382353 66.0793 1.17647 65.4769 2.58824L56.0801 24.5882H62.7964L64.0915 20.9118H72.2836L73.0667 24.5882H79L73.8498 0.382353H68.4285ZM69.3019 6.94118L71.2897 16.0294H65.9588L69.3019 6.94118Z" fill="#1434CB"/>
</svg>
